<?xml version="1.0" encoding="UTF-8" standalone="no"?>
<!DOCTYPE score-partwise PUBLIC "-//Recordare//DTD MusicXML 2.0 Partwise//EN" "http://www.musicxml.org/dtds/partwise.dtd">
<score-partwise version="2.0">
	<work>
		<work-title>Come, Ye Thankful People Come</work-title>
	</work>
	<identification>
		<encoding>
			<software>PDFtoMusic Pro v1.6.5 Build 1B9E7 (c) Myriad - http://www.myriad-online.com</software>
			<?PDFtoMusic Document type 0100- 00000000?>
			<supports attribute="new-system" element="print" type="yes" value="yes"/>
			<supports attribute="new-page" element="print" type="yes" value="yes"/>
		</encoding>
	</identification>
	<defaults>
		<scaling>
			<millimeters>6.237647</millimeters>
			<tenths>40</tenths>
		</scaling>
		<page-layout>
			<page-height>1468.200</page-height>
			<page-width>956.931</page-width>
			<page-margins type="both">
				<left-margin>64.127</left-margin>
				<right-margin>64.127</right-margin>
				<top-margin>64.127</top-margin>
				 <bottom-margin>64.127</bottom-margin>
			</page-margins>
		</page-layout>
		<appearance>
			<line-width type="stem">0.9375</line-width>
			<line-width type="staff">0.9375</line-width>
			<line-width type="light barline">1.4547</line-width>
			<line-width type="heavy barline">5.0002</line-width>
			<line-width type="leger">1.5625</line-width>
		</appearance>
	</defaults>
	<credit page="1">
		<credit-words  default-x="173.445" default-y="1314.274" justify="left" valign="baseline" font-family="Times New Roman" font-size="20" font-weight="normal" font-style="normal">Come, Ye Thankful People Come</credit-words>
	</credit>
	<credit page="1">
		<credit-words  default-x="439.234" default-y="126.940" justify="left" valign="baseline" font-family="Times New Roman" font-size="6" font-weight="normal" font-style="italic">Hymnary.org</credit-words>
	</credit>
	<part-list>
		<score-part id="P1">
			<part-name></part-name>
			<score-instrument id="P1-I1">
				<instrument-name>Instrument 1</instrument-name>
			</score-instrument>
			<midi-instrument id="P1-I1">
				<midi-channel>1</midi-channel>
				<midi-bank>2</midi-bank>
				<midi-program>53</midi-program>
				<volume>50</volume>
				<pan>0</pan>
				<elevation>0</elevation>
				<?Myriad
				<iddigit>5210</iddigit>
				?>
			</midi-instrument>
		</score-part>
	</part-list>
	<part id="P1">
		<!--==========================[1,1]=============================-->
		<measure number="1" width="303">
			<print new-page="yes">
				<system-layout>
					<system-margins>
						<left-margin>48.378</left-margin>
						<right-margin>48.638</right-margin>
					</system-margins>
					<top-system-distance>179.779</top-system-distance>
				</system-layout>
			</print>
			<barline location="left">
				<repeat direction="forward"/>
			</barline>
			<attributes>
				<divisions>6720</divisions>
				<key>
					<fifths>-1</fifths>
					<mode>major</mode>
				</key>
				<time>
					<beats>4</beats>
					<beat-type>4</beat-type>
				</time>
				<clef number="1">
					<sign>G</sign>
					<line>2</line>
				</clef>
				<staff-details number="1" print-object="yes">
					<staff-lines>5</staff-lines>
					<staff-size>100.00</staff-size>
				</staff-details>
			</attributes>
			<note>
				<pitch>
					<step>A</step>
					<octave>4</octave>
				</pitch>
				<duration>10080</duration>
				<voice>1</voice>
				<type>quarter</type>
				<dot/>
				<stem default-y="9.53">up</stem>
				<notations>
					<technical>
						<fingering placement="below" relative-x="-6.61" relative-y="-29.62">1</fingering>
					</technical>
				</notations>
				<lyric number="1" justify="right" default-y="-76.32">
					<syllabic>single</syllabic>
					<text font-family="Times New Roman" font-size="10" font-weight="normal" font-style="normal" xml:lang="en">
. Come,ye</text>
				</lyric>
				<lyric number="2" justify="right" default-y="-101.32">
					<syllabic>single</syllabic>
					<text font-family="Times New Roman" font-size="10" font-weight="normal" font-style="normal" xml:lang="en">
2. All</text>
				</lyric>
				<lyric number="3" justify="right" default-y="-126.32">
					<syllabic>single</syllabic>
					<text font-family="Times New Roman" font-size="10" font-weight="normal" font-style="normal" xml:lang="en">
3. For</text>
				</lyric>
				<lyric number="4" justify="right" default-y="-151.32">
					<syllabic>begin</syllabic>
					<text font-family="Times New Roman" font-size="10" font-weight="normal" font-style="normal" xml:lang="en">
4. E</text>
				</lyric>
			</note>
			<note>
				<pitch>
					<step>A</step>
					<octave>4</octave>
				</pitch>
				<duration>3360</duration>
				<voice>1</voice>
				<type>eighth</type>
				<stem default-y="9.53">up</stem>
				<lyric number="2" justify="center" default-y="-101.32">
					<syllabic>end</syllabic>
					<text font-family="Times New Roman" font-size="10" font-weight="normal" font-style="normal" xml:lang="en">the</text>
				</lyric>
				<lyric number="3" justify="center" default-y="-126.32">
					<syllabic>single</syllabic>
					<text font-family="Times New Roman" font-size="10" font-weight="normal" font-style="normal" xml:lang="en">the</text>
				</lyric>
				<lyric number="4" justify="center" default-y="-151.32">
					<syllabic>single</syllabic>
					<text font-family="Times New Roman" font-size="10" font-weight="normal" font-style="normal" xml:lang="en">ven</text>
				</lyric>
			</note>
			<note>
				<pitch>
					<step>C</step>
					<octave>5</octave>
				</pitch>
				<duration>6720</duration>
				<voice>1</voice>
				<type>quarter</type>
				<stem default-y="-50.47">down</stem>
				<lyric number="1" justify="center" default-y="-76.32">
					<syllabic>begin</syllabic>
					<text font-family="Times New Roman" font-size="10" font-weight="normal" font-style="normal" xml:lang="en">thank</text>
				</lyric>
				<lyric number="2" justify="center" default-y="-101.32">
					<syllabic>end</syllabic>
					<text font-family="Times New Roman" font-size="10" font-weight="normal" font-style="normal" xml:lang="en">world</text>
				</lyric>
				<lyric number="3" justify="center" default-y="-126.32">
					<syllabic>single</syllabic>
					<text font-family="Times New Roman" font-size="10" font-weight="normal" font-style="normal" xml:lang="en">Lord</text>
				</lyric>
				<lyric number="4" justify="center" default-y="-151.32">
					<syllabic>single</syllabic>
					<text font-family="Times New Roman" font-size="10" font-weight="normal" font-style="normal" xml:lang="en">so,</text>
				</lyric>
			</note>
			<note>
				<pitch>
					<step>A</step>
					<octave>4</octave>
				</pitch>
				<duration>6720</duration>
				<voice>1</voice>
				<type>quarter</type>
				<stem default-y="9.53">up</stem>
				<lyric number="1" justify="right" default-y="-76.32">
					<syllabic>single</syllabic>
					<text font-family="Times New Roman" font-size="10" font-weight="normal" font-style="normal" xml:lang="en">ful</text>
				</lyric>
				<lyric number="2" justify="center" default-y="-101.32">
					<syllabic>single</syllabic>
					<text font-family="Times New Roman" font-size="10" font-weight="normal" font-style="normal" xml:lang="en">is</text>
				</lyric>
				<lyric number="3" justify="center" default-y="-126.32">
					<syllabic>single</syllabic>
					<text font-family="Times New Roman" font-size="10" font-weight="normal" font-style="normal" xml:lang="en">our</text>
				</lyric>
				<lyric number="4" justify="center" default-y="-151.32">
					<syllabic>single</syllabic>
					<text font-family="Times New Roman" font-size="10" font-weight="normal" font-style="normal" xml:lang="en">Lord,</text>
				</lyric>
			</note>
		</measure>
		<!--==========================[1,2]=============================-->
		<measure number="2" width="204">
			<note>
				<pitch>
					<step>F</step>
					<octave>4</octave>
				</pitch>
				<duration>6720</duration>
				<voice>1</voice>
				<type>quarter</type>
				<stem default-y="-0.47">up</stem>
				<lyric number="1" justify="center" default-y="-76.32">
					<syllabic>begin</syllabic>
					<text font-family="Times New Roman" font-size="10" font-weight="normal" font-style="normal" xml:lang="en">peo</text>
				</lyric>
				<lyric number="2" justify="center" default-y="-101.32">
					<syllabic>end</syllabic>
					<text font-family="Times New Roman" font-size="10" font-weight="normal" font-style="normal" xml:lang="en">God's</text>
				</lyric>
				<lyric number="3" justify="center" default-y="-126.32">
					<syllabic>single</syllabic>
					<text font-family="Times New Roman" font-size="10" font-weight="normal" font-style="normal" xml:lang="en">God</text>
				</lyric>
				<lyric number="4" justify="center" default-y="-151.32">
					<syllabic>begin</syllabic>
					<text font-family="Times New Roman" font-size="10" font-weight="normal" font-style="normal" xml:lang="en">quick</text>
				</lyric>
			</note>
			<note>
				<pitch>
					<step>G</step>
					<octave>4</octave>
				</pitch>
				<duration>6720</duration>
				<voice>1</voice>
				<type>quarter</type>
				<stem default-y="4.53">up</stem>
				<lyric number="1" justify="center" default-y="-76.32">
					<syllabic>end</syllabic>
					<text font-family="Times New Roman" font-size="10" font-weight="normal" font-style="normal" xml:lang="en">ple,</text>
				</lyric>
				<lyric number="2" justify="center" default-y="-101.32">
					<syllabic>single</syllabic>
					<text font-family="Times New Roman" font-size="10" font-weight="normal" font-style="normal" xml:lang="en">own</text>
				</lyric>
				<lyric number="3" justify="center" default-y="-126.32">
					<syllabic>single</syllabic>
					<text font-family="Times New Roman" font-size="10" font-weight="normal" font-style="normal" xml:lang="en">shall</text>
				</lyric>
				<lyric number="4" justify="center" default-y="-151.32">
					<syllabic>single</syllabic>
					<text font-family="Times New Roman" font-size="10" font-weight="normal" font-style="normal" xml:lang="en">ly</text>
				</lyric>
			</note>
			<note>
				<pitch>
					<step>A</step>
					<octave>4</octave>
				</pitch>
				<duration>13440</duration>
				<voice>1</voice>
				<type>half</type>
				<stem default-y="9.53">up</stem>
				<lyric number="1" justify="center" default-y="-76.32">
					<syllabic>single</syllabic>
					<text font-family="Times New Roman" font-size="10" font-weight="normal" font-style="normal" xml:lang="en">come,</text>
				</lyric>
				<lyric number="2" justify="center" default-y="-101.32">
					<syllabic>single</syllabic>
					<text font-family="Times New Roman" font-size="10" font-weight="normal" font-style="normal" xml:lang="en">field,</text>
				</lyric>
				<lyric number="3" justify="center" default-y="-126.32">
					<syllabic>single</syllabic>
					<text font-family="Times New Roman" font-size="10" font-weight="normal" font-style="normal" xml:lang="en">come,</text>
				</lyric>
				<lyric number="4" justify="center" default-y="-151.32">
					<syllabic>single</syllabic>
					<text font-family="Times New Roman" font-size="10" font-weight="normal" font-style="normal" xml:lang="en">come,</text>
				</lyric>
			</note>
		</measure>
		<!--==========================[1,3]=============================-->
		<measure number="3" width="222">
			<note>
				<pitch>
					<step>A</step>
					<octave>4</octave>
				</pitch>
				<duration>10080</duration>
				<voice>1</voice>
				<type>quarter</type>
				<dot/>
				<stem default-y="9.53">up</stem>
				<lyric number="1" justify="center" default-y="-76.32">
					<syllabic>single</syllabic>
					<text font-family="Times New Roman" font-size="10" font-weight="normal" font-style="normal" xml:lang="en">raise</text>
				</lyric>
				<lyric number="2" justify="center" default-y="-101.32">
					<syllabic>single</syllabic>
					<text font-family="Times New Roman" font-size="10" font-weight="normal" font-style="normal" xml:lang="en">fruit</text>
				</lyric>
				<lyric number="3" justify="center" default-y="-126.32">
					<syllabic>single</syllabic>
					<text font-family="Times New Roman" font-size="10" font-weight="normal" font-style="normal" xml:lang="en">and</text>
				</lyric>
				<lyric number="4" justify="center" default-y="-151.32">
					<syllabic>single</syllabic>
					<text font-family="Times New Roman" font-size="10" font-weight="normal" font-style="normal" xml:lang="en">bring</text>
				</lyric>
			</note>
			<note>
				<pitch>
					<step>A</step>
					<octave>4</octave>
				</pitch>
				<duration>3360</duration>
				<voice>1</voice>
				<type>eighth</type>
				<stem default-y="9.53">up</stem>
				<lyric number="1" justify="center" default-y="-76.32">
					<syllabic>single</syllabic>
					<text font-family="Times New Roman" font-size="10" font-weight="normal" font-style="normal" xml:lang="en">the</text>
				</lyric>
				<lyric number="2" justify="center" default-y="-101.32">
					<syllabic>single</syllabic>
					<text font-family="Times New Roman" font-size="10" font-weight="normal" font-style="normal" xml:lang="en">as</text>
				</lyric>
				<lyric number="3" justify="center" default-y="-126.32">
					<syllabic>single</syllabic>
					<text font-family="Times New Roman" font-size="10" font-weight="normal" font-style="normal" xml:lang="en">shall</text>
				</lyric>
				<lyric number="4" justify="center" default-y="-151.32">
					<syllabic>single</syllabic>
					<text font-family="Times New Roman" font-size="10" font-weight="normal" font-style="normal" xml:lang="en">thy</text>
				</lyric>
			</note>
			<note>
				<pitch>
					<step>C</step>
					<octave>5</octave>
				</pitch>
				<duration>6720</duration>
				<voice>1</voice>
				<type>quarter</type>
				<stem default-y="-50.47">down</stem>
				<lyric number="1" justify="center" default-y="-76.32">
					<syllabic>single</syllabic>
					<text font-family="Times New Roman" font-size="10" font-weight="normal" font-style="normal" xml:lang="en">song</text>
				</lyric>
				<lyric number="2" justify="center" default-y="-101.32">
					<syllabic>single</syllabic>
					<text font-family="Times New Roman" font-size="10" font-weight="normal" font-style="normal" xml:lang="en">praise</text>
				</lyric>
				<lyric number="3" justify="center" default-y="-126.32">
					<syllabic>single</syllabic>
					<text font-family="Times New Roman" font-size="10" font-weight="normal" font-style="normal" xml:lang="en">take</text>
				</lyric>
				<lyric number="4" justify="center" default-y="-151.32">
					<syllabic>begin</syllabic>
					<text font-family="Times New Roman" font-size="10" font-weight="normal" font-style="normal" xml:lang="en">fi</text>
				</lyric>
			</note>
			<note>
				<pitch>
					<step>A</step>
					<octave>4</octave>
				</pitch>
				<duration>6720</duration>
				<voice>1</voice>
				<type>quarter</type>
				<stem default-y="9.53">up</stem>
				<lyric number="1" justify="center" default-y="-76.32">
					<syllabic>end</syllabic>
					<text font-family="Times New Roman" font-size="10" font-weight="normal" font-style="normal" xml:lang="en">of</text>
				</lyric>
				<lyric number="2" justify="center" default-y="-101.32">
					<syllabic>single</syllabic>
					<text font-family="Times New Roman" font-size="10" font-weight="normal" font-style="normal" xml:lang="en">to</text>
				</lyric>
				<lyric number="3" justify="center" default-y="-126.32">
					<syllabic>single</syllabic>
					<text font-family="Times New Roman" font-size="10" font-weight="normal" font-style="normal" xml:lang="en">the</text>
				</lyric>
				<lyric number="4" justify="center" default-y="-151.32">
					<syllabic>single</syllabic>
					<text font-family="Times New Roman" font-size="10" font-weight="normal" font-style="normal" xml:lang="en">nal</text>
				</lyric>
			</note>
		</measure>
		<!--==========================[1,4]=============================-->
		<measure number="4" width="226">
			<print new-system="yes">
				<system-layout>
					<system-margins>
						<left-margin>48.378</left-margin>
						<right-margin>48.638</right-margin>
					</system-margins>
					<system-distance>173.125</system-distance>
				</system-layout>
			</print>
			<attributes>
				<staff-details number="1" print-object="yes">
				</staff-details>
			</attributes>
			<note>
				<pitch>
					<step>F</step>
					<octave>4</octave>
				</pitch>
				<duration>6720</duration>
				<voice>1</voice>
				<type>quarter</type>
				<stem default-y="-0.47">up</stem>
				<lyric number="1" justify="center" default-y="-76.32">
					<syllabic>begin</syllabic>
					<text font-family="Times New Roman" font-size="10" font-weight="normal" font-style="normal" xml:lang="en">harv</text>
				</lyric>
				<lyric number="2" justify="center" default-y="-101.32">
					<syllabic>end</syllabic>
					<text font-family="Times New Roman" font-size="10" font-weight="normal" font-style="normal" xml:lang="en">
God</text>
				</lyric>
				<lyric number="3" justify="center" default-y="-126.32">
					<syllabic>begin</syllabic>
					<text font-family="Times New Roman" font-size="10" font-weight="normal" font-style="normal" xml:lang="en">harv</text>
				</lyric>
				<lyric number="4" justify="center" default-y="-151.32">
					<syllabic>middle</syllabic>
					<text font-family="Times New Roman" font-size="10" font-weight="normal" font-style="normal" xml:lang="en">harv</text>
				</lyric>
			</note>
			<note>
				<pitch>
					<step>G</step>
					<octave>4</octave>
				</pitch>
				<duration>6720</duration>
				<voice>1</voice>
				<type>quarter</type>
				<stem default-y="4.53">up</stem>
				<lyric number="1" justify="right" default-y="-76.32">
					<syllabic>end</syllabic>
					<text font-family="Times New Roman" font-size="10" font-weight="normal" font-style="normal" xml:lang="en">est</text>
				</lyric>
				<lyric number="2" justify="center" default-y="-101.32">
					<syllabic>single</syllabic>
					<text font-family="Times New Roman" font-size="10" font-weight="normal" font-style="normal" xml:lang="en">we</text>
				</lyric>
				<lyric number="3" justify="right" default-y="-126.32">
					<syllabic>single</syllabic>
					<text font-family="Times New Roman" font-size="10" font-weight="normal" font-style="normal" xml:lang="en">est</text>
				</lyric>
				<lyric number="4" justify="right" default-y="-151.32">
					<syllabic>single</syllabic>
					<text font-family="Times New Roman" font-size="10" font-weight="normal" font-style="normal" xml:lang="en">est</text>
				</lyric>
			</note>
			<note>
				<pitch>
					<step>A</step>
					<octave>4</octave>
				</pitch>
				<duration>13440</duration>
				<voice>1</voice>
				<type>half</type>
				<stem default-y="9.53">up</stem>
				<lyric number="1" justify="center" default-y="-76.32">
					<syllabic>single</syllabic>
					<text font-family="Times New Roman" font-size="10" font-weight="normal" font-style="normal" xml:lang="en">home;</text>
				</lyric>
				<lyric number="2" justify="center" default-y="-101.32">
					<syllabic>single</syllabic>
					<text font-family="Times New Roman" font-size="10" font-weight="normal" font-style="normal" xml:lang="en">yield;</text>
				</lyric>
				<lyric number="3" justify="center" default-y="-126.32">
					<syllabic>single</syllabic>
					<text font-family="Times New Roman" font-size="10" font-weight="normal" font-style="normal" xml:lang="en">home;</text>
				</lyric>
				<lyric number="4" justify="center" default-y="-151.32">
					<syllabic>single</syllabic>
					<text font-family="Times New Roman" font-size="10" font-weight="normal" font-style="normal" xml:lang="en">home;</text>
				</lyric>
			</note>
		</measure>
		<!--==========================[1,5]=============================-->
		<measure number="5" width="205">
			<note>
				<pitch>
					<step>A</step>
					<octave>4</octave>
				</pitch>
				<duration>10080</duration>
				<voice>1</voice>
				<type>quarter</type>
				<dot/>
				<stem default-y="9.53">up</stem>
				<lyric number="1" justify="center" default-y="-76.32">
					<syllabic>single</syllabic>
					<text font-family="Times New Roman" font-size="10" font-weight="normal" font-style="normal" xml:lang="en">all</text>
				</lyric>
				<lyric number="2" justify="center" default-y="-101.32">
					<syllabic>single</syllabic>
					<text font-family="Times New Roman" font-size="10" font-weight="normal" font-style="normal" xml:lang="en">wheat</text>
				</lyric>
				<lyric number="3" justify="center" default-y="-126.32">
					<syllabic>single</syllabic>
					<text font-family="Times New Roman" font-size="10" font-weight="normal" font-style="normal" xml:lang="en">from</text>
				</lyric>
				<lyric number="4" justify="center" default-y="-151.32">
					<syllabic>begin</syllabic>
					<text font-family="Times New Roman" font-size="10" font-weight="normal" font-style="normal" xml:lang="en">ga</text>
				</lyric>
			</note>
			<note>
				<pitch>
					<step>A</step>
					<octave>4</octave>
				</pitch>
				<duration>3360</duration>
				<voice>1</voice>
				<type>eighth</type>
				<stem default-y="9.53">up</stem>
				<lyric number="1" justify="center" default-y="-76.32">
					<syllabic>end</syllabic>
					<text font-family="Times New Roman" font-size="10" font-weight="normal" font-style="normal" xml:lang="en">is</text>
				</lyric>
				<lyric number="2" justify="center" default-y="-101.32">
					<syllabic>single</syllabic>
					<text font-family="Times New Roman" font-size="10" font-weight="normal" font-style="normal" xml:lang="en">and</text>
				</lyric>
				<lyric number="3" justify="center" default-y="-126.32">
					<syllabic>single</syllabic>
					<text font-family="Times New Roman" font-size="10" font-weight="normal" font-style="normal" xml:lang="en">the</text>
				</lyric>
				<lyric number="4" justify="center" default-y="-151.32">
					<syllabic>single</syllabic>
					<text font-family="Times New Roman" font-size="10" font-weight="normal" font-style="normal" xml:lang="en">ther</text>
				</lyric>
			</note>
			<note>
				<pitch>
					<step>B</step>
					<alter>-1</alter>
					<octave>4</octave>
				</pitch>
				<duration>6720</duration>
				<voice>1</voice>
				<type>quarter</type>
				<stem default-y="-55.47">down</stem>
				<lyric number="1" justify="center" default-y="-76.32">
					<syllabic>begin</syllabic>
					<text font-family="Times New Roman" font-size="10" font-weight="normal" font-style="normal" xml:lang="en">safe</text>
				</lyric>
				<lyric number="2" justify="center" default-y="-101.32">
					<syllabic>end</syllabic>
					<text font-family="Times New Roman" font-size="10" font-weight="normal" font-style="normal" xml:lang="en">tares</text>
				</lyric>
				<lyric number="3" justify="center" default-y="-126.32">
					<syllabic>single</syllabic>
					<text font-family="Times New Roman" font-size="10" font-weight="normal" font-style="normal" xml:lang="en">field</text>
				</lyric>
				<lyric number="4" justify="center" default-y="-151.32">
					<syllabic>single</syllabic>
					<text font-family="Times New Roman" font-size="10" font-weight="normal" font-style="normal" xml:lang="en">thou</text>
				</lyric>
			</note>
			<note>
				<pitch>
					<step>B</step>
					<alter>-1</alter>
					<octave>4</octave>
				</pitch>
				<duration>6720</duration>
				<voice>1</voice>
				<type>quarter</type>
				<stem default-y="-55.47">down</stem>
				<lyric number="1" justify="center" default-y="-76.32">
					<syllabic>single</syllabic>
					<text font-family="Times New Roman" font-size="10" font-weight="normal" font-style="normal" xml:lang="en">ly</text>
				</lyric>
				<lyric number="2" justify="center" default-y="-101.32">
					<syllabic>begin</syllabic>
					<text font-family="Times New Roman" font-size="10" font-weight="normal" font-style="normal" xml:lang="en">to</text>
				</lyric>
				<lyric number="3" justify="center" default-y="-126.32">
					<syllabic>end</syllabic>
					<text font-family="Times New Roman" font-size="10" font-weight="normal" font-style="normal" xml:lang="en">shall</text>
				</lyric>
				<lyric number="4" justify="center" default-y="-151.32">
					<syllabic>single</syllabic>
					<text font-family="Times New Roman" font-size="10" font-weight="normal" font-style="normal" xml:lang="en">thy</text>
				</lyric>
			</note>
		</measure>
		<!--==========================[1,6]=============================-->
		<measure number="6" width="188">
			<note>
				<pitch>
					<step>G</step>
					<octave>4</octave>
				</pitch>
				<duration>10080</duration>
				<voice>1</voice>
				<type>quarter</type>
				<dot/>
				<stem default-y="4.53">up</stem>
				<lyric number="1" justify="center" default-y="-76.32">
					<syllabic>begin</syllabic>
					<text font-family="Times New Roman" font-size="10" font-weight="normal" font-style="normal" xml:lang="en">ga</text>
				</lyric>
				<lyric number="2" justify="center" default-y="-101.32">
					<syllabic>middle</syllabic>
					<text font-family="Times New Roman" font-size="10" font-weight="normal" font-style="normal" xml:lang="en">ge</text>
				</lyric>
				<lyric number="3" justify="center" default-y="-126.32">
					<syllabic>end</syllabic>
					<text font-family="Times New Roman" font-size="10" font-weight="normal" font-style="normal" xml:lang="en">in</text>
				</lyric>
				<lyric number="4" justify="center" default-y="-151.32">
					<syllabic>begin</syllabic>
					<text font-family="Times New Roman" font-size="10" font-weight="normal" font-style="normal" xml:lang="en">peo</text>
				</lyric>
			</note>
			<note>
				<pitch>
					<step>G</step>
					<octave>4</octave>
				</pitch>
				<duration>3360</duration>
				<voice>1</voice>
				<type>eighth</type>
				<stem default-y="4.53">up</stem>
				<lyric number="1" justify="center" default-y="-76.32">
					<syllabic>end</syllabic>
					<text font-family="Times New Roman" font-size="10" font-weight="normal" font-style="normal" xml:lang="en">thered</text>
				</lyric>
				<lyric number="2" justify="center" default-y="-101.32">
					<syllabic>single</syllabic>
					<text font-family="Times New Roman" font-size="10" font-weight="normal" font-style="normal" xml:lang="en">ther</text>
				</lyric>
				<lyric number="3" justify="center" default-y="-126.32">
					<syllabic>single</syllabic>
					<text font-family="Times New Roman" font-size="10" font-weight="normal" font-style="normal" xml:lang="en">that</text>
				</lyric>
				<lyric number="4" justify="center" default-y="-151.32">
					<syllabic>single</syllabic>
					<text font-family="Times New Roman" font-size="10" font-weight="normal" font-style="normal" xml:lang="en">ple</text>
				</lyric>
			</note>
			<note>
				<pitch>
					<step>A</step>
					<octave>4</octave>
				</pitch>
				<duration>13440</duration>
				<voice>1</voice>
				<type>half</type>
				<stem default-y="9.53">up</stem>
				<lyric number="1" justify="center" default-y="-76.32">
					<syllabic>single</syllabic>
					<text font-family="Times New Roman" font-size="10" font-weight="normal" font-style="normal" xml:lang="en">in,</text>
				</lyric>
				<lyric number="2" justify="center" default-y="-101.32">
					<syllabic>single</syllabic>
					<text font-family="Times New Roman" font-size="10" font-weight="normal" font-style="normal" xml:lang="en">sown</text>
				</lyric>
				<lyric number="3" justify="center" default-y="-126.32">
					<syllabic>single</syllabic>
					<text font-family="Times New Roman" font-size="10" font-weight="normal" font-style="normal" xml:lang="en">day</text>
				</lyric>
				<lyric number="4" justify="center" default-y="-151.32">
					<syllabic>single</syllabic>
					<text font-family="Times New Roman" font-size="10" font-weight="normal" font-style="normal" xml:lang="en">in,</text>
				</lyric>
			</note>
		</measure>
		<!--==========================[1,7]=============================-->
		<measure number="7" width="110">
			<note>
				<pitch>
					<step>A</step>
					<octave>4</octave>
				</pitch>
				<duration>6720</duration>
				<voice>1</voice>
				<type>quarter</type>
				<stem default-y="9.53">up</stem>
				<lyric number="1" justify="center" default-y="-76.32">
					<syllabic>single</syllabic>
					<text font-family="Times New Roman" font-size="10" font-weight="normal" font-style="normal" xml:lang="en">ere</text>
				</lyric>
				<lyric number="2" justify="center" default-y="-101.32">
					<syllabic>single</syllabic>
					<text font-family="Times New Roman" font-size="10" font-weight="normal" font-style="normal" xml:lang="en">are</text>
				</lyric>
				<lyric number="3" justify="center" default-y="-126.32">
					<syllabic>single</syllabic>
					<text font-family="Times New Roman" font-size="10" font-weight="normal" font-style="normal" xml:lang="en">all</text>
				</lyric>
				<lyric number="4" justify="center" default-y="-151.32">
					<syllabic>single</syllabic>
					<text font-family="Times New Roman" font-size="10" font-weight="normal" font-style="normal" xml:lang="en">free</text>
				</lyric>
			</note>
			<note>
				<pitch>
					<step>B</step>
					<octave>4</octave>
				</pitch>
				<duration>6720</duration>
				<voice>1</voice>
				<type>quarter</type>
				<accidental>natural</accidental>
				<stem default-y="-55.47">down</stem>
				<lyric number="1" justify="center" default-y="-76.32">
					<syllabic>single</syllabic>
					<text font-family="Times New Roman" font-size="10" font-weight="normal" font-style="normal" xml:lang="en">the</text>
				</lyric>
				<lyric number="2" justify="center" default-y="-101.32">
					<syllabic>single</syllabic>
					<text font-family="Times New Roman" font-size="10" font-weight="normal" font-style="normal" xml:lang="en">to</text>
				</lyric>
				<lyric number="3" justify="center" default-y="-126.32">
					<syllabic>begin</syllabic>
					<text font-family="Times New Roman" font-size="10" font-weight="normal" font-style="normal" xml:lang="en">of</text>
				</lyric>
				<lyric number="4" justify="center" default-y="-151.32">
					<syllabic>end</syllabic>
					<text font-family="Times New Roman" font-size="10" font-weight="normal" font-style="normal" xml:lang="en">from</text>
				</lyric>
			</note>
		</measure>
		<!--==========================[1,8]=============================-->
		<measure number="8" width="153">
			<print new-system="yes">
				<system-layout>
					<system-margins>
						<left-margin>48.378</left-margin>
						<right-margin>48.638</right-margin>
					</system-margins>
					<system-distance>183.750</system-distance>
				</system-layout>
			</print>
			<attributes>
				<staff-details number="1" print-object="yes">
				</staff-details>
			</attributes>
			<note>
				<pitch>
					<step>C</step>
					<octave>5</octave>
				</pitch>
				<duration>6720</duration>
				<voice>1</voice>
				<type>quarter</type>
				<stem default-y="-50.47">down</stem>
				<lyric number="1" justify="center" default-y="-76.32">
					<syllabic>begin</syllabic>
					<text font-family="Times New Roman" font-size="10" font-weight="normal" font-style="normal" xml:lang="en">win</text>
				</lyric>
				<lyric number="2" justify="center" default-y="-101.32">
					<syllabic>end</syllabic>
					<text font-family="Times New Roman" font-size="10" font-weight="normal" font-style="normal" xml:lang="en">joy</text>
				</lyric>
				<lyric number="3" justify="center" default-y="-126.32">
					<syllabic>begin</syllabic>
					<text font-family="Times New Roman" font-size="10" font-weight="normal" font-style="normal" xml:lang="en">fen</text>
				</lyric>
				<lyric number="4" justify="center" default-y="-151.32">
					<syllabic>middle</syllabic>
					<text font-family="Times New Roman" font-size="10" font-weight="normal" font-style="normal" xml:lang="en">sor</text>
				</lyric>
			</note>
			<note>
				<pitch>
					<step>F</step>
					<octave>4</octave>
				</pitch>
				<duration>6720</duration>
				<voice>1</voice>
				<type>quarter</type>
				<stem default-y="-0.47">up</stem>
				<lyric number="1" justify="center" default-y="-76.32">
					<syllabic>end</syllabic>
					<text font-family="Times New Roman" font-size="10" font-weight="normal" font-style="normal" xml:lang="en">ter</text>
				</lyric>
				<lyric number="2" justify="center" default-y="-101.32">
					<syllabic>single</syllabic>
					<text font-family="Times New Roman" font-size="10" font-weight="normal" font-style="normal" xml:lang="en">or</text>
				</lyric>
				<lyric number="3" justify="center" default-y="-126.32">
					<syllabic>single</syllabic>
					<text font-family="Times New Roman" font-size="10" font-weight="normal" font-style="normal" xml:lang="en">ses</text>
				</lyric>
				<lyric number="4" justify="center" default-y="-151.32">
					<syllabic>single</syllabic>
					<text font-family="Times New Roman" font-size="10" font-weight="normal" font-style="normal" xml:lang="en">row,</text>
				</lyric>
			</note>
		</measure>
		<!--==========================[1,9]=============================-->
		<measure number="9" width="192">
			<note>
				<pitch>
					<step>E</step>
					<octave>4</octave>
				</pitch>
				<duration>6720</duration>
				<voice>1</voice>
				<type>quarter</type>
				<stem default-y="-5.47">up</stem>
				<lyric number="1" justify="center" default-y="-76.32">
					<syllabic>single</syllabic>
					<text font-family="Times New Roman" font-size="10" font-weight="normal" font-style="normal" xml:lang="en">storms</text>
				</lyric>
				<lyric number="2" justify="center" default-y="-101.32">
					<syllabic>begin</syllabic>
					<text font-family="Times New Roman" font-size="10" font-weight="normal" font-style="normal" xml:lang="en">sor</text>
				</lyric>
				<lyric number="3" justify="center" default-y="-126.32">
					<syllabic>end</syllabic>
					<text font-family="Times New Roman" font-size="10" font-weight="normal" font-style="normal" xml:lang="en">purge</text>
				</lyric>
				<lyric number="4" justify="center" default-y="-151.32">
					<syllabic>single</syllabic>
					<text font-family="Times New Roman" font-size="10" font-weight="normal" font-style="normal" xml:lang="en">free</text>
				</lyric>
			</note>
			<note>
				<pitch>
					<step>D</step>
					<octave>4</octave>
				</pitch>
				<duration>6720</duration>
				<voice>1</voice>
				<type>quarter</type>
				<stem default-y="-10.47">up</stem>
				<lyric number="1" justify="center" default-y="-76.32">
					<syllabic>begin</syllabic>
					<text font-family="Times New Roman" font-size="10" font-weight="normal" font-style="normal" xml:lang="en">be</text>
				</lyric>
				<lyric number="2" justify="center" default-y="-101.32">
					<syllabic>end</syllabic>
					<text font-family="Times New Roman" font-size="10" font-weight="normal" font-style="normal" xml:lang="en">row</text>
				</lyric>
				<lyric number="3" justify="center" default-y="-126.32">
					<syllabic>begin</syllabic>
					<text font-family="Times New Roman" font-size="10" font-weight="normal" font-style="normal" xml:lang="en">a</text>
				</lyric>
				<lyric number="4" justify="center" default-y="-151.32">
					<syllabic>end</syllabic>
					<text font-family="Times New Roman" font-size="10" font-weight="normal" font-style="normal" xml:lang="en">from</text>
				</lyric>
			</note>
			<note>
				<pitch>
					<step>C</step>
					<octave>4</octave>
				</pitch>
				<duration>13440</duration>
				<voice>1</voice>
				<type>half</type>
				<stem default-y="-15.47">up</stem>
				<lyric number="1" justify="center" default-y="-76.32">
					<syllabic>single</syllabic>
					<text font-family="Times New Roman" font-size="10" font-weight="normal" font-style="normal" xml:lang="en">gin.</text>
				</lyric>
				<lyric number="2" justify="center" default-y="-101.32">
					<syllabic>single</syllabic>
					<text font-family="Times New Roman" font-size="10" font-weight="normal" font-style="normal" xml:lang="en">grown;</text>
				</lyric>
				<lyric number="3" justify="center" default-y="-126.32">
					<syllabic>single</syllabic>
					<text font-family="Times New Roman" font-size="10" font-weight="normal" font-style="normal" xml:lang="en">way,</text>
				</lyric>
				<lyric number="4" justify="center" default-y="-151.32">
					<syllabic>single</syllabic>
					<text font-family="Times New Roman" font-size="10" font-weight="normal" font-style="normal" xml:lang="en">sin,</text>
				</lyric>
			</note>
		</measure>
		<!--==========================[1,10]=============================-->
		<measure number="10" width="209">
			<note>
				<pitch>
					<step>E</step>
					<octave>4</octave>
				</pitch>
				<duration>10080</duration>
				<voice>1</voice>
				<type>quarter</type>
				<dot/>
				<stem default-y="-5.47">up</stem>
				<lyric number="1" justify="center" default-y="-76.32">
					<syllabic>single</syllabic>
					<text font-family="Times New Roman" font-size="10" font-weight="normal" font-style="normal" xml:lang="en">
God</text>
				</lyric>
				<lyric number="2" justify="center" default-y="-101.32">
					<syllabic>single</syllabic>
					<text font-family="Times New Roman" font-size="10" font-weight="normal" font-style="normal" xml:lang="en">first</text>
				</lyric>
				<lyric number="3" justify="center" default-y="-126.32">
					<syllabic>begin</syllabic>
					<text font-family="Times New Roman" font-size="10" font-weight="normal" font-style="normal" xml:lang="en">gi</text>
				</lyric>
				<lyric number="4" justify="center" default-y="-151.32">
					<syllabic>end</syllabic>
					<text font-family="Times New Roman" font-size="10" font-weight="normal" font-style="normal" xml:lang="en">there,</text>
				</lyric>
			</note>
			<note>
				<pitch>
					<step>E</step>
					<octave>4</octave>
				</pitch>
				<duration>3360</duration>
				<voice>1</voice>
				<type>eighth</type>
				<stem default-y="-5.47">up</stem>
				<lyric number="1" justify="center" default-y="-76.32">
					<syllabic>single</syllabic>
					<text font-family="Times New Roman" font-size="10" font-weight="normal" font-style="normal" xml:lang="en">our</text>
				</lyric>
				<lyric number="2" justify="center" default-y="-101.32">
					<syllabic>single</syllabic>
					<text font-family="Times New Roman" font-size="10" font-weight="normal" font-style="normal" xml:lang="en">the</text>
				</lyric>
				<lyric number="3" justify="center" default-y="-126.32">
					<syllabic>single</syllabic>
					<text font-family="Times New Roman" font-size="10" font-weight="normal" font-style="normal" xml:lang="en">ving</text>
				</lyric>
				<lyric number="4" justify="center" default-y="-151.32">
					<syllabic>begin</syllabic>
					<text font-family="Times New Roman" font-size="10" font-weight="normal" font-style="normal" xml:lang="en">for</text>
				</lyric>
			</note>
			<note>
				<pitch>
					<step>G</step>
					<octave>4</octave>
				</pitch>
				<duration>6720</duration>
				<voice>1</voice>
				<type>quarter</type>
				<stem default-y="4.53">up</stem>
				<lyric number="1" justify="center" default-y="-76.32">
					<syllabic>middle</syllabic>
					<text font-family="Times New Roman" font-size="10" font-weight="normal" font-style="normal" xml:lang="en">Ma</text>
				</lyric>
				<lyric number="2" justify="center" default-y="-101.32">
					<syllabic>end</syllabic>
					<text font-family="Times New Roman" font-size="10" font-weight="normal" font-style="normal" xml:lang="en">blade</text>
				</lyric>
				<lyric number="3" justify="center" default-y="-126.32">
					<syllabic>begin</syllabic>
					<text font-family="Times New Roman" font-size="10" font-weight="normal" font-style="normal" xml:lang="en">an</text>
				</lyric>
				<lyric number="4" justify="center" default-y="-151.32">
					<syllabic>middle</syllabic>
					<text font-family="Times New Roman" font-size="10" font-weight="normal" font-style="normal" xml:lang="en">e</text>
				</lyric>
			</note>
			<note>
				<pitch>
					<step>E</step>
					<octave>4</octave>
				</pitch>
				<duration>6720</duration>
				<voice>1</voice>
				<type>quarter</type>
				<stem default-y="-5.47">up</stem>
				<lyric number="1" justify="center" default-y="-76.32">
					<syllabic>end</syllabic>
					<text font-family="Times New Roman" font-size="10" font-weight="normal" font-style="normal" xml:lang="en">ker</text>
				</lyric>
				<lyric number="2" justify="center" default-y="-101.32">
					<syllabic>single</syllabic>
					<text font-family="Times New Roman" font-size="10" font-weight="normal" font-style="normal" xml:lang="en">and</text>
				</lyric>
				<lyric number="3" justify="center" default-y="-126.32">
					<syllabic>single</syllabic>
					<text font-family="Times New Roman" font-size="10" font-weight="normal" font-style="normal" xml:lang="en">gels</text>
				</lyric>
				<lyric number="4" justify="center" default-y="-151.32">
					<syllabic>single</syllabic>
					<text font-family="Times New Roman" font-size="10" font-weight="normal" font-style="normal" xml:lang="en">ver</text>
				</lyric>
			</note>
		</measure>
		<!--==========================[1,11]=============================-->
		<measure number="11" width="175">
			<note>
				<pitch>
					<step>F</step>
					<octave>4</octave>
				</pitch>
				<duration>6720</duration>
				<voice>1</voice>
				<type>quarter</type>
				<stem default-y="-0.47">up</stem>
				<lyric number="1" justify="center" default-y="-76.32">
					<syllabic>single</syllabic>
					<text font-family="Times New Roman" font-size="10" font-weight="normal" font-style="normal" xml:lang="en">doth</text>
				</lyric>
				<lyric number="2" justify="center" default-y="-101.32">
					<syllabic>single</syllabic>
					<text font-family="Times New Roman" font-size="10" font-weight="normal" font-style="normal" xml:lang="en">then</text>
				</lyric>
				<lyric number="3" justify="center" default-y="-126.32">
					<syllabic>single</syllabic>
					<text font-family="Times New Roman" font-size="10" font-weight="normal" font-style="normal" xml:lang="en">charge</text>
				</lyric>
				<lyric number="4" justify="center" default-y="-151.32">
					<syllabic>begin</syllabic>
					<text font-family="Times New Roman" font-size="10" font-weight="normal" font-style="normal" xml:lang="en">pu</text>
				</lyric>
			</note>
			<note>
				<pitch>
					<step>G</step>
					<octave>4</octave>
				</pitch>
				<duration>6720</duration>
				<voice>1</voice>
				<type>quarter</type>
				<stem default-y="4.53">up</stem>
				<lyric number="1" justify="left" default-y="-76.32">
					<syllabic>middle</syllabic>
					<text font-family="Times New Roman" font-size="10" font-weight="normal" font-style="normal" xml:lang="en">pro</text>
				</lyric>
				<lyric number="2" justify="center" default-y="-101.32">
					<syllabic>end</syllabic>
					<text font-family="Times New Roman" font-size="10" font-weight="normal" font-style="normal" xml:lang="en">the</text>
				</lyric>
				<lyric number="3" justify="center" default-y="-126.32">
					<syllabic>single</syllabic>
					<text font-family="Times New Roman" font-size="10" font-weight="normal" font-style="normal" xml:lang="en">at</text>
				</lyric>
				<lyric number="4" justify="center" default-y="-151.32">
					<syllabic>begin</syllabic>
					<text font-family="Times New Roman" font-size="10" font-weight="normal" font-style="normal" xml:lang="en">ri</text>
				</lyric>
			</note>
			<note>
				<pitch>
					<step>A</step>
					<octave>4</octave>
				</pitch>
				<duration>13440</duration>
				<voice>1</voice>
				<type>half</type>
				<stem default-y="9.53">up</stem>
				<lyric number="1" justify="right" default-y="-76.32">
					<syllabic>end</syllabic>
					<text font-family="Times New Roman" font-size="10" font-weight="normal" font-style="normal" xml:lang="en">vide</text>
				</lyric>
				<lyric number="2" justify="center" default-y="-101.32">
					<syllabic>single</syllabic>
					<text font-family="Times New Roman" font-size="10" font-weight="normal" font-style="normal" xml:lang="en">ear,</text>
				</lyric>
				<lyric number="3" justify="center" default-y="-126.32">
					<syllabic>single</syllabic>
					<text font-family="Times New Roman" font-size="10" font-weight="normal" font-style="normal" xml:lang="en">last</text>
				</lyric>
				<lyric number="4" justify="center" default-y="-151.32">
					<syllabic>single</syllabic>
					<text font-family="Times New Roman" font-size="10" font-weight="normal" font-style="normal" xml:lang="en">fied,</text>
				</lyric>
			</note>
		</measure>
		<!--==========================[1,12]=============================-->
		<measure number="12" width="290">
			<print new-system="yes">
				<system-layout>
					<system-margins>
						<left-margin>48.378</left-margin>
						<right-margin>48.638</right-margin>
					</system-margins>
					<system-distance>180.937</system-distance>
				</system-layout>
			</print>
			<attributes>
				<staff-details number="1" print-object="yes">
				</staff-details>
			</attributes>
			<note>
				<pitch>
					<step>A</step>
					<octave>4</octave>
				</pitch>
				<duration>10080</duration>
				<voice>1</voice>
				<type>quarter</type>
				<dot/>
				<stem default-y="9.53">up</stem>
				<lyric number="1" justify="center" default-y="-76.32">
					<syllabic>single</syllabic>
					<text font-family="Times New Roman" font-size="10" font-weight="normal" font-style="normal" xml:lang="en">for</text>
				</lyric>
				<lyric number="2" justify="center" default-y="-101.32">
					<syllabic>single</syllabic>
					<text font-family="Times New Roman" font-size="10" font-weight="normal" font-style="normal" xml:lang="en">then</text>
				</lyric>
				<lyric number="3" justify="center" default-y="-126.32">
					<syllabic>single</syllabic>
					<text font-family="Times New Roman" font-size="10" font-weight="normal" font-style="normal" xml:lang="en">in</text>
				</lyric>
				<lyric number="4" justify="center" default-y="-151.32">
					<syllabic>single</syllabic>
					<text font-family="Times New Roman" font-size="10" font-weight="normal" font-style="normal" xml:lang="en">in</text>
				</lyric>
			</note>
			<note>
				<pitch>
					<step>A</step>
					<octave>4</octave>
				</pitch>
				<duration>3360</duration>
				<voice>1</voice>
				<type>eighth</type>
				<stem default-y="9.53">up</stem>
				<lyric number="1" justify="center" default-y="-76.32">
					<syllabic>single</syllabic>
					<text font-family="Times New Roman" font-size="10" font-weight="normal" font-style="normal" xml:lang="en">our</text>
				</lyric>
				<lyric number="2" justify="center" default-y="-101.32">
					<syllabic>single</syllabic>
					<text font-family="Times New Roman" font-size="10" font-weight="normal" font-style="normal" xml:lang="en">the</text>
				</lyric>
				<lyric number="3" justify="center" default-y="-126.32">
					<syllabic>single</syllabic>
					<text font-family="Times New Roman" font-size="10" font-weight="normal" font-style="normal" xml:lang="en">the</text>
				</lyric>
				<lyric number="4" justify="center" default-y="-151.32">
					<syllabic>single</syllabic>
					<text font-family="Times New Roman" font-size="10" font-weight="normal" font-style="normal" xml:lang="en">thy</text>
				</lyric>
			</note>
			<note>
				<pitch>
					<step>C</step>
					<octave>5</octave>
				</pitch>
				<duration>6720</duration>
				<voice>1</voice>
				<type>quarter</type>
				<stem default-y="-50.47">down</stem>
				<lyric number="1" justify="center" default-y="-76.32">
					<syllabic>single</syllabic>
					<text font-family="Times New Roman" font-size="10" font-weight="normal" font-style="normal" xml:lang="en">wants</text>
				</lyric>
				<lyric number="2" justify="center" default-y="-101.32">
					<syllabic>single</syllabic>
					<text font-family="Times New Roman" font-size="10" font-weight="normal" font-style="normal" xml:lang="en">full</text>
				</lyric>
				<lyric number="3" justify="center" default-y="-126.32">
					<syllabic>single</syllabic>
					<text font-family="Times New Roman" font-size="10" font-weight="normal" font-style="normal" xml:lang="en">fire</text>
				</lyric>
				<lyric number="4" justify="left" default-y="-151.32">
					<syllabic>begin</syllabic>
					<text font-family="Times New Roman" font-size="10" font-weight="normal" font-style="normal" xml:lang="en">pre</text>
				</lyric>
			</note>
			<note>
				<pitch>
					<step>A</step>
					<octave>4</octave>
				</pitch>
				<duration>6720</duration>
				<voice>1</voice>
				<type>quarter</type>
				<stem default-y="9.53">up</stem>
				<lyric number="1" justify="center" default-y="-76.32">
					<syllabic>end</syllabic>
					<text font-family="Times New Roman" font-size="10" font-weight="normal" font-style="normal" xml:lang="en">to</text>
				</lyric>
				<lyric number="2" justify="center" default-y="-101.32">
					<syllabic>single</syllabic>
					<text font-family="Times New Roman" font-size="10" font-weight="normal" font-style="normal" xml:lang="en">corn</text>
				</lyric>
				<lyric number="3" justify="center" default-y="-126.32">
					<syllabic>single</syllabic>
					<text font-family="Times New Roman" font-size="10" font-weight="normal" font-style="normal" xml:lang="en">the</text>
				</lyric>
				<lyric number="4" justify="center" default-y="-151.32">
					<syllabic>single</syllabic>
					<text font-family="Times New Roman" font-size="10" font-weight="normal" font-style="normal" xml:lang="en">sence</text>
				</lyric>
			</note>
		</measure>
		<!--==========================[1,13]=============================-->
		<measure number="13" width="207">
			<note>
				<pitch>
					<step>B</step>
					<alter>-1</alter>
					<octave>4</octave>
				</pitch>
				<duration>6720</duration>
				<voice>1</voice>
				<type>quarter</type>
				<stem default-y="-55.47">down</stem>
				<lyric number="1" justify="center" default-y="-76.32">
					<syllabic>single</syllabic>
					<text font-family="Times New Roman" font-size="10" font-weight="normal" font-style="normal" xml:lang="en">be</text>
				</lyric>
				<lyric number="2" justify="center" default-y="-101.32">
					<syllabic>single</syllabic>
					<text font-family="Times New Roman" font-size="10" font-weight="normal" font-style="normal" xml:lang="en">shall</text>
				</lyric>
				<lyric number="3" justify="center" default-y="-126.32">
					<syllabic>single</syllabic>
					<text font-family="Times New Roman" font-size="10" font-weight="normal" font-style="normal" xml:lang="en">tares</text>
				</lyric>
				<lyric number="4" justify="center" default-y="-151.32">
					<syllabic>single</syllabic>
					<text font-family="Times New Roman" font-size="10" font-weight="normal" font-style="normal" xml:lang="en">to</text>
				</lyric>
			</note>
			<note>
				<pitch>
					<step>C</step>
					<octave>5</octave>
				</pitch>
				<duration>6720</duration>
				<voice>1</voice>
				<type>quarter</type>
				<stem default-y="-50.47">down</stem>
				<lyric number="1" justify="center" default-y="-76.32">
					<syllabic>begin</syllabic>
					<text font-family="Times New Roman" font-size="10" font-weight="normal" font-style="normal" xml:lang="en">sup</text>
				</lyric>
				<lyric number="2" justify="center" default-y="-101.32">
					<syllabic>middle</syllabic>
					<text font-family="Times New Roman" font-size="10" font-weight="normal" font-style="normal" xml:lang="en">ap</text>
				</lyric>
				<lyric number="3" justify="center" default-y="-126.32">
					<syllabic>end</syllabic>
					<text font-family="Times New Roman" font-size="10" font-weight="normal" font-style="normal" xml:lang="en">to</text>
				</lyric>
				<lyric number="4" justify="center" default-y="-151.32">
					<syllabic>begin</syllabic>
					<text font-family="Times New Roman" font-size="10" font-weight="normal" font-style="normal" xml:lang="en">a</text>
				</lyric>
			</note>
			<note>
				<pitch>
					<step>D</step>
					<octave>5</octave>
				</pitch>
				<duration>13440</duration>
				<voice>1</voice>
				<type>half</type>
				<stem default-y="-45.47">down</stem>
				<lyric number="1" justify="center" default-y="-76.32">
					<syllabic>end</syllabic>
					<text font-family="Times New Roman" font-size="10" font-weight="normal" font-style="normal" xml:lang="en">plied;</text>
				</lyric>
				<lyric number="2" justify="center" default-y="-101.32">
					<syllabic>single</syllabic>
					<text font-family="Times New Roman" font-size="10" font-weight="normal" font-style="normal" xml:lang="en">pear;</text>
				</lyric>
				<lyric number="3" justify="center" default-y="-126.32">
					<syllabic>single</syllabic>
					<text font-family="Times New Roman" font-size="10" font-weight="normal" font-style="normal" xml:lang="en">cast;</text>
				</lyric>
				<lyric number="4" justify="center" default-y="-151.32">
					<syllabic>single</syllabic>
					<text font-family="Times New Roman" font-size="10" font-weight="normal" font-style="normal" xml:lang="en">bide;</text>
				</lyric>
			</note>
		</measure>
		<!--==========================[1,14]=============================-->
		<measure number="14" width="232">
			<note>
				<pitch>
					<step>D</step>
					<octave>5</octave>
				</pitch>
				<duration>10080</duration>
				<voice>1</voice>
				<type>quarter</type>
				<dot/>
				<stem default-y="-45.47">down</stem>
				<lyric number="1" justify="center" default-y="-76.32">
					<syllabic>single</syllabic>
					<text font-family="Times New Roman" font-size="10" font-weight="normal" font-style="normal" xml:lang="en">come</text>
				</lyric>
				<lyric number="2" justify="center" default-y="-101.32">
					<syllabic>single</syllabic>
					<text font-family="Times New Roman" font-size="10" font-weight="normal" font-style="normal" xml:lang="en">
Lord</text>
				</lyric>
				<lyric number="3" justify="center" default-y="-126.32">
					<syllabic>single</syllabic>
					<text font-family="Times New Roman" font-size="10" font-weight="normal" font-style="normal" xml:lang="en">but</text>
				</lyric>
				<lyric number="4" justify="center" default-y="-151.32">
					<syllabic>single</syllabic>
					<text font-family="Times New Roman" font-size="10" font-weight="normal" font-style="normal" xml:lang="en">come,</text>
				</lyric>
			</note>
			<note>
				<pitch>
					<step>D</step>
					<octave>5</octave>
				</pitch>
				<duration>3360</duration>
				<voice>1</voice>
				<type>eighth</type>
				<stem default-y="-45.47">down</stem>
				<lyric number="1" justify="center" default-y="-76.32">
					<syllabic>single</syllabic>
					<text font-family="Times New Roman" font-size="10" font-weight="normal" font-style="normal" xml:lang="en">to</text>
				</lyric>
				<lyric number="2" justify="center" default-y="-101.32">
					<syllabic>single</syllabic>
					<text font-family="Times New Roman" font-size="10" font-weight="normal" font-style="normal" xml:lang="en">of</text>
				</lyric>
				<lyric number="3" justify="center" default-y="-126.32">
					<syllabic>single</syllabic>
					<text font-family="Times New Roman" font-size="10" font-weight="normal" font-style="normal" xml:lang="en">the</text>
				</lyric>
				<lyric number="4" justify="center" default-y="-151.32">
					<syllabic>single</syllabic>
					<text font-family="Times New Roman" font-size="10" font-weight="normal" font-style="normal" xml:lang="en">with</text>
				</lyric>
			</note>
			<note>
				<pitch>
					<step>B</step>
					<alter>-1</alter>
					<octave>4</octave>
				</pitch>
				<duration>6720</duration>
				<voice>1</voice>
				<type>quarter</type>
				<stem default-y="-55.47">down</stem>
				<lyric number="1" justify="center" default-y="-76.32">
					<syllabic>single</syllabic>
					<text font-family="Times New Roman" font-size="10" font-weight="normal" font-style="normal" xml:lang="en">God's</text>
				</lyric>
				<lyric number="2" justify="center" default-y="-101.32">
					<syllabic>begin</syllabic>
					<text font-family="Times New Roman" font-size="10" font-weight="normal" font-style="normal" xml:lang="en">harv</text>
				</lyric>
				<lyric number="3" justify="center" default-y="-126.32">
					<syllabic>middle</syllabic>
					<text font-family="Times New Roman" font-size="10" font-weight="normal" font-style="normal" xml:lang="en">fruit</text>
				</lyric>
				<lyric number="4" justify="center" default-y="-151.32">
					<syllabic>end</syllabic>
					<text font-family="Times New Roman" font-size="10" font-weight="normal" font-style="normal" xml:lang="en">all</text>
				</lyric>
			</note>
			<note>
				<pitch>
					<step>G</step>
					<octave>4</octave>
				</pitch>
				<duration>6720</duration>
				<voice>1</voice>
				<type>quarter</type>
				<stem default-y="4.53">up</stem>
				<lyric number="1" justify="center" default-y="-76.32">
					<syllabic>single</syllabic>
					<text font-family="Times New Roman" font-size="10" font-weight="normal" font-style="normal" xml:lang="en">own</text>
				</lyric>
				<lyric number="2" justify="center" default-y="-101.32">
					<syllabic>single</syllabic>
					<text font-family="Times New Roman" font-size="10" font-weight="normal" font-style="normal" xml:lang="en">est,</text>
				</lyric>
				<lyric number="3" justify="center" default-y="-126.32">
					<syllabic>single</syllabic>
					<text font-family="Times New Roman" font-size="10" font-weight="normal" font-style="normal" xml:lang="en">ful</text>
				</lyric>
				<lyric number="4" justify="center" default-y="-151.32">
					<syllabic>single</syllabic>
					<text font-family="Times New Roman" font-size="10" font-weight="normal" font-style="normal" xml:lang="en">thine</text>
				</lyric>
			</note>
		</measure>
		<!--==========================[1,15]=============================-->
		<measure number="15" width="278">
			<print new-system="yes">
				<system-layout>
					<system-margins>
						<left-margin>48.378</left-margin>
						<right-margin>54.294</right-margin>
					</system-margins>
					<system-distance>188.750</system-distance>
				</system-layout>
			</print>
			<attributes>
				<staff-details number="1" print-object="yes">
				</staff-details>
			</attributes>
			<note>
				<pitch>
					<step>C</step>
					<octave>5</octave>
				</pitch>
				<duration>10080</duration>
				<voice>1</voice>
				<type>quarter</type>
				<dot/>
				<stem default-y="-50.47">down</stem>
				<lyric number="1" justify="center" default-y="-76.32">
					<syllabic>begin</syllabic>
					<text font-family="Times New Roman" font-size="10" font-weight="normal" font-style="normal" xml:lang="en">tem</text>
				</lyric>
				<lyric number="2" justify="center" default-y="-101.32">
					<syllabic>end</syllabic>
					<text font-family="Times New Roman" font-size="10" font-weight="normal" font-style="normal" xml:lang="en">grant</text>
				</lyric>
				<lyric number="3" justify="center" default-y="-126.32">
					<syllabic>single</syllabic>
					<text font-family="Times New Roman" font-size="10" font-weight="normal" font-style="normal" xml:lang="en">ears</text>
				</lyric>
				<lyric number="4" justify="center" default-y="-151.32">
					<syllabic>begin</syllabic>
					<text font-family="Times New Roman" font-size="10" font-weight="normal" font-style="normal" xml:lang="en">an</text>
				</lyric>
			</note>
			<note>
				<pitch>
					<step>C</step>
					<octave>5</octave>
				</pitch>
				<duration>3360</duration>
				<voice>1</voice>
				<type>eighth</type>
				<stem default-y="-50.47">down</stem>
				<lyric number="1" justify="center" default-y="-76.32">
					<syllabic>end</syllabic>
					<text font-family="Times New Roman" font-size="10" font-weight="normal" font-style="normal" xml:lang="en">ple,</text>
				</lyric>
				<lyric number="2" justify="center" default-y="-101.32">
					<syllabic>single</syllabic>
					<text font-family="Times New Roman" font-size="10" font-weight="normal" font-style="normal" xml:lang="en">that</text>
				</lyric>
				<lyric number="3" justify="center" default-y="-126.32">
					<syllabic>single</syllabic>
					<text font-family="Times New Roman" font-size="10" font-weight="normal" font-style="normal" xml:lang="en">to</text>
				</lyric>
				<lyric number="4" justify="center" default-y="-151.32">
					<syllabic>single</syllabic>
					<text font-family="Times New Roman" font-size="10" font-weight="normal" font-style="normal" xml:lang="en">gels,</text>
				</lyric>
			</note>
			<note>
				<pitch>
					<step>A</step>
					<octave>4</octave>
				</pitch>
				<duration>13440</duration>
				<voice>1</voice>
				<type>half</type>
				<stem default-y="9.53">up</stem>
				<lyric number="1" justify="center" default-y="-76.32">
					<syllabic>single</syllabic>
					<text font-family="Times New Roman" font-size="10" font-weight="normal" font-style="normal" xml:lang="en">come,</text>
				</lyric>
				<lyric number="2" justify="center" default-y="-101.32">
					<syllabic>single</syllabic>
					<text font-family="Times New Roman" font-size="10" font-weight="normal" font-style="normal" xml:lang="en">we</text>
				</lyric>
				<lyric number="3" justify="center" default-y="-126.32">
					<syllabic>single</syllabic>
					<text font-family="Times New Roman" font-size="10" font-weight="normal" font-style="normal" xml:lang="en">store</text>
				</lyric>
				<lyric number="4" justify="center" default-y="-151.32">
					<syllabic>single</syllabic>
					<text font-family="Times New Roman" font-size="10" font-weight="normal" font-style="normal" xml:lang="en">come,</text>
				</lyric>
			</note>
		</measure>
		<!--==========================[1,16]=============================-->
		<measure number="16" width="232">
			<note>
				<pitch>
					<step>B</step>
					<alter>-1</alter>
					<octave>4</octave>
				</pitch>
				<duration>6720</duration>
				<voice>1</voice>
				<type>quarter</type>
				<stem default-y="-55.47">down</stem>
				<lyric number="1" justify="center" default-y="-76.32">
					<syllabic>single</syllabic>
					<text font-family="Times New Roman" font-size="10" font-weight="normal" font-style="normal" xml:lang="en">raise</text>
				</lyric>
				<lyric number="2" justify="left" default-y="-101.32">
					<syllabic>begin</syllabic>
					<text font-family="Times New Roman" font-size="10" font-weight="normal" font-style="normal" xml:lang="en">whole</text>
				</lyric>
				<lyric number="3" justify="center" default-y="-126.32">
					<syllabic>end</syllabic>
					<text font-family="Times New Roman" font-size="10" font-weight="normal" font-style="normal" xml:lang="en">in</text>
				</lyric>
				<lyric number="4" justify="center" default-y="-151.32">
					<syllabic>single</syllabic>
					<text font-family="Times New Roman" font-size="10" font-weight="normal" font-style="normal" xml:lang="en">raise</text>
				</lyric>
			</note>
			<note>
				<pitch>
					<step>D</step>
					<octave>5</octave>
				</pitch>
				<duration>6720</duration>
				<voice>1</voice>
				<type>quarter</type>
				<stem default-y="-45.47">down</stem>
				<lyric number="1" justify="center" default-y="-76.32">
					<syllabic>single</syllabic>
					<text font-family="Times New Roman" font-size="10" font-weight="normal" font-style="normal" xml:lang="en">the</text>
				</lyric>
				<lyric number="2" justify="right" default-y="-101.32">
					<syllabic>single</syllabic>
					<text font-family="Times New Roman" font-size="10" font-weight="normal" font-style="normal" xml:lang="en">some</text>
				</lyric>
				<lyric number="3" justify="center" default-y="-126.32">
					<syllabic>single</syllabic>
					<text font-family="Times New Roman" font-size="10" font-weight="normal" font-style="normal" xml:lang="en">the</text>
				</lyric>
				<lyric number="4" justify="center" default-y="-151.32">
					<syllabic>single</syllabic>
					<text font-family="Times New Roman" font-size="10" font-weight="normal" font-style="normal" xml:lang="en">the</text>
				</lyric>
			</note>
			<note>
				<pitch>
					<step>C</step>
					<octave>5</octave>
				</pitch>
				<duration>6720</duration>
				<voice>1</voice>
				<type>quarter</type>
				<stem default-y="-50.47">down</stem>
				<lyric number="1" justify="center" default-y="-76.32">
					<syllabic>single</syllabic>
					<text font-family="Times New Roman" font-size="10" font-weight="normal" font-style="normal" xml:lang="en">song</text>
				</lyric>
				<lyric number="2" justify="center" default-y="-101.32">
					<syllabic>single</syllabic>
					<text font-family="Times New Roman" font-size="10" font-weight="normal" font-style="normal" xml:lang="en">grain</text>
				</lyric>
				<lyric number="3" justify="center" default-y="-126.32">
					<syllabic>begin</syllabic>
					<text font-family="Times New Roman" font-size="10" font-weight="normal" font-style="normal" xml:lang="en">gar</text>
				</lyric>
				<lyric number="4" justify="center" default-y="-151.32">
					<syllabic>middle</syllabic>
					<text font-family="Times New Roman" font-size="10" font-weight="normal" font-style="normal" xml:lang="en">glo</text>
				</lyric>
			</note>
			<note>
				<pitch>
					<step>F</step>
					<octave>4</octave>
				</pitch>
				<duration>6720</duration>
				<voice>1</voice>
				<type>quarter</type>
				<stem default-y="-0.47">up</stem>
				<lyric number="1" justify="center" default-y="-76.32">
					<syllabic>end</syllabic>
					<text font-family="Times New Roman" font-size="10" font-weight="normal" font-style="normal" xml:lang="en">of</text>
				</lyric>
				<lyric number="2" justify="center" default-y="-101.32">
					<syllabic>single</syllabic>
					<text font-family="Times New Roman" font-size="10" font-weight="normal" font-style="normal" xml:lang="en">and</text>
				</lyric>
				<lyric number="3" justify="center" default-y="-126.32">
					<syllabic>single</syllabic>
					<text font-family="Times New Roman" font-size="10" font-weight="normal" font-style="normal" xml:lang="en">ner</text>
				</lyric>
				<lyric number="4" justify="center" default-y="-151.72">
					<syllabic>single</syllabic>
					<text font-family="Times New Roman" font-size="10" font-weight="normal" font-style="normal" xml:lang="en">rious</text>
				</lyric>
			</note>
		</measure>
		<!--==========================[1,17]=============================-->
		<measure number="17" width="215">
			<note>
				<pitch>
					<step>A</step>
					<octave>4</octave>
				</pitch>
				<duration>6720</duration>
				<voice>1</voice>
				<type>quarter</type>
				<stem default-y="9.53">up</stem>
				<lyric number="1" justify="center" default-y="-76.32">
					<syllabic>begin</syllabic>
					<text font-family="Times New Roman" font-size="10" font-weight="normal" font-style="normal" xml:lang="en">harv</text>
				</lyric>
				<lyric number="2" justify="center" default-y="-101.32">
					<syllabic>end</syllabic>
					<text font-family="Times New Roman" font-size="10" font-weight="normal" font-style="normal" xml:lang="en">pure</text>
				</lyric>
				<lyric number="3" justify="center" default-y="-126.32">
					<syllabic>begin</syllabic>
					<text font-family="Times New Roman" font-size="10" font-weight="normal" font-style="normal" xml:lang="en">e</text>
				</lyric>
				<lyric number="4" justify="center" default-y="-151.32">
					<syllabic>middle</syllabic>
					<text font-family="Times New Roman" font-size="10" font-weight="normal" font-style="normal" xml:lang="en">harv</text>
				</lyric>
			</note>
			<note>
				<pitch>
					<step>G</step>
					<octave>4</octave>
				</pitch>
				<duration>6720</duration>
				<voice>1</voice>
				<type>quarter</type>
				<stem default-y="4.53">up</stem>
				<lyric number="1" justify="center" default-y="-76.32">
					<syllabic>end</syllabic>
					<text font-family="Times New Roman" font-size="10" font-weight="normal" font-style="normal" xml:lang="en">est</text>
				</lyric>
				<lyric number="2" justify="center" default-y="-101.32">
					<syllabic>single</syllabic>
					<text font-family="Times New Roman" font-size="10" font-weight="normal" font-style="normal" xml:lang="en">may</text>
				</lyric>
				<lyric number="3" justify="center" default-y="-126.32">
					<syllabic>begin</syllabic>
					<text font-family="Times New Roman" font-size="10" font-weight="normal" font-style="normal" xml:lang="en">ver</text>
				</lyric>
				<lyric number="4" justify="center" default-y="-151.32">
					<syllabic>end</syllabic>
					<text font-family="Times New Roman" font-size="10" font-weight="normal" font-style="normal" xml:lang="en">est</text>
				</lyric>
			</note>
			<note>
				<pitch>
					<step>F</step>
					<octave>4</octave>
				</pitch>
				<duration>13440</duration>
				<voice>1</voice>
				<type>half</type>
				<stem default-y="-0.47">up</stem>
				<lyric number="1" justify="center" default-y="-76.32">
					<syllabic>single</syllabic>
					<text font-family="Times New Roman" font-size="10" font-weight="normal" font-style="normal" xml:lang="en">home.</text>
				</lyric>
				<lyric number="2" justify="center" default-y="-101.32">
					<syllabic>single</syllabic>
					<text font-family="Times New Roman" font-size="10" font-weight="normal" font-style="normal" xml:lang="en">be.</text>
				</lyric>
				<lyric number="3" justify="center" default-y="-126.32">
					<syllabic>single</syllabic>
					<text font-family="Times New Roman" font-size="10" font-weight="normal" font-style="normal" xml:lang="en">more.</text>
				</lyric>
				<lyric number="4" justify="center" default-y="-151.32">
					<syllabic>single</syllabic>
					<text font-family="Times New Roman" font-size="10" font-weight="normal" font-style="normal" xml:lang="en">home.</text>
				</lyric>
			</note>
			<barline location="right">
				<repeat direction="backward" times="4"/>
			</barline>
		</measure>
	</part>
</score-partwise>
