<?xml version="1.0" encoding="UTF-8" standalone="no"?>
<!DOCTYPE score-partwise PUBLIC "-//Recordare//DTD MusicXML 2.0 Partwise//EN" "http://www.musicxml.org/dtds/partwise.dtd">
<score-partwise version="2.0">
	<work>
		<work-title>No, not despairingly</work-title>
	</work>
	<identification>
		<creator type="composer">St. Werburgh
64.64.664</creator>
		<creator type="poet">R.P. Stewart, 1825-1894</creator>
		<encoding>
			<software>PDFtoMusic Pro v1.6.5 Build 1B9E7 (c) Myriad - http://www.myriad-online.com</software>
			<?PDFtoMusic Document type 0100- 00000000?>
			<supports attribute="new-system" element="print" type="yes" value="yes"/>
			<supports attribute="new-page" element="print" type="yes" value="yes"/>
		</encoding>
	</identification>
	<defaults>
		<scaling>
			<millimeters>7.112002</millimeters>
			<tenths>40</tenths>
		</scaling>
		<page-layout>
			<page-height>1571.428</page-height>
			<page-width>1214.285</page-width>
			<page-margins type="both">
				<left-margin>56.243</left-margin>
				<right-margin>56.243</right-margin>
				<top-margin>56.243</top-margin>
				 <bottom-margin>56.243</bottom-margin>
			</page-margins>
		</page-layout>
		<appearance>
			<line-width type="stem">0.2381</line-width>
			<line-width type="staff">0.7143</line-width>
			<line-width type="light barline">0.3541</line-width>
			<line-width type="heavy barline">3.3333</line-width>
			<line-width type="leger">0.7143</line-width>
		</appearance>
	</defaults>
	<credit page="1">
		<credit-words  default-x="71.190" default-y="1485.713" justify="left" valign="baseline" font-family="Times New Roman" font-size="10" font-weight="normal" font-style="normal">R.P. Stewart, 1825-1894</credit-words>
	</credit>
	<credit page="1">
		<credit-words  default-x="93.333" default-y="372.619" justify="left" valign="baseline" font-family="Times New Roman" font-size="11" font-weight="bold" font-style="normal">Lord, I confess to Thee sadly my sin;
All I am tell with Thee, all I have been:
Purge Thou my sin away, wash Thou my soul this day;
Lord, make me clean.</credit-words>
	</credit>
	<credit page="1">
		<credit-words  default-x="436.666" default-y="1512.380" justify="left" valign="baseline" font-family="Times New Roman" font-size="20" font-weight="bold" font-style="normal">No, not despairingly</credit-words>
	</credit>
	<credit page="1">
		<credit-words  default-x="492.857" default-y="112.619" justify="left" valign="baseline" font-family="Times New Roman" font-size="10" font-weight="normal" font-style="normal">www.smallchurchmusic.com</credit-words>
	</credit>
	<credit page="1">
		<credit-words  default-x="613.334" default-y="393.333" justify="left" valign="baseline" font-family="Times New Roman" font-size="11" font-weight="bold" font-style="normal">Nothing between.</credit-words>
	</credit>
	<credit page="1">
		<credit-words  default-x="884.523" default-y="286.190" justify="left" valign="baseline" font-family="Times New Roman" font-size="10" font-weight="normal" font-style="normal">Horatius Bonar</credit-words>
	</credit>
	<credit page="1">
		<credit-words  default-x="1035.952" default-y="1492.142" justify="left" valign="baseline" font-family="Times New Roman" font-size="10" font-weight="normal" font-style="normal">St. Werburgh
64.64.664</credit-words>
	</credit>
	<part-list>
		<score-part id="P1">
			<part-name></part-name>
			<score-instrument id="P1-I1">
				<instrument-name>Instrument 1</instrument-name>
			</score-instrument>
			<midi-instrument id="P1-I1">
				<midi-channel>1</midi-channel>
				<midi-bank>1</midi-bank>
				<midi-program>1</midi-program>
				<volume>50</volume>
				<pan>0</pan>
				<elevation>0</elevation>
				<?Myriad
				<iddigit>0</iddigit>
				?>
			</midi-instrument>
		</score-part>
	</part-list>
	<part id="P1">
		<!--==========================[1,1]=============================-->
		<measure number="1" width="292">
			<print new-page="yes">
				<system-layout>
					<system-margins>
						<left-margin>28.400</left-margin>
						<right-margin>14.881</right-margin>
					</system-margins>
					<top-system-distance>66.019</top-system-distance>
				</system-layout>
				<staff-layout number="2">
					<staff-distance>99.762</staff-distance>
				</staff-layout>
			</print>
			<attributes>
				<divisions>6720</divisions>
				<key>
					<fifths>-3</fifths>
					<mode>major</mode>
				</key>
				<time>
					<beats>3</beats>
					<beat-type>2</beat-type>
				</time>
				<staves>2</staves>
				<clef number="1">
					<sign>G</sign>
					<line>2</line>
				</clef>
				<clef number="2">
					<sign>F</sign>
					<line>4</line>
				</clef>
				<staff-details number="1" print-object="yes">
					<staff-lines>5</staff-lines>
					<staff-size>100.00</staff-size>
				</staff-details>
				<staff-details number="2" print-object="yes">
					<staff-lines>5</staff-lines>
					<staff-size>100.00</staff-size>
				</staff-details>
			</attributes>
			<note>
				<pitch>
					<step>G</step>
					<octave>3</octave>
				</pitch>
				<duration>13440</duration>
				<voice>4</voice>
				<type>half</type>
				<stem default-y="-50.24">down</stem>
				<staff>2</staff>
			</note>
			<note>
				<chord/>
				<pitch>
					<step>E</step>
					<alter>-1</alter>
					<octave>3</octave>
				</pitch>
				<duration>13440</duration>
				<voice>4</voice>
				<type>half</type>
				<stem default-y="-50.24">down</stem>
				<staff>2</staff>
			</note>
			<note>
				<pitch>
					<step>B</step>
					<alter>-1</alter>
					<octave>3</octave>
				</pitch>
				<duration>13440</duration>
				<voice>4</voice>
				<type>half</type>
				<stem default-y="-50.24">down</stem>
				<staff>2</staff>
			</note>
			<note>
				<chord/>
				<pitch>
					<step>E</step>
					<alter>-1</alter>
					<octave>3</octave>
				</pitch>
				<duration>13440</duration>
				<voice>4</voice>
				<type>half</type>
				<stem default-y="-50.24">down</stem>
				<staff>2</staff>
			</note>
			<note>
				<pitch>
					<step>D</step>
					<alter>-1</alter>
					<octave>4</octave>
				</pitch>
				<duration>13440</duration>
				<voice>4</voice>
				<type>half</type>
				<accidental>flat</accidental>
				<stem default-y="-50.24">down</stem>
				<staff>2</staff>
			</note>
			<note>
				<chord/>
				<pitch>
					<step>E</step>
					<alter>-1</alter>
					<octave>3</octave>
				</pitch>
				<duration>13440</duration>
				<voice>4</voice>
				<type>half</type>
				<stem default-y="-50.24">down</stem>
				<staff>2</staff>
			</note>
			<backup>
				<duration>40320</duration>
			</backup>
			<note>
				<pitch>
					<step>E</step>
					<alter>-1</alter>
					<octave>4</octave>
				</pitch>
				<duration>13440</duration>
				<voice>1</voice>
				<type>half</type>
				<stem default-y="-5.00">up</stem>
				<staff>1</staff>
			</note>
			<note>
				<chord/>
				<pitch>
					<step>B</step>
					<alter>-1</alter>
					<octave>3</octave>
				</pitch>
				<duration>13440</duration>
				<voice>1</voice>
				<type>half</type>
				<stem default-y="-5.00">up</stem>
				<staff>1</staff>
			</note>
			<note>
				<pitch>
					<step>G</step>
					<octave>4</octave>
				</pitch>
				<duration>13440</duration>
				<voice>1</voice>
				<type>half</type>
				<stem default-y="5.00">up</stem>
				<staff>1</staff>
			</note>
			<note>
				<chord/>
				<pitch>
					<step>E</step>
					<alter>-1</alter>
					<octave>4</octave>
				</pitch>
				<duration>13440</duration>
				<voice>1</voice>
				<type>half</type>
				<stem default-y="5.00">up</stem>
				<staff>1</staff>
			</note>
			<note>
				<pitch>
					<step>B</step>
					<alter>-1</alter>
					<octave>4</octave>
				</pitch>
				<duration>13440</duration>
				<voice>1</voice>
				<type>half</type>
				<stem default-y="-50.24">down</stem>
				<staff>1</staff>
			</note>
		</measure>
		<!--==========================[1,2]=============================-->
		<measure number="2" width="212">
			<note>
				<pitch>
					<step>A</step>
					<alter>-1</alter>
					<octave>2</octave>
				</pitch>
				<duration>20160</duration>
				<voice>4</voice>
				<type>half</type>
				<dot/>
				<stem default-y="-77.52">down</stem>
				<staff>2</staff>
			</note>
			<note>
				<chord/>
				<pitch>
					<step>C</step>
					<octave>4</octave>
				</pitch>
				<duration>20160</duration>
				<voice>4</voice>
				<type>half</type>
				<dot/>
				<stem default-y="-60.24">down</stem>
				<staff>2</staff>
			</note>
			<note>
				<pitch>
					<step>B</step>
					<alter>-1</alter>
					<octave>3</octave>
				</pitch>
				<duration>6720</duration>
				<voice>4</voice>
				<type>quarter</type>
				<stem default-y="-60.24">down</stem>
				<staff>2</staff>
			</note>
			<note>
				<chord/>
				<pitch>
					<step>A</step>
					<alter>-1</alter>
					<octave>2</octave>
				</pitch>
				<duration>6720</duration>
				<voice>4</voice>
				<type>quarter</type>
				<stem default-y="-72.52">down</stem>
				<staff>2</staff>
			</note>
			<note>
				<pitch>
					<step>A</step>
					<alter>-1</alter>
					<octave>3</octave>
				</pitch>
				<duration>13440</duration>
				<voice>4</voice>
				<type>half</type>
				<stem default-y="-60.24">down</stem>
				<staff>2</staff>
			</note>
			<note>
				<chord/>
				<pitch>
					<step>A</step>
					<alter>-1</alter>
					<octave>2</octave>
				</pitch>
				<duration>13440</duration>
				<voice>4</voice>
				<type>half</type>
				<stem default-y="-67.52">down</stem>
				<staff>2</staff>
			</note>
			<backup>
				<duration>40320</duration>
			</backup>
			<note>
				<pitch>
					<step>E</step>
					<alter>-1</alter>
					<octave>4</octave>
				</pitch>
				<duration>20160</duration>
				<voice>1</voice>
				<type>half</type>
				<dot/>
				<stem default-y="10.00">up</stem>
				<staff>1</staff>
			</note>
			<note>
				<chord/>
				<pitch>
					<step>A</step>
					<alter>-1</alter>
					<octave>4</octave>
				</pitch>
				<duration>20160</duration>
				<voice>1</voice>
				<type>half</type>
				<dot/>
				<stem default-y="10.00">up</stem>
				<staff>1</staff>
			</note>
			<note>
				<pitch>
					<step>G</step>
					<octave>4</octave>
				</pitch>
				<duration>6720</duration>
				<voice>1</voice>
				<type>quarter</type>
				<stem default-y="5.00">up</stem>
				<staff>1</staff>
			</note>
			<note>
				<chord/>
				<pitch>
					<step>C</step>
					<octave>4</octave>
				</pitch>
				<duration>6720</duration>
				<voice>1</voice>
				<type>quarter</type>
				<stem default-y="5.00">up</stem>
				<staff>1</staff>
			</note>
			<note>
				<pitch>
					<step>C</step>
					<octave>4</octave>
				</pitch>
				<duration>13440</duration>
				<voice>1</voice>
				<type>half</type>
				<stem default-y="0.00">up</stem>
				<staff>1</staff>
			</note>
			<note>
				<chord/>
				<pitch>
					<step>F</step>
					<octave>4</octave>
				</pitch>
				<duration>13440</duration>
				<voice>1</voice>
				<type>half</type>
				<stem default-y="0.00">up</stem>
				<staff>1</staff>
			</note>
		</measure>
		<!--==========================[1,3]=============================-->
		<measure number="3" width="211">
			<note>
				<pitch>
					<step>B</step>
					<alter>-1</alter>
					<octave>2</octave>
				</pitch>
				<duration>13440</duration>
				<voice>4</voice>
				<type>half</type>
				<stem default-y="-55.24">down</stem>
				<staff>2</staff>
			</note>
			<note>
				<chord/>
				<pitch>
					<step>G</step>
					<octave>3</octave>
				</pitch>
				<duration>13440</duration>
				<voice>4</voice>
				<type>half</type>
				<stem default-y="-55.24">down</stem>
				<staff>2</staff>
			</note>
			<note>
				<pitch>
					<step>A</step>
					<alter>-1</alter>
					<octave>3</octave>
				</pitch>
				<duration>13440</duration>
				<voice>4</voice>
				<type>half</type>
				<stem default-y="-55.24">down</stem>
				<staff>2</staff>
			</note>
			<note>
				<chord/>
				<pitch>
					<step>B</step>
					<alter>-1</alter>
					<octave>2</octave>
				</pitch>
				<duration>13440</duration>
				<voice>4</voice>
				<type>half</type>
				<stem default-y="-57.52">down</stem>
				<staff>2</staff>
			</note>
			<note>
				<pitch>
					<step>F</step>
					<octave>3</octave>
				</pitch>
				<duration>13440</duration>
				<voice>4</voice>
				<type>half</type>
				<stem default-y="-55.24">down</stem>
				<staff>2</staff>
			</note>
			<note>
				<chord/>
				<pitch>
					<step>B</step>
					<alter>-1</alter>
					<octave>2</octave>
				</pitch>
				<duration>13440</duration>
				<voice>4</voice>
				<type>half</type>
				<stem default-y="-55.24">down</stem>
				<staff>2</staff>
			</note>
			<backup>
				<duration>40320</duration>
			</backup>
			<note>
				<pitch>
					<step>B</step>
					<alter>-1</alter>
					<octave>3</octave>
				</pitch>
				<duration>13440</duration>
				<voice>1</voice>
				<type>half</type>
				<stem default-y="-5.00">up</stem>
				<staff>1</staff>
			</note>
			<note>
				<chord/>
				<pitch>
					<step>E</step>
					<alter>-1</alter>
					<octave>4</octave>
				</pitch>
				<duration>13440</duration>
				<voice>1</voice>
				<type>half</type>
				<stem default-y="-5.00">up</stem>
				<staff>1</staff>
			</note>
			<note>
				<pitch>
					<step>F</step>
					<octave>4</octave>
				</pitch>
				<duration>13440</duration>
				<voice>1</voice>
				<type>half</type>
				<stem default-y="0.00">up</stem>
				<staff>1</staff>
			</note>
			<note>
				<chord/>
				<pitch>
					<step>B</step>
					<alter>-1</alter>
					<octave>3</octave>
				</pitch>
				<duration>13440</duration>
				<voice>1</voice>
				<type>half</type>
				<stem default-y="0.00">up</stem>
				<staff>1</staff>
			</note>
			<note>
				<pitch>
					<step>B</step>
					<alter>-1</alter>
					<octave>3</octave>
				</pitch>
				<duration>13440</duration>
				<voice>1</voice>
				<type>half</type>
				<stem default-y="-10.00">up</stem>
				<staff>1</staff>
			</note>
			<note>
				<chord/>
				<pitch>
					<step>D</step>
					<octave>4</octave>
				</pitch>
				<duration>13440</duration>
				<voice>1</voice>
				<type>half</type>
				<stem default-y="-10.00">up</stem>
				<staff>1</staff>
			</note>
		</measure>
		<!--==========================[1,4]=============================-->
		<measure number="4" width="124">
			<note>
				<pitch>
					<step>G</step>
					<octave>3</octave>
				</pitch>
				<duration>40320</duration>
				<voice>4</voice>
				<type>whole</type>
				<dot/>
				<stem>none</stem>
				<staff>2</staff>
			</note>
			<note>
				<chord/>
				<pitch>
					<step>E</step>
					<alter>-1</alter>
					<octave>3</octave>
				</pitch>
				<duration>40320</duration>
				<voice>4</voice>
				<type>whole</type>
				<dot/>
				<stem>none</stem>
				<staff>2</staff>
			</note>
			<backup>
				<duration>40320</duration>
			</backup>
			<note>
				<pitch>
					<step>B</step>
					<alter>-1</alter>
					<octave>3</octave>
				</pitch>
				<duration>40320</duration>
				<voice>1</voice>
				<type>whole</type>
				<dot/>
				<stem>none</stem>
				<staff>1</staff>
			</note>
			<note>
				<chord/>
				<pitch>
					<step>E</step>
					<alter>-1</alter>
					<octave>4</octave>
				</pitch>
				<duration>40320</duration>
				<voice>1</voice>
				<type>whole</type>
				<dot/>
				<stem>none</stem>
				<staff>1</staff>
			</note>
		</measure>
		<!--==========================[1,5]=============================-->
		<measure number="5" width="217">
			<note>
				<pitch>
					<step>C</step>
					<octave>3</octave>
				</pitch>
				<duration>13440</duration>
				<voice>4</voice>
				<type>half</type>
				<stem default-y="-55.24">down</stem>
				<staff>2</staff>
			</note>
			<note>
				<chord/>
				<pitch>
					<step>G</step>
					<octave>3</octave>
				</pitch>
				<duration>13440</duration>
				<voice>4</voice>
				<type>half</type>
				<stem default-y="-55.24">down</stem>
				<staff>2</staff>
			</note>
			<note>
				<pitch>
					<step>C</step>
					<octave>4</octave>
				</pitch>
				<duration>13440</duration>
				<voice>4</voice>
				<type>half</type>
				<stem default-y="-55.24">down</stem>
				<staff>2</staff>
			</note>
			<note>
				<chord/>
				<pitch>
					<step>C</step>
					<octave>3</octave>
				</pitch>
				<duration>13440</duration>
				<voice>4</voice>
				<type>half</type>
				<stem default-y="-57.52">down</stem>
				<staff>2</staff>
			</note>
			<note>
				<pitch>
					<step>E</step>
					<alter>-1</alter>
					<octave>4</octave>
				</pitch>
				<duration>13440</duration>
				<voice>4</voice>
				<type>half</type>
				<stem default-y="-55.24">down</stem>
				<staff>2</staff>
			</note>
			<note>
				<chord/>
				<pitch>
					<step>C</step>
					<octave>3</octave>
				</pitch>
				<duration>13440</duration>
				<voice>4</voice>
				<type>half</type>
				<stem default-y="-67.52">down</stem>
				<staff>2</staff>
			</note>
			<backup>
				<duration>40320</duration>
			</backup>
			<note>
				<pitch>
					<step>C</step>
					<octave>4</octave>
				</pitch>
				<duration>13440</duration>
				<voice>1</voice>
				<type>half</type>
				<stem default-y="-5.00">up</stem>
				<staff>1</staff>
			</note>
			<note>
				<chord/>
				<pitch>
					<step>E</step>
					<alter>-1</alter>
					<octave>4</octave>
				</pitch>
				<duration>13440</duration>
				<voice>1</voice>
				<type>half</type>
				<stem default-y="-5.00">up</stem>
				<staff>1</staff>
			</note>
			<note>
				<pitch>
					<step>G</step>
					<octave>4</octave>
				</pitch>
				<duration>13440</duration>
				<voice>1</voice>
				<type>half</type>
				<stem default-y="5.00">up</stem>
				<staff>1</staff>
			</note>
			<note>
				<chord/>
				<pitch>
					<step>E</step>
					<alter>-1</alter>
					<octave>4</octave>
				</pitch>
				<duration>13440</duration>
				<voice>1</voice>
				<type>half</type>
				<stem default-y="5.00">up</stem>
				<staff>1</staff>
			</note>
			<note>
				<pitch>
					<step>G</step>
					<octave>4</octave>
				</pitch>
				<duration>13440</duration>
				<voice>1</voice>
				<type>half</type>
				<stem default-y="15.00">up</stem>
				<staff>1</staff>
			</note>
			<note>
				<chord/>
				<pitch>
					<step>C</step>
					<octave>5</octave>
				</pitch>
				<duration>13440</duration>
				<voice>1</voice>
				<type>half</type>
				<stem default-y="15.00">up</stem>
				<staff>1</staff>
			</note>
		</measure>
		<!--==========================[1,6]=============================-->
		<measure number="6" width="283">
			<print new-system="yes">
				<system-layout>
					<system-margins>
						<left-margin>28.400</left-margin>
						<right-margin>14.881</right-margin>
					</system-margins>
					<system-distance>140.952</system-distance>
				</system-layout>
				<staff-layout number="2">
					<staff-distance>86.905</staff-distance>
				</staff-layout>
			</print>
			<attributes>
				<staff-details number="1" print-object="yes">
				</staff-details>
				<staff-details number="2" print-object="yes">
				</staff-details>
			</attributes>
			<note>
				<pitch>
					<step>D</step>
					<octave>3</octave>
				</pitch>
				<duration>20160</duration>
				<voice>4</voice>
				<type>half</type>
				<dot/>
				<stem default-y="-52.52">down</stem>
				<staff>2</staff>
			</note>
			<note>
				<chord/>
				<pitch>
					<step>D</step>
					<octave>4</octave>
				</pitch>
				<duration>20160</duration>
				<voice>4</voice>
				<type>half</type>
				<dot/>
				<stem default-y="-50.24">down</stem>
				<staff>2</staff>
			</note>
			<note>
				<pitch>
					<step>C</step>
					<octave>4</octave>
				</pitch>
				<duration>6720</duration>
				<voice>4</voice>
				<type>quarter</type>
				<stem default-y="-50.24">down</stem>
				<staff>2</staff>
			</note>
			<note>
				<chord/>
				<pitch>
					<step>D</step>
					<octave>3</octave>
				</pitch>
				<duration>6720</duration>
				<voice>4</voice>
				<type>quarter</type>
				<stem default-y="-50.24">down</stem>
				<staff>2</staff>
			</note>
			<note>
				<pitch>
					<step>B</step>
					<alter>-1</alter>
					<octave>3</octave>
				</pitch>
				<duration>13440</duration>
				<voice>4</voice>
				<type>half</type>
				<stem default-y="-50.24">down</stem>
				<staff>2</staff>
			</note>
			<note>
				<chord/>
				<pitch>
					<step>E</step>
					<alter>-1</alter>
					<octave>3</octave>
				</pitch>
				<duration>13440</duration>
				<voice>4</voice>
				<type>half</type>
				<stem default-y="-50.24">down</stem>
				<staff>2</staff>
			</note>
			<backup>
				<duration>40320</duration>
			</backup>
			<note>
				<pitch>
					<step>G</step>
					<octave>4</octave>
				</pitch>
				<duration>20160</duration>
				<voice>1</voice>
				<type>half</type>
				<dot/>
				<stem default-y="10.00">up</stem>
				<staff>1</staff>
			</note>
			<note>
				<chord/>
				<pitch>
					<step>B</step>
					<alter>-1</alter>
					<octave>4</octave>
				</pitch>
				<duration>20160</duration>
				<voice>1</voice>
				<type>half</type>
				<dot/>
				<stem default-y="10.00">up</stem>
				<staff>1</staff>
			</note>
			<note>
				<pitch>
					<step>A</step>
					<octave>4</octave>
				</pitch>
				<duration>6720</duration>
				<voice>1</voice>
				<type>quarter</type>
				<accidental>natural</accidental>
				<stem default-y="10.00">up</stem>
				<staff>1</staff>
			</note>
			<note>
				<chord/>
				<pitch>
					<step>F</step>
					<alter>1</alter>
					<octave>4</octave>
				</pitch>
				<duration>6720</duration>
				<voice>1</voice>
				<type>quarter</type>
				<accidental>sharp</accidental>
				<stem default-y="10.00">up</stem>
				<staff>1</staff>
			</note>
			<note>
				<pitch>
					<step>G</step>
					<octave>4</octave>
				</pitch>
				<duration>13440</duration>
				<voice>1</voice>
				<type>half</type>
				<stem default-y="5.00">up</stem>
				<staff>1</staff>
			</note>
		</measure>
		<!--==========================[1,7]=============================-->
		<measure number="7" width="214">
			<note>
				<pitch>
					<step>C</step>
					<octave>3</octave>
				</pitch>
				<duration>13440</duration>
				<voice>4</voice>
				<type>half</type>
				<stem default-y="-57.52">down</stem>
				<staff>2</staff>
			</note>
			<note>
				<chord/>
				<pitch>
					<step>C</step>
					<octave>4</octave>
				</pitch>
				<duration>13440</duration>
				<voice>4</voice>
				<type>half</type>
				<stem default-y="-55.24">down</stem>
				<staff>2</staff>
			</note>
			<note>
				<pitch>
					<step>B</step>
					<alter>-1</alter>
					<octave>3</octave>
				</pitch>
				<duration>13440</duration>
				<voice>4</voice>
				<type>half</type>
				<stem default-y="-50.24">down</stem>
				<staff>2</staff>
			</note>
			<note>
				<chord/>
				<pitch>
					<step>D</step>
					<octave>3</octave>
				</pitch>
				<duration>13440</duration>
				<voice>4</voice>
				<type>half</type>
				<stem default-y="-50.24">down</stem>
				<staff>2</staff>
			</note>
			<note>
				<pitch>
					<step>A</step>
					<octave>3</octave>
				</pitch>
				<duration>13440</duration>
				<voice>4</voice>
				<type>half</type>
				<accidental>natural</accidental>
				<stem default-y="-50.24">down</stem>
				<staff>2</staff>
			</note>
			<note>
				<chord/>
				<pitch>
					<step>D</step>
					<octave>3</octave>
				</pitch>
				<duration>13440</duration>
				<voice>4</voice>
				<type>half</type>
				<stem default-y="-50.24">down</stem>
				<staff>2</staff>
			</note>
			<backup>
				<duration>40320</duration>
			</backup>
			<note>
				<pitch>
					<step>E</step>
					<alter>-1</alter>
					<octave>4</octave>
				</pitch>
				<duration>13440</duration>
				<voice>1</voice>
				<type>half</type>
				<stem default-y="10.00">up</stem>
				<staff>1</staff>
			</note>
			<note>
				<chord/>
				<pitch>
					<step>A</step>
					<octave>4</octave>
				</pitch>
				<duration>13440</duration>
				<voice>1</voice>
				<type>half</type>
				<accidental>natural</accidental>
				<stem default-y="10.00">up</stem>
				<staff>1</staff>
			</note>
			<note>
				<pitch>
					<step>G</step>
					<octave>4</octave>
				</pitch>
				<duration>13440</duration>
				<voice>1</voice>
				<type>half</type>
				<stem default-y="5.00">up</stem>
				<staff>1</staff>
			</note>
			<note>
				<chord/>
				<pitch>
					<step>D</step>
					<octave>4</octave>
				</pitch>
				<duration>13440</duration>
				<voice>1</voice>
				<type>half</type>
				<stem default-y="5.00">up</stem>
				<staff>1</staff>
			</note>
			<note>
				<pitch>
					<step>D</step>
					<octave>4</octave>
				</pitch>
				<duration>13440</duration>
				<voice>1</voice>
				<type>half</type>
				<stem default-y="0.00">up</stem>
				<staff>1</staff>
			</note>
			<note>
				<chord/>
				<pitch>
					<step>F</step>
					<alter>1</alter>
					<octave>4</octave>
				</pitch>
				<duration>13440</duration>
				<voice>1</voice>
				<type>half</type>
				<accidental>sharp</accidental>
				<stem default-y="0.00">up</stem>
				<staff>1</staff>
			</note>
		</measure>
		<!--==========================[1,8]=============================-->
		<measure number="8" width="119">
			<note>
				<pitch>
					<step>B</step>
					<alter>-1</alter>
					<octave>3</octave>
				</pitch>
				<duration>40320</duration>
				<voice>4</voice>
				<type>whole</type>
				<dot/>
				<stem>none</stem>
				<staff>2</staff>
			</note>
			<note>
				<chord/>
				<pitch>
					<step>G</step>
					<octave>3</octave>
				</pitch>
				<duration>40320</duration>
				<voice>4</voice>
				<type>whole</type>
				<dot/>
				<stem>none</stem>
				<staff>2</staff>
			</note>
			<backup>
				<duration>40320</duration>
			</backup>
			<note>
				<pitch>
					<step>D</step>
					<octave>4</octave>
				</pitch>
				<duration>40320</duration>
				<voice>1</voice>
				<type>whole</type>
				<dot/>
				<stem>none</stem>
				<staff>1</staff>
			</note>
			<note>
				<chord/>
				<pitch>
					<step>G</step>
					<octave>4</octave>
				</pitch>
				<duration>40320</duration>
				<voice>1</voice>
				<type>whole</type>
				<dot/>
				<stem>none</stem>
				<staff>1</staff>
			</note>
		</measure>
		<!--==========================[1,9]=============================-->
		<measure number="9" width="225">
			<note>
				<pitch>
					<step>F</step>
					<octave>3</octave>
				</pitch>
				<duration>13440</duration>
				<voice>4</voice>
				<type>half</type>
				<stem default-y="-45.24">down</stem>
				<staff>2</staff>
			</note>
			<note>
				<chord/>
				<pitch>
					<step>A</step>
					<alter>-1</alter>
					<octave>3</octave>
				</pitch>
				<duration>13440</duration>
				<voice>4</voice>
				<type>half</type>
				<accidental editorial="yes">flat</accidental>
				<stem default-y="-45.24">down</stem>
				<staff>2</staff>
			</note>
			<note>
				<pitch>
					<step>A</step>
					<alter>-1</alter>
					<octave>3</octave>
				</pitch>
				<duration>13440</duration>
				<voice>4</voice>
				<type>half</type>
				<stem default-y="-45.24">down</stem>
				<staff>2</staff>
			</note>
			<note>
				<chord/>
				<pitch>
					<step>F</step>
					<octave>3</octave>
				</pitch>
				<duration>13440</duration>
				<voice>4</voice>
				<type>half</type>
				<stem default-y="-45.24">down</stem>
				<staff>2</staff>
			</note>
			<note>
				<pitch>
					<step>A</step>
					<alter>-1</alter>
					<octave>3</octave>
				</pitch>
				<duration>13440</duration>
				<voice>4</voice>
				<type>half</type>
				<stem default-y="-55.24">down</stem>
				<staff>2</staff>
			</note>
			<note>
				<chord/>
				<pitch>
					<step>B</step>
					<alter>-1</alter>
					<octave>2</octave>
				</pitch>
				<duration>13440</duration>
				<voice>4</voice>
				<type>half</type>
				<stem default-y="-57.52">down</stem>
				<staff>2</staff>
			</note>
			<backup>
				<duration>40320</duration>
			</backup>
			<note>
				<pitch>
					<step>D</step>
					<octave>4</octave>
				</pitch>
				<duration>13440</duration>
				<voice>1</voice>
				<type>half</type>
				<stem default-y="10.00">up</stem>
				<staff>1</staff>
			</note>
			<note>
				<chord/>
				<pitch>
					<step>B</step>
					<alter>-1</alter>
					<octave>4</octave>
				</pitch>
				<duration>13440</duration>
				<voice>1</voice>
				<type>half</type>
				<stem default-y="10.00">up</stem>
				<staff>1</staff>
			</note>
			<note>
				<pitch>
					<step>C</step>
					<octave>5</octave>
				</pitch>
				<duration>13440</duration>
				<voice>1</voice>
				<type>half</type>
				<stem default-y="15.00">up</stem>
				<staff>1</staff>
			</note>
			<note>
				<chord/>
				<pitch>
					<step>E</step>
					<alter>-1</alter>
					<octave>4</octave>
				</pitch>
				<duration>13440</duration>
				<voice>1</voice>
				<type>half</type>
				<stem default-y="15.00">up</stem>
				<staff>1</staff>
			</note>
			<note>
				<pitch>
					<step>F</step>
					<octave>4</octave>
				</pitch>
				<duration>13440</duration>
				<voice>1</voice>
				<type>half</type>
				<stem default-y="15.00">up</stem>
				<staff>1</staff>
			</note>
			<note>
				<chord/>
				<pitch>
					<step>D</step>
					<octave>5</octave>
				</pitch>
				<duration>13440</duration>
				<voice>1</voice>
				<type>half</type>
				<stem default-y="15.00">up</stem>
				<staff>1</staff>
			</note>
		</measure>
		<!--==========================[1,10]=============================-->
		<measure number="10" width="214">
			<note>
				<pitch>
					<step>C</step>
					<octave>3</octave>
				</pitch>
				<duration>20160</duration>
				<voice>4</voice>
				<type>half</type>
				<dot/>
				<stem default-y="-55.24">down</stem>
				<staff>2</staff>
			</note>
			<note>
				<chord/>
				<pitch>
					<step>G</step>
					<octave>3</octave>
				</pitch>
				<duration>20160</duration>
				<voice>4</voice>
				<type>half</type>
				<dot/>
				<stem default-y="-55.24">down</stem>
				<staff>2</staff>
			</note>
			<note>
				<pitch>
					<step>C</step>
					<octave>4</octave>
				</pitch>
				<duration>6720</duration>
				<voice>4</voice>
				<type>quarter</type>
				<stem default-y="-55.24">down</stem>
				<staff>2</staff>
			</note>
			<note>
				<chord/>
				<pitch>
					<step>C</step>
					<octave>3</octave>
				</pitch>
				<duration>6720</duration>
				<voice>4</voice>
				<type>quarter</type>
				<stem default-y="-57.52">down</stem>
				<staff>2</staff>
			</note>
			<note>
				<pitch>
					<step>C</step>
					<octave>4</octave>
				</pitch>
				<duration>13440</duration>
				<voice>4</voice>
				<type>half</type>
				<stem default-y="-55.24">down</stem>
				<staff>2</staff>
			</note>
			<note>
				<chord/>
				<pitch>
					<step>C</step>
					<octave>3</octave>
				</pitch>
				<duration>13440</duration>
				<voice>4</voice>
				<type>half</type>
				<stem default-y="-57.52">down</stem>
				<staff>2</staff>
			</note>
			<backup>
				<duration>40320</duration>
			</backup>
			<note>
				<pitch>
					<step>E</step>
					<alter>-1</alter>
					<octave>4</octave>
				</pitch>
				<duration>20160</duration>
				<voice>1</voice>
				<type>half</type>
				<dot/>
				<stem default-y="20.00">up</stem>
				<staff>1</staff>
			</note>
			<note>
				<chord/>
				<pitch>
					<step>E</step>
					<alter>-1</alter>
					<octave>5</octave>
				</pitch>
				<duration>20160</duration>
				<voice>1</voice>
				<type>half</type>
				<dot/>
				<stem default-y="29.86">up</stem>
				<staff>1</staff>
			</note>
			<note>
				<pitch>
					<step>G</step>
					<octave>4</octave>
				</pitch>
				<duration>6720</duration>
				<voice>1</voice>
				<type>quarter</type>
				<stem default-y="5.00">up</stem>
				<staff>1</staff>
			</note>
			<note>
				<chord/>
				<pitch>
					<step>E</step>
					<alter>-1</alter>
					<octave>4</octave>
				</pitch>
				<duration>6720</duration>
				<voice>1</voice>
				<type>quarter</type>
				<stem default-y="5.00">up</stem>
				<staff>1</staff>
			</note>
			<note>
				<pitch>
					<step>E</step>
					<alter>-1</alter>
					<octave>4</octave>
				</pitch>
				<duration>13440</duration>
				<voice>1</voice>
				<type>half</type>
				<stem default-y="5.00">up</stem>
				<staff>1</staff>
			</note>
			<note>
				<chord/>
				<pitch>
					<step>G</step>
					<octave>4</octave>
				</pitch>
				<duration>13440</duration>
				<voice>1</voice>
				<type>half</type>
				<stem default-y="5.00">up</stem>
				<staff>1</staff>
			</note>
		</measure>
		<!--==========================[1,11]=============================-->
		<measure number="11" width="359">
			<print new-system="yes">
				<system-layout>
					<system-margins>
						<left-margin>28.400</left-margin>
						<right-margin>18.849</right-margin>
					</system-margins>
					<system-distance>131.429</system-distance>
				</system-layout>
				<staff-layout number="2">
					<staff-distance>86.905</staff-distance>
				</staff-layout>
			</print>
			<attributes>
				<staff-details number="1" print-object="yes">
				</staff-details>
				<staff-details number="2" print-object="yes">
				</staff-details>
			</attributes>
			<note>
				<pitch>
					<step>D</step>
					<alter>-1</alter>
					<octave>3</octave>
				</pitch>
				<duration>13440</duration>
				<voice>4</voice>
				<type>half</type>
				<accidental>flat</accidental>
				<stem default-y="-50.24">down</stem>
				<staff>2</staff>
			</note>
			<note>
				<chord/>
				<pitch>
					<step>B</step>
					<alter>-1</alter>
					<octave>3</octave>
				</pitch>
				<duration>13440</duration>
				<voice>4</voice>
				<type>half</type>
				<stem default-y="-50.24">down</stem>
				<staff>2</staff>
			</note>
			<note>
				<pitch>
					<step>A</step>
					<alter>-1</alter>
					<octave>3</octave>
				</pitch>
				<duration>13440</duration>
				<voice>4</voice>
				<type>half</type>
				<stem default-y="-55.24">down</stem>
				<staff>2</staff>
			</note>
			<note>
				<chord/>
				<pitch>
					<step>C</step>
					<octave>3</octave>
				</pitch>
				<duration>13440</duration>
				<voice>4</voice>
				<type>half</type>
				<stem default-y="-55.24">down</stem>
				<staff>2</staff>
			</note>
			<note>
				<pitch>
					<step>G</step>
					<octave>3</octave>
				</pitch>
				<duration>13440</duration>
				<voice>4</voice>
				<type>half</type>
				<stem default-y="-55.24">down</stem>
				<staff>2</staff>
			</note>
			<note>
				<chord/>
				<pitch>
					<step>B</step>
					<alter>-1</alter>
					<octave>2</octave>
				</pitch>
				<duration>13440</duration>
				<voice>4</voice>
				<type>half</type>
				<stem default-y="-55.24">down</stem>
				<staff>2</staff>
			</note>
			<backup>
				<duration>40320</duration>
			</backup>
			<note>
				<pitch>
					<step>E</step>
					<alter>-1</alter>
					<octave>4</octave>
				</pitch>
				<duration>13440</duration>
				<voice>1</voice>
				<type>half</type>
				<stem default-y="5.00">up</stem>
				<staff>1</staff>
			</note>
			<note>
				<chord/>
				<pitch>
					<step>G</step>
					<octave>4</octave>
				</pitch>
				<duration>13440</duration>
				<voice>1</voice>
				<type>half</type>
				<stem default-y="5.00">up</stem>
				<staff>1</staff>
			</note>
			<note>
				<pitch>
					<step>A</step>
					<alter>-1</alter>
					<octave>4</octave>
				</pitch>
				<duration>13440</duration>
				<voice>1</voice>
				<type>half</type>
				<stem default-y="10.00">up</stem>
				<staff>1</staff>
			</note>
			<note>
				<chord/>
				<pitch>
					<step>E</step>
					<alter>-1</alter>
					<octave>4</octave>
				</pitch>
				<duration>13440</duration>
				<voice>1</voice>
				<type>half</type>
				<stem default-y="10.00">up</stem>
				<staff>1</staff>
			</note>
			<forward>
				<duration>13440</duration>
			</forward>
			<direction placement="below">
				<direction-type>
					<words font-family="Times New Roman" font-size="11" font-weight="bold" font-style="normal" relative-x="0.00" default-y="-237.26">No, not despairingly come I to Thee;</words>
				</direction-type>
				<staff>1</staff>
			</direction>
			<direction placement="below">
				<direction-type>
					<words font-family="Times New Roman" font-size="11" font-weight="bold" font-style="normal" relative-x="0.00" default-y="-259.17">No, not distrustingly bend I the knee:</words>
				</direction-type>
				<staff>1</staff>
			</direction>
			<direction placement="below">
				<direction-type>
					<words font-family="Times New Roman" font-size="11" font-weight="bold" font-style="normal" relative-x="0.00" default-y="-281.31">Sin hath gone over me, yet is this still</words>
				</direction-type>
				<staff>1</staff>
			</direction>
			<direction placement="below">
				<direction-type>
					<words font-family="Times New Roman" font-size="11" font-weight="bold" font-style="normal" relative-x="0.00" default-y="-303.21">Jesus hath died.</words>
				</direction-type>
				<staff>1</staff>
			</direction>
			<direction placement="below">
				<direction-type>
					<words font-family="Times New Roman" font-size="11" font-weight="bold" font-style="normal" relative-x="0.00" default-y="-347.26">Ah! mine iniquity crimson hath been,</words>
				</direction-type>
				<staff>1</staff>
			</direction>
			<direction placement="below">
				<direction-type>
					<words font-family="Times New Roman" font-size="11" font-weight="bold" font-style="normal" relative-x="0.00" default-y="-369.40">Infinite, infinite—sin upon sin:</words>
				</direction-type>
				<staff>1</staff>
			</direction>
			<direction placement="below">
				<direction-type>
					<words font-family="Times New Roman" font-size="11" font-weight="bold" font-style="normal" relative-x="0.00" default-y="-391.31">Sin of not loving Thee, sin of not trusting</words>
				</direction-type>
				<staff>1</staff>
			</direction>
			<direction placement="below">
				<direction-type>
					<words font-family="Times New Roman" font-size="11" font-weight="bold" font-style="normal" relative-x="0.00" default-y="-413.45">Infinite sin.</words>
				</direction-type>
				<staff>1</staff>
			</direction>
			<backup>
				<duration>13440</duration>
			</backup>
			<note>
				<pitch>
					<step>B</step>
					<alter>-1</alter>
					<octave>4</octave>
				</pitch>
				<duration>13440</duration>
				<voice>1</voice>
				<type>half</type>
				<stem default-y="10.00">up</stem>
				<staff>1</staff>
			</note>
			<note>
				<chord/>
				<pitch>
					<step>E</step>
					<alter>-1</alter>
					<octave>4</octave>
				</pitch>
				<duration>13440</duration>
				<voice>1</voice>
				<type>half</type>
				<stem default-y="10.00">up</stem>
				<staff>1</staff>
			</note>
		</measure>
		<!--==========================[1,12]=============================-->
		<measure number="12" width="266">
			<note>
				<pitch>
					<step>C</step>
					<octave>5</octave>
				</pitch>
				<duration>20160</duration>
				<voice>1</voice>
				<type>half</type>
				<dot/>
				<stem default-y="15.00">up</stem>
				<staff>1</staff>
			</note>
			<note>
				<chord/>
				<pitch>
					<step>E</step>
					<alter>-1</alter>
					<octave>4</octave>
				</pitch>
				<duration>20160</duration>
				<voice>1</voice>
				<type>half</type>
				<dot/>
				<stem default-y="15.00">up</stem>
				<staff>1</staff>
			</note>
			<note>
				<pitch>
					<step>E</step>
					<alter>-1</alter>
					<octave>4</octave>
				</pitch>
				<duration>6720</duration>
				<voice>1</voice>
				<type>quarter</type>
				<stem default-y="0.00">up</stem>
				<staff>1</staff>
			</note>
			<note>
				<chord/>
				<pitch>
					<step>F</step>
					<octave>4</octave>
				</pitch>
				<duration>6720</duration>
				<voice>1</voice>
				<type>quarter</type>
				<stem default-y="0.00">up</stem>
				<staff>1</staff>
			</note>
			<forward>
				<duration>13440</duration>
			</forward>
			<direction placement="below">
				<direction-type>
					<words font-family="Times New Roman" font-size="11" font-weight="bold" font-style="normal" relative-x="0.00" default-y="-281.31">my plea,</words>
				</direction-type>
				<staff>1</staff>
			</direction>
			<direction placement="below">
				<direction-type>
					<words font-family="Times New Roman" font-size="11" font-weight="bold" font-style="normal" relative-x="0.00" default-y="-391.31">Thee—</words>
				</direction-type>
				<staff>1</staff>
			</direction>
			<direction placement="below">
				<direction-type>
					<words font-family="Times New Roman" font-size="11" font-weight="bold" font-style="normal" relative-x="0.00" default-y="-238.45">Faithful</words>
				</direction-type>
				<staff>1</staff>
			</direction>
			<direction placement="below">
				<direction-type>
					<words font-family="Times New Roman" font-size="11" font-weight="bold" font-style="normal" relative-x="0.00" default-y="-260.60">Loving</words>
				</direction-type>
				<staff>1</staff>
			</direction>
			<direction placement="below">
				<direction-type>
					<words font-family="Times New Roman" font-size="11" font-weight="bold" font-style="normal" relative-x="0.00" default-y="-282.50">Lord, let</words>
				</direction-type>
				<staff>1</staff>
			</direction>
			<direction placement="below">
				<direction-type>
					<words font-family="Times New Roman" font-size="11" font-weight="bold" font-style="normal" relative-x="0.00" default-y="-326.55">Pass o'er</words>
				</direction-type>
				<staff>1</staff>
			</direction>
			<direction placement="below">
				<direction-type>
					<words font-family="Times New Roman" font-size="11" font-weight="bold" font-style="normal" relative-x="0.00" default-y="-370.59">Then all</words>
				</direction-type>
				<staff>1</staff>
			</direction>
			<direction placement="below">
				<direction-type>
					<words font-family="Times New Roman" font-size="11" font-weight="bold" font-style="normal" relative-x="0.00" default-y="-392.74">Thus shall</words>
				</direction-type>
				<staff>1</staff>
			</direction>
			<direction placement="below">
				<direction-type>
					<words font-family="Times New Roman" font-size="11" font-weight="bold" font-style="normal" relative-x="0.00" default-y="-414.64">Leaning</words>
				</direction-type>
				<staff>1</staff>
			</direction>
			<backup>
				<duration>13440</duration>
			</backup>
			<note>
				<pitch>
					<step>E</step>
					<alter>-1</alter>
					<octave>4</octave>
				</pitch>
				<duration>13440</duration>
				<voice>1</voice>
				<type>half</type>
				<stem default-y="0.00">up</stem>
				<staff>1</staff>
			</note>
			<note>
				<chord/>
				<pitch>
					<step>F</step>
					<octave>4</octave>
				</pitch>
				<duration>13440</duration>
				<voice>1</voice>
				<type>half</type>
				<stem default-y="0.00">up</stem>
				<staff>1</staff>
			</note>
			<backup>
				<duration>40320</duration>
			</backup>
			<note>
				<pitch>
					<step>A</step>
					<alter>-1</alter>
					<octave>2</octave>
				</pitch>
				<duration>20160</duration>
				<voice>4</voice>
				<type>half</type>
				<dot/>
				<stem default-y="15.00">up</stem>
				<staff>2</staff>
			</note>
			<note>
				<chord/>
				<pitch>
					<step>F</step>
					<octave>3</octave>
				</pitch>
				<duration>20160</duration>
				<voice>4</voice>
				<type>half</type>
				<dot/>
				<stem default-y="15.00">up</stem>
				<staff>2</staff>
			</note>
			<note>
				<pitch>
					<step>C</step>
					<octave>4</octave>
				</pitch>
				<duration>6720</duration>
				<voice>4</voice>
				<type>quarter</type>
				<stem default-y="-60.24">down</stem>
				<staff>2</staff>
			</note>
			<note>
				<chord/>
				<pitch>
					<step>A</step>
					<alter>-1</alter>
					<octave>2</octave>
				</pitch>
				<duration>6720</duration>
				<voice>4</voice>
				<type>quarter</type>
				<stem default-y="-77.52">down</stem>
				<staff>2</staff>
			</note>
			<note>
				<pitch>
					<step>A</step>
					<octave>2</octave>
				</pitch>
				<duration>13440</duration>
				<voice>4</voice>
				<type>half</type>
				<accidental>natural</accidental>
				<stem default-y="-77.52">down</stem>
				<staff>2</staff>
			</note>
			<note>
				<chord/>
				<pitch>
					<step>C</step>
					<octave>4</octave>
				</pitch>
				<duration>13440</duration>
				<voice>4</voice>
				<type>half</type>
				<stem default-y="-60.24">down</stem>
				<staff>2</staff>
			</note>
		</measure>
		<!--==========================[1,13]=============================-->
		<measure number="13" width="267">
			<note>
				<pitch>
					<step>B</step>
					<alter>-1</alter>
					<octave>2</octave>
				</pitch>
				<duration>13440</duration>
				<voice>4</voice>
				<type>half</type>
				<stem default-y="-62.52">down</stem>
				<staff>2</staff>
			</note>
			<note>
				<chord/>
				<pitch>
					<step>B</step>
					<alter>-1</alter>
					<octave>3</octave>
				</pitch>
				<duration>13440</duration>
				<voice>4</voice>
				<type>half</type>
				<stem default-y="-55.24">down</stem>
				<staff>2</staff>
			</note>
			<note>
				<pitch>
					<step>B</step>
					<alter>-1</alter>
					<octave>3</octave>
				</pitch>
				<duration>13440</duration>
				<voice>4</voice>
				<type>half</type>
				<stem default-y="-55.24">down</stem>
				<staff>2</staff>
			</note>
			<note>
				<chord/>
				<pitch>
					<step>B</step>
					<alter>-1</alter>
					<octave>2</octave>
				</pitch>
				<duration>13440</duration>
				<voice>4</voice>
				<type>half</type>
				<stem default-y="-62.52">down</stem>
				<staff>2</staff>
			</note>
			<note>
				<pitch>
					<step>D</step>
					<octave>4</octave>
				</pitch>
				<duration>13440</duration>
				<voice>4</voice>
				<type>half</type>
				<stem default-y="-55.24">down</stem>
				<staff>2</staff>
			</note>
			<note>
				<chord/>
				<pitch>
					<step>B</step>
					<alter>-1</alter>
					<octave>2</octave>
				</pitch>
				<duration>13440</duration>
				<voice>4</voice>
				<type>half</type>
				<stem default-y="-72.52">down</stem>
				<staff>2</staff>
			</note>
			<backup>
				<duration>40320</duration>
			</backup>
			<note>
				<pitch>
					<step>D</step>
					<octave>4</octave>
				</pitch>
				<duration>13440</duration>
				<voice>1</voice>
				<type>half</type>
				<stem default-y="0.00">up</stem>
				<staff>1</staff>
			</note>
			<note>
				<chord/>
				<pitch>
					<step>F</step>
					<octave>4</octave>
				</pitch>
				<duration>13440</duration>
				<voice>1</voice>
				<type>half</type>
				<stem default-y="0.00">up</stem>
				<staff>1</staff>
			</note>
			<note>
				<pitch>
					<step>G</step>
					<octave>4</octave>
				</pitch>
				<duration>13440</duration>
				<voice>1</voice>
				<type>half</type>
				<stem default-y="5.00">up</stem>
				<staff>1</staff>
			</note>
			<note>
				<chord/>
				<pitch>
					<step>E</step>
					<alter>-1</alter>
					<octave>4</octave>
				</pitch>
				<duration>13440</duration>
				<voice>1</voice>
				<type>half</type>
				<stem default-y="5.00">up</stem>
				<staff>1</staff>
			</note>
			<forward>
				<duration>13440</duration>
			</forward>
			<direction placement="below">
				<direction-type>
					<words font-family="Times New Roman" font-size="11" font-weight="bold" font-style="normal" relative-x="0.00" default-y="-260.60">and kind art Thou when poor</words>
				</direction-type>
				<staff>1</staff>
			</direction>
			<direction placement="below">
				<direction-type>
					<words font-family="Times New Roman" font-size="11" font-weight="bold" font-style="normal" relative-x="0.00" default-y="-238.45">and just art Thou, forgiving</words>
				</direction-type>
				<staff>1</staff>
			</direction>
			<direction placement="below">
				<direction-type>
					<words font-family="Times New Roman" font-size="11" font-weight="bold" font-style="normal" relative-x="0.00" default-y="-370.59">is peace and light this soul within;</words>
				</direction-type>
				<staff>1</staff>
			</direction>
			<direction placement="below">
				<direction-type>
					<words font-family="Times New Roman" font-size="11" font-weight="bold" font-style="normal" relative-x="0.00" default-y="-414.64">on Thee, my God, guided along</words>
				</direction-type>
				<staff>1</staff>
			</direction>
			<direction placement="below">
				<direction-type>
					<words font-family="Times New Roman" font-size="11" font-weight="bold" font-style="normal" relative-x="0.00" default-y="-282.50">the cleansing blood, blood of</words>
				</direction-type>
				<staff>1</staff>
			</direction>
			<direction placement="below">
				<direction-type>
					<words font-family="Times New Roman" font-size="11" font-weight="bold" font-style="normal" relative-x="0.00" default-y="-326.55">my soul.</words>
				</direction-type>
				<staff>1</staff>
			</direction>
			<direction placement="below">
				<direction-type>
					<words font-family="Times New Roman" font-size="11" font-weight="bold" font-style="normal" relative-x="0.00" default-y="-392.74">I walk with Thee, the loved</words>
				</direction-type>
				<staff>1</staff>
			</direction>
			<direction placement="below">
				<direction-type>
					<words font-family="Times New Roman" font-size="11" font-weight="bold" font-style="normal" relative-x="0.00" default-y="-304.64">Lamb of God,</words>
				</direction-type>
				<staff>1</staff>
			</direction>
			<backup>
				<duration>13440</duration>
			</backup>
			<note>
				<pitch>
					<step>F</step>
					<octave>4</octave>
				</pitch>
				<duration>13440</duration>
				<voice>1</voice>
				<type>half</type>
				<stem default-y="10.00">up</stem>
				<staff>1</staff>
			</note>
			<note>
				<chord/>
				<pitch>
					<step>A</step>
					<alter>-1</alter>
					<octave>4</octave>
				</pitch>
				<duration>13440</duration>
				<voice>1</voice>
				<type>half</type>
				<stem default-y="10.00">up</stem>
				<staff>1</staff>
			</note>
		</measure>
		<!--==========================[1,14]=============================-->
		<measure number="14" width="160">
			<note>
				<pitch>
					<step>B</step>
					<alter>-1</alter>
					<octave>3</octave>
				</pitch>
				<duration>40320</duration>
				<voice>4</voice>
				<type>whole</type>
				<dot/>
				<stem>none</stem>
				<staff>2</staff>
			</note>
			<note>
				<chord/>
				<pitch>
					<step>E</step>
					<alter>-1</alter>
					<octave>3</octave>
				</pitch>
				<duration>40320</duration>
				<voice>4</voice>
				<type>whole</type>
				<dot/>
				<stem>none</stem>
				<staff>2</staff>
			</note>
			<direction placement="below">
				<direction-type>
					<words font-family="Times New Roman" font-size="11" font-weight="bold" font-style="normal" relative-x="0.00" default-y="-238.45">all;</words>
				</direction-type>
				<staff>1</staff>
			</direction>
			<direction placement="below">
				<direction-type>
					<words font-family="Times New Roman" font-size="11" font-weight="bold" font-style="normal" relative-x="0.00" default-y="-260.60">ones call:</words>
				</direction-type>
				<staff>1</staff>
			</direction>
			<direction placement="below">
				<direction-type>
					<words font-family="Times New Roman" font-size="11" font-weight="bold" font-style="normal" relative-x="0.00" default-y="-282.50">the</words>
				</direction-type>
				<staff>1</staff>
			</direction>
			<direction placement="below">
				<direction-type>
					<words font-family="Times New Roman" font-size="11" font-weight="bold" font-style="normal" relative-x="0.00" default-y="-392.74">Unseen;</words>
				</direction-type>
				<staff>1</staff>
			</direction>
			<direction placement="below">
				<direction-type>
					<words font-family="Times New Roman" font-size="11" font-weight="bold" font-style="normal" relative-x="0.00" default-y="-414.64">the road,</words>
				</direction-type>
				<staff>1</staff>
			</direction>
			<backup>
				<duration>40320</duration>
			</backup>
			<note>
				<pitch>
					<step>E</step>
					<alter>-1</alter>
					<octave>4</octave>
				</pitch>
				<duration>40320</duration>
				<voice>1</voice>
				<type>whole</type>
				<dot/>
				<stem>none</stem>
				<staff>1</staff>
			</note>
			<note>
				<chord/>
				<pitch>
					<step>G</step>
					<octave>4</octave>
				</pitch>
				<duration>40320</duration>
				<voice>1</voice>
				<type>whole</type>
				<dot/>
				<stem>none</stem>
				<staff>1</staff>
			</note>
			<barline location="right">
				<bar-style>light-heavy</bar-style>
			</barline>
		</measure>
	</part>
</score-partwise>
