<?xml version="1.0" encoding="UTF-8" standalone="no"?>
<!DOCTYPE score-partwise PUBLIC "-//Recordare//DTD MusicXML 2.0 Partwise//EN" "http://www.musicxml.org/dtds/partwise.dtd">
<score-partwise version="2.0">
	<work>
		<work-title>My heart is resting, O my God</work-title>
	</work>
	<identification>
		<creator type="composer">Nettleham</creator>
		<creator type="poet">G.J. Bennett, 1863-1930</creator>
		<encoding>
			<software>PDFtoMusic Pro v1.6.5 Build 1B9E7 (c) Myriad - http://www.myriad-online.com</software>
			<?PDFtoMusic Document type 0100- 00000000?>
			<supports attribute="new-system" element="print" type="yes" value="yes"/>
			<supports attribute="new-page" element="print" type="yes" value="yes"/>
		</encoding>
	</identification>
	<defaults>
		<scaling>
			<millimeters>7.112021</millimeters>
			<tenths>40</tenths>
		</scaling>
		<page-layout>
			<page-height>1571.424</page-height>
			<page-width>1214.282</page-width>
			<page-margins type="both">
				<left-margin>56.243</left-margin>
				<right-margin>56.243</right-margin>
				<top-margin>56.243</top-margin>
				 <bottom-margin>56.243</bottom-margin>
			</page-margins>
		</page-layout>
		<appearance>
			<line-width type="stem">0.2381</line-width>
			<line-width type="staff">0.7143</line-width>
			<line-width type="light barline">0.3795</line-width>
			<line-width type="heavy barline">3.3333</line-width>
			<line-width type="leger">0.7143</line-width>
		</appearance>
	</defaults>
	<credit page="1">
		<credit-words  default-x="71.191" default-y="1479.519" justify="left" valign="baseline" font-family="Times New Roman" font-size="10" font-weight="normal" font-style="normal">G.J. Bennett, 1863-1930</credit-words>
	</credit>
	<credit page="1">
		<credit-words  default-x="239.523" default-y="397.141" justify="left" valign="baseline" font-family="Times New Roman" font-size="11" font-weight="bold" font-style="normal">I thirst for springs of heavenly life,
And here all day they rise—
I seek the treasure of Thy love,
And close at hand it lies.
And a new song is in my mouth
To long loved music set—
Glory to Thee for all the grace
I have not tasted yet.</credit-words>
	</credit>
	<credit page="1">
		<credit-words  default-x="373.332" default-y="1513.328" justify="left" valign="baseline" font-family="Times New Roman" font-size="18" font-weight="bold" font-style="normal">My heart is resting, O my God</credit-words>
	</credit>
	<credit page="1">
		<credit-words  default-x="492.855" default-y="76.190" justify="left" valign="baseline" font-family="Times New Roman" font-size="10" font-weight="normal" font-style="normal">www.smallchurchmusic.com</credit-words>
	</credit>
	<credit page="1">
		<credit-words  default-x="665.950" default-y="398.332" justify="left" valign="baseline" font-family="Times New Roman" font-size="11" font-weight="bold" font-style="normal">My heart is resting, O my God,
My heart is in Thy care—
I hear the voice of joy and health
Resounding everywhere.
Thou art my portion, saith my soul,
Ten thousand voices say,
And the music of their glad Amen,
Will never die away.</credit-words>
	</credit>
	<credit page="1">
		<credit-words  default-x="930.949" default-y="168.571" justify="left" valign="baseline" font-family="Times New Roman" font-size="10" font-weight="normal" font-style="normal">Anna Waring</credit-words>
	</credit>
	<credit page="1">
		<credit-words  default-x="1060.949" default-y="1482.138" justify="left" valign="baseline" font-family="Times New Roman" font-size="10" font-weight="normal" font-style="normal">Nettleham</credit-words>
	</credit>
	<part-list>
		<score-part id="P1">
			<part-name></part-name>
			<score-instrument id="P1-I1">
				<instrument-name>Instrument 1</instrument-name>
			</score-instrument>
			<midi-instrument id="P1-I1">
				<midi-channel>1</midi-channel>
				<midi-bank>1</midi-bank>
				<midi-program>1</midi-program>
				<volume>50</volume>
				<pan>0</pan>
				<elevation>0</elevation>
				<?Myriad
				<iddigit>0</iddigit>
				?>
			</midi-instrument>
		</score-part>
	</part-list>
	<part id="P1">
		<!--==========================[1,1]=============================-->
		<measure number="1" width="145">
			<print new-page="yes">
				<system-layout>
					<system-margins>
						<left-margin>28.400</left-margin>
						<right-margin>14.881</right-margin>
					</system-margins>
					<top-system-distance>76.733</top-system-distance>
				</system-layout>
				<staff-layout number="2">
					<staff-distance>45.476</staff-distance>
				</staff-layout>
			</print>
			<attributes>
				<divisions>6720</divisions>
				<key>
					<fifths>-3</fifths>
					<mode>major</mode>
				</key>
				<staves>2</staves>
				<clef number="1">
					<sign>G</sign>
					<line>2</line>
				</clef>
				<clef number="2">
					<sign>F</sign>
					<line>4</line>
				</clef>
				<staff-details number="1" print-object="yes">
					<staff-lines>5</staff-lines>
					<staff-size>100.00</staff-size>
				</staff-details>
				<staff-details number="2" print-object="yes">
					<staff-lines>5</staff-lines>
					<staff-size>100.00</staff-size>
				</staff-details>
			</attributes>
			<note>
				<pitch>
					<step>B</step>
					<alter>-1</alter>
					<octave>3</octave>
				</pitch>
				<duration>13440</duration>
				<voice>4</voice>
				<type>half</type>
				<stem default-y="-50.24">down</stem>
				<staff>2</staff>
			</note>
			<note>
				<chord/>
				<pitch>
					<step>E</step>
					<alter>-1</alter>
					<octave>3</octave>
				</pitch>
				<duration>13440</duration>
				<voice>4</voice>
				<type>half</type>
				<stem default-y="-50.24">down</stem>
				<staff>2</staff>
			</note>
			<backup>
				<duration>13440</duration>
			</backup>
			<note>
				<pitch>
					<step>G</step>
					<octave>4</octave>
				</pitch>
				<duration>13440</duration>
				<voice>1</voice>
				<type>half</type>
				<stem default-y="10.00">up</stem>
				<staff>1</staff>
			</note>
			<note>
				<chord/>
				<pitch>
					<step>B</step>
					<alter>-1</alter>
					<octave>4</octave>
				</pitch>
				<duration>13440</duration>
				<voice>1</voice>
				<type>half</type>
				<stem default-y="10.00">up</stem>
				<staff>1</staff>
			</note>
		</measure>
		<!--==========================[1,2]=============================-->
		<measure number="2" width="237">
			<note>
				<pitch>
					<step>E</step>
					<alter>-1</alter>
					<octave>3</octave>
				</pitch>
				<duration>13440</duration>
				<voice>4</voice>
				<type>half</type>
				<stem default-y="-50.24">down</stem>
				<staff>2</staff>
			</note>
			<note>
				<chord/>
				<pitch>
					<step>B</step>
					<alter>-1</alter>
					<octave>3</octave>
				</pitch>
				<duration>13440</duration>
				<voice>4</voice>
				<type>half</type>
				<stem default-y="-50.24">down</stem>
				<staff>2</staff>
			</note>
			<note>
				<pitch>
					<step>E</step>
					<alter>-1</alter>
					<octave>3</octave>
				</pitch>
				<duration>13440</duration>
				<voice>4</voice>
				<type>half</type>
				<stem default-y="-50.24">down</stem>
				<staff>2</staff>
			</note>
			<note>
				<chord/>
				<pitch>
					<step>B</step>
					<alter>-1</alter>
					<octave>3</octave>
				</pitch>
				<duration>13440</duration>
				<voice>4</voice>
				<type>half</type>
				<stem default-y="-50.24">down</stem>
				<staff>2</staff>
			</note>
			<note>
				<pitch>
					<step>B</step>
					<alter>-1</alter>
					<octave>3</octave>
				</pitch>
				<duration>13440</duration>
				<voice>4</voice>
				<type>half</type>
				<stem default-y="-50.24">down</stem>
				<staff>2</staff>
			</note>
			<note>
				<chord/>
				<pitch>
					<step>E</step>
					<alter>-1</alter>
					<octave>3</octave>
				</pitch>
				<duration>13440</duration>
				<voice>4</voice>
				<type>half</type>
				<stem default-y="-50.24">down</stem>
				<staff>2</staff>
			</note>
			<note>
				<pitch>
					<step>B</step>
					<alter>-1</alter>
					<octave>3</octave>
				</pitch>
				<duration>13440</duration>
				<voice>4</voice>
				<type>half</type>
				<stem default-y="-50.24">down</stem>
				<staff>2</staff>
			</note>
			<note>
				<chord/>
				<pitch>
					<step>E</step>
					<alter>-1</alter>
					<octave>3</octave>
				</pitch>
				<duration>13440</duration>
				<voice>4</voice>
				<type>half</type>
				<stem default-y="-50.24">down</stem>
				<staff>2</staff>
			</note>
			<backup>
				<duration>53760</duration>
			</backup>
			<note>
				<pitch>
					<step>G</step>
					<octave>4</octave>
				</pitch>
				<duration>13440</duration>
				<voice>1</voice>
				<type>half</type>
				<stem default-y="10.00">up</stem>
				<staff>1</staff>
			</note>
			<note>
				<chord/>
				<pitch>
					<step>B</step>
					<alter>-1</alter>
					<octave>4</octave>
				</pitch>
				<duration>13440</duration>
				<voice>1</voice>
				<type>half</type>
				<stem default-y="10.00">up</stem>
				<staff>1</staff>
			</note>
			<note>
				<pitch>
					<step>G</step>
					<octave>4</octave>
				</pitch>
				<duration>13440</duration>
				<voice>1</voice>
				<type>half</type>
				<stem default-y="10.00">up</stem>
				<staff>1</staff>
			</note>
			<note>
				<chord/>
				<pitch>
					<step>B</step>
					<alter>-1</alter>
					<octave>4</octave>
				</pitch>
				<duration>13440</duration>
				<voice>1</voice>
				<type>half</type>
				<stem default-y="10.00">up</stem>
				<staff>1</staff>
			</note>
			<note>
				<pitch>
					<step>G</step>
					<octave>4</octave>
				</pitch>
				<duration>13440</duration>
				<voice>1</voice>
				<type>half</type>
				<stem default-y="5.00">up</stem>
				<staff>1</staff>
			</note>
			<note>
				<chord/>
				<pitch>
					<step>E</step>
					<alter>-1</alter>
					<octave>4</octave>
				</pitch>
				<duration>13440</duration>
				<voice>1</voice>
				<type>half</type>
				<stem default-y="5.00">up</stem>
				<staff>1</staff>
			</note>
			<note>
				<pitch>
					<step>B</step>
					<alter>-1</alter>
					<octave>4</octave>
				</pitch>
				<duration>13440</duration>
				<voice>1</voice>
				<type>half</type>
				<stem default-y="10.00">up</stem>
				<staff>1</staff>
			</note>
			<note>
				<chord/>
				<pitch>
					<step>G</step>
					<octave>4</octave>
				</pitch>
				<duration>13440</duration>
				<voice>1</voice>
				<type>half</type>
				<stem default-y="10.00">up</stem>
				<staff>1</staff>
			</note>
		</measure>
		<!--==========================[1,3]=============================-->
		<measure number="3" width="241">
			<note>
				<pitch>
					<step>C</step>
					<octave>4</octave>
				</pitch>
				<duration>20160</duration>
				<voice>4</voice>
				<type>half</type>
				<dot/>
				<stem default-y="-50.24">down</stem>
				<staff>2</staff>
			</note>
			<note>
				<chord/>
				<pitch>
					<step>E</step>
					<alter>-1</alter>
					<octave>3</octave>
				</pitch>
				<duration>20160</duration>
				<voice>4</voice>
				<type>half</type>
				<dot/>
				<stem default-y="-50.24">down</stem>
				<staff>2</staff>
			</note>
			<note>
				<pitch>
					<step>B</step>
					<alter>-1</alter>
					<octave>3</octave>
				</pitch>
				<duration>6720</duration>
				<voice>4</voice>
				<type>quarter</type>
				<stem default-y="-50.24">down</stem>
				<staff>2</staff>
			</note>
			<note>
				<chord/>
				<pitch>
					<step>D</step>
					<octave>3</octave>
				</pitch>
				<duration>6720</duration>
				<voice>4</voice>
				<type>quarter</type>
				<stem default-y="-50.24">down</stem>
				<staff>2</staff>
			</note>
			<note>
				<pitch>
					<step>B</step>
					<alter>-1</alter>
					<octave>3</octave>
				</pitch>
				<duration>13440</duration>
				<voice>4</voice>
				<type>half</type>
				<stem default-y="-50.24">down</stem>
				<staff>2</staff>
			</note>
			<note>
				<chord/>
				<pitch>
					<step>D</step>
					<octave>3</octave>
				</pitch>
				<duration>13440</duration>
				<voice>4</voice>
				<type>half</type>
				<stem default-y="-50.24">down</stem>
				<staff>2</staff>
			</note>
			<note>
				<pitch>
					<step>D</step>
					<octave>3</octave>
				</pitch>
				<duration>13440</duration>
				<voice>4</voice>
				<type>half</type>
				<stem default-y="-50.24">down</stem>
				<staff>2</staff>
			</note>
			<note>
				<chord/>
				<pitch>
					<step>B</step>
					<alter>-1</alter>
					<octave>3</octave>
				</pitch>
				<duration>13440</duration>
				<voice>4</voice>
				<type>half</type>
				<stem default-y="-50.24">down</stem>
				<staff>2</staff>
			</note>
			<backup>
				<duration>53760</duration>
			</backup>
			<note>
				<pitch>
					<step>A</step>
					<alter>-1</alter>
					<octave>4</octave>
				</pitch>
				<duration>20160</duration>
				<voice>1</voice>
				<type>half</type>
				<dot/>
				<stem default-y="10.00">up</stem>
				<staff>1</staff>
			</note>
			<note>
				<chord/>
				<pitch>
					<step>F</step>
					<octave>4</octave>
				</pitch>
				<duration>20160</duration>
				<voice>1</voice>
				<type>half</type>
				<dot/>
				<stem default-y="10.00">up</stem>
				<staff>1</staff>
			</note>
			<note>
				<pitch>
					<step>F</step>
					<octave>4</octave>
				</pitch>
				<duration>6720</duration>
				<voice>1</voice>
				<type>quarter</type>
				<stem default-y="0.00">up</stem>
				<staff>1</staff>
			</note>
			<note>
				<pitch>
					<step>F</step>
					<octave>4</octave>
				</pitch>
				<duration>13440</duration>
				<voice>1</voice>
				<type>half</type>
				<stem default-y="0.00">up</stem>
				<staff>1</staff>
			</note>
			<note>
				<pitch>
					<step>A</step>
					<alter>-1</alter>
					<octave>4</octave>
				</pitch>
				<duration>13440</duration>
				<voice>1</voice>
				<type>half</type>
				<stem default-y="10.00">up</stem>
				<staff>1</staff>
			</note>
			<note>
				<chord/>
				<pitch>
					<step>F</step>
					<octave>4</octave>
				</pitch>
				<duration>13440</duration>
				<voice>1</voice>
				<type>half</type>
				<stem default-y="10.00">up</stem>
				<staff>1</staff>
			</note>
		</measure>
		<!--==========================[1,4]=============================-->
		<measure number="4" width="237">
			<note>
				<pitch>
					<step>E</step>
					<alter>-1</alter>
					<octave>3</octave>
				</pitch>
				<duration>13440</duration>
				<voice>4</voice>
				<type>half</type>
				<stem default-y="-50.24">down</stem>
				<staff>2</staff>
			</note>
			<note>
				<chord/>
				<pitch>
					<step>B</step>
					<alter>-1</alter>
					<octave>3</octave>
				</pitch>
				<duration>13440</duration>
				<voice>4</voice>
				<type>half</type>
				<stem default-y="-50.24">down</stem>
				<staff>2</staff>
			</note>
			<note>
				<pitch>
					<step>G</step>
					<octave>2</octave>
				</pitch>
				<duration>13440</duration>
				<voice>4</voice>
				<type>half</type>
				<stem default-y="-82.52">down</stem>
				<staff>2</staff>
			</note>
			<note>
				<chord/>
				<pitch>
					<step>B</step>
					<alter>-1</alter>
					<octave>3</octave>
				</pitch>
				<duration>13440</duration>
				<voice>4</voice>
				<type>half</type>
				<stem default-y="-65.24">down</stem>
				<staff>2</staff>
			</note>
			<note>
				<pitch>
					<step>A</step>
					<alter>-1</alter>
					<octave>3</octave>
				</pitch>
				<duration>13440</duration>
				<voice>4</voice>
				<type>half</type>
				<stem default-y="-60.24">down</stem>
				<staff>2</staff>
			</note>
			<note>
				<chord/>
				<pitch>
					<step>A</step>
					<alter>-1</alter>
					<octave>2</octave>
				</pitch>
				<duration>13440</duration>
				<voice>4</voice>
				<type>half</type>
				<stem default-y="-67.52">down</stem>
				<staff>2</staff>
			</note>
			<note>
				<pitch>
					<step>A</step>
					<alter>-1</alter>
					<octave>3</octave>
				</pitch>
				<duration>13440</duration>
				<voice>4</voice>
				<type>half</type>
				<stem default-y="-55.24">down</stem>
				<staff>2</staff>
			</note>
			<note>
				<chord/>
				<pitch>
					<step>B</step>
					<alter>-1</alter>
					<octave>2</octave>
				</pitch>
				<duration>13440</duration>
				<voice>4</voice>
				<type>half</type>
				<stem default-y="-57.52">down</stem>
				<staff>2</staff>
			</note>
			<backup>
				<duration>53760</duration>
			</backup>
			<note>
				<pitch>
					<step>E</step>
					<alter>-1</alter>
					<octave>4</octave>
				</pitch>
				<duration>13440</duration>
				<voice>1</voice>
				<type>half</type>
				<stem default-y="5.00">up</stem>
				<staff>1</staff>
			</note>
			<note>
				<chord/>
				<pitch>
					<step>G</step>
					<octave>4</octave>
				</pitch>
				<duration>13440</duration>
				<voice>1</voice>
				<type>half</type>
				<stem default-y="5.00">up</stem>
				<staff>1</staff>
			</note>
			<note>
				<pitch>
					<step>E</step>
					<alter>-1</alter>
					<octave>4</octave>
				</pitch>
				<duration>13440</duration>
				<voice>1</voice>
				<type>half</type>
				<stem default-y="-5.00">up</stem>
				<staff>1</staff>
			</note>
			<note>
				<pitch>
					<step>C</step>
					<octave>4</octave>
				</pitch>
				<duration>13440</duration>
				<voice>1</voice>
				<type>half</type>
				<stem default-y="0.00">up</stem>
				<staff>1</staff>
			</note>
			<note>
				<chord/>
				<pitch>
					<step>F</step>
					<octave>4</octave>
				</pitch>
				<duration>13440</duration>
				<voice>1</voice>
				<type>half</type>
				<stem default-y="0.00">up</stem>
				<staff>1</staff>
			</note>
			<note>
				<pitch>
					<step>D</step>
					<octave>4</octave>
				</pitch>
				<duration>13440</duration>
				<voice>1</voice>
				<type>half</type>
				<stem default-y="-10.00">up</stem>
				<staff>1</staff>
			</note>
			<note>
				<chord/>
				<pitch>
					<step>B</step>
					<alter>-1</alter>
					<octave>3</octave>
				</pitch>
				<duration>13440</duration>
				<voice>1</voice>
				<type>half</type>
				<stem default-y="-10.00">up</stem>
				<staff>1</staff>
			</note>
		</measure>
		<!--==========================[1,5]=============================-->
		<measure number="5" width="195">
			<note>
				<pitch>
					<step>E</step>
					<alter>-1</alter>
					<octave>3</octave>
				</pitch>
				<duration>40320</duration>
				<voice>4</voice>
				<type>whole</type>
				<dot/>
				<stem>none</stem>
				<staff>2</staff>
			</note>
			<note>
				<chord/>
				<pitch>
					<step>G</step>
					<octave>3</octave>
				</pitch>
				<duration>40320</duration>
				<voice>4</voice>
				<type>whole</type>
				<dot/>
				<stem>none</stem>
				<staff>2</staff>
			</note>
			<note>
				<pitch>
					<step>G</step>
					<octave>3</octave>
				</pitch>
				<duration>6720</duration>
				<voice>4</voice>
				<type>quarter</type>
				<stem default-y="-50.24">down</stem>
				<staff>2</staff>
			</note>
			<note>
				<chord/>
				<pitch>
					<step>E</step>
					<alter>-1</alter>
					<octave>3</octave>
				</pitch>
				<duration>6720</duration>
				<voice>4</voice>
				<type>quarter</type>
				<stem default-y="-50.24">down</stem>
				<staff>2</staff>
			</note>
			<note>
				<pitch>
					<step>G</step>
					<octave>3</octave>
				</pitch>
				<duration>6720</duration>
				<voice>4</voice>
				<type>quarter</type>
				<stem default-y="-50.24">down</stem>
				<staff>2</staff>
			</note>
			<note>
				<chord/>
				<pitch>
					<step>E</step>
					<alter>-1</alter>
					<octave>3</octave>
				</pitch>
				<duration>6720</duration>
				<voice>4</voice>
				<type>quarter</type>
				<stem default-y="-50.24">down</stem>
				<staff>2</staff>
			</note>
			<backup>
				<duration>53760</duration>
			</backup>
			<note>
				<pitch>
					<step>B</step>
					<alter>-1</alter>
					<octave>3</octave>
				</pitch>
				<duration>40320</duration>
				<voice>1</voice>
				<type>whole</type>
				<dot/>
				<stem>none</stem>
				<staff>1</staff>
			</note>
			<note>
				<chord/>
				<pitch>
					<step>E</step>
					<alter>-1</alter>
					<octave>4</octave>
				</pitch>
				<duration>40320</duration>
				<voice>1</voice>
				<type>whole</type>
				<dot/>
				<stem>none</stem>
				<staff>1</staff>
			</note>
			<note>
				<pitch>
					<step>B</step>
					<alter>-1</alter>
					<octave>4</octave>
				</pitch>
				<duration>6720</duration>
				<voice>1</voice>
				<type>quarter</type>
				<stem default-y="10.00">up</stem>
				<staff>1</staff>
				<notations>
					<slur type="start" number="1" placement="above" orientation="over"/>
				</notations>
			</note>
			<note>
				<chord/>
				<pitch>
					<step>E</step>
					<alter>-1</alter>
					<octave>4</octave>
				</pitch>
				<duration>6720</duration>
				<voice>1</voice>
				<type>quarter</type>
				<stem default-y="10.00">up</stem>
				<staff>1</staff>
			</note>
			<note>
				<pitch>
					<step>E</step>
					<alter>-1</alter>
					<octave>4</octave>
				</pitch>
				<duration>6720</duration>
				<voice>1</voice>
				<type>quarter</type>
				<stem default-y="10.00">up</stem>
				<staff>1</staff>
			</note>
			<note>
				<chord/>
				<pitch>
					<step>B</step>
					<alter>-1</alter>
					<octave>4</octave>
				</pitch>
				<duration>6720</duration>
				<voice>1</voice>
				<type>quarter</type>
				<stem default-y="10.00">up</stem>
				<staff>1</staff>
				<notations>
					<slur type="stop" number="1"/>
				</notations>
			</note>
		</measure>
		<!--==========================[1,6]=============================-->
		<measure number="6" width="340">
			<print new-system="yes">
				<system-layout>
					<system-margins>
						<left-margin>28.400</left-margin>
						<right-margin>14.881</right-margin>
					</system-margins>
					<system-distance>76.666</system-distance>
				</system-layout>
				<staff-layout number="2">
					<staff-distance>48.333</staff-distance>
				</staff-layout>
			</print>
			<attributes>
				<staff-details number="1" print-object="yes">
				</staff-details>
				<staff-details number="2" print-object="yes">
				</staff-details>
			</attributes>
			<note>
				<pitch>
					<step>G</step>
					<octave>3</octave>
				</pitch>
				<duration>13440</duration>
				<voice>4</voice>
				<type>half</type>
				<stem default-y="-40.24">down</stem>
				<staff>2</staff>
			</note>
			<note>
				<pitch>
					<step>F</step>
					<octave>3</octave>
				</pitch>
				<duration>13440</duration>
				<voice>4</voice>
				<type>half</type>
				<stem default-y="-45.24">down</stem>
				<staff>2</staff>
			</note>
			<note>
				<chord/>
				<pitch>
					<step>A</step>
					<alter>-1</alter>
					<octave>3</octave>
				</pitch>
				<duration>13440</duration>
				<voice>4</voice>
				<type>half</type>
				<stem default-y="-45.24">down</stem>
				<staff>2</staff>
			</note>
			<note>
				<pitch>
					<step>B</step>
					<alter>-1</alter>
					<octave>3</octave>
				</pitch>
				<duration>13440</duration>
				<voice>4</voice>
				<type>half</type>
				<stem default-y="-50.24">down</stem>
				<staff>2</staff>
			</note>
			<note>
				<chord/>
				<pitch>
					<step>E</step>
					<alter>-1</alter>
					<octave>3</octave>
				</pitch>
				<duration>13440</duration>
				<voice>4</voice>
				<type>half</type>
				<stem default-y="-50.24">down</stem>
				<staff>2</staff>
			</note>
			<note>
				<pitch>
					<step>B</step>
					<alter>-1</alter>
					<octave>3</octave>
				</pitch>
				<duration>13440</duration>
				<voice>4</voice>
				<type>half</type>
				<stem default-y="-50.24">down</stem>
				<staff>2</staff>
			</note>
			<note>
				<chord/>
				<pitch>
					<step>D</step>
					<octave>3</octave>
				</pitch>
				<duration>13440</duration>
				<voice>4</voice>
				<type>half</type>
				<stem default-y="-50.24">down</stem>
				<staff>2</staff>
			</note>
			<backup>
				<duration>53760</duration>
			</backup>
			<note>
				<pitch>
					<step>B</step>
					<alter>-1</alter>
					<octave>4</octave>
				</pitch>
				<duration>13440</duration>
				<voice>1</voice>
				<type>half</type>
				<stem default-y="14.86">up</stem>
				<staff>1</staff>
			</note>
			<note>
				<chord/>
				<pitch>
					<step>B</step>
					<alter>-1</alter>
					<octave>3</octave>
				</pitch>
				<duration>13440</duration>
				<voice>1</voice>
				<type>half</type>
				<stem default-y="10.00">up</stem>
				<staff>1</staff>
			</note>
			<note>
				<pitch>
					<step>D</step>
					<octave>4</octave>
				</pitch>
				<duration>13440</duration>
				<voice>1</voice>
				<type>half</type>
				<stem default-y="10.00">up</stem>
				<staff>1</staff>
			</note>
			<note>
				<chord/>
				<pitch>
					<step>B</step>
					<alter>-1</alter>
					<octave>4</octave>
				</pitch>
				<duration>13440</duration>
				<voice>1</voice>
				<type>half</type>
				<stem default-y="10.00">up</stem>
				<staff>1</staff>
			</note>
			<note>
				<pitch>
					<step>E</step>
					<alter>-1</alter>
					<octave>4</octave>
				</pitch>
				<duration>13440</duration>
				<voice>1</voice>
				<type>half</type>
				<stem default-y="5.00">up</stem>
				<staff>1</staff>
			</note>
			<note>
				<chord/>
				<pitch>
					<step>G</step>
					<octave>4</octave>
				</pitch>
				<duration>13440</duration>
				<voice>1</voice>
				<type>half</type>
				<stem default-y="5.00">up</stem>
				<staff>1</staff>
			</note>
			<note>
				<pitch>
					<step>F</step>
					<octave>4</octave>
				</pitch>
				<duration>13440</duration>
				<voice>1</voice>
				<type>half</type>
				<stem default-y="10.00">up</stem>
				<staff>1</staff>
			</note>
			<note>
				<chord/>
				<pitch>
					<step>B</step>
					<alter>-1</alter>
					<octave>4</octave>
				</pitch>
				<duration>13440</duration>
				<voice>1</voice>
				<type>half</type>
				<stem default-y="10.00">up</stem>
				<staff>1</staff>
			</note>
		</measure>
		<!--==========================[1,7]=============================-->
		<measure number="7" width="269">
			<note>
				<pitch>
					<step>C</step>
					<octave>3</octave>
				</pitch>
				<duration>20160</duration>
				<voice>4</voice>
				<type>half</type>
				<dot/>
				<stem default-y="-57.52">down</stem>
				<staff>2</staff>
			</note>
			<note>
				<chord/>
				<pitch>
					<step>C</step>
					<octave>4</octave>
				</pitch>
				<duration>20160</duration>
				<voice>4</voice>
				<type>half</type>
				<dot/>
				<stem default-y="-55.24">down</stem>
				<staff>2</staff>
			</note>
			<note>
				<pitch>
					<step>F</step>
					<octave>3</octave>
				</pitch>
				<duration>6720</duration>
				<voice>4</voice>
				<type>quarter</type>
				<stem default-y="-45.24">down</stem>
				<staff>2</staff>
			</note>
			<note>
				<chord/>
				<pitch>
					<step>C</step>
					<octave>4</octave>
				</pitch>
				<duration>6720</duration>
				<voice>4</voice>
				<type>quarter</type>
				<stem default-y="-45.24">down</stem>
				<staff>2</staff>
			</note>
			<note>
				<pitch>
					<step>C</step>
					<octave>4</octave>
				</pitch>
				<duration>13440</duration>
				<voice>4</voice>
				<type>half</type>
				<stem default-y="-45.24">down</stem>
				<staff>2</staff>
			</note>
			<note>
				<chord/>
				<pitch>
					<step>F</step>
					<octave>3</octave>
				</pitch>
				<duration>13440</duration>
				<voice>4</voice>
				<type>half</type>
				<stem default-y="-45.24">down</stem>
				<staff>2</staff>
			</note>
			<note>
				<pitch>
					<step>A</step>
					<octave>3</octave>
				</pitch>
				<duration>13440</duration>
				<voice>4</voice>
				<type>half</type>
				<accidental>natural</accidental>
				<stem default-y="-45.24">down</stem>
				<staff>2</staff>
			</note>
			<note>
				<chord/>
				<pitch>
					<step>F</step>
					<octave>3</octave>
				</pitch>
				<duration>13440</duration>
				<voice>4</voice>
				<type>half</type>
				<stem default-y="-45.24">down</stem>
				<staff>2</staff>
			</note>
			<backup>
				<duration>53760</duration>
			</backup>
			<note>
				<pitch>
					<step>E</step>
					<alter>-1</alter>
					<octave>4</octave>
				</pitch>
				<duration>20160</duration>
				<voice>1</voice>
				<type>half</type>
				<dot/>
				<stem default-y="10.00">up</stem>
				<staff>1</staff>
			</note>
			<note>
				<chord/>
				<pitch>
					<step>B</step>
					<alter>-1</alter>
					<octave>4</octave>
				</pitch>
				<duration>20160</duration>
				<voice>1</voice>
				<type>half</type>
				<dot/>
				<stem default-y="10.00">up</stem>
				<staff>1</staff>
			</note>
			<note>
				<pitch>
					<step>E</step>
					<alter>-1</alter>
					<octave>4</octave>
				</pitch>
				<duration>6720</duration>
				<voice>1</voice>
				<type>quarter</type>
				<stem default-y="10.00">up</stem>
				<staff>1</staff>
			</note>
			<note>
				<chord/>
				<pitch>
					<step>A</step>
					<octave>4</octave>
				</pitch>
				<duration>6720</duration>
				<voice>1</voice>
				<type>quarter</type>
				<accidental>natural</accidental>
				<stem default-y="10.00">up</stem>
				<staff>1</staff>
			</note>
			<note>
				<pitch>
					<step>A</step>
					<octave>4</octave>
				</pitch>
				<duration>13440</duration>
				<voice>1</voice>
				<type>half</type>
				<stem default-y="10.00">up</stem>
				<staff>1</staff>
			</note>
			<note>
				<chord/>
				<pitch>
					<step>E</step>
					<alter>-1</alter>
					<octave>4</octave>
				</pitch>
				<duration>13440</duration>
				<voice>1</voice>
				<type>half</type>
				<stem default-y="10.00">up</stem>
				<staff>1</staff>
			</note>
			<note>
				<pitch>
					<step>E</step>
					<alter>-1</alter>
					<octave>4</octave>
				</pitch>
				<duration>13440</duration>
				<voice>1</voice>
				<type>half</type>
				<stem default-y="0.00">up</stem>
				<staff>1</staff>
			</note>
			<note>
				<chord/>
				<pitch>
					<step>F</step>
					<octave>4</octave>
				</pitch>
				<duration>13440</duration>
				<voice>1</voice>
				<type>half</type>
				<stem default-y="0.00">up</stem>
				<staff>1</staff>
			</note>
		</measure>
		<!--==========================[1,8]=============================-->
		<measure number="8" width="264">
			<note>
				<pitch>
					<step>B</step>
					<alter>-1</alter>
					<octave>3</octave>
				</pitch>
				<duration>13440</duration>
				<voice>4</voice>
				<type>half</type>
				<stem default-y="-30.24">down</stem>
				<staff>2</staff>
			</note>
			<note>
				<pitch>
					<step>G</step>
					<octave>3</octave>
				</pitch>
				<duration>13440</duration>
				<voice>4</voice>
				<type>half</type>
				<stem default-y="-40.24">down</stem>
				<staff>2</staff>
			</note>
			<note>
				<chord/>
				<pitch>
					<step>D</step>
					<octave>4</octave>
				</pitch>
				<duration>13440</duration>
				<voice>4</voice>
				<type>half</type>
				<stem default-y="-40.24">down</stem>
				<staff>2</staff>
			</note>
			<note>
				<pitch>
					<step>C</step>
					<octave>4</octave>
				</pitch>
				<duration>13440</duration>
				<voice>4</voice>
				<type>half</type>
				<stem default-y="-50.24">down</stem>
				<staff>2</staff>
			</note>
			<note>
				<chord/>
				<pitch>
					<step>E</step>
					<alter>-1</alter>
					<octave>3</octave>
				</pitch>
				<duration>13440</duration>
				<voice>4</voice>
				<type>half</type>
				<stem default-y="-50.24">down</stem>
				<staff>2</staff>
			</note>
			<note>
				<pitch>
					<step>C</step>
					<octave>4</octave>
				</pitch>
				<duration>13440</duration>
				<voice>4</voice>
				<type>half</type>
				<stem default-y="-45.24">down</stem>
				<staff>2</staff>
			</note>
			<note>
				<chord/>
				<pitch>
					<step>F</step>
					<octave>3</octave>
				</pitch>
				<duration>13440</duration>
				<voice>4</voice>
				<type>half</type>
				<stem default-y="-45.24">down</stem>
				<staff>2</staff>
			</note>
			<backup>
				<duration>53760</duration>
			</backup>
			<note>
				<pitch>
					<step>D</step>
					<octave>4</octave>
				</pitch>
				<duration>13440</duration>
				<voice>1</voice>
				<type>half</type>
				<stem default-y="15.00">up</stem>
				<staff>1</staff>
			</note>
			<note>
				<chord/>
				<pitch>
					<step>D</step>
					<octave>5</octave>
				</pitch>
				<duration>13440</duration>
				<voice>1</voice>
				<type>half</type>
				<stem default-y="24.86">up</stem>
				<staff>1</staff>
			</note>
			<note>
				<pitch>
					<step>B</step>
					<alter>-1</alter>
					<octave>4</octave>
				</pitch>
				<duration>13440</duration>
				<voice>1</voice>
				<type>half</type>
				<stem default-y="10.00">up</stem>
				<staff>1</staff>
			</note>
			<note>
				<chord/>
				<pitch>
					<step>D</step>
					<octave>4</octave>
				</pitch>
				<duration>13440</duration>
				<voice>1</voice>
				<type>half</type>
				<stem default-y="10.00">up</stem>
				<staff>1</staff>
			</note>
			<note>
				<pitch>
					<step>G</step>
					<octave>4</octave>
				</pitch>
				<duration>13440</duration>
				<voice>1</voice>
				<type>half</type>
				<stem default-y="15.00">up</stem>
				<staff>1</staff>
			</note>
			<note>
				<chord/>
				<pitch>
					<step>C</step>
					<octave>5</octave>
				</pitch>
				<duration>13440</duration>
				<voice>1</voice>
				<type>half</type>
				<stem default-y="15.00">up</stem>
				<staff>1</staff>
			</note>
			<note>
				<pitch>
					<step>E</step>
					<alter>-1</alter>
					<octave>4</octave>
				</pitch>
				<duration>13440</duration>
				<voice>1</voice>
				<type>half</type>
				<stem default-y="10.00">up</stem>
				<staff>1</staff>
			</note>
			<note>
				<chord/>
				<pitch>
					<step>A</step>
					<octave>4</octave>
				</pitch>
				<duration>13440</duration>
				<voice>1</voice>
				<type>half</type>
				<accidental>natural</accidental>
				<stem default-y="10.00">up</stem>
				<staff>1</staff>
			</note>
		</measure>
		<!--==========================[1,9]=============================-->
		<measure number="9" width="183">
			<note>
				<pitch>
					<step>B</step>
					<alter>-1</alter>
					<octave>2</octave>
				</pitch>
				<duration>40320</duration>
				<voice>4</voice>
				<type>whole</type>
				<dot/>
				<stem>none</stem>
				<staff>2</staff>
			</note>
			<note>
				<chord/>
				<pitch>
					<step>B</step>
					<alter>-1</alter>
					<octave>3</octave>
				</pitch>
				<duration>40320</duration>
				<voice>4</voice>
				<type>whole</type>
				<dot/>
				<stem>none</stem>
				<staff>2</staff>
			</note>
			<note>
				<pitch>
					<step>B</step>
					<alter>-1</alter>
					<octave>3</octave>
				</pitch>
				<duration>13440</duration>
				<voice>4</voice>
				<type>half</type>
				<stem default-y="-55.24">down</stem>
				<staff>2</staff>
			</note>
			<note>
				<chord/>
				<pitch>
					<step>B</step>
					<alter>-1</alter>
					<octave>2</octave>
				</pitch>
				<duration>13440</duration>
				<voice>4</voice>
				<type>half</type>
				<stem default-y="-62.52">down</stem>
				<staff>2</staff>
			</note>
			<backup>
				<duration>53760</duration>
			</backup>
			<note>
				<pitch>
					<step>D</step>
					<octave>4</octave>
				</pitch>
				<duration>40320</duration>
				<voice>1</voice>
				<type>whole</type>
				<dot/>
				<stem>none</stem>
				<staff>1</staff>
			</note>
			<note>
				<chord/>
				<pitch>
					<step>B</step>
					<alter>-1</alter>
					<octave>4</octave>
				</pitch>
				<duration>40320</duration>
				<voice>1</voice>
				<type>whole</type>
				<dot/>
				<stem>none</stem>
				<staff>1</staff>
			</note>
			<note>
				<pitch>
					<step>D</step>
					<octave>4</octave>
				</pitch>
				<duration>13440</duration>
				<voice>1</voice>
				<type>half</type>
				<stem default-y="10.00">up</stem>
				<staff>1</staff>
			</note>
			<note>
				<chord/>
				<pitch>
					<step>B</step>
					<alter>-1</alter>
					<octave>4</octave>
				</pitch>
				<duration>13440</duration>
				<voice>1</voice>
				<type>half</type>
				<stem default-y="10.00">up</stem>
				<staff>1</staff>
			</note>
		</measure>
		<!--==========================[1,10]=============================-->
		<measure number="10" width="377">
			<print new-system="yes">
				<system-layout>
					<system-margins>
						<left-margin>28.400</left-margin>
						<right-margin>14.881</right-margin>
					</system-margins>
					<system-distance>78.809</system-distance>
				</system-layout>
				<staff-layout number="2">
					<staff-distance>61.190</staff-distance>
				</staff-layout>
			</print>
			<attributes>
				<staff-details number="1" print-object="yes">
				</staff-details>
				<staff-details number="2" print-object="yes">
				</staff-details>
			</attributes>
			<note>
				<pitch>
					<step>A</step>
					<alter>-1</alter>
					<octave>3</octave>
				</pitch>
				<duration>13440</duration>
				<voice>4</voice>
				<type>half</type>
				<accidental editorial="yes">flat</accidental>
				<stem default-y="-35.24">down</stem>
				<staff>2</staff>
			</note>
			<note>
				<chord/>
				<pitch>
					<step>B</step>
					<alter>-1</alter>
					<octave>3</octave>
				</pitch>
				<duration>13440</duration>
				<voice>4</voice>
				<type>half</type>
				<stem default-y="-35.24">down</stem>
				<staff>2</staff>
			</note>
			<note>
				<pitch>
					<step>A</step>
					<alter>-1</alter>
					<octave>3</octave>
				</pitch>
				<duration>13440</duration>
				<voice>4</voice>
				<type>half</type>
				<stem default-y="-35.24">down</stem>
				<staff>2</staff>
			</note>
			<note>
				<chord/>
				<pitch>
					<step>B</step>
					<alter>-1</alter>
					<octave>3</octave>
				</pitch>
				<duration>13440</duration>
				<voice>4</voice>
				<type>half</type>
				<stem default-y="-35.24">down</stem>
				<staff>2</staff>
			</note>
			<note>
				<pitch>
					<step>G</step>
					<octave>3</octave>
				</pitch>
				<duration>13440</duration>
				<voice>4</voice>
				<type>half</type>
				<stem default-y="-40.24">down</stem>
				<staff>2</staff>
			</note>
			<note>
				<chord/>
				<pitch>
					<step>B</step>
					<alter>-1</alter>
					<octave>3</octave>
				</pitch>
				<duration>13440</duration>
				<voice>4</voice>
				<type>half</type>
				<stem default-y="-40.24">down</stem>
				<staff>2</staff>
			</note>
			<note>
				<pitch>
					<step>B</step>
					<alter>-1</alter>
					<octave>3</octave>
				</pitch>
				<duration>13440</duration>
				<voice>4</voice>
				<type>half</type>
				<stem default-y="-40.24">down</stem>
				<staff>2</staff>
			</note>
			<note>
				<chord/>
				<pitch>
					<step>G</step>
					<octave>3</octave>
				</pitch>
				<duration>13440</duration>
				<voice>4</voice>
				<type>half</type>
				<stem default-y="-40.24">down</stem>
				<staff>2</staff>
			</note>
			<backup>
				<duration>53760</duration>
			</backup>
			<note>
				<pitch>
					<step>D</step>
					<octave>4</octave>
				</pitch>
				<duration>13440</duration>
				<voice>1</voice>
				<type>half</type>
				<stem default-y="0.00">up</stem>
				<staff>1</staff>
			</note>
			<note>
				<chord/>
				<pitch>
					<step>F</step>
					<octave>4</octave>
				</pitch>
				<duration>13440</duration>
				<voice>1</voice>
				<type>half</type>
				<stem default-y="0.00">up</stem>
				<staff>1</staff>
			</note>
			<note>
				<pitch>
					<step>D</step>
					<octave>4</octave>
				</pitch>
				<duration>13440</duration>
				<voice>2</voice>
				<type>half</type>
				<stem default-y="-70.24">down</stem>
				<staff>1</staff>
			</note>
			<backup>
				<duration>13440</duration>
			</backup>
			<note>
				<pitch>
					<step>G</step>
					<octave>4</octave>
				</pitch>
				<duration>6720</duration>
				<voice>1</voice>
				<type>quarter</type>
				<stem default-y="5.00">up</stem>
				<staff>1</staff>
				<notations>
					<slur type="start" number="1" placement="above" orientation="over"/>
				</notations>
			</note>
			<note>
				<pitch>
					<step>A</step>
					<alter>-1</alter>
					<octave>4</octave>
				</pitch>
				<duration>6720</duration>
				<voice>1</voice>
				<type>quarter</type>
				<stem default-y="10.00">up</stem>
				<staff>1</staff>
				<notations>
					<slur type="stop" number="1"/>
				</notations>
			</note>
			<note>
				<pitch>
					<step>E</step>
					<alter>-1</alter>
					<octave>4</octave>
				</pitch>
				<duration>13440</duration>
				<voice>1</voice>
				<type>half</type>
				<stem default-y="10.00">up</stem>
				<staff>1</staff>
			</note>
			<note>
				<chord/>
				<pitch>
					<step>B</step>
					<alter>-1</alter>
					<octave>4</octave>
				</pitch>
				<duration>13440</duration>
				<voice>1</voice>
				<type>half</type>
				<stem default-y="10.00">up</stem>
				<staff>1</staff>
			</note>
			<note>
				<pitch>
					<step>E</step>
					<alter>-1</alter>
					<octave>4</octave>
				</pitch>
				<duration>13440</duration>
				<voice>1</voice>
				<type>half</type>
				<stem default-y="10.00">up</stem>
				<staff>1</staff>
			</note>
			<note>
				<chord/>
				<pitch>
					<step>B</step>
					<alter>-1</alter>
					<octave>4</octave>
				</pitch>
				<duration>13440</duration>
				<voice>1</voice>
				<type>half</type>
				<stem default-y="10.00">up</stem>
				<staff>1</staff>
			</note>
		</measure>
		<!--==========================[1,11]=============================-->
		<measure number="11" width="241">
			<note>
				<pitch>
					<step>F</step>
					<octave>3</octave>
				</pitch>
				<duration>20160</duration>
				<voice>4</voice>
				<type>half</type>
				<dot/>
				<stem default-y="-45.24">down</stem>
				<staff>2</staff>
			</note>
			<note>
				<chord/>
				<pitch>
					<step>A</step>
					<alter>-1</alter>
					<octave>3</octave>
				</pitch>
				<duration>20160</duration>
				<voice>4</voice>
				<type>half</type>
				<dot/>
				<stem default-y="-45.24">down</stem>
				<staff>2</staff>
			</note>
			<note>
				<pitch>
					<step>E</step>
					<alter>-1</alter>
					<octave>3</octave>
				</pitch>
				<duration>6720</duration>
				<voice>4</voice>
				<type>quarter</type>
				<stem default-y="-50.24">down</stem>
				<staff>2</staff>
			</note>
			<note>
				<chord/>
				<pitch>
					<step>A</step>
					<alter>-1</alter>
					<octave>3</octave>
				</pitch>
				<duration>6720</duration>
				<voice>4</voice>
				<type>quarter</type>
				<stem default-y="-50.24">down</stem>
				<staff>2</staff>
			</note>
			<note>
				<pitch>
					<step>A</step>
					<alter>-1</alter>
					<octave>3</octave>
				</pitch>
				<duration>13440</duration>
				<voice>4</voice>
				<type>half</type>
				<stem default-y="-50.24">down</stem>
				<staff>2</staff>
			</note>
			<note>
				<chord/>
				<pitch>
					<step>D</step>
					<octave>3</octave>
				</pitch>
				<duration>13440</duration>
				<voice>4</voice>
				<type>half</type>
				<stem default-y="-50.24">down</stem>
				<staff>2</staff>
			</note>
			<note>
				<pitch>
					<step>G</step>
					<octave>3</octave>
				</pitch>
				<duration>13440</duration>
				<voice>4</voice>
				<type>half</type>
				<stem default-y="-50.24">down</stem>
				<staff>2</staff>
			</note>
			<note>
				<chord/>
				<pitch>
					<step>E</step>
					<alter>-1</alter>
					<octave>3</octave>
				</pitch>
				<duration>13440</duration>
				<voice>4</voice>
				<type>half</type>
				<stem default-y="-50.24">down</stem>
				<staff>2</staff>
			</note>
			<backup>
				<duration>53760</duration>
			</backup>
			<note>
				<pitch>
					<step>D</step>
					<octave>4</octave>
				</pitch>
				<duration>20160</duration>
				<voice>1</voice>
				<type>half</type>
				<dot/>
				<stem default-y="15.00">up</stem>
				<staff>1</staff>
			</note>
			<note>
				<chord/>
				<pitch>
					<step>D</step>
					<octave>5</octave>
				</pitch>
				<duration>20160</duration>
				<voice>1</voice>
				<type>half</type>
				<dot/>
				<stem default-y="24.86">up</stem>
				<staff>1</staff>
			</note>
			<note>
				<pitch>
					<step>E</step>
					<alter>-1</alter>
					<octave>4</octave>
				</pitch>
				<duration>6720</duration>
				<voice>1</voice>
				<type>quarter</type>
				<stem default-y="15.00">up</stem>
				<staff>1</staff>
			</note>
			<note>
				<chord/>
				<pitch>
					<step>C</step>
					<octave>5</octave>
				</pitch>
				<duration>6720</duration>
				<voice>1</voice>
				<type>quarter</type>
				<stem default-y="15.00">up</stem>
				<staff>1</staff>
			</note>
			<note>
				<pitch>
					<step>B</step>
					<alter>-1</alter>
					<octave>4</octave>
				</pitch>
				<duration>13440</duration>
				<voice>1</voice>
				<type>half</type>
				<stem default-y="10.00">up</stem>
				<staff>1</staff>
			</note>
			<note>
				<chord/>
				<pitch>
					<step>F</step>
					<octave>4</octave>
				</pitch>
				<duration>13440</duration>
				<voice>1</voice>
				<type>half</type>
				<stem default-y="10.00">up</stem>
				<staff>1</staff>
			</note>
			<note>
				<pitch>
					<step>B</step>
					<alter>-1</alter>
					<octave>4</octave>
				</pitch>
				<duration>13440</duration>
				<voice>1</voice>
				<type>half</type>
				<stem default-y="10.00">up</stem>
				<staff>1</staff>
			</note>
			<note>
				<chord/>
				<pitch>
					<step>E</step>
					<alter>-1</alter>
					<octave>4</octave>
				</pitch>
				<duration>13440</duration>
				<voice>1</voice>
				<type>half</type>
				<stem default-y="10.00">up</stem>
				<staff>1</staff>
			</note>
		</measure>
		<!--==========================[1,12]=============================-->
		<measure number="12" width="241">
			<note>
				<pitch>
					<step>A</step>
					<alter>-1</alter>
					<octave>2</octave>
				</pitch>
				<duration>13440</duration>
				<voice>4</voice>
				<type>half</type>
				<stem default-y="-67.52">down</stem>
				<staff>2</staff>
			</note>
			<note>
				<chord/>
				<pitch>
					<step>A</step>
					<alter>-1</alter>
					<octave>3</octave>
				</pitch>
				<duration>13440</duration>
				<voice>4</voice>
				<type>half</type>
				<stem default-y="-60.24">down</stem>
				<staff>2</staff>
			</note>
			<note>
				<pitch>
					<step>A</step>
					<alter>-1</alter>
					<octave>2</octave>
				</pitch>
				<duration>13440</duration>
				<voice>4</voice>
				<type>half</type>
				<stem default-y="-77.52">down</stem>
				<staff>2</staff>
			</note>
			<note>
				<chord/>
				<pitch>
					<step>C</step>
					<octave>4</octave>
				</pitch>
				<duration>13440</duration>
				<voice>4</voice>
				<type>half</type>
				<stem default-y="-60.24">down</stem>
				<staff>2</staff>
			</note>
			<note>
				<pitch>
					<step>D</step>
					<alter>-1</alter>
					<octave>4</octave>
				</pitch>
				<duration>13440</duration>
				<voice>4</voice>
				<type>half</type>
				<accidental>flat</accidental>
				<stem default-y="-55.24">down</stem>
				<staff>2</staff>
			</note>
			<note>
				<chord/>
				<pitch>
					<step>B</step>
					<alter>-1</alter>
					<octave>2</octave>
				</pitch>
				<duration>13440</duration>
				<voice>4</voice>
				<type>half</type>
				<stem default-y="-72.52">down</stem>
				<staff>2</staff>
			</note>
			<note>
				<pitch>
					<step>C</step>
					<octave>4</octave>
				</pitch>
				<duration>13440</duration>
				<voice>4</voice>
				<type>half</type>
				<stem default-y="-55.24">down</stem>
				<staff>2</staff>
			</note>
			<note>
				<chord/>
				<pitch>
					<step>C</step>
					<octave>3</octave>
				</pitch>
				<duration>13440</duration>
				<voice>4</voice>
				<type>half</type>
				<stem default-y="-57.52">down</stem>
				<staff>2</staff>
			</note>
			<backup>
				<duration>53760</duration>
			</backup>
			<note>
				<pitch>
					<step>E</step>
					<alter>-1</alter>
					<octave>4</octave>
				</pitch>
				<duration>13440</duration>
				<voice>1</voice>
				<type>half</type>
				<stem default-y="15.00">up</stem>
				<staff>1</staff>
			</note>
			<note>
				<chord/>
				<pitch>
					<step>C</step>
					<octave>5</octave>
				</pitch>
				<duration>13440</duration>
				<voice>1</voice>
				<type>half</type>
				<stem default-y="15.00">up</stem>
				<staff>1</staff>
			</note>
			<note>
				<pitch>
					<step>F</step>
					<octave>4</octave>
				</pitch>
				<duration>13440</duration>
				<voice>1</voice>
				<type>half</type>
				<stem default-y="15.00">up</stem>
				<staff>1</staff>
			</note>
			<note>
				<chord/>
				<pitch>
					<step>C</step>
					<octave>5</octave>
				</pitch>
				<duration>13440</duration>
				<voice>1</voice>
				<type>half</type>
				<stem default-y="15.00">up</stem>
				<staff>1</staff>
			</note>
			<note>
				<pitch>
					<step>F</step>
					<octave>4</octave>
				</pitch>
				<duration>13440</duration>
				<voice>1</voice>
				<type>half</type>
				<stem default-y="5.00">up</stem>
				<staff>1</staff>
			</note>
			<note>
				<chord/>
				<pitch>
					<step>G</step>
					<octave>4</octave>
				</pitch>
				<duration>13440</duration>
				<voice>1</voice>
				<type>half</type>
				<stem default-y="5.00">up</stem>
				<staff>1</staff>
			</note>
			<note>
				<pitch>
					<step>B</step>
					<alter>-1</alter>
					<octave>4</octave>
				</pitch>
				<duration>13440</duration>
				<voice>1</voice>
				<type>half</type>
				<stem default-y="10.00">up</stem>
				<staff>1</staff>
			</note>
			<note>
				<chord/>
				<pitch>
					<step>E</step>
					<octave>4</octave>
				</pitch>
				<duration>13440</duration>
				<voice>1</voice>
				<type>half</type>
				<accidental>natural</accidental>
				<stem default-y="10.00">up</stem>
				<staff>1</staff>
			</note>
		</measure>
		<!--==========================[1,13]=============================-->
		<measure number="13" width="198">
			<note>
				<pitch>
					<step>C</step>
					<octave>4</octave>
				</pitch>
				<duration>40320</duration>
				<voice>4</voice>
				<type>whole</type>
				<dot/>
				<stem>none</stem>
				<staff>2</staff>
			</note>
			<note>
				<chord/>
				<pitch>
					<step>F</step>
					<octave>3</octave>
				</pitch>
				<duration>40320</duration>
				<voice>4</voice>
				<type>whole</type>
				<dot/>
				<stem>none</stem>
				<staff>2</staff>
			</note>
			<note>
				<pitch>
					<step>B</step>
					<alter>-1</alter>
					<octave>3</octave>
				</pitch>
				<duration>6720</duration>
				<voice>4</voice>
				<type>quarter</type>
				<stem default-y="-50.24">down</stem>
				<staff>2</staff>
			</note>
			<note>
				<chord/>
				<pitch>
					<step>D</step>
					<octave>3</octave>
				</pitch>
				<duration>6720</duration>
				<voice>4</voice>
				<type>quarter</type>
				<stem default-y="-50.24">down</stem>
				<staff>2</staff>
			</note>
			<note>
				<pitch>
					<step>B</step>
					<alter>-1</alter>
					<octave>3</octave>
				</pitch>
				<duration>6720</duration>
				<voice>4</voice>
				<type>quarter</type>
				<stem default-y="-50.24">down</stem>
				<staff>2</staff>
			</note>
			<note>
				<chord/>
				<pitch>
					<step>D</step>
					<octave>3</octave>
				</pitch>
				<duration>6720</duration>
				<voice>4</voice>
				<type>quarter</type>
				<stem default-y="-50.24">down</stem>
				<staff>2</staff>
			</note>
			<backup>
				<duration>53760</duration>
			</backup>
			<note>
				<pitch>
					<step>A</step>
					<alter>-1</alter>
					<octave>4</octave>
				</pitch>
				<duration>40320</duration>
				<voice>1</voice>
				<type>whole</type>
				<dot/>
				<stem>none</stem>
				<staff>1</staff>
			</note>
			<note>
				<chord/>
				<pitch>
					<step>F</step>
					<octave>4</octave>
				</pitch>
				<duration>40320</duration>
				<voice>1</voice>
				<type>whole</type>
				<dot/>
				<stem>none</stem>
				<staff>1</staff>
			</note>
			<note>
				<pitch>
					<step>F</step>
					<octave>4</octave>
				</pitch>
				<duration>6720</duration>
				<tie type="start"/>
				<voice>1</voice>
				<type>quarter</type>
				<stem default-y="0.00">up</stem>
				<staff>1</staff>
				<notations>
					<tied type="start" number="1" placement="below" orientation="under"/>
				</notations>
			</note>
			<note>
				<pitch>
					<step>F</step>
					<octave>4</octave>
				</pitch>
				<duration>6720</duration>
				<tie type="stop"/>
				<voice>1</voice>
				<type>quarter</type>
				<stem default-y="0.00">up</stem>
				<staff>1</staff>
				<notations>
					<tied type="stop" number="1"/>
				</notations>
			</note>
		</measure>
		<!--==========================[1,14]=============================-->
		<measure number="14" width="351">
			<print new-system="yes">
				<system-layout>
					<system-margins>
						<left-margin>28.400</left-margin>
						<right-margin>18.849</right-margin>
					</system-margins>
					<system-distance>90.952</system-distance>
				</system-layout>
				<staff-layout number="2">
					<staff-distance>48.333</staff-distance>
				</staff-layout>
			</print>
			<attributes>
				<staff-details number="1" print-object="yes">
				</staff-details>
				<staff-details number="2" print-object="yes">
				</staff-details>
			</attributes>
			<note>
				<pitch>
					<step>E</step>
					<alter>-1</alter>
					<octave>3</octave>
				</pitch>
				<duration>13440</duration>
				<voice>4</voice>
				<type>half</type>
				<stem default-y="-50.24">down</stem>
				<staff>2</staff>
			</note>
			<note>
				<chord/>
				<pitch>
					<step>B</step>
					<alter>-1</alter>
					<octave>3</octave>
				</pitch>
				<duration>13440</duration>
				<voice>4</voice>
				<type>half</type>
				<stem default-y="-50.24">down</stem>
				<staff>2</staff>
			</note>
			<note>
				<pitch>
					<step>E</step>
					<alter>-1</alter>
					<octave>3</octave>
				</pitch>
				<duration>13440</duration>
				<voice>4</voice>
				<type>half</type>
				<stem default-y="-50.24">down</stem>
				<staff>2</staff>
			</note>
			<note>
				<chord/>
				<pitch>
					<step>B</step>
					<alter>-1</alter>
					<octave>3</octave>
				</pitch>
				<duration>13440</duration>
				<voice>4</voice>
				<type>half</type>
				<stem default-y="-50.24">down</stem>
				<staff>2</staff>
			</note>
			<note>
				<pitch>
					<step>B</step>
					<alter>-1</alter>
					<octave>3</octave>
				</pitch>
				<duration>13440</duration>
				<voice>4</voice>
				<type>half</type>
				<stem default-y="-50.24">down</stem>
				<staff>2</staff>
			</note>
			<note>
				<chord/>
				<pitch>
					<step>D</step>
					<octave>3</octave>
				</pitch>
				<duration>13440</duration>
				<voice>4</voice>
				<type>half</type>
				<stem default-y="-50.24">down</stem>
				<staff>2</staff>
			</note>
			<note>
				<pitch>
					<step>B</step>
					<alter>-1</alter>
					<octave>3</octave>
				</pitch>
				<duration>13440</duration>
				<voice>4</voice>
				<type>half</type>
				<stem default-y="-50.24">down</stem>
				<staff>2</staff>
			</note>
			<note>
				<chord/>
				<pitch>
					<step>D</step>
					<octave>3</octave>
				</pitch>
				<duration>13440</duration>
				<voice>4</voice>
				<type>half</type>
				<stem default-y="-50.24">down</stem>
				<staff>2</staff>
			</note>
			<backup>
				<duration>53760</duration>
			</backup>
			<note>
				<pitch>
					<step>E</step>
					<alter>-1</alter>
					<octave>4</octave>
				</pitch>
				<duration>13440</duration>
				<voice>1</voice>
				<type>half</type>
				<stem default-y="5.00">up</stem>
				<staff>1</staff>
			</note>
			<note>
				<chord/>
				<pitch>
					<step>G</step>
					<octave>4</octave>
				</pitch>
				<duration>13440</duration>
				<voice>1</voice>
				<type>half</type>
				<stem default-y="5.00">up</stem>
				<staff>1</staff>
			</note>
			<note>
				<pitch>
					<step>E</step>
					<alter>-1</alter>
					<octave>4</octave>
				</pitch>
				<duration>13440</duration>
				<voice>1</voice>
				<type>half</type>
				<stem default-y="5.00">up</stem>
				<staff>1</staff>
			</note>
			<note>
				<chord/>
				<pitch>
					<step>G</step>
					<octave>4</octave>
				</pitch>
				<duration>13440</duration>
				<voice>1</voice>
				<type>half</type>
				<stem default-y="5.00">up</stem>
				<staff>1</staff>
			</note>
			<note>
				<pitch>
					<step>F</step>
					<octave>4</octave>
				</pitch>
				<duration>13440</duration>
				<voice>1</voice>
				<type>half</type>
				<stem default-y="10.00">up</stem>
				<staff>1</staff>
			</note>
			<note>
				<chord/>
				<pitch>
					<step>B</step>
					<alter>-1</alter>
					<octave>4</octave>
				</pitch>
				<duration>13440</duration>
				<voice>1</voice>
				<type>half</type>
				<stem default-y="10.00">up</stem>
				<staff>1</staff>
			</note>
			<forward>
				<duration>13440</duration>
			</forward>
			<direction placement="below">
				<direction-type>
					<words font-family="Times New Roman" font-size="11" font-weight="bold" font-style="normal" relative-x="0.00" default-y="-201.55">My heart is resting,</words>
				</direction-type>
				<staff>1</staff>
			</direction>
			<direction placement="below">
				<direction-type>
					<words font-family="Times New Roman" font-size="11" font-weight="bold" font-style="normal" relative-x="0.00" default-y="-223.69">I will give thanks and</words>
				</direction-type>
				<staff>1</staff>
			</direction>
			<direction placement="below">
				<direction-type>
					<words font-family="Times New Roman" font-size="11" font-weight="bold" font-style="normal" relative-x="0.00" default-y="-245.59">My heart is at the secret</words>
				</direction-type>
				<staff>1</staff>
			</direction>
			<direction placement="below">
				<direction-type>
					<words font-family="Times New Roman" font-size="11" font-weight="bold" font-style="normal" relative-x="0.00" default-y="-267.74">Of every precious thing.</words>
				</direction-type>
				<staff>1</staff>
			</direction>
			<direction placement="below">
				<direction-type>
					<words font-family="Times New Roman" font-size="11" font-weight="bold" font-style="normal" relative-x="0.00" default-y="-289.64">Now the frail vessel</words>
				</direction-type>
				<staff>1</staff>
			</direction>
			<direction placement="below">
				<direction-type>
					<words font-family="Times New Roman" font-size="11" font-weight="bold" font-style="normal" relative-x="0.00" default-y="-311.78">No hand but Thine</words>
				</direction-type>
				<staff>1</staff>
			</direction>
			<direction placement="below">
				<direction-type>
					<words font-family="Times New Roman" font-size="11" font-weight="bold" font-style="normal" relative-x="0.00" default-y="-333.69">For the waters of the</words>
				</direction-type>
				<staff>1</staff>
			</direction>
			<direction placement="below">
				<direction-type>
					<words font-family="Times New Roman" font-size="11" font-weight="bold" font-style="normal" relative-x="0.00" default-y="-355.83">And I am thirsty still.</words>
				</direction-type>
				<staff>1</staff>
			</direction>
			<backup>
				<duration>13440</duration>
			</backup>
			<note>
				<pitch>
					<step>B</step>
					<alter>-1</alter>
					<octave>4</octave>
				</pitch>
				<duration>13440</duration>
				<voice>1</voice>
				<type>half</type>
				<stem default-y="10.00">up</stem>
				<staff>1</staff>
			</note>
			<note>
				<chord/>
				<pitch>
					<step>F</step>
					<octave>4</octave>
				</pitch>
				<duration>13440</duration>
				<voice>1</voice>
				<type>half</type>
				<stem default-y="10.00">up</stem>
				<staff>1</staff>
			</note>
		</measure>
		<!--==========================[1,15]=============================-->
		<measure number="15" width="297">
			<note>
				<pitch>
					<step>E</step>
					<alter>-1</alter>
					<octave>4</octave>
				</pitch>
				<duration>20160</duration>
				<voice>2</voice>
				<type>half</type>
				<dot/>
				<stem default-y="-65.24">down</stem>
				<staff>1</staff>
			</note>
			<backup>
				<duration>20160</duration>
			</backup>
			<note>
				<pitch>
					<step>E</step>
					<alter>-1</alter>
					<octave>5</octave>
				</pitch>
				<duration>13440</duration>
				<voice>1</voice>
				<type>half</type>
				<stem default-y="20.00">up</stem>
				<staff>1</staff>
			</note>
			<note>
				<pitch>
					<step>D</step>
					<octave>5</octave>
				</pitch>
				<duration>6720</duration>
				<voice>1</voice>
				<type>quarter</type>
				<stem default-y="15.00">up</stem>
				<staff>1</staff>
				<notations>
					<slur type="start" number="1" placement="above" orientation="over"/>
				</notations>
			</note>
			<note>
				<pitch>
					<step>E</step>
					<alter>-1</alter>
					<octave>4</octave>
				</pitch>
				<duration>6720</duration>
				<voice>1</voice>
				<type>quarter</type>
				<stem default-y="15.00">up</stem>
				<staff>1</staff>
			</note>
			<note>
				<chord/>
				<pitch>
					<step>C</step>
					<octave>5</octave>
				</pitch>
				<duration>6720</duration>
				<voice>1</voice>
				<type>quarter</type>
				<stem default-y="15.00">up</stem>
				<staff>1</staff>
				<notations>
					<slur type="stop" number="1"/>
				</notations>
			</note>
			<note>
				<pitch>
					<step>E</step>
					<alter>-1</alter>
					<octave>4</octave>
				</pitch>
				<duration>13440</duration>
				<voice>1</voice>
				<type>half</type>
				<stem default-y="10.00">up</stem>
				<staff>1</staff>
			</note>
			<note>
				<chord/>
				<pitch>
					<step>B</step>
					<alter>-1</alter>
					<octave>4</octave>
				</pitch>
				<duration>13440</duration>
				<voice>1</voice>
				<type>half</type>
				<stem default-y="10.00">up</stem>
				<staff>1</staff>
			</note>
			<forward>
				<duration>13440</duration>
			</forward>
			<direction placement="below">
				<direction-type>
					<words font-family="Times New Roman" font-size="11" font-weight="bold" font-style="normal" relative-x="0.00" default-y="-311.78">shall fill—</words>
				</direction-type>
				<staff>1</staff>
			</direction>
			<direction placement="below">
				<direction-type>
					<words font-family="Times New Roman" font-size="11" font-weight="bold" font-style="normal" relative-x="0.00" default-y="-201.55">O my God—</words>
				</direction-type>
				<staff>1</staff>
			</direction>
			<direction placement="below">
				<direction-type>
					<words font-family="Times New Roman" font-size="11" font-weight="bold" font-style="normal" relative-x="0.00" default-y="-289.64">Thou hast made</words>
				</direction-type>
				<staff>1</staff>
			</direction>
			<direction placement="below">
				<direction-type>
					<words font-family="Times New Roman" font-size="11" font-weight="bold" font-style="normal" relative-x="0.00" default-y="-333.69">Earth have failed,</words>
				</direction-type>
				<staff>1</staff>
			</direction>
			<direction placement="below">
				<direction-type>
					<words font-family="Times New Roman" font-size="11" font-weight="bold" font-style="normal" relative-x="0.00" default-y="-223.69">sing;</words>
				</direction-type>
				<staff>1</staff>
			</direction>
			<direction placement="below">
				<direction-type>
					<words font-family="Times New Roman" font-size="11" font-weight="bold" font-style="normal" relative-x="0.00" default-y="-245.59">source</words>
				</direction-type>
				<staff>1</staff>
			</direction>
			<direction placement="below">
				<direction-type>
					<words font-family="Times New Roman" font-size="11" font-weight="bold" font-style="normal" relative-x="0.00" default-y="-200.36">Glory</words>
				</direction-type>
				<staff>1</staff>
			</direction>
			<direction placement="below">
				<direction-type>
					<words font-family="Times New Roman" font-size="11" font-weight="bold" font-style="normal" relative-x="0.00" default-y="-222.50">For want</words>
				</direction-type>
				<staff>1</staff>
			</direction>
			<direction placement="below">
				<direction-type>
					<words font-family="Times New Roman" font-size="11" font-weight="bold" font-style="normal" relative-x="0.00" default-y="-244.40">And the</words>
				</direction-type>
				<staff>1</staff>
			</direction>
			<direction placement="below">
				<direction-type>
					<words font-family="Times New Roman" font-size="11" font-weight="bold" font-style="normal" relative-x="0.00" default-y="-266.55">For what</words>
				</direction-type>
				<staff>1</staff>
			</direction>
			<direction placement="below">
				<direction-type>
					<words font-family="Times New Roman" font-size="11" font-weight="bold" font-style="normal" relative-x="0.00" default-y="-288.45">I have</words>
				</direction-type>
				<staff>1</staff>
			</direction>
			<direction placement="below">
				<direction-type>
					<words font-family="Times New Roman" font-size="11" font-weight="bold" font-style="normal" relative-x="0.00" default-y="-310.59">That</words>
				</direction-type>
				<staff>1</staff>
			</direction>
			<direction placement="below">
				<direction-type>
					<words font-family="Times New Roman" font-size="11" font-weight="bold" font-style="normal" relative-x="0.00" default-y="-332.50">But the</words>
				</direction-type>
				<staff>1</staff>
			</direction>
			<direction placement="below">
				<direction-type>
					<words font-family="Times New Roman" font-size="11" font-weight="bold" font-style="normal" relative-x="0.00" default-y="-354.64">Is keeping</words>
				</direction-type>
				<staff>1</staff>
			</direction>
			<backup>
				<duration>13440</duration>
			</backup>
			<note>
				<pitch>
					<step>G</step>
					<octave>4</octave>
				</pitch>
				<duration>13440</duration>
				<voice>1</voice>
				<type>half</type>
				<stem default-y="5.00">up</stem>
				<staff>1</staff>
			</note>
			<note>
				<chord/>
				<pitch>
					<step>D</step>
					<alter>-1</alter>
					<octave>4</octave>
				</pitch>
				<duration>13440</duration>
				<voice>1</voice>
				<type>half</type>
				<accidental>flat</accidental>
				<stem default-y="5.00">up</stem>
				<staff>1</staff>
			</note>
			<backup>
				<duration>53760</duration>
			</backup>
			<note>
				<pitch>
					<step>C</step>
					<octave>3</octave>
				</pitch>
				<duration>13440</duration>
				<voice>4</voice>
				<type>half</type>
				<stem default-y="-55.24">down</stem>
				<staff>2</staff>
			</note>
			<backup>
				<duration>13440</duration>
			</backup>
			<note>
				<pitch>
					<step>G</step>
					<octave>3</octave>
				</pitch>
				<duration>20160</duration>
				<voice>5</voice>
				<type>half</type>
				<dot/>
				<stem default-y="20.00">up</stem>
				<staff>2</staff>
			</note>
			<backup>
				<duration>6720</duration>
			</backup>
			<note>
				<pitch>
					<step>B</step>
					<alter>-1</alter>
					<octave>2</octave>
				</pitch>
				<duration>6720</duration>
				<voice>4</voice>
				<type>quarter</type>
				<stem default-y="-55.24">down</stem>
				<staff>2</staff>
			</note>
			<note>
				<pitch>
					<step>A</step>
					<alter>-1</alter>
					<octave>2</octave>
				</pitch>
				<duration>6720</duration>
				<voice>4</voice>
				<type>quarter</type>
				<stem default-y="-67.52">down</stem>
				<staff>2</staff>
			</note>
			<note>
				<chord/>
				<pitch>
					<step>A</step>
					<alter>-1</alter>
					<octave>3</octave>
				</pitch>
				<duration>6720</duration>
				<voice>4</voice>
				<type>quarter</type>
				<stem default-y="-60.24">down</stem>
				<staff>2</staff>
			</note>
			<note>
				<pitch>
					<step>B</step>
					<alter>-1</alter>
					<octave>3</octave>
				</pitch>
				<duration>13440</duration>
				<voice>4</voice>
				<type>half</type>
				<stem default-y="-65.24">down</stem>
				<staff>2</staff>
			</note>
			<note>
				<chord/>
				<pitch>
					<step>G</step>
					<octave>2</octave>
				</pitch>
				<duration>13440</duration>
				<voice>4</voice>
				<type>half</type>
				<stem default-y="-82.52">down</stem>
				<staff>2</staff>
			</note>
			<note>
				<pitch>
					<step>B</step>
					<alter>-1</alter>
					<octave>3</octave>
				</pitch>
				<duration>13440</duration>
				<voice>4</voice>
				<type>half</type>
				<stem default-y="-50.24">down</stem>
				<staff>2</staff>
			</note>
			<note>
				<chord/>
				<pitch>
					<step>E</step>
					<alter>-1</alter>
					<octave>3</octave>
				</pitch>
				<duration>13440</duration>
				<voice>4</voice>
				<type>half</type>
				<stem default-y="-50.24">down</stem>
				<staff>2</staff>
			</note>
		</measure>
		<!--==========================[1,16]=============================-->
		<measure number="16" width="273">
			<note>
				<pitch>
					<step>A</step>
					<alter>-1</alter>
					<octave>2</octave>
				</pitch>
				<duration>13440</duration>
				<voice>4</voice>
				<type>half</type>
				<stem default-y="-67.52">down</stem>
				<staff>2</staff>
			</note>
			<note>
				<chord/>
				<pitch>
					<step>A</step>
					<alter>-1</alter>
					<octave>3</octave>
				</pitch>
				<duration>13440</duration>
				<voice>4</voice>
				<type>half</type>
				<stem default-y="-60.24">down</stem>
				<staff>2</staff>
			</note>
			<note>
				<pitch>
					<step>A</step>
					<alter>-1</alter>
					<octave>2</octave>
				</pitch>
				<duration>13440</duration>
				<voice>4</voice>
				<type>half</type>
				<stem default-y="-67.52">down</stem>
				<staff>2</staff>
			</note>
			<note>
				<chord/>
				<pitch>
					<step>A</step>
					<alter>-1</alter>
					<octave>3</octave>
				</pitch>
				<duration>13440</duration>
				<voice>4</voice>
				<type>half</type>
				<stem default-y="-60.24">down</stem>
				<staff>2</staff>
			</note>
			<note>
				<pitch>
					<step>A</step>
					<alter>-1</alter>
					<octave>3</octave>
				</pitch>
				<duration>13440</duration>
				<voice>4</voice>
				<type>half</type>
				<stem default-y="-55.24">down</stem>
				<staff>2</staff>
			</note>
			<note>
				<chord/>
				<pitch>
					<step>B</step>
					<alter>-1</alter>
					<octave>2</octave>
				</pitch>
				<duration>13440</duration>
				<voice>4</voice>
				<type>half</type>
				<stem default-y="-57.52">down</stem>
				<staff>2</staff>
			</note>
			<note>
				<pitch>
					<step>A</step>
					<alter>-1</alter>
					<octave>3</octave>
				</pitch>
				<duration>13440</duration>
				<voice>4</voice>
				<type>half</type>
				<stem default-y="-55.24">down</stem>
				<staff>2</staff>
			</note>
			<note>
				<chord/>
				<pitch>
					<step>B</step>
					<alter>-1</alter>
					<octave>2</octave>
				</pitch>
				<duration>13440</duration>
				<voice>4</voice>
				<type>half</type>
				<stem default-y="-57.52">down</stem>
				<staff>2</staff>
			</note>
			<backup>
				<duration>53760</duration>
			</backup>
			<note>
				<pitch>
					<step>C</step>
					<octave>4</octave>
				</pitch>
				<duration>13440</duration>
				<voice>1</voice>
				<type>half</type>
				<stem default-y="10.00">up</stem>
				<staff>1</staff>
			</note>
			<note>
				<chord/>
				<pitch>
					<step>A</step>
					<alter>-1</alter>
					<octave>4</octave>
				</pitch>
				<duration>13440</duration>
				<voice>1</voice>
				<type>half</type>
				<stem default-y="10.00">up</stem>
				<staff>1</staff>
			</note>
			<note>
				<pitch>
					<step>C</step>
					<octave>4</octave>
				</pitch>
				<duration>13440</duration>
				<voice>1</voice>
				<type>half</type>
				<stem default-y="-15.00">up</stem>
				<staff>1</staff>
			</note>
			<note>
				<pitch>
					<step>B</step>
					<alter>-1</alter>
					<octave>3</octave>
				</pitch>
				<duration>13440</duration>
				<voice>1</voice>
				<type>half</type>
				<stem default-y="-10.00">up</stem>
				<staff>1</staff>
			</note>
			<note>
				<chord/>
				<pitch>
					<step>D</step>
					<octave>4</octave>
				</pitch>
				<duration>13440</duration>
				<voice>1</voice>
				<type>half</type>
				<accidental editorial="yes">natural</accidental>
				<stem default-y="-10.00">up</stem>
				<staff>1</staff>
			</note>
			<forward>
				<duration>13440</duration>
			</forward>
			<direction placement="below">
				<direction-type>
					<words font-family="Times New Roman" font-size="11" font-weight="bold" font-style="normal" relative-x="0.00" default-y="-310.59">yet I must not see;</words>
				</direction-type>
				<staff>1</staff>
			</direction>
			<direction placement="below">
				<direction-type>
					<words font-family="Times New Roman" font-size="11" font-weight="bold" font-style="normal" relative-x="0.00" default-y="-200.36">to Thee for strength withheld,</words>
				</direction-type>
				<staff>1</staff>
			</direction>
			<direction placement="below">
				<direction-type>
					<words font-family="Times New Roman" font-size="11" font-weight="bold" font-style="normal" relative-x="0.00" default-y="-288.45">a heritage of joy</words>
				</direction-type>
				<staff>1</staff>
			</direction>
			<direction placement="below">
				<direction-type>
					<words font-family="Times New Roman" font-size="11" font-weight="bold" font-style="normal" relative-x="0.00" default-y="-332.50">hand that bled to make it mine</words>
				</direction-type>
				<staff>1</staff>
			</direction>
			<direction placement="below">
				<direction-type>
					<words font-family="Times New Roman" font-size="11" font-weight="bold" font-style="normal" relative-x="0.00" default-y="-244.40">fear that sends me to Thy</words>
				</direction-type>
				<staff>1</staff>
			</direction>
			<direction placement="below">
				<direction-type>
					<words font-family="Times New Roman" font-size="11" font-weight="bold" font-style="normal" relative-x="0.00" default-y="-222.50">and weakness known—</words>
				</direction-type>
				<staff>1</staff>
			</direction>
			<direction placement="below">
				<direction-type>
					<words font-family="Times New Roman" font-size="11" font-weight="bold" font-style="normal" relative-x="0.00" default-y="-266.55">is most my own.</words>
				</direction-type>
				<staff>1</staff>
			</direction>
			<direction placement="below">
				<direction-type>
					<words font-family="Times New Roman" font-size="11" font-weight="bold" font-style="normal" relative-x="0.00" default-y="-354.64">it for me.</words>
				</direction-type>
				<staff>1</staff>
			</direction>
			<backup>
				<duration>13440</duration>
			</backup>
			<note>
				<pitch>
					<step>F</step>
					<octave>4</octave>
				</pitch>
				<duration>13440</duration>
				<voice>1</voice>
				<type>half</type>
				<stem default-y="0.00">up</stem>
				<staff>1</staff>
			</note>
			<note>
				<chord/>
				<pitch>
					<step>B</step>
					<alter>-1</alter>
					<octave>3</octave>
				</pitch>
				<duration>13440</duration>
				<voice>1</voice>
				<type>half</type>
				<stem default-y="0.00">up</stem>
				<staff>1</staff>
			</note>
		</measure>
		<!--==========================[1,17]=============================-->
		<measure number="17" width="131">
			<note>
				<pitch>
					<step>G</step>
					<octave>3</octave>
				</pitch>
				<duration>40320</duration>
				<voice>1</voice>
				<type>whole</type>
				<dot/>
				<stem>none</stem>
				<staff>2</staff>
			</note>
			<note>
				<chord/>
				<pitch>
					<step>E</step>
					<alter>-1</alter>
					<octave>3</octave>
				</pitch>
				<duration>40320</duration>
				<voice>1</voice>
				<type>whole</type>
				<dot/>
				<stem>none</stem>
				<staff>2</staff>
			</note>
			<direction placement="below">
				<direction-type>
					<words font-family="Times New Roman" font-size="11" font-weight="bold" font-style="normal" relative-x="0.00" default-y="-244.40">breast</words>
				</direction-type>
				<staff>1</staff>
			</direction>
			<backup>
				<duration>40320</duration>
			</backup>
			<note>
				<pitch>
					<step>B</step>
					<alter>-1</alter>
					<octave>3</octave>
				</pitch>
				<duration>40320</duration>
				<voice>1</voice>
				<type>whole</type>
				<dot/>
				<stem>none</stem>
				<staff>1</staff>
			</note>
			<note>
				<chord/>
				<pitch>
					<step>E</step>
					<alter>-1</alter>
					<octave>4</octave>
				</pitch>
				<duration>40320</duration>
				<voice>1</voice>
				<type>whole</type>
				<dot/>
				<stem>none</stem>
				<staff>1</staff>
			</note>
			<barline location="right">
				<bar-style>light-heavy</bar-style>
			</barline>
		</measure>
	</part>
</score-partwise>
