<?xml version="1.0" encoding='UTF-8' standalone='no' ?>
<!DOCTYPE score-partwise PUBLIC "-//Recordare//DTD MusicXML 3.0 Partwise//EN" "http://www.musicxml.org/dtds/partwise.dtd">
<score-partwise version="3.0">
 <work>
  <work-title>God, Be Merciful to Me</work-title>
 </work>
 <identification>
  <rights>This hymn is in the public domain. You may freely use this score for personal and congregational worship. If you reproduce the score, please credit Hymnary.org as the source. </rights>
  <encoding>
   <encoding-date>2013-05-30</encoding-date>
   <encoder>Brian</encoder>
   <software>Sibelius 7.1.3</software>
   <software>Direct export, not from Dolet</software>
   <encoding-description>Sibelius / MusicXML 3.0</encoding-description>
   <supports element="print" type="yes" value="yes" attribute="new-system" />
   <supports element="print" type="yes" value="yes" attribute="new-page" />
   <supports element="accidental" type="yes" />
   <supports element="beam" type="yes" />
   <supports element="stem" type="yes" />
  </encoding>
 </identification>
 <defaults>
  <scaling>
   <millimeters>215.9</millimeters>
   <tenths>1373</tenths>
  </scaling>
  <page-layout>
   <page-height>1777</page-height>
   <page-width>1373</page-width>
   <page-margins type="both">
    <left-margin>161</left-margin>
    <right-margin>161</right-margin>
    <top-margin>80</top-margin>
    <bottom-margin>80</bottom-margin>
   </page-margins>
  </page-layout>
  <system-layout>
   <system-margins>
    <left-margin>45</left-margin>
    <right-margin>0</right-margin>
   </system-margins>
   <system-distance>92</system-distance>
  </system-layout>
  <appearance>
   <line-width type="stem">0.9375</line-width>
   <line-width type="beam">4.0625</line-width>
   <line-width type="staff">0.9375</line-width>
   <line-width type="light barline">0.9375</line-width>
   <line-width type="heavy barline">3.125</line-width>
   <line-width type="leger">1.5625</line-width>
   <line-width type="ending">1.5625</line-width>
   <line-width type="wedge">1.25</line-width>
   <line-width type="enclosure">0.9375</line-width>
   <line-width type="tuplet bracket">1.25</line-width>
   <line-width type="bracket">5</line-width>
   <line-width type="dashes">1.5625</line-width>
   <line-width type="extend">0.9375</line-width>
   <line-width type="octave shift">1.5625</line-width>
   <line-width type="pedal">1.5625</line-width>
   <line-width type="slur middle">1.5625</line-width>
   <line-width type="slur tip">0.625</line-width>
   <line-width type="tie middle">1.5625</line-width>
   <line-width type="tie tip">0.625</line-width>
   <note-size type="cue">92</note-size>
   <note-size type="grace">60</note-size>
  </appearance>
  <music-font font-family="Opus Std" font-size="17.8186" />
  <lyric-font font-family="Times New Roman" font-size="10.3014" />
  <lyric-language xml:lang="en" />
 </defaults>
 <credit page="1">
  <credit-words default-x="686" default-y="98" font-family="Times New Roman" font-style="normal" font-size="19.7675" font-weight="bold" justify="center" valign="middle">God, Be Merciful to Me</credit-words>
 </credit>
 <credit page="1">
  <credit-words default-x="686" default-y="95" font-family="Times New Roman" font-style="normal" font-size="9.0485" font-weight="normal" justify="center" valign="middle">This hymn is in the public domain. You may freely use this score for personal and congregational worship. If you reproduce the score, please credit Hymnary.org as the source. </credit-words>
 </credit>
 <credit page="1">
  <credit-words default-x="161" default-y="149" font-family="Times New Roman" font-style="normal" font-size="10.023" font-weight="normal" justify="left" valign="middle">Text: from Psalm 51; vers. Psalter, 1912, alt.
Tune: Richard Redhead, 1853</credit-words>
 </credit>
 <credit page="1">
  <credit-words default-x="1212" default-y="175" font-family="Times New Roman" font-style="normal" font-size="10.023" font-weight="normal" justify="right" valign="middle">77 77 77
REDHEAD 76
www.hymnary.org//text/god_be_merciful_to_me_on_thy_grace</credit-words>
 </credit>
 <part-list>
  <score-part id="P1">
   <part-name>SOPRANO ALTO</part-name>
   <part-name-display>
    <display-text>SOPRANO</display-text>
    <display-text>ALTO</display-text>
   </part-name-display>
   <part-abbreviation>S. A.</part-abbreviation>
   <part-abbreviation-display>
    <display-text>S.</display-text>
    <display-text>A.</display-text>
   </part-abbreviation-display>
   <score-instrument id="P1-I1">
    <instrument-name>Soprano</instrument-name>
    <virtual-instrument>
     <virtual-library>General MIDI</virtual-library>
     <virtual-name>Soprano Ensemble</virtual-name>
    </virtual-instrument>
   </score-instrument>
  </score-part>
  <score-part id="P2">
   <part-name>TENOR BASS</part-name>
   <part-name-display>
    <display-text>TENOR</display-text>
    <display-text>BASS</display-text>
   </part-name-display>
   <part-abbreviation>T. B.</part-abbreviation>
   <part-abbreviation-display>
    <display-text>T.</display-text>
    <display-text>B.</display-text>
   </part-abbreviation-display>
   <score-instrument id="P2-I1">
    <instrument-name>Bass (2)</instrument-name>
    <virtual-instrument>
     <virtual-library>General MIDI</virtual-library>
     <virtual-name>Bass Ensemble</virtual-name>
    </virtual-instrument>
   </score-instrument>
  </score-part>
 </part-list>
 <part id="P1">
  <!--============== Part: P1, Measure: 0 ==============-->
  <measure number="0" width="349">
   <print new-page="yes">
    <system-layout>
     <system-margins>
      <left-margin>1</left-margin>
      <right-margin>0</right-margin>
     </system-margins>
     <top-system-distance>141</top-system-distance>
    </system-layout>
   </print>
   <attributes>
    <divisions>256</divisions>
    <key color="#000000">
     <fifths>-3</fifths>
     <mode>major</mode>
    </key>
    <time color="#000000">
     <beats>4</beats>
     <beat-type>4</beat-type>
    </time>
    <staves>1</staves>
    <clef number="1" color="#000000">
     <sign>G</sign>
     <line>2</line>
    </clef>
    <staff-details number="1" print-object="yes" />
   </attributes>
   <direction>
    <direction-type>
     <other-direction default-y="20" print-object="no">Start bracket</other-direction>
    </direction-type>
    <voice>1</voice>
    <staff>1</staff>
   </direction>
   <direction>
    <direction-type>
     <words default-x="66" default-y="-90" justify="center" valign="middle" font-family="Times New Roman" font-style="normal" font-size="10.3014" font-weight="normal">1</words>
    </direction-type>
    <voice>1</voice>
    <staff>1</staff>
   </direction>
   <direction>
    <direction-type>
     <words default-x="66" default-y="-120" justify="center" valign="middle" font-family="Times New Roman" font-style="normal" font-size="10.3014" font-weight="normal">2</words>
    </direction-type>
    <voice>1</voice>
    <staff>1</staff>
   </direction>
   <direction>
    <direction-type>
     <words default-x="66" default-y="-150" justify="center" valign="middle" font-family="Times New Roman" font-style="normal" font-size="10.3014" font-weight="normal">3</words>
    </direction-type>
    <voice>1</voice>
    <staff>1</staff>
   </direction>
   <direction>
    <direction-type>
     <words default-x="66" default-y="-180" justify="center" valign="middle" font-family="Times New Roman" font-style="normal" font-size="10.3014" font-weight="normal">4</words>
    </direction-type>
    <voice>1</voice>
    <staff>1</staff>
   </direction>
   <note color="#000000" default-x="110" default-y="-5">
    <pitch>
     <step>E</step>
     <alter>-1</alter>
     <octave>4</octave>
    </pitch>
    <duration>256</duration>
    <instrument id="P1-I1" />
    <voice>1</voice>
    <type>quarter</type>
    <stem>up</stem>
    <staff>1</staff>
    <lyric default-y="-90" number="part1verse1" color="#000000">
     <syllabic>single</syllabic>
     <text>God,</text>
    </lyric>
    <lyric default-y="-120" number="part1verse2" color="#000000">
     <syllabic>single</syllabic>
     <text>I</text>
    </lyric>
    <lyric default-y="-150" number="part1verse3" color="#000000">
     <syllabic>begin</syllabic>
     <text>Gra</text>
    </lyric>
    <lyric default-y="-180" number="part1verse4" color="#000000">
     <syllabic>begin</syllabic>
     <text>Con</text>
    </lyric>
   </note>
   <note color="#000000" default-x="172" default-y="-5">
    <pitch>
     <step>E</step>
     <alter>-1</alter>
     <octave>4</octave>
    </pitch>
    <duration>256</duration>
    <instrument id="P1-I1" />
    <voice>1</voice>
    <type>quarter</type>
    <stem>up</stem>
    <staff>1</staff>
    <lyric default-y="-90" number="part1verse1" color="#000000">
     <syllabic>single</syllabic>
     <text>be</text>
    </lyric>
    <lyric default-y="-120" number="part1verse2" color="#000000">
     <syllabic>single</syllabic>
     <text>have</text>
    </lyric>
    <lyric default-y="-150" number="part1verse3" color="#000000">
     <syllabic>end</syllabic>
     <text>cious</text>
    </lyric>
    <lyric default-y="-180" number="part1verse4" color="#000000">
     <syllabic>end</syllabic>
     <text>trite</text>
    </lyric>
   </note>
   <note color="#000000" default-x="235">
    <pitch>
     <step>F</step>
     <octave>4</octave>
    </pitch>
    <duration>256</duration>
    <instrument id="P1-I1" />
    <voice>1</voice>
    <type>quarter</type>
    <stem>up</stem>
    <staff>1</staff>
    <lyric default-y="-90" number="part1verse1" color="#000000">
     <syllabic>begin</syllabic>
     <text>mer</text>
    </lyric>
    <lyric default-y="-120" number="part1verse2" color="#000000">
     <syllabic>single</syllabic>
     <text>sinned</text>
    </lyric>
    <lyric default-y="-150" number="part1verse3" color="#000000">
     <syllabic>single</syllabic>
     <text>God</text>
    </lyric>
    <lyric default-y="-180" number="part1verse4" color="#000000">
     <syllabic>begin</syllabic>
     <text>spi</text>
    </lyric>
   </note>
   <note color="#000000" default-x="297" default-y="5">
    <pitch>
     <step>G</step>
     <octave>4</octave>
    </pitch>
    <duration>256</duration>
    <instrument id="P1-I1" />
    <voice>1</voice>
    <type>quarter</type>
    <stem>up</stem>
    <staff>1</staff>
    <lyric default-y="-90" number="part1verse1" color="#000000">
     <syllabic>middle</syllabic>
     <text>ci</text>
    </lyric>
    <lyric default-y="-120" number="part1verse2" color="#000000">
     <syllabic>begin</syllabic>
     <text>a</text>
    </lyric>
    <lyric default-y="-150" number="part1verse3" color="#000000">
     <syllabic>single</syllabic>
     <text>my</text>
    </lyric>
    <lyric default-y="-180" number="part1verse4" color="#000000">
     <syllabic>end</syllabic>
     <text>rit,</text>
    </lyric>
   </note>
   <backup>
    <duration>1024</duration>
   </backup>
   <note color="#000000" default-x="110" default-y="-20">
    <pitch>
     <step>B</step>
     <alter>-1</alter>
     <octave>3</octave>
    </pitch>
    <duration>256</duration>
    <instrument id="P1-I1" />
    <voice>2</voice>
    <type>quarter</type>
    <stem>up</stem>
    <staff>1</staff>
   </note>
   <note color="#000000" default-x="172" default-y="-20">
    <pitch>
     <step>B</step>
     <alter>-1</alter>
     <octave>3</octave>
    </pitch>
    <duration>256</duration>
    <instrument id="P1-I1" />
    <voice>2</voice>
    <type>quarter</type>
    <stem>up</stem>
    <staff>1</staff>
   </note>
   <note color="#000000" default-x="235" default-y="-10">
    <pitch>
     <step>D</step>
     <octave>4</octave>
    </pitch>
    <duration>256</duration>
    <instrument id="P1-I1" />
    <voice>2</voice>
    <type>quarter</type>
    <stem>up</stem>
    <staff>1</staff>
   </note>
   <note color="#000000" default-x="297" default-y="-5">
    <pitch>
     <step>E</step>
     <alter>-1</alter>
     <octave>4</octave>
    </pitch>
    <duration>256</duration>
    <instrument id="P1-I1" />
    <voice>2</voice>
    <type>quarter</type>
    <stem>up</stem>
    <staff>1</staff>
   </note>
  </measure>
  <!--============== Part: P1, Measure: 1 ==============-->
  <measure number="1" width="225">
   <note color="#000000" default-x="27" default-y="10">
    <pitch>
     <step>A</step>
     <alter>-1</alter>
     <octave>4</octave>
    </pitch>
    <duration>384</duration>
    <instrument id="P1-I1" />
    <voice>1</voice>
    <type>quarter</type>
    <dot />
    <stem>up</stem>
    <staff>1</staff>
    <lyric default-y="-90" number="part1verse1" color="#000000">
     <syllabic>end</syllabic>
     <text>ful</text>
    </lyric>
    <lyric default-y="-120" number="part1verse2" color="#000000">
     <syllabic>end</syllabic>
     <text>gainst</text>
    </lyric>
    <lyric default-y="-150" number="part1verse3" color="#000000">
     <syllabic>single</syllabic>
     <text>heart</text>
    </lyric>
    <lyric default-y="-180" number="part1verse4" color="#000000">
     <syllabic>begin</syllabic>
     <text>plead</text>
    </lyric>
   </note>
   <note color="#000000" default-x="107" default-y="10">
    <pitch>
     <step>A</step>
     <alter>-1</alter>
     <octave>4</octave>
    </pitch>
    <duration>128</duration>
    <instrument id="P1-I1" />
    <voice>1</voice>
    <type>eighth</type>
    <stem>up</stem>
    <staff>1</staff>
    <lyric default-y="-90" number="part1verse1" color="#000000">
     <syllabic>single</syllabic>
     <text>to</text>
    </lyric>
    <lyric default-y="-120" number="part1verse2" color="#000000">
     <syllabic>single</syllabic>
     <text>your</text>
    </lyric>
    <lyric default-y="-150" number="part1verse3" color="#000000">
     <syllabic>begin</syllabic>
     <text>re</text>
    </lyric>
    <lyric default-y="-180" number="part1verse4" color="#000000">
     <syllabic>end</syllabic>
     <text>ing</text>
    </lyric>
   </note>
   <note color="#000000" default-x="170" default-y="5">
    <pitch>
     <step>G</step>
     <octave>4</octave>
    </pitch>
    <duration>512</duration>
    <instrument id="P1-I1" />
    <voice>1</voice>
    <type>half</type>
    <stem>up</stem>
    <staff>1</staff>
    <lyric default-y="-90" number="part1verse1" color="#000000">
     <syllabic>single</syllabic>
     <text>me;</text>
    </lyric>
    <lyric default-y="-120" number="part1verse2" color="#000000">
     <syllabic>single</syllabic>
     <text>grace</text>
    </lyric>
    <lyric default-y="-150" number="part1verse3" color="#000000">
     <syllabic>end</syllabic>
     <text>new,</text>
    </lyric>
    <lyric default-y="-180" number="part1verse4" color="#000000">
     <syllabic>single</syllabic>
     <text>cries,</text>
    </lyric>
   </note>
   <backup>
    <duration>1024</duration>
   </backup>
   <note color="#000000" default-x="27" default-y="-5">
    <pitch>
     <step>E</step>
     <alter>-1</alter>
     <octave>4</octave>
    </pitch>
    <duration>384</duration>
    <instrument id="P1-I1" />
    <voice>2</voice>
    <type>quarter</type>
    <dot />
    <stem>up</stem>
    <staff>1</staff>
   </note>
   <note color="#000000" default-x="107" default-y="-5">
    <pitch>
     <step>E</step>
     <alter>-1</alter>
     <octave>4</octave>
    </pitch>
    <duration>128</duration>
    <instrument id="P1-I1" />
    <voice>2</voice>
    <type>eighth</type>
    <stem>up</stem>
    <staff>1</staff>
   </note>
   <note color="#000000" default-x="170" default-y="-5">
    <pitch>
     <step>E</step>
     <alter>-1</alter>
     <octave>4</octave>
    </pitch>
    <duration>512</duration>
    <instrument id="P1-I1" />
    <voice>2</voice>
    <type>half</type>
    <stem>up</stem>
    <staff>1</staff>
   </note>
  </measure>
  <!--============== Part: P1, Measure: 2 ==============-->
  <measure number="2" width="264">
   <note color="#000000" default-x="15" default-y="-5">
    <pitch>
     <step>E</step>
     <alter>-1</alter>
     <octave>4</octave>
    </pitch>
    <duration>256</duration>
    <instrument id="P1-I1" />
    <voice>1</voice>
    <type>quarter</type>
    <stem>up</stem>
    <staff>1</staff>
    <lyric default-y="-90" number="part1verse1" color="#000000">
     <syllabic>single</syllabic>
     <text>on</text>
    </lyric>
    <lyric default-y="-120" number="part1verse2" color="#000000">
     <syllabic>single</syllabic>
     <text>and</text>
    </lyric>
    <lyric default-y="-150" number="part1verse3" color="#000000">
     <syllabic>single</syllabic>
     <text>make</text>
    </lyric>
    <lyric default-y="-180" number="part1verse4" color="#000000">
     <syllabic>single</syllabic>
     <text>you,</text>
    </lyric>
   </note>
   <note color="#000000" default-x="77" default-y="-5">
    <pitch>
     <step>E</step>
     <alter>-1</alter>
     <octave>4</octave>
    </pitch>
    <duration>256</duration>
    <instrument id="P1-I1" />
    <voice>1</voice>
    <type>quarter</type>
    <stem>up</stem>
    <staff>1</staff>
    <lyric default-y="-90" number="part1verse1" color="#000000">
     <syllabic>single</syllabic>
     <text>your</text>
    </lyric>
    <lyric default-y="-120" number="part1verse2" color="#000000">
     <syllabic>begin</syllabic>
     <text>pro</text>
    </lyric>
    <lyric default-y="-150" number="part1verse3" color="#000000">
     <syllabic>single</syllabic>
     <text>my</text>
    </lyric>
    <lyric default-y="-180" number="part1verse4" color="#000000">
     <syllabic>single</syllabic>
     <text>O</text>
    </lyric>
   </note>
   <note color="#000000" default-x="139">
    <pitch>
     <step>F</step>
     <octave>4</octave>
    </pitch>
    <duration>256</duration>
    <instrument id="P1-I1" />
    <voice>1</voice>
    <type>quarter</type>
    <stem>up</stem>
    <staff>1</staff>
    <lyric default-y="-90" number="part1verse1" color="#000000">
     <syllabic>single</syllabic>
     <text>grace</text>
    </lyric>
    <lyric default-y="-120" number="part1verse2" color="#000000">
     <syllabic>end</syllabic>
     <text>voked</text>
    </lyric>
    <lyric default-y="-150" number="part1verse3" color="#000000">
     <syllabic>begin</syllabic>
     <text>spi</text>
    </lyric>
    <lyric default-y="-180" number="part1verse4" color="#000000">
     <syllabic>single</syllabic>
     <text>God,</text>
    </lyric>
   </note>
   <note color="#000000" default-x="201" default-y="5">
    <pitch>
     <step>G</step>
     <octave>4</octave>
    </pitch>
    <duration>256</duration>
    <instrument id="P1-I1" />
    <voice>1</voice>
    <type>quarter</type>
    <stem>up</stem>
    <staff>1</staff>
    <lyric default-y="-90" number="part1verse1" color="#000000">
     <syllabic>single</syllabic>
     <text>I</text>
    </lyric>
    <lyric default-y="-120" number="part1verse2" color="#000000">
     <syllabic>single</syllabic>
     <text>you</text>
    </lyric>
    <lyric default-y="-150" number="part1verse3" color="#000000">
     <syllabic>end</syllabic>
     <text>rit</text>
    </lyric>
    <lyric default-y="-180" number="part1verse4" color="#000000">
     <syllabic>single</syllabic>
     <text>will</text>
    </lyric>
   </note>
   <backup>
    <duration>1024</duration>
   </backup>
   <note color="#000000" default-x="15" default-y="-20">
    <pitch>
     <step>B</step>
     <alter>-1</alter>
     <octave>3</octave>
    </pitch>
    <duration>256</duration>
    <instrument id="P1-I1" />
    <voice>2</voice>
    <type>quarter</type>
    <stem>up</stem>
    <staff>1</staff>
   </note>
   <note color="#000000" default-x="77" default-y="-15">
    <pitch>
     <step>C</step>
     <octave>4</octave>
    </pitch>
    <duration>256</duration>
    <instrument id="P1-I1" />
    <voice>2</voice>
    <type>quarter</type>
    <stem>up</stem>
    <staff>1</staff>
   </note>
   <note color="#000000" default-x="139" default-y="-10">
    <pitch>
     <step>D</step>
     <octave>4</octave>
    </pitch>
    <duration>256</duration>
    <instrument id="P1-I1" />
    <voice>2</voice>
    <type>quarter</type>
    <stem>up</stem>
    <staff>1</staff>
   </note>
   <note color="#000000" default-x="201" default-y="-5">
    <pitch>
     <step>E</step>
     <alter>-1</alter>
     <octave>4</octave>
    </pitch>
    <duration>256</duration>
    <instrument id="P1-I1" />
    <voice>2</voice>
    <type>quarter</type>
    <stem>up</stem>
    <staff>1</staff>
   </note>
  </measure>
  <!--============== Part: P1, Measure: 3 ==============-->
  <measure number="3" width="211">
   <note color="#000000" default-x="15">
    <pitch>
     <step>F</step>
     <octave>4</octave>
    </pitch>
    <duration>256</duration>
    <instrument id="P1-I1" />
    <voice>1</voice>
    <type>quarter</type>
    <stem>up</stem>
    <staff>1</staff>
    <lyric default-y="-90" number="part1verse1" color="#000000">
     <syllabic>single</syllabic>
     <text>rest</text>
    </lyric>
    <lyric default-y="-120" number="part1verse2" color="#000000">
     <syllabic>single</syllabic>
     <text>to</text>
    </lyric>
    <lyric default-y="-150" number="part1verse3" color="#000000">
     <syllabic>single</syllabic>
     <text>right</text>
    </lyric>
    <lyric default-y="-180" number="part1verse4" color="#000000">
     <syllabic>single</syllabic>
     <text>not</text>
    </lyric>
   </note>
   <note color="#000000" default-x="77">
    <pitch>
     <step>F</step>
     <octave>4</octave>
    </pitch>
    <duration>256</duration>
    <instrument id="P1-I1" />
    <voice>1</voice>
    <type>quarter</type>
    <stem>up</stem>
    <staff>1</staff>
    <lyric default-y="-90" number="part1verse1" color="#000000">
     <syllabic>single</syllabic>
     <text>my</text>
    </lyric>
    <lyric default-y="-120" number="part1verse2" color="#000000">
     <syllabic>single</syllabic>
     <text>your</text>
    </lyric>
    <lyric default-y="-150" number="part1verse3" color="#000000">
     <syllabic>single</syllabic>
     <text>and</text>
    </lyric>
    <lyric default-y="-180" number="part1verse4" color="#000000">
     <syllabic>begin</syllabic>
     <text>des</text>
    </lyric>
   </note>
   <direction>
    <direction-type>
     <other-direction default-x="33" default-y="20" print-object="no">End bracket</other-direction>
    </direction-type>
    <offset sound="no">161</offset>
    <voice>1</voice>
    <staff>1</staff>
   </direction>
   <note color="#000000" default-x="139" default-y="-5">
    <pitch>
     <step>E</step>
     <alter>-1</alter>
     <octave>4</octave>
    </pitch>
    <duration>512</duration>
    <instrument id="P1-I1" />
    <voice>1</voice>
    <type>half</type>
    <stem>up</stem>
    <staff>1</staff>
    <lyric default-y="-90" number="part1verse1" color="#000000">
     <syllabic>single</syllabic>
     <text>plea.</text>
    </lyric>
    <lyric default-y="-120" number="part1verse2" color="#000000">
     <syllabic>single</syllabic>
     <text>face.</text>
    </lyric>
    <lyric default-y="-150" number="part1verse3" color="#000000">
     <syllabic>single</syllabic>
     <text>true.</text>
    </lyric>
    <lyric default-y="-180" number="part1verse4" color="#000000">
     <syllabic>end</syllabic>
     <text>pise.</text>
    </lyric>
   </note>
   <backup>
    <duration>1024</duration>
   </backup>
   <note color="#000000" default-x="15" default-y="-67">
    <pitch>
     <step>E</step>
     <alter>-1</alter>
     <octave>4</octave>
    </pitch>
    <duration>256</duration>
    <instrument id="P1-I1" />
    <voice>2</voice>
    <type>quarter</type>
    <stem>down</stem>
    <staff>1</staff>
   </note>
   <note color="#000000" default-x="77" default-y="-10">
    <pitch>
     <step>D</step>
     <octave>4</octave>
    </pitch>
    <duration>256</duration>
    <instrument id="P1-I1" />
    <voice>2</voice>
    <type>quarter</type>
    <stem>up</stem>
    <staff>1</staff>
   </note>
   <note color="#000000" default-x="139" default-y="-67">
    <pitch>
     <step>E</step>
     <alter>-1</alter>
     <octave>4</octave>
    </pitch>
    <duration>512</duration>
    <instrument id="P1-I1" />
    <voice>2</voice>
    <type>half</type>
    <stem>down</stem>
    <staff>1</staff>
   </note>
  </measure>
  <!--============== Part: P1, Measure: 4 ==============-->
  <measure number="4" width="341">
   <print new-system="yes">
    <system-layout>
     <system-margins>
      <left-margin>1</left-margin>
      <right-margin>0</right-margin>
     </system-margins>
     <system-distance>125</system-distance>
    </system-layout>
   </print>
   <attributes>
    <staff-details number="1" print-object="yes" />
   </attributes>
   <note color="#000000" default-x="91" default-y="-5">
    <pitch>
     <step>E</step>
     <alter>-1</alter>
     <octave>4</octave>
    </pitch>
    <duration>256</duration>
    <instrument id="P1-I1" />
    <voice>1</voice>
    <type>quarter</type>
    <stem>up</stem>
    <staff>1</staff>
    <lyric default-y="-90" number="part1verse1" color="#000000">
     <syllabic>single</syllabic>
     <text>My</text>
    </lyric>
    <lyric default-y="-120" number="part1verse2" color="#000000">
     <syllabic>single</syllabic>
     <text>I</text>
    </lyric>
    <lyric default-y="-150" number="part1verse3" color="#000000">
     <syllabic>single</syllabic>
     <text>Do</text>
    </lyric>
    <lyric default-y="-180" number="part1verse4" color="#000000">
     <syllabic>begin</syllabic>
     <text>Sin</text>
    </lyric>
   </note>
   <note color="#000000" default-x="152" default-y="5">
    <pitch>
     <step>G</step>
     <octave>4</octave>
    </pitch>
    <duration>256</duration>
    <instrument id="P1-I1" />
    <voice>1</voice>
    <type>quarter</type>
    <stem>up</stem>
    <staff>1</staff>
    <lyric default-y="-90" number="part1verse1" color="#000000">
     <syllabic>begin</syllabic>
     <text>trans</text>
    </lyric>
    <lyric default-y="-120" number="part1verse2" color="#000000">
     <syllabic>begin</syllabic>
     <text>con</text>
    </lyric>
    <lyric default-y="-150" number="part1verse3" color="#000000">
     <syllabic>single</syllabic>
     <text>not</text>
    </lyric>
    <lyric default-y="-180" number="part1verse4" color="#000000">
     <syllabic>end</syllabic>
     <text>ful</text>
    </lyric>
   </note>
   <note color="#000000" default-x="214" default-y="15">
    <pitch>
     <step>B</step>
     <alter>-1</alter>
     <octave>4</octave>
    </pitch>
    <duration>256</duration>
    <instrument id="P1-I1" />
    <voice>1</voice>
    <type>quarter</type>
    <stem>up</stem>
    <staff>1</staff>
    <lyric default-y="-90" number="part1verse1" color="#000000">
     <syllabic>middle</syllabic>
     <text>gres</text>
    </lyric>
    <lyric default-y="-120" number="part1verse2" color="#000000">
     <syllabic>end</syllabic>
     <text>fess</text>
    </lyric>
    <lyric default-y="-150" number="part1verse3" color="#000000">
     <syllabic>single</syllabic>
     <text>cast</text>
    </lyric>
    <lyric default-y="-180" number="part1verse4" color="#000000">
     <syllabic>single</syllabic>
     <text>ways</text>
    </lyric>
   </note>
   <note color="#000000" default-x="275" default-y="15">
    <pitch>
     <step>B</step>
     <alter>-1</alter>
     <octave>4</octave>
    </pitch>
    <duration>256</duration>
    <instrument id="P1-I1" />
    <voice>1</voice>
    <type>quarter</type>
    <stem>up</stem>
    <staff>1</staff>
    <lyric default-y="-90" number="part1verse1" color="#000000">
     <syllabic>end</syllabic>
     <text>sions</text>
    </lyric>
    <lyric default-y="-120" number="part1verse2" color="#000000">
     <syllabic>single</syllabic>
     <text>your</text>
    </lyric>
    <lyric default-y="-150" number="part1verse3" color="#000000">
     <syllabic>single</syllabic>
     <text>me</text>
    </lyric>
    <lyric default-y="-180" number="part1verse4" color="#000000">
     <syllabic>single</syllabic>
     <text>I</text>
    </lyric>
   </note>
   <backup>
    <duration>1024</duration>
   </backup>
   <note color="#000000" default-x="91" default-y="-67">
    <pitch>
     <step>E</step>
     <alter>-1</alter>
     <octave>4</octave>
    </pitch>
    <duration>256</duration>
    <instrument id="P1-I1" />
    <voice>2</voice>
    <type>quarter</type>
    <stem>down</stem>
    <staff>1</staff>
   </note>
   <note color="#000000" default-x="152" default-y="-5">
    <pitch>
     <step>E</step>
     <alter>-1</alter>
     <octave>4</octave>
    </pitch>
    <duration>256</duration>
    <instrument id="P1-I1" />
    <voice>2</voice>
    <type>quarter</type>
    <stem>up</stem>
    <staff>1</staff>
   </note>
   <note color="#000000" default-x="214">
    <pitch>
     <step>F</step>
     <octave>4</octave>
    </pitch>
    <duration>256</duration>
    <instrument id="P1-I1" />
    <voice>2</voice>
    <type>quarter</type>
    <stem>up</stem>
    <staff>1</staff>
   </note>
   <note color="#000000" default-x="275" default-y="5">
    <pitch>
     <step>G</step>
     <octave>4</octave>
    </pitch>
    <duration>256</duration>
    <instrument id="P1-I1" />
    <voice>2</voice>
    <type>quarter</type>
    <stem>up</stem>
    <staff>1</staff>
   </note>
  </measure>
  <!--============== Part: P1, Measure: 5 ==============-->
  <measure number="5" width="209">
   <note color="#000000" default-x="15" default-y="17">
    <pitch>
     <step>C</step>
     <octave>5</octave>
    </pitch>
    <duration>256</duration>
    <instrument id="P1-I1" />
    <voice>1</voice>
    <type>quarter</type>
    <stem>up</stem>
    <staff>1</staff>
    <lyric default-y="-90" number="part1verse1" color="#000000">
     <syllabic>single</syllabic>
     <text>I</text>
    </lyric>
    <lyric default-y="-120" number="part1verse2" color="#000000">
     <syllabic>begin</syllabic>
     <text>judg</text>
    </lyric>
    <lyric default-y="-150" number="part1verse3" color="#000000">
     <syllabic>single</syllabic>
     <text>from</text>
    </lyric>
    <lyric default-y="-180" number="part1verse4" color="#000000">
     <syllabic>single</syllabic>
     <text>will</text>
    </lyric>
   </note>
   <note color="#000000" default-x="76" default-y="17">
    <pitch>
     <step>C</step>
     <octave>5</octave>
    </pitch>
    <duration>256</duration>
    <instrument id="P1-I1" />
    <voice>1</voice>
    <type>quarter</type>
    <stem>up</stem>
    <staff>1</staff>
    <lyric default-y="-90" number="part1verse1" color="#000000">
     <syllabic>begin</syllabic>
     <text>con</text>
    </lyric>
    <lyric default-y="-120" number="part1verse2" color="#000000">
     <syllabic>end</syllabic>
     <text>ment</text>
    </lyric>
    <lyric default-y="-150" number="part1verse3" color="#000000">
     <syllabic>single</syllabic>
     <text>your</text>
    </lyric>
    <lyric default-y="-180" number="part1verse4" color="#000000">
     <syllabic>begin</syllabic>
     <text>re</text>
    </lyric>
   </note>
   <note color="#000000" default-x="138" default-y="15">
    <pitch>
     <step>B</step>
     <alter>-1</alter>
     <octave>4</octave>
    </pitch>
    <duration>512</duration>
    <instrument id="P1-I1" />
    <voice>1</voice>
    <type>half</type>
    <stem>up</stem>
    <staff>1</staff>
    <lyric default-y="-90" number="part1verse1" color="#000000">
     <syllabic>end</syllabic>
     <text>fess;</text>
    </lyric>
    <lyric default-y="-120" number="part1verse2" color="#000000">
     <syllabic>single</syllabic>
     <text>just;</text>
    </lyric>
    <lyric default-y="-150" number="part1verse3" color="#000000">
     <syllabic>single</syllabic>
     <text>sight</text>
    </lyric>
    <lyric default-y="-180" number="part1verse4" color="#000000">
     <syllabic>end</syllabic>
     <text>prove,</text>
    </lyric>
   </note>
   <backup>
    <duration>1024</duration>
   </backup>
   <note color="#000000" default-x="15" default-y="-5">
    <pitch>
     <step>E</step>
     <alter>-1</alter>
     <octave>4</octave>
    </pitch>
    <duration>256</duration>
    <instrument id="P1-I1" />
    <voice>2</voice>
    <type>quarter</type>
    <stem>up</stem>
    <staff>1</staff>
   </note>
   <note color="#000000" default-x="76">
    <pitch>
     <step>F</step>
     <octave>4</octave>
    </pitch>
    <duration>256</duration>
    <instrument id="P1-I1" />
    <voice>2</voice>
    <type>quarter</type>
    <stem>up</stem>
    <staff>1</staff>
   </note>
   <note color="#000000" default-x="138" default-y="5">
    <pitch>
     <step>G</step>
     <octave>4</octave>
    </pitch>
    <duration>512</duration>
    <instrument id="P1-I1" />
    <voice>2</voice>
    <type>half</type>
    <stem>up</stem>
    <staff>1</staff>
   </note>
  </measure>
  <!--============== Part: P1, Measure: 6 ==============-->
  <measure number="6" width="265">
   <note color="#000000" default-x="15" default-y="-5">
    <pitch>
     <step>E</step>
     <alter>-1</alter>
     <octave>4</octave>
    </pitch>
    <duration>256</duration>
    <instrument id="P1-I1" />
    <voice>1</voice>
    <type>quarter</type>
    <stem>up</stem>
    <staff>1</staff>
    <lyric default-y="-90" number="part1verse1" color="#000000">
     <syllabic>single</syllabic>
     <text>grief</text>
    </lyric>
    <lyric default-y="-120" number="part1verse2" color="#000000">
     <syllabic>begin</syllabic>
     <text>speech</text>
    </lyric>
    <lyric default-y="-150" number="part1verse3" color="#000000">
     <syllabic>single</syllabic>
     <text>nor</text>
    </lyric>
    <lyric default-y="-180" number="part1verse4" color="#000000">
     <syllabic>single</syllabic>
     <text>and</text>
    </lyric>
   </note>
   <note color="#000000" default-x="80" default-y="5">
    <pitch>
     <step>G</step>
     <octave>4</octave>
    </pitch>
    <duration>256</duration>
    <instrument id="P1-I1" />
    <voice>1</voice>
    <type>quarter</type>
    <stem>up</stem>
    <staff>1</staff>
    <lyric default-y="-90" number="part1verse1" color="#000000">
     <syllabic>single</syllabic>
     <text>and</text>
    </lyric>
    <lyric default-y="-120" number="part1verse2" color="#000000">
     <syllabic>end</syllabic>
     <text>less,</text>
    </lyric>
    <lyric default-y="-150" number="part1verse3" color="#000000">
     <syllabic>begin</syllabic>
     <text>re</text>
    </lyric>
    <lyric default-y="-180" number="part1verse4" color="#000000">
     <syllabic>single</syllabic>
     <text>my</text>
    </lyric>
   </note>
   <note color="#000000" default-x="141" default-y="15">
    <pitch>
     <step>B</step>
     <alter>-1</alter>
     <octave>4</octave>
    </pitch>
    <duration>256</duration>
    <instrument id="P1-I1" />
    <voice>1</voice>
    <type>quarter</type>
    <stem>up</stem>
    <staff>1</staff>
    <lyric default-y="-90" number="part1verse1" color="#000000">
     <syllabic>single</syllabic>
     <text>guilt</text>
    </lyric>
    <lyric default-y="-120" number="part1verse2" color="#000000">
     <syllabic>single</syllabic>
     <text>I</text>
    </lyric>
    <lyric default-y="-150" number="part1verse3" color="#000000">
     <syllabic>end</syllabic>
     <text>move</text>
    </lyric>
    <lyric default-y="-180" number="part1verse4" color="#000000">
     <syllabic>single</syllabic>
     <text>tongue</text>
    </lyric>
   </note>
   <note color="#000000" default-x="203" default-y="15">
    <pitch>
     <step>B</step>
     <alter>-1</alter>
     <octave>4</octave>
    </pitch>
    <duration>256</duration>
    <instrument id="P1-I1" />
    <voice>1</voice>
    <type>quarter</type>
    <stem>up</stem>
    <staff>1</staff>
    <lyric default-y="-90" number="part1verse1" color="#000000">
     <syllabic>single</syllabic>
     <text>my</text>
    </lyric>
    <lyric default-y="-120" number="part1verse2" color="#000000">
     <syllabic>single</syllabic>
     <text>your</text>
    </lyric>
    <lyric default-y="-150" number="part1verse3" color="#000000">
     <syllabic>single</syllabic>
     <text>your</text>
    </lyric>
    <lyric default-y="-180" number="part1verse4" color="#000000">
     <syllabic>single</syllabic>
     <text>shall</text>
    </lyric>
   </note>
   <backup>
    <duration>1024</duration>
   </backup>
   <note color="#000000" default-x="15" default-y="-67">
    <pitch>
     <step>E</step>
     <alter>-1</alter>
     <octave>4</octave>
    </pitch>
    <duration>256</duration>
    <instrument id="P1-I1" />
    <voice>2</voice>
    <type>quarter</type>
    <stem>down</stem>
    <staff>1</staff>
   </note>
   <note color="#000000" default-x="80" default-y="-5">
    <pitch>
     <step>E</step>
     <alter>-1</alter>
     <octave>4</octave>
    </pitch>
    <duration>256</duration>
    <instrument id="P1-I1" />
    <voice>2</voice>
    <type>quarter</type>
    <stem>up</stem>
    <staff>1</staff>
   </note>
   <note color="#000000" default-x="141">
    <pitch>
     <step>F</step>
     <octave>4</octave>
    </pitch>
    <duration>256</duration>
    <instrument id="P1-I1" />
    <voice>2</voice>
    <type>quarter</type>
    <stem>up</stem>
    <staff>1</staff>
   </note>
   <note color="#000000" default-x="203" default-y="-10">
    <pitch>
     <step>D</step>
     <octave>4</octave>
    </pitch>
    <duration>256</duration>
    <instrument id="P1-I1" />
    <voice>2</voice>
    <type>quarter</type>
    <stem>up</stem>
    <staff>1</staff>
   </note>
  </measure>
  <!--============== Part: P1, Measure: 7 ==============-->
  <measure number="7" width="233">
   <note color="#000000" default-x="15" default-y="17">
    <pitch>
     <step>C</step>
     <octave>5</octave>
    </pitch>
    <duration>256</duration>
    <instrument id="P1-I1" />
    <voice>1</voice>
    <type>quarter</type>
    <stem>up</stem>
    <staff>1</staff>
    <lyric default-y="-90" number="part1verse1" color="#000000">
     <syllabic>single</syllabic>
     <text>soul</text>
    </lyric>
    <lyric default-y="-120" number="part1verse2" color="#000000">
     <syllabic>begin</syllabic>
     <text>mer</text>
    </lyric>
    <lyric default-y="-150" number="part1verse3" color="#000000">
     <syllabic>begin</syllabic>
     <text>Spi</text>
    </lyric>
    <lyric default-y="-180" number="part1verse4" color="#000000">
     <syllabic>single</syllabic>
     <text>sing</text>
    </lyric>
   </note>
   <note color="#000000" default-x="76" default-y="17">
    <pitch>
     <step>C</step>
     <octave>5</octave>
    </pitch>
    <duration>256</duration>
    <instrument id="P1-I1" />
    <voice>1</voice>
    <type>quarter</type>
    <stem>up</stem>
    <staff>1</staff>
    <lyric default-y="-90" number="part1verse1" color="#000000">
     <syllabic>begin</syllabic>
     <text>op</text>
    </lyric>
    <lyric default-y="-120" number="part1verse2" color="#000000">
     <syllabic>end</syllabic>
     <text>cy</text>
    </lyric>
    <lyric default-y="-150" number="part1verse3" color="#000000">
     <syllabic>end</syllabic>
     <text>rit&apos;s</text>
    </lyric>
    <lyric default-y="-180" number="part1verse4" color="#000000">
     <syllabic>single</syllabic>
     <text>your</text>
    </lyric>
   </note>
   <note color="#000000" default-x="165" default-y="15">
    <pitch>
     <step>B</step>
     <alter>-1</alter>
     <octave>4</octave>
    </pitch>
    <duration>512</duration>
    <instrument id="P1-I1" />
    <voice>1</voice>
    <type>half</type>
    <stem>up</stem>
    <staff>1</staff>
    <lyric default-y="-90" number="part1verse1" color="#000000">
     <syllabic>end</syllabic>
     <text>press.</text>
    </lyric>
    <lyric default-y="-120" number="part1verse2" color="#000000">
     <syllabic>single</syllabic>
     <text>trust.</text>
    </lyric>
    <lyric default-y="-150" number="part1verse3" color="#000000">
     <syllabic>single</syllabic>
     <text>light.</text>
    </lyric>
    <lyric default-y="-180" number="part1verse4" color="#000000">
     <syllabic>single</syllabic>
     <text>love.</text>
    </lyric>
   </note>
   <backup>
    <duration>1024</duration>
   </backup>
   <note color="#000000" default-x="15" default-y="5">
    <pitch>
     <step>G</step>
     <octave>4</octave>
    </pitch>
    <duration>256</duration>
    <instrument id="P1-I1" />
    <voice>2</voice>
    <type>quarter</type>
    <stem>up</stem>
    <staff>1</staff>
   </note>
   <note color="#000000" default-x="76" default-y="-67">
    <pitch>
     <step>F</step>
     <octave>4</octave>
    </pitch>
    <duration>128</duration>
    <instrument id="P1-I1" />
    <voice>2</voice>
    <type>eighth</type>
    <stem>down</stem>
    <staff>1</staff>
    <beam number="1">begin</beam>
   </note>
   <note color="#000000" default-x="120" default-y="-67">
    <pitch>
     <step>E</step>
     <alter>-1</alter>
     <octave>4</octave>
    </pitch>
    <duration>128</duration>
    <instrument id="P1-I1" />
    <voice>2</voice>
    <type>eighth</type>
    <stem>down</stem>
    <staff>1</staff>
    <beam number="1">end</beam>
   </note>
   <note color="#000000" default-x="165" default-y="-10">
    <pitch>
     <step>D</step>
     <octave>4</octave>
    </pitch>
    <duration>512</duration>
    <instrument id="P1-I1" />
    <voice>2</voice>
    <type>half</type>
    <stem>up</stem>
    <staff>1</staff>
   </note>
  </measure>
  <!--============== Part: P1, Measure: 8 ==============-->
  <measure number="8" width="329">
   <print new-system="yes">
    <system-layout>
     <system-margins>
      <left-margin>1</left-margin>
      <right-margin>0</right-margin>
     </system-margins>
     <system-distance>125</system-distance>
    </system-layout>
   </print>
   <attributes>
    <staff-details number="1" print-object="yes" />
   </attributes>
   <barline location="left">
    <ending number="1" type="start" print-object="no" />
   </barline>
   <direction>
    <direction-type>
     <other-direction default-y="20" print-object="no">Start bracket</other-direction>
    </direction-type>
    <voice>1</voice>
    <staff>1</staff>
   </direction>
   <note color="#000000" default-x="91" default-y="-5">
    <pitch>
     <step>E</step>
     <alter>-1</alter>
     <octave>4</octave>
    </pitch>
    <duration>256</duration>
    <instrument id="P1-I1" />
    <voice>1</voice>
    <type>quarter</type>
    <stem>up</stem>
    <staff>1</staff>
    <lyric default-y="-90" number="part1verse1" color="#000000">
     <syllabic>single</syllabic>
     <text>Wash</text>
    </lyric>
    <lyric default-y="-120" number="part1verse2" color="#000000">
     <syllabic>single</syllabic>
     <text>Let</text>
    </lyric>
    <lyric default-y="-150" number="part1verse3" color="#000000">
     <syllabic>single</syllabic>
     <text>Your</text>
    </lyric>
    <lyric default-y="-180" number="part1verse4" color="#000000">
     <syllabic>single</syllabic>
     <text>Let</text>
    </lyric>
   </note>
   <note color="#000000" default-x="150" default-y="-5">
    <pitch>
     <step>E</step>
     <alter>-1</alter>
     <octave>4</octave>
    </pitch>
    <duration>256</duration>
    <instrument id="P1-I1" />
    <voice>1</voice>
    <type>quarter</type>
    <stem>up</stem>
    <staff>1</staff>
    <lyric default-y="-90" number="part1verse1" color="#000000">
     <syllabic>single</syllabic>
     <text>me,</text>
    </lyric>
    <lyric default-y="-120" number="part1verse2" color="#000000">
     <syllabic>single</syllabic>
     <text>my</text>
    </lyric>
    <lyric default-y="-150" number="part1verse3" color="#000000">
     <syllabic>begin</syllabic>
     <text>sal</text>
    </lyric>
    <lyric default-y="-180" number="part1verse4" color="#000000">
     <syllabic>single</syllabic>
     <text>my</text>
    </lyric>
   </note>
   <note color="#000000" default-x="210">
    <pitch>
     <step>F</step>
     <octave>4</octave>
    </pitch>
    <duration>256</duration>
    <instrument id="P1-I1" />
    <voice>1</voice>
    <type>quarter</type>
    <stem>up</stem>
    <staff>1</staff>
    <lyric default-y="-90" number="part1verse1" color="#000000">
     <syllabic>single</syllabic>
     <text>make</text>
    </lyric>
    <lyric default-y="-120" number="part1verse2" color="#000000">
     <syllabic>begin</syllabic>
     <text>con</text>
    </lyric>
    <lyric default-y="-150" number="part1verse3" color="#000000">
     <syllabic>middle</syllabic>
     <text>va</text>
    </lyric>
    <lyric default-y="-180" number="part1verse4" color="#000000">
     <syllabic>begin</syllabic>
     <text>right</text>
    </lyric>
   </note>
   <note color="#000000" default-x="270" default-y="5">
    <pitch>
     <step>G</step>
     <octave>4</octave>
    </pitch>
    <duration>256</duration>
    <instrument id="P1-I1" />
    <voice>1</voice>
    <type>quarter</type>
    <stem>up</stem>
    <staff>1</staff>
    <lyric default-y="-90" number="part1verse1" color="#000000">
     <syllabic>single</syllabic>
     <text>me</text>
    </lyric>
    <lyric default-y="-120" number="part1verse2" color="#000000">
     <syllabic>end</syllabic>
     <text>trite</text>
    </lyric>
    <lyric default-y="-150" number="part1verse3" color="#000000">
     <syllabic>end</syllabic>
     <text>tion&apos;s</text>
    </lyric>
    <lyric default-y="-180" number="part1verse4" color="#000000">
     <syllabic>end</syllabic>
     <text>eous</text>
    </lyric>
   </note>
   <backup>
    <duration>1024</duration>
   </backup>
   <note color="#000000" default-x="91" default-y="-67">
    <pitch>
     <step>E</step>
     <alter>-1</alter>
     <octave>4</octave>
    </pitch>
    <duration>256</duration>
    <instrument id="P1-I1" />
    <voice>2</voice>
    <type>quarter</type>
    <stem>down</stem>
    <staff>1</staff>
   </note>
   <note color="#000000" default-x="150" default-y="-67">
    <pitch>
     <step>E</step>
     <alter>-1</alter>
     <octave>4</octave>
    </pitch>
    <duration>256</duration>
    <instrument id="P1-I1" />
    <voice>2</voice>
    <type>quarter</type>
    <stem>down</stem>
    <staff>1</staff>
   </note>
   <note color="#000000" default-x="210" default-y="-10">
    <pitch>
     <step>D</step>
     <octave>4</octave>
    </pitch>
    <duration>256</duration>
    <instrument id="P1-I1" />
    <voice>2</voice>
    <type>quarter</type>
    <stem>up</stem>
    <staff>1</staff>
   </note>
   <note color="#000000" default-x="270" default-y="-5">
    <pitch>
     <step>E</step>
     <alter>-1</alter>
     <octave>4</octave>
    </pitch>
    <duration>256</duration>
    <instrument id="P1-I1" />
    <voice>2</voice>
    <type>quarter</type>
    <stem>up</stem>
    <staff>1</staff>
   </note>
  </measure>
  <!--============== Part: P1, Measure: 9 ==============-->
  <measure number="9" width="234">
   <note color="#000000" default-x="15" default-y="10">
    <pitch>
     <step>A</step>
     <alter>-1</alter>
     <octave>4</octave>
    </pitch>
    <duration>384</duration>
    <instrument id="P1-I1" />
    <voice>1</voice>
    <type>quarter</type>
    <dot />
    <stem>up</stem>
    <staff>1</staff>
    <lyric default-y="-90" number="part1verse1" color="#000000">
     <syllabic>single</syllabic>
     <text>pure</text>
    </lyric>
    <lyric default-y="-120" number="part1verse2" color="#000000">
     <syllabic>single</syllabic>
     <text>heart</text>
    </lyric>
    <lyric default-y="-150" number="part1verse3" color="#000000">
     <syllabic>single</syllabic>
     <text>joy</text>
    </lyric>
    <lyric default-y="-180" number="part1verse4" color="#000000">
     <syllabic>begin</syllabic>
     <text>sac</text>
    </lyric>
   </note>
   <note color="#000000" default-x="86" default-y="10">
    <pitch>
     <step>A</step>
     <alter>-1</alter>
     <octave>4</octave>
    </pitch>
    <duration>128</duration>
    <instrument id="P1-I1" />
    <voice>1</voice>
    <type>eighth</type>
    <stem>up</stem>
    <staff>1</staff>
    <lyric default-y="-90" number="part1verse1" color="#000000">
     <syllabic>begin</syllabic>
     <text>with</text>
    </lyric>
    <lyric default-y="-120" number="part1verse2" color="#000000">
     <syllabic>begin</syllabic>
     <text>re</text>
    </lyric>
    <lyric default-y="-150" number="part1verse3" color="#000000">
     <syllabic>begin</syllabic>
     <text>re</text>
    </lyric>
    <lyric default-y="-180" number="part1verse4" color="#000000">
     <syllabic>middle</syllabic>
     <text>ri</text>
    </lyric>
   </note>
   <note color="#000000" default-x="156" default-y="5">
    <pitch>
     <step>G</step>
     <octave>4</octave>
    </pitch>
    <duration>512</duration>
    <instrument id="P1-I1" />
    <voice>1</voice>
    <type>half</type>
    <stem>up</stem>
    <staff>1</staff>
    <lyric default-y="-90" number="part1verse1" color="#000000">
     <syllabic>end</syllabic>
     <text>in;</text>
    </lyric>
    <lyric default-y="-120" number="part1verse2" color="#000000">
     <syllabic>end</syllabic>
     <text>joice</text>
    </lyric>
    <lyric default-y="-150" number="part1verse3" color="#000000">
     <syllabic>end</syllabic>
     <text>store,</text>
    </lyric>
    <lyric default-y="-180" number="part1verse4" color="#000000">
     <syllabic>end</syllabic>
     <text>fice</text>
    </lyric>
   </note>
   <backup>
    <duration>1024</duration>
   </backup>
   <note color="#000000" default-x="15" default-y="-5">
    <pitch>
     <step>E</step>
     <alter>-1</alter>
     <octave>4</octave>
    </pitch>
    <duration>384</duration>
    <instrument id="P1-I1" />
    <voice>2</voice>
    <type>quarter</type>
    <dot />
    <stem>up</stem>
    <staff>1</staff>
   </note>
   <note color="#000000" default-x="86" default-y="-5">
    <pitch>
     <step>E</step>
     <alter>-1</alter>
     <octave>4</octave>
    </pitch>
    <duration>128</duration>
    <instrument id="P1-I1" />
    <voice>2</voice>
    <type>eighth</type>
    <stem>up</stem>
    <staff>1</staff>
   </note>
   <note color="#000000" default-x="156" default-y="-5">
    <pitch>
     <step>E</step>
     <alter>-1</alter>
     <octave>4</octave>
    </pitch>
    <duration>512</duration>
    <instrument id="P1-I1" />
    <voice>2</voice>
    <type>half</type>
    <stem>up</stem>
    <staff>1</staff>
   </note>
  </measure>
  <!--============== Part: P1, Measure: 10 ==============-->
  <measure number="10" width="253">
   <note color="#000000" default-x="15" default-y="-5">
    <pitch>
     <step>E</step>
     <alter>-1</alter>
     <octave>4</octave>
    </pitch>
    <duration>256</duration>
    <instrument id="P1-I1" />
    <voice>1</voice>
    <type>quarter</type>
    <stem>up</stem>
    <staff>1</staff>
    <lyric default-y="-90" number="part1verse1" color="#000000">
     <syllabic>single</syllabic>
     <text>cleanse,</text>
    </lyric>
    <lyric default-y="-120" number="part1verse2" color="#000000">
     <syllabic>single</syllabic>
     <text>and</text>
    </lyric>
    <lyric default-y="-150" number="part1verse3" color="#000000">
     <syllabic>single</syllabic>
     <text>make</text>
    </lyric>
    <lyric default-y="-180" number="part1verse4" color="#000000">
     <syllabic>single</syllabic>
     <text>then</text>
    </lyric>
   </note>
   <note color="#000000" default-x="74">
    <pitch>
     <step>F</step>
     <octave>4</octave>
    </pitch>
    <duration>256</duration>
    <instrument id="P1-I1" />
    <voice>1</voice>
    <type>quarter</type>
    <stem>up</stem>
    <staff>1</staff>
    <lyric default-y="-90" number="part1verse1" color="#000000">
     <syllabic>single</syllabic>
     <text>O</text>
    </lyric>
    <lyric default-y="-120" number="part1verse2" color="#000000">
     <syllabic>single</syllabic>
     <text>in</text>
    </lyric>
    <lyric default-y="-150" number="part1verse3" color="#000000">
     <syllabic>single</syllabic>
     <text>me</text>
    </lyric>
    <lyric default-y="-180" number="part1verse4" color="#000000">
     <syllabic>begin</syllabic>
     <text>de</text>
    </lyric>
   </note>
   <note color="#000000" default-x="134" default-y="5">
    <pitch>
     <step>G</step>
     <octave>4</octave>
    </pitch>
    <duration>256</duration>
    <instrument id="P1-I1" />
    <voice>1</voice>
    <type>quarter</type>
    <stem>up</stem>
    <staff>1</staff>
    <lyric default-y="-90" number="part1verse1" color="#000000">
     <syllabic>single</syllabic>
     <text>cleanse</text>
    </lyric>
    <lyric default-y="-120" number="part1verse2" color="#000000">
     <syllabic>begin</syllabic>
     <text>glad</text>
    </lyric>
    <lyric default-y="-150" number="part1verse3" color="#000000">
     <syllabic>begin</syllabic>
     <text>stead</text>
    </lyric>
    <lyric default-y="-180" number="part1verse4" color="#000000">
     <syllabic>end</syllabic>
     <text>light</text>
    </lyric>
   </note>
   <note color="#000000" default-x="193">
    <pitch>
     <step>F</step>
     <octave>4</octave>
    </pitch>
    <duration>256</duration>
    <instrument id="P1-I1" />
    <voice>1</voice>
    <type>quarter</type>
    <stem>up</stem>
    <staff>1</staff>
    <lyric default-y="-90" number="part1verse1" color="#000000">
     <syllabic>single</syllabic>
     <text>me</text>
    </lyric>
    <lyric default-y="-120" number="part1verse2" color="#000000">
     <syllabic>end</syllabic>
     <text>ness</text>
    </lyric>
    <lyric default-y="-150" number="part1verse3" color="#000000">
     <syllabic>end</syllabic>
     <text>fast</text>
    </lyric>
    <lyric default-y="-180" number="part1verse4" color="#000000">
     <syllabic>single</syllabic>
     <text>your</text>
    </lyric>
   </note>
   <backup>
    <duration>1024</duration>
   </backup>
   <note color="#000000" default-x="15" default-y="-67">
    <pitch>
     <step>E</step>
     <alter>-1</alter>
     <octave>4</octave>
    </pitch>
    <duration>256</duration>
    <instrument id="P1-I1" />
    <voice>2</voice>
    <type>quarter</type>
    <stem>down</stem>
    <staff>1</staff>
   </note>
   <note color="#000000" default-x="74" default-y="-10">
    <pitch>
     <step>D</step>
     <octave>4</octave>
    </pitch>
    <duration>256</duration>
    <instrument id="P1-I1" />
    <voice>2</voice>
    <type>quarter</type>
    <stem>up</stem>
    <staff>1</staff>
   </note>
   <note color="#000000" default-x="134" default-y="-5">
    <pitch>
     <step>E</step>
     <alter>-1</alter>
     <octave>4</octave>
    </pitch>
    <duration>256</duration>
    <instrument id="P1-I1" />
    <voice>2</voice>
    <type>quarter</type>
    <stem>up</stem>
    <staff>1</staff>
   </note>
   <note color="#000000" default-x="193" default-y="-15">
    <pitch>
     <step>C</step>
     <octave>4</octave>
    </pitch>
    <duration>256</duration>
    <instrument id="P1-I1" />
    <voice>2</voice>
    <type>quarter</type>
    <stem>up</stem>
    <staff>1</staff>
   </note>
  </measure>
  <!--============== Part: P1, Measure: 11 ==============-->
  <measure number="11" width="232">
   <note color="#000000" default-x="15" default-y="-5">
    <pitch>
     <step>E</step>
     <alter>-1</alter>
     <octave>4</octave>
    </pitch>
    <duration>256</duration>
    <instrument id="P1-I1" />
    <voice>1</voice>
    <type>quarter</type>
    <stem>up</stem>
    <staff>1</staff>
    <lyric default-y="-90" number="part1verse1" color="#000000">
     <syllabic>single</syllabic>
     <text>from</text>
    </lyric>
    <lyric default-y="-120" number="part1verse2" color="#000000">
     <syllabic>single</syllabic>
     <text>hear</text>
    </lyric>
    <lyric default-y="-150" number="part1verse3" color="#000000">
     <syllabic>begin</syllabic>
     <text>ev</text>
    </lyric>
    <lyric default-y="-180" number="part1verse4" color="#000000">
     <syllabic>begin</syllabic>
     <text>ho</text>
    </lyric>
   </note>
   <note color="#000000" default-x="74" default-y="-10">
    <pitch>
     <step>D</step>
     <octave>4</octave>
    </pitch>
    <duration>256</duration>
    <instrument id="P1-I1" />
    <voice>1</voice>
    <type>quarter</type>
    <stem>up</stem>
    <staff>1</staff>
    <lyric default-y="-90" number="part1verse1" color="#000000">
     <syllabic>single</syllabic>
     <text>my</text>
    </lyric>
    <lyric default-y="-120" number="part1verse2" color="#000000">
     <syllabic>single</syllabic>
     <text>your</text>
    </lyric>
    <lyric default-y="-150" number="part1verse3" color="#000000">
     <syllabic>middle</syllabic>
     <text>er</text>
    </lyric>
    <lyric default-y="-180" number="part1verse4" color="#000000">
     <syllabic>end</syllabic>
     <text>ly</text>
    </lyric>
   </note>
   <direction>
    <direction-type>
     <other-direction default-x="38" default-y="20" print-object="no">End bracket</other-direction>
    </direction-type>
    <offset sound="no">196</offset>
    <voice>1</voice>
    <staff>1</staff>
   </direction>
   <note color="#000000" default-x="145" default-y="-5">
    <pitch>
     <step>E</step>
     <alter>-1</alter>
     <octave>4</octave>
    </pitch>
    <duration>512</duration>
    <instrument id="P1-I1" />
    <voice>1</voice>
    <type>half</type>
    <stem>up</stem>
    <staff>1</staff>
    <lyric default-y="-90" number="part1verse1" color="#000000">
     <syllabic>single</syllabic>
     <text>sin.</text>
    </lyric>
    <lyric default-y="-120" number="part1verse2" color="#000000">
     <syllabic>single</syllabic>
     <text>voice.</text>
    </lyric>
    <lyric default-y="-150" number="part1verse3" color="#000000">
     <syllabic>end</syllabic>
     <text>more.</text>
    </lyric>
    <lyric default-y="-180" number="part1verse4" color="#000000">
     <syllabic>single</syllabic>
     <text>eyes.</text>
    </lyric>
   </note>
   <barline location="right">
    <bar-style>light-heavy</bar-style>
    <ending number="1" type="stop" print-object="no" />
   </barline>
   <backup>
    <duration>1024</duration>
   </backup>
   <note color="#000000" default-x="15" default-y="-20">
    <pitch>
     <step>B</step>
     <alter>-1</alter>
     <octave>3</octave>
    </pitch>
    <duration>256</duration>
    <instrument id="P1-I1" />
    <voice>2</voice>
    <type>quarter</type>
    <stem>up</stem>
    <staff>1</staff>
   </note>
   <note color="#000000" default-x="74" default-y="-20">
    <pitch>
     <step>B</step>
     <alter>-1</alter>
     <octave>3</octave>
    </pitch>
    <duration>256</duration>
    <instrument id="P1-I1" />
    <voice>2</voice>
    <type>quarter</type>
    <stem>up</stem>
    <staff>1</staff>
   </note>
   <note color="#000000" default-x="145" default-y="-20">
    <pitch>
     <step>B</step>
     <alter>-1</alter>
     <octave>3</octave>
    </pitch>
    <duration>512</duration>
    <instrument id="P1-I1" />
    <voice>2</voice>
    <type>half</type>
    <stem>up</stem>
    <staff>1</staff>
   </note>
  </measure>
 </part>
 <part id="P2">
  <!--============== Part: P2, Measure: 0 ==============-->
  <measure number="0" width="349">
   <print new-page="yes">
    <system-layout>
     <system-margins>
      <left-margin>1</left-margin>
      <right-margin>0</right-margin>
     </system-margins>
    </system-layout>
    <staff-layout number="1">
     <staff-distance>177</staff-distance>
    </staff-layout>
   </print>
   <attributes>
    <divisions>256</divisions>
    <key color="#000000">
     <fifths>-3</fifths>
     <mode>major</mode>
    </key>
    <time color="#000000">
     <beats>4</beats>
     <beat-type>4</beat-type>
    </time>
    <staves>1</staves>
    <clef number="1" color="#000000">
     <sign>F</sign>
     <line>4</line>
    </clef>
    <staff-details number="1" print-object="yes" />
   </attributes>
   <note color="#000000" default-x="110" default-y="-40">
    <pitch>
     <step>G</step>
     <octave>3</octave>
    </pitch>
    <duration>256</duration>
    <instrument id="P2-I1" />
    <voice>3</voice>
    <type>quarter</type>
    <stem>down</stem>
    <staff>1</staff>
   </note>
   <note color="#000000" default-x="172" default-y="-40">
    <pitch>
     <step>G</step>
     <octave>3</octave>
    </pitch>
    <duration>256</duration>
    <instrument id="P2-I1" />
    <voice>3</voice>
    <type>quarter</type>
    <stem>down</stem>
    <staff>1</staff>
   </note>
   <note color="#000000" default-x="235" default-y="-30">
    <pitch>
     <step>B</step>
     <alter>-1</alter>
     <octave>3</octave>
    </pitch>
    <duration>256</duration>
    <instrument id="P2-I1" />
    <voice>3</voice>
    <type>quarter</type>
    <stem>down</stem>
    <staff>1</staff>
   </note>
   <note color="#000000" default-x="297" default-y="-30">
    <pitch>
     <step>B</step>
     <alter>-1</alter>
     <octave>3</octave>
    </pitch>
    <duration>256</duration>
    <instrument id="P2-I1" />
    <voice>3</voice>
    <type>quarter</type>
    <stem>down</stem>
    <staff>1</staff>
   </note>
   <backup>
    <duration>1024</duration>
   </backup>
   <note color="#000000" default-x="110" default-y="-50">
    <pitch>
     <step>E</step>
     <alter>-1</alter>
     <octave>3</octave>
    </pitch>
    <duration>256</duration>
    <instrument id="P2-I1" />
    <voice>4</voice>
    <type>quarter</type>
    <stem>down</stem>
    <staff>1</staff>
   </note>
   <note color="#000000" default-x="172" default-y="-50">
    <pitch>
     <step>E</step>
     <alter>-1</alter>
     <octave>3</octave>
    </pitch>
    <duration>256</duration>
    <instrument id="P2-I1" />
    <voice>4</voice>
    <type>quarter</type>
    <stem>down</stem>
    <staff>1</staff>
   </note>
   <note color="#000000" default-x="235" default-y="-60">
    <pitch>
     <step>B</step>
     <alter>-1</alter>
     <octave>2</octave>
    </pitch>
    <duration>256</duration>
    <instrument id="P2-I1" />
    <voice>4</voice>
    <type>quarter</type>
    <stem>down</stem>
    <staff>1</staff>
   </note>
   <note color="#000000" default-x="297" default-y="-50">
    <pitch>
     <step>E</step>
     <alter>-1</alter>
     <octave>3</octave>
    </pitch>
    <duration>256</duration>
    <instrument id="P2-I1" />
    <voice>4</voice>
    <type>quarter</type>
    <stem>down</stem>
    <staff>1</staff>
   </note>
  </measure>
  <!--============== Part: P2, Measure: 1 ==============-->
  <measure number="1" width="225">
   <note color="#000000" default-x="27" default-y="-46">
    <pitch>
     <step>C</step>
     <octave>4</octave>
    </pitch>
    <duration>384</duration>
    <instrument id="P2-I1" />
    <voice>3</voice>
    <type>quarter</type>
    <dot />
    <stem>down</stem>
    <staff>1</staff>
   </note>
   <note color="#000000" default-x="107" default-y="-54">
    <pitch>
     <step>C</step>
     <octave>4</octave>
    </pitch>
    <duration>128</duration>
    <instrument id="P2-I1" />
    <voice>3</voice>
    <type>eighth</type>
    <stem>down</stem>
    <staff>1</staff>
   </note>
   <note color="#000000" default-x="170" default-y="-30">
    <pitch>
     <step>B</step>
     <alter>-1</alter>
     <octave>3</octave>
    </pitch>
    <duration>512</duration>
    <instrument id="P2-I1" />
    <voice>3</voice>
    <type>half</type>
    <stem>down</stem>
    <staff>1</staff>
   </note>
   <backup>
    <duration>1024</duration>
   </backup>
   <note color="#000000" default-x="27" default-y="-62">
    <pitch>
     <step>A</step>
     <alter>-1</alter>
     <octave>2</octave>
    </pitch>
    <duration>384</duration>
    <instrument id="P2-I1" />
    <voice>4</voice>
    <type>quarter</type>
    <dot />
    <stem>down</stem>
    <staff>1</staff>
   </note>
   <note color="#000000" default-x="107" default-y="-62">
    <pitch>
     <step>A</step>
     <alter>-1</alter>
     <octave>2</octave>
    </pitch>
    <duration>128</duration>
    <instrument id="P2-I1" />
    <voice>4</voice>
    <type>eighth</type>
    <stem>down</stem>
    <staff>1</staff>
   </note>
   <note color="#000000" default-x="170" default-y="-50">
    <pitch>
     <step>E</step>
     <alter>-1</alter>
     <octave>3</octave>
    </pitch>
    <duration>512</duration>
    <instrument id="P2-I1" />
    <voice>4</voice>
    <type>half</type>
    <stem>down</stem>
    <staff>1</staff>
   </note>
  </measure>
  <!--============== Part: P2, Measure: 2 ==============-->
  <measure number="2" width="264">
   <note color="#000000" default-x="15" default-y="-40">
    <pitch>
     <step>G</step>
     <octave>3</octave>
    </pitch>
    <duration>256</duration>
    <instrument id="P2-I1" />
    <voice>3</voice>
    <type>quarter</type>
    <stem>down</stem>
    <staff>1</staff>
   </note>
   <note color="#000000" default-x="77" default-y="-40">
    <pitch>
     <step>G</step>
     <octave>3</octave>
    </pitch>
    <duration>256</duration>
    <instrument id="P2-I1" />
    <voice>3</voice>
    <type>quarter</type>
    <stem>down</stem>
    <staff>1</staff>
   </note>
   <note color="#000000" default-x="139" default-y="-30">
    <pitch>
     <step>B</step>
     <alter>-1</alter>
     <octave>3</octave>
    </pitch>
    <duration>256</duration>
    <instrument id="P2-I1" />
    <voice>3</voice>
    <type>quarter</type>
    <stem>down</stem>
    <staff>1</staff>
   </note>
   <note color="#000000" default-x="201" default-y="-30">
    <pitch>
     <step>B</step>
     <alter>-1</alter>
     <octave>3</octave>
    </pitch>
    <duration>256</duration>
    <instrument id="P2-I1" />
    <voice>3</voice>
    <type>quarter</type>
    <stem>down</stem>
    <staff>1</staff>
   </note>
   <backup>
    <duration>1024</duration>
   </backup>
   <note color="#000000" default-x="15" default-y="-50">
    <pitch>
     <step>E</step>
     <alter>-1</alter>
     <octave>3</octave>
    </pitch>
    <duration>256</duration>
    <instrument id="P2-I1" />
    <voice>4</voice>
    <type>quarter</type>
    <stem>down</stem>
    <staff>1</staff>
   </note>
   <note color="#000000" default-x="77" default-y="-57">
    <pitch>
     <step>C</step>
     <octave>3</octave>
    </pitch>
    <duration>256</duration>
    <instrument id="P2-I1" />
    <voice>4</voice>
    <type>quarter</type>
    <stem>down</stem>
    <staff>1</staff>
   </note>
   <note color="#000000" default-x="139" default-y="-60">
    <pitch>
     <step>B</step>
     <alter>-1</alter>
     <octave>2</octave>
    </pitch>
    <duration>256</duration>
    <instrument id="P2-I1" />
    <voice>4</voice>
    <type>quarter</type>
    <stem>down</stem>
    <staff>1</staff>
   </note>
   <note color="#000000" default-x="201" default-y="-50">
    <pitch>
     <step>E</step>
     <alter>-1</alter>
     <octave>3</octave>
    </pitch>
    <duration>256</duration>
    <instrument id="P2-I1" />
    <voice>4</voice>
    <type>quarter</type>
    <stem>down</stem>
    <staff>1</staff>
   </note>
  </measure>
  <!--============== Part: P2, Measure: 3 ==============-->
  <measure number="3" width="211">
   <note color="#000000" default-x="15" default-y="-50">
    <pitch>
     <step>C</step>
     <octave>4</octave>
    </pitch>
    <duration>256</duration>
    <instrument id="P2-I1" />
    <voice>3</voice>
    <type>quarter</type>
    <stem>down</stem>
    <staff>1</staff>
   </note>
   <note color="#000000" default-x="77" default-y="-30">
    <pitch>
     <step>B</step>
     <alter>-1</alter>
     <octave>3</octave>
    </pitch>
    <duration>256</duration>
    <instrument id="P2-I1" />
    <voice>3</voice>
    <type>quarter</type>
    <stem>down</stem>
    <staff>1</staff>
   </note>
   <note color="#000000" default-x="139" default-y="-40">
    <pitch>
     <step>G</step>
     <octave>3</octave>
    </pitch>
    <duration>512</duration>
    <instrument id="P2-I1" />
    <voice>3</voice>
    <type>half</type>
    <stem>down</stem>
    <staff>1</staff>
   </note>
   <backup>
    <duration>1024</duration>
   </backup>
   <note color="#000000" default-x="15" default-y="-62">
    <pitch>
     <step>A</step>
     <alter>-1</alter>
     <octave>2</octave>
    </pitch>
    <duration>256</duration>
    <instrument id="P2-I1" />
    <voice>4</voice>
    <type>quarter</type>
    <stem>down</stem>
    <staff>1</staff>
   </note>
   <note color="#000000" default-x="77" default-y="-60">
    <pitch>
     <step>B</step>
     <alter>-1</alter>
     <octave>2</octave>
    </pitch>
    <duration>256</duration>
    <instrument id="P2-I1" />
    <voice>4</voice>
    <type>quarter</type>
    <stem>down</stem>
    <staff>1</staff>
   </note>
   <note color="#000000" default-x="139" default-y="-50">
    <pitch>
     <step>E</step>
     <alter>-1</alter>
     <octave>3</octave>
    </pitch>
    <duration>512</duration>
    <instrument id="P2-I1" />
    <voice>4</voice>
    <type>half</type>
    <stem>down</stem>
    <staff>1</staff>
   </note>
  </measure>
  <!--============== Part: P2, Measure: 4 ==============-->
  <measure number="4" width="341">
   <print new-system="yes">
    <system-layout>
     <system-margins>
      <left-margin>1</left-margin>
      <right-margin>0</right-margin>
     </system-margins>
    </system-layout>
    <staff-layout number="1">
     <staff-distance>177</staff-distance>
    </staff-layout>
   </print>
   <attributes>
    <staff-details number="1" print-object="yes" />
   </attributes>
   <note color="#000000" default-x="91" default-y="-40">
    <pitch>
     <step>G</step>
     <octave>3</octave>
    </pitch>
    <duration>256</duration>
    <instrument id="P2-I1" />
    <voice>3</voice>
    <type>quarter</type>
    <stem>down</stem>
    <staff>1</staff>
   </note>
   <note color="#000000" default-x="152" default-y="-25">
    <pitch>
     <step>C</step>
     <octave>4</octave>
    </pitch>
    <duration>256</duration>
    <instrument id="P2-I1" />
    <voice>3</voice>
    <type>quarter</type>
    <stem>down</stem>
    <staff>1</staff>
   </note>
   <note color="#000000" default-x="214" default-y="-42">
    <pitch>
     <step>D</step>
     <octave>4</octave>
    </pitch>
    <duration>256</duration>
    <instrument id="P2-I1" />
    <voice>3</voice>
    <type>quarter</type>
    <stem>down</stem>
    <staff>1</staff>
   </note>
   <note color="#000000" default-x="275" default-y="-20">
    <pitch>
     <step>E</step>
     <alter>-1</alter>
     <octave>4</octave>
    </pitch>
    <duration>256</duration>
    <instrument id="P2-I1" />
    <voice>3</voice>
    <type>quarter</type>
    <stem>down</stem>
    <staff>1</staff>
   </note>
   <backup>
    <duration>1024</duration>
   </backup>
   <note color="#000000" default-x="91" default-y="-50">
    <pitch>
     <step>E</step>
     <alter>-1</alter>
     <octave>3</octave>
    </pitch>
    <duration>256</duration>
    <instrument id="P2-I1" />
    <voice>4</voice>
    <type>quarter</type>
    <stem>down</stem>
    <staff>1</staff>
   </note>
   <note color="#000000" default-x="152" default-y="-57">
    <pitch>
     <step>C</step>
     <octave>3</octave>
    </pitch>
    <duration>256</duration>
    <instrument id="P2-I1" />
    <voice>4</voice>
    <type>quarter</type>
    <stem>down</stem>
    <staff>1</staff>
   </note>
   <note color="#000000" default-x="214" default-y="-60">
    <pitch>
     <step>B</step>
     <alter>-1</alter>
     <octave>2</octave>
    </pitch>
    <duration>256</duration>
    <instrument id="P2-I1" />
    <voice>4</voice>
    <type>quarter</type>
    <stem>down</stem>
    <staff>1</staff>
   </note>
   <note color="#000000" default-x="275" default-y="-50">
    <pitch>
     <step>E</step>
     <alter>-1</alter>
     <octave>3</octave>
    </pitch>
    <duration>256</duration>
    <instrument id="P2-I1" />
    <voice>4</voice>
    <type>quarter</type>
    <stem>down</stem>
    <staff>1</staff>
   </note>
  </measure>
  <!--============== Part: P2, Measure: 5 ==============-->
  <measure number="5" width="209">
   <note color="#000000" default-x="15" default-y="-25">
    <pitch>
     <step>C</step>
     <octave>4</octave>
    </pitch>
    <duration>256</duration>
    <instrument id="P2-I1" />
    <voice>3</voice>
    <type>quarter</type>
    <stem>down</stem>
    <staff>1</staff>
   </note>
   <note color="#000000" default-x="76" default-y="-20">
    <pitch>
     <step>D</step>
     <octave>4</octave>
    </pitch>
    <duration>256</duration>
    <instrument id="P2-I1" />
    <voice>3</voice>
    <type>quarter</type>
    <stem>down</stem>
    <staff>1</staff>
   </note>
   <note color="#000000" default-x="138" default-y="-20">
    <pitch>
     <step>E</step>
     <alter>-1</alter>
     <octave>4</octave>
    </pitch>
    <duration>512</duration>
    <instrument id="P2-I1" />
    <voice>3</voice>
    <type>half</type>
    <stem>down</stem>
    <staff>1</staff>
   </note>
   <backup>
    <duration>1024</duration>
   </backup>
   <note color="#000000" default-x="15" default-y="-35">
    <pitch>
     <step>A</step>
     <alter>-1</alter>
     <octave>3</octave>
    </pitch>
    <duration>256</duration>
    <instrument id="P2-I1" />
    <voice>4</voice>
    <type>quarter</type>
    <stem>down</stem>
    <staff>1</staff>
   </note>
   <note color="#000000" default-x="76" default-y="-35">
    <pitch>
     <step>A</step>
     <alter>-1</alter>
     <octave>3</octave>
    </pitch>
    <duration>256</duration>
    <instrument id="P2-I1" />
    <voice>4</voice>
    <type>quarter</type>
    <stem>down</stem>
    <staff>1</staff>
   </note>
   <note color="#000000" default-x="138" default-y="-50">
    <pitch>
     <step>E</step>
     <alter>-1</alter>
     <octave>3</octave>
    </pitch>
    <duration>512</duration>
    <instrument id="P2-I1" />
    <voice>4</voice>
    <type>half</type>
    <stem>down</stem>
    <staff>1</staff>
   </note>
  </measure>
  <!--============== Part: P2, Measure: 6 ==============-->
  <measure number="6" width="265">
   <note color="#000000" default-x="15" default-y="-30">
    <pitch>
     <step>B</step>
     <alter>-1</alter>
     <octave>3</octave>
    </pitch>
    <duration>256</duration>
    <instrument id="P2-I1" />
    <voice>3</voice>
    <type>quarter</type>
    <stem>down</stem>
    <staff>1</staff>
   </note>
   <note color="#000000" default-x="80" default-y="-30">
    <pitch>
     <step>B</step>
     <alter>-1</alter>
     <octave>3</octave>
    </pitch>
    <duration>256</duration>
    <instrument id="P2-I1" />
    <voice>3</voice>
    <type>quarter</type>
    <stem>down</stem>
    <staff>1</staff>
   </note>
   <note color="#000000" default-x="141" default-y="-30">
    <pitch>
     <step>B</step>
     <alter>-1</alter>
     <octave>3</octave>
    </pitch>
    <duration>256</duration>
    <instrument id="P2-I1" />
    <voice>3</voice>
    <type>quarter</type>
    <stem>down</stem>
    <staff>1</staff>
   </note>
   <note color="#000000" default-x="203" default-y="-30">
    <pitch>
     <step>B</step>
     <alter>-1</alter>
     <octave>3</octave>
    </pitch>
    <duration>256</duration>
    <instrument id="P2-I1" />
    <voice>3</voice>
    <type>quarter</type>
    <stem>down</stem>
    <staff>1</staff>
   </note>
   <backup>
    <duration>1024</duration>
   </backup>
   <note color="#000000" default-x="15" default-y="-40">
    <pitch>
     <step>G</step>
     <octave>3</octave>
    </pitch>
    <duration>256</duration>
    <instrument id="P2-I1" />
    <voice>4</voice>
    <type>quarter</type>
    <stem>down</stem>
    <staff>1</staff>
   </note>
   <note color="#000000" default-x="80" default-y="-50">
    <pitch>
     <step>E</step>
     <alter>-1</alter>
     <octave>3</octave>
    </pitch>
    <duration>256</duration>
    <instrument id="P2-I1" />
    <voice>4</voice>
    <type>quarter</type>
    <stem>down</stem>
    <staff>1</staff>
   </note>
   <note color="#000000" default-x="141" default-y="-55">
    <pitch>
     <step>D</step>
     <octave>3</octave>
    </pitch>
    <duration>256</duration>
    <instrument id="P2-I1" />
    <voice>4</voice>
    <type>quarter</type>
    <stem>down</stem>
    <staff>1</staff>
   </note>
   <note color="#000000" default-x="203" default-y="-40">
    <pitch>
     <step>G</step>
     <octave>3</octave>
    </pitch>
    <duration>256</duration>
    <instrument id="P2-I1" />
    <voice>4</voice>
    <type>quarter</type>
    <stem>down</stem>
    <staff>1</staff>
   </note>
  </measure>
  <!--============== Part: P2, Measure: 7 ==============-->
  <measure number="7" width="233">
   <note color="#000000" default-x="15" default-y="-30">
    <pitch>
     <step>B</step>
     <alter>-1</alter>
     <octave>3</octave>
    </pitch>
    <duration>256</duration>
    <instrument id="P2-I1" />
    <voice>3</voice>
    <type>quarter</type>
    <stem>down</stem>
    <staff>1</staff>
   </note>
   <note color="#000000" default-x="76" default-y="-35">
    <pitch>
     <step>A</step>
     <octave>3</octave>
    </pitch>
    <duration>256</duration>
    <instrument id="P2-I1" />
    <voice>3</voice>
    <type>quarter</type>
    <accidental>natural</accidental>
    <stem>down</stem>
    <staff>1</staff>
   </note>
   <note color="#000000" default-x="165" default-y="-30">
    <pitch>
     <step>B</step>
     <alter>-1</alter>
     <octave>3</octave>
    </pitch>
    <duration>512</duration>
    <instrument id="P2-I1" />
    <voice>3</voice>
    <type>half</type>
    <stem>down</stem>
    <staff>1</staff>
   </note>
   <backup>
    <duration>1024</duration>
   </backup>
   <note color="#000000" default-x="15" default-y="-50">
    <pitch>
     <step>E</step>
     <alter>-1</alter>
     <octave>3</octave>
    </pitch>
    <duration>256</duration>
    <instrument id="P2-I1" />
    <voice>4</voice>
    <type>quarter</type>
    <stem>down</stem>
    <staff>1</staff>
   </note>
   <note color="#000000" default-x="76" default-y="-45">
    <pitch>
     <step>F</step>
     <octave>3</octave>
    </pitch>
    <duration>256</duration>
    <instrument id="P2-I1" />
    <voice>4</voice>
    <type>quarter</type>
    <stem>down</stem>
    <staff>1</staff>
   </note>
   <note color="#000000" default-x="165" default-y="-60">
    <pitch>
     <step>B</step>
     <alter>-1</alter>
     <octave>2</octave>
    </pitch>
    <duration>512</duration>
    <instrument id="P2-I1" />
    <voice>4</voice>
    <type>half</type>
    <stem>down</stem>
    <staff>1</staff>
   </note>
  </measure>
  <!--============== Part: P2, Measure: 8 ==============-->
  <measure number="8" width="329">
   <print new-system="yes">
    <system-layout>
     <system-margins>
      <left-margin>1</left-margin>
      <right-margin>0</right-margin>
     </system-margins>
    </system-layout>
    <staff-layout number="1">
     <staff-distance>177</staff-distance>
    </staff-layout>
   </print>
   <attributes>
    <staff-details number="1" print-object="yes" />
   </attributes>
   <barline location="left">
    <ending number="1" type="start" print-object="no" />
   </barline>
   <note color="#000000" default-x="91" default-y="-30">
    <pitch>
     <step>B</step>
     <alter>-1</alter>
     <octave>3</octave>
    </pitch>
    <duration>256</duration>
    <instrument id="P2-I1" />
    <voice>3</voice>
    <type>quarter</type>
    <stem>down</stem>
    <staff>1</staff>
   </note>
   <note color="#000000" default-x="150" default-y="-30">
    <pitch>
     <step>B</step>
     <alter>-1</alter>
     <octave>3</octave>
    </pitch>
    <duration>256</duration>
    <instrument id="P2-I1" />
    <voice>3</voice>
    <type>quarter</type>
    <stem>down</stem>
    <staff>1</staff>
   </note>
   <note color="#000000" default-x="210" default-y="-35">
    <pitch>
     <step>A</step>
     <alter>-1</alter>
     <octave>3</octave>
    </pitch>
    <duration>256</duration>
    <instrument id="P2-I1" />
    <voice>3</voice>
    <type>quarter</type>
    <stem>down</stem>
    <staff>1</staff>
   </note>
   <note color="#000000" default-x="270" default-y="-30">
    <pitch>
     <step>B</step>
     <alter>-1</alter>
     <octave>3</octave>
    </pitch>
    <duration>256</duration>
    <instrument id="P2-I1" />
    <voice>3</voice>
    <type>quarter</type>
    <stem>down</stem>
    <staff>1</staff>
   </note>
   <backup>
    <duration>1024</duration>
   </backup>
   <note color="#000000" default-x="91" default-y="-40">
    <pitch>
     <step>G</step>
     <octave>3</octave>
    </pitch>
    <duration>256</duration>
    <instrument id="P2-I1" />
    <voice>4</voice>
    <type>quarter</type>
    <stem>down</stem>
    <staff>1</staff>
   </note>
   <note color="#000000" default-x="150" default-y="-40">
    <pitch>
     <step>G</step>
     <octave>3</octave>
    </pitch>
    <duration>256</duration>
    <instrument id="P2-I1" />
    <voice>4</voice>
    <type>quarter</type>
    <stem>down</stem>
    <staff>1</staff>
   </note>
   <note color="#000000" default-x="210" default-y="-45">
    <pitch>
     <step>F</step>
     <octave>3</octave>
    </pitch>
    <duration>256</duration>
    <instrument id="P2-I1" />
    <voice>4</voice>
    <type>quarter</type>
    <stem>down</stem>
    <staff>1</staff>
   </note>
   <note color="#000000" default-x="270" default-y="-50">
    <pitch>
     <step>E</step>
     <alter>-1</alter>
     <octave>3</octave>
    </pitch>
    <duration>256</duration>
    <instrument id="P2-I1" />
    <voice>4</voice>
    <type>quarter</type>
    <stem>down</stem>
    <staff>1</staff>
   </note>
  </measure>
  <!--============== Part: P2, Measure: 9 ==============-->
  <measure number="9" width="234">
   <note color="#000000" default-x="15" default-y="-52">
    <pitch>
     <step>C</step>
     <octave>4</octave>
    </pitch>
    <duration>384</duration>
    <instrument id="P2-I1" />
    <voice>3</voice>
    <type>quarter</type>
    <dot />
    <stem>down</stem>
    <staff>1</staff>
   </note>
   <note color="#000000" default-x="86" default-y="-53">
    <pitch>
     <step>C</step>
     <octave>4</octave>
    </pitch>
    <duration>128</duration>
    <instrument id="P2-I1" />
    <voice>3</voice>
    <type>eighth</type>
    <stem>down</stem>
    <staff>1</staff>
   </note>
   <note color="#000000" default-x="156" default-y="-30">
    <pitch>
     <step>B</step>
     <alter>-1</alter>
     <octave>3</octave>
    </pitch>
    <duration>512</duration>
    <instrument id="P2-I1" />
    <voice>3</voice>
    <type>half</type>
    <stem>down</stem>
    <staff>1</staff>
   </note>
   <backup>
    <duration>1024</duration>
   </backup>
   <note color="#000000" default-x="15" default-y="-62">
    <pitch>
     <step>A</step>
     <alter>-1</alter>
     <octave>2</octave>
    </pitch>
    <duration>384</duration>
    <instrument id="P2-I1" />
    <voice>4</voice>
    <type>quarter</type>
    <dot />
    <stem>down</stem>
    <staff>1</staff>
   </note>
   <note color="#000000" default-x="86" default-y="-62">
    <pitch>
     <step>A</step>
     <alter>-1</alter>
     <octave>2</octave>
    </pitch>
    <duration>128</duration>
    <instrument id="P2-I1" />
    <voice>4</voice>
    <type>eighth</type>
    <stem>down</stem>
    <staff>1</staff>
   </note>
   <note color="#000000" default-x="156" default-y="-50">
    <pitch>
     <step>E</step>
     <alter>-1</alter>
     <octave>3</octave>
    </pitch>
    <duration>512</duration>
    <instrument id="P2-I1" />
    <voice>4</voice>
    <type>half</type>
    <stem>down</stem>
    <staff>1</staff>
   </note>
  </measure>
  <!--============== Part: P2, Measure: 10 ==============-->
  <measure number="10" width="253">
   <note color="#000000" default-x="15" default-y="-30">
    <pitch>
     <step>B</step>
     <alter>-1</alter>
     <octave>3</octave>
    </pitch>
    <duration>256</duration>
    <instrument id="P2-I1" />
    <voice>3</voice>
    <type>quarter</type>
    <stem>down</stem>
    <staff>1</staff>
   </note>
   <note color="#000000" default-x="74" default-y="-35">
    <pitch>
     <step>A</step>
     <alter>-1</alter>
     <octave>3</octave>
    </pitch>
    <duration>256</duration>
    <instrument id="P2-I1" />
    <voice>3</voice>
    <type>quarter</type>
    <stem>down</stem>
    <staff>1</staff>
   </note>
   <note color="#000000" default-x="134" default-y="-30">
    <pitch>
     <step>B</step>
     <alter>-1</alter>
     <octave>3</octave>
    </pitch>
    <duration>256</duration>
    <instrument id="P2-I1" />
    <voice>3</voice>
    <type>quarter</type>
    <stem>down</stem>
    <staff>1</staff>
   </note>
   <note color="#000000" default-x="193" default-y="-35">
    <pitch>
     <step>A</step>
     <alter>-1</alter>
     <octave>3</octave>
    </pitch>
    <duration>256</duration>
    <instrument id="P2-I1" />
    <voice>3</voice>
    <type>quarter</type>
    <stem>down</stem>
    <staff>1</staff>
   </note>
   <backup>
    <duration>1024</duration>
   </backup>
   <note color="#000000" default-x="15" default-y="-40">
    <pitch>
     <step>G</step>
     <octave>3</octave>
    </pitch>
    <duration>256</duration>
    <instrument id="P2-I1" />
    <voice>4</voice>
    <type>quarter</type>
    <stem>down</stem>
    <staff>1</staff>
   </note>
   <note color="#000000" default-x="74" default-y="-45">
    <pitch>
     <step>F</step>
     <octave>3</octave>
    </pitch>
    <duration>256</duration>
    <instrument id="P2-I1" />
    <voice>4</voice>
    <type>quarter</type>
    <stem>down</stem>
    <staff>1</staff>
   </note>
   <note color="#000000" default-x="134" default-y="-50">
    <pitch>
     <step>E</step>
     <alter>-1</alter>
     <octave>3</octave>
    </pitch>
    <duration>256</duration>
    <instrument id="P2-I1" />
    <voice>4</voice>
    <type>quarter</type>
    <stem>down</stem>
    <staff>1</staff>
   </note>
   <note color="#000000" default-x="193" default-y="-62">
    <pitch>
     <step>A</step>
     <alter>-1</alter>
     <octave>2</octave>
    </pitch>
    <duration>256</duration>
    <instrument id="P2-I1" />
    <voice>4</voice>
    <type>quarter</type>
    <stem>down</stem>
    <staff>1</staff>
   </note>
  </measure>
  <!--============== Part: P2, Measure: 11 ==============-->
  <measure number="11" width="232">
   <note color="#000000" default-x="15" default-y="-40">
    <pitch>
     <step>G</step>
     <octave>3</octave>
    </pitch>
    <duration>256</duration>
    <instrument id="P2-I1" />
    <voice>3</voice>
    <type>quarter</type>
    <stem>down</stem>
    <staff>1</staff>
   </note>
   <note color="#000000" default-x="74" default-y="-45">
    <pitch>
     <step>F</step>
     <octave>3</octave>
    </pitch>
    <duration>256</duration>
    <instrument id="P2-I1" />
    <voice>3</voice>
    <type>quarter</type>
    <stem>down</stem>
    <staff>1</staff>
   </note>
   <note color="#000000" default-x="145" default-y="-40">
    <pitch>
     <step>G</step>
     <octave>3</octave>
    </pitch>
    <duration>512</duration>
    <instrument id="P2-I1" />
    <voice>3</voice>
    <type>half</type>
    <stem>down</stem>
    <staff>1</staff>
   </note>
   <barline location="right">
    <bar-style>light-heavy</bar-style>
    <ending number="1" type="stop" print-object="no" />
   </barline>
   <backup>
    <duration>1024</duration>
   </backup>
   <note color="#000000" default-x="15" default-y="-60">
    <pitch>
     <step>B</step>
     <alter>-1</alter>
     <octave>2</octave>
    </pitch>
    <duration>256</duration>
    <instrument id="P2-I1" />
    <voice>4</voice>
    <type>quarter</type>
    <stem>down</stem>
    <staff>1</staff>
   </note>
   <note color="#000000" default-x="74" default-y="-60">
    <pitch>
     <step>B</step>
     <alter>-1</alter>
     <octave>2</octave>
    </pitch>
    <duration>256</duration>
    <instrument id="P2-I1" />
    <voice>4</voice>
    <type>quarter</type>
    <stem>down</stem>
    <staff>1</staff>
   </note>
   <note color="#000000" default-x="145" default-y="-50">
    <pitch>
     <step>E</step>
     <alter>-1</alter>
     <octave>3</octave>
    </pitch>
    <duration>512</duration>
    <instrument id="P2-I1" />
    <voice>4</voice>
    <type>half</type>
    <stem>down</stem>
    <staff>1</staff>
   </note>
  </measure>
 </part>
</score-partwise>
