<?xml version="1.0" encoding='UTF-8' standalone='no' ?>
<!DOCTYPE score-partwise PUBLIC "-//Recordare//DTD MusicXML 3.0 Partwise//EN" "http://www.musicxml.org/dtds/partwise.dtd">
<score-partwise version="3.0">
 <work>
  <work-title>Holy Spirit, Truth Divine</work-title>
 </work>
 <identification>
  <rights>This hymn is in the public domain. You may freely use this score for personal and congregational worship. If you reproduce the score, please credit Hymnary.org as the source. </rights>
  <encoding>
   <encoding-date>2013-05-30</encoding-date>
   <encoder>Brian</encoder>
   <software>Sibelius 7.1.3</software>
   <software>Direct export, not from Dolet</software>
   <encoding-description>Sibelius / MusicXML 3.0</encoding-description>
   <supports element="print" type="yes" value="yes" attribute="new-system" />
   <supports element="print" type="yes" value="yes" attribute="new-page" />
   <supports element="accidental" type="yes" />
   <supports element="beam" type="yes" />
   <supports element="stem" type="yes" />
  </encoding>
 </identification>
 <defaults>
  <scaling>
   <millimeters>215.9</millimeters>
   <tenths>1373</tenths>
  </scaling>
  <page-layout>
   <page-height>1777</page-height>
   <page-width>1373</page-width>
   <page-margins type="both">
    <left-margin>161</left-margin>
    <right-margin>161</right-margin>
    <top-margin>80</top-margin>
    <bottom-margin>80</bottom-margin>
   </page-margins>
  </page-layout>
  <system-layout>
   <system-margins>
    <left-margin>45</left-margin>
    <right-margin>0</right-margin>
   </system-margins>
   <system-distance>92</system-distance>
  </system-layout>
  <appearance>
   <line-width type="stem">0.9375</line-width>
   <line-width type="beam">4.0625</line-width>
   <line-width type="staff">0.9375</line-width>
   <line-width type="light barline">0.9375</line-width>
   <line-width type="heavy barline">3.125</line-width>
   <line-width type="leger">1.5625</line-width>
   <line-width type="ending">1.5625</line-width>
   <line-width type="wedge">1.25</line-width>
   <line-width type="enclosure">0.9375</line-width>
   <line-width type="tuplet bracket">1.25</line-width>
   <line-width type="bracket">5</line-width>
   <line-width type="dashes">1.5625</line-width>
   <line-width type="extend">0.9375</line-width>
   <line-width type="octave shift">1.5625</line-width>
   <line-width type="pedal">1.5625</line-width>
   <line-width type="slur middle">1.5625</line-width>
   <line-width type="slur tip">0.625</line-width>
   <line-width type="tie middle">1.5625</line-width>
   <line-width type="tie tip">0.625</line-width>
   <note-size type="cue">92</note-size>
   <note-size type="grace">60</note-size>
  </appearance>
  <music-font font-family="Opus Std" font-size="17.8186" />
  <lyric-font font-family="Times New Roman" font-size="10.3014" />
  <lyric-language xml:lang="en" />
 </defaults>
 <credit page="1">
  <credit-words default-x="686" default-y="114" font-family="Times New Roman" font-style="normal" font-size="19.7675" font-weight="bold" justify="center" valign="middle">Holy Spirit, Truth Divine</credit-words>
 </credit>
 <credit page="1">
  <credit-words default-x="686" default-y="90" font-family="Times New Roman" font-style="normal" font-size="9.0485" font-weight="normal" justify="center" valign="middle">This hymn is in the public domain. You may freely use this score for personal and congregational worship. If you reproduce the score, please credit Hymnary.org as the source. </credit-words>
 </credit>
 <credit page="1">
  <credit-words default-x="161" default-y="148" font-family="Times New Roman" font-style="normal" font-size="10.023" font-weight="normal" justify="left" valign="middle">Text: Samuel Longfellow, 1864, alt.
Tune: Orlando Gibbons, 1623</credit-words>
 </credit>
 <credit page="1">
  <credit-words default-x="1212" default-y="173" font-family="Times New Roman" font-style="normal" font-size="10.023" font-weight="normal" justify="right" valign="middle">77 77
SONG 13
www.hymnary.org/text/holy_spirit_truth_divine_dawn_upon_this</credit-words>
 </credit>
 <part-list>
  <score-part id="P1">
   <part-name>SOPRANO ALTO</part-name>
   <part-name-display>
    <display-text>SOPRANO</display-text>
    <display-text>ALTO</display-text>
   </part-name-display>
   <part-abbreviation>S. A.</part-abbreviation>
   <part-abbreviation-display>
    <display-text>S.</display-text>
    <display-text>A.</display-text>
   </part-abbreviation-display>
   <score-instrument id="P1-I1">
    <instrument-name>Soprano</instrument-name>
    <virtual-instrument>
     <virtual-library>General MIDI</virtual-library>
     <virtual-name>Soprano Ensemble</virtual-name>
    </virtual-instrument>
   </score-instrument>
  </score-part>
  <score-part id="P2">
   <part-name>TENOR BASS</part-name>
   <part-name-display>
    <display-text>TENOR</display-text>
    <display-text>BASS</display-text>
   </part-name-display>
   <part-abbreviation>T. B.</part-abbreviation>
   <part-abbreviation-display>
    <display-text>T.</display-text>
    <display-text>B.</display-text>
   </part-abbreviation-display>
   <score-instrument id="P2-I1">
    <instrument-name>Bass (2)</instrument-name>
    <virtual-instrument>
     <virtual-library>General MIDI</virtual-library>
     <virtual-name>Bass Ensemble</virtual-name>
    </virtual-instrument>
   </score-instrument>
  </score-part>
 </part-list>
 <part id="P1">
  <!--============== Part: P1, Measure: 0 ==============-->
  <measure number="0" width="378">
   <print new-page="yes">
    <system-layout>
     <system-margins>
      <left-margin>1</left-margin>
      <right-margin>0</right-margin>
     </system-margins>
     <top-system-distance>158</top-system-distance>
    </system-layout>
   </print>
   <attributes>
    <divisions>256</divisions>
    <key color="#000000">
     <fifths>2</fifths>
     <mode>major</mode>
    </key>
    <time color="#000000">
     <beats>4</beats>
     <beat-type>4</beat-type>
    </time>
    <staves>1</staves>
    <clef number="1" color="#000000">
     <sign>G</sign>
     <line>2</line>
    </clef>
    <staff-details number="1" print-object="yes" />
   </attributes>
   <direction>
    <direction-type>
     <words default-x="58" default-y="-90" justify="center" valign="middle" font-family="Times New Roman" font-style="normal" font-size="10.3014" font-weight="normal">1</words>
    </direction-type>
    <voice>1</voice>
    <staff>1</staff>
   </direction>
   <direction>
    <direction-type>
     <words default-x="58" default-y="-120" justify="center" valign="middle" font-family="Times New Roman" font-style="normal" font-size="10.3014" font-weight="normal">2</words>
    </direction-type>
    <voice>1</voice>
    <staff>1</staff>
   </direction>
   <direction>
    <direction-type>
     <words default-x="58" default-y="-150" justify="center" valign="middle" font-family="Times New Roman" font-style="normal" font-size="10.3014" font-weight="normal">3</words>
    </direction-type>
    <voice>1</voice>
    <staff>1</staff>
   </direction>
   <direction>
    <direction-type>
     <words default-x="58" default-y="-180" justify="center" valign="middle" font-family="Times New Roman" font-style="normal" font-size="10.3014" font-weight="normal">4</words>
    </direction-type>
    <voice>1</voice>
    <staff>1</staff>
   </direction>
   <note color="#000000" default-x="101">
    <pitch>
     <step>F</step>
     <alter>1</alter>
     <octave>4</octave>
    </pitch>
    <duration>256</duration>
    <instrument id="P1-I1" />
    <voice>1</voice>
    <type>quarter</type>
    <stem>up</stem>
    <staff>1</staff>
    <lyric default-y="-90" number="part1verse1" color="#000000">
     <syllabic>begin</syllabic>
     <text>Ho</text>
    </lyric>
    <lyric default-y="-120" number="part1verse2" color="#000000">
     <syllabic>begin</syllabic>
     <text>Ho</text>
    </lyric>
    <lyric default-y="-150" number="part1verse3" color="#000000">
     <syllabic>begin</syllabic>
     <text>Ho</text>
    </lyric>
    <lyric default-y="-180" number="part1verse4" color="#000000">
     <syllabic>begin</syllabic>
     <text>Ho</text>
    </lyric>
   </note>
   <note color="#000000" default-x="164" default-y="5">
    <pitch>
     <step>G</step>
     <octave>4</octave>
    </pitch>
    <duration>256</duration>
    <instrument id="P1-I1" />
    <voice>1</voice>
    <type>quarter</type>
    <stem>up</stem>
    <staff>1</staff>
    <lyric default-y="-90" number="part1verse1" color="#000000">
     <syllabic>end</syllabic>
     <text>ly</text>
    </lyric>
    <lyric default-y="-120" number="part1verse2" color="#000000">
     <syllabic>end</syllabic>
     <text>ly</text>
    </lyric>
    <lyric default-y="-150" number="part1verse3" color="#000000">
     <syllabic>end</syllabic>
     <text>ly</text>
    </lyric>
    <lyric default-y="-180" number="part1verse4" color="#000000">
     <syllabic>end</syllabic>
     <text>ly</text>
    </lyric>
   </note>
   <note color="#000000" default-x="226" default-y="10">
    <pitch>
     <step>A</step>
     <octave>4</octave>
    </pitch>
    <duration>256</duration>
    <instrument id="P1-I1" />
    <voice>1</voice>
    <type>quarter</type>
    <stem>up</stem>
    <staff>1</staff>
    <lyric default-y="-90" number="part1verse1" color="#000000">
     <syllabic>begin</syllabic>
     <text>Spir</text>
    </lyric>
    <lyric default-y="-120" number="part1verse2" color="#000000">
     <syllabic>begin</syllabic>
     <text>Spir</text>
    </lyric>
    <lyric default-y="-150" number="part1verse3" color="#000000">
     <syllabic>begin</syllabic>
     <text>Spir</text>
    </lyric>
    <lyric default-y="-180" number="part1verse4" color="#000000">
     <syllabic>begin</syllabic>
     <text>Spir</text>
    </lyric>
   </note>
   <note color="#000000" default-x="288" default-y="15">
    <pitch>
     <step>B</step>
     <octave>4</octave>
    </pitch>
    <duration>256</duration>
    <instrument id="P1-I1" />
    <voice>1</voice>
    <type>quarter</type>
    <stem>up</stem>
    <staff>1</staff>
    <lyric default-y="-90" number="part1verse1" color="#000000">
     <syllabic>end</syllabic>
     <text>it,</text>
    </lyric>
    <lyric default-y="-120" number="part1verse2" color="#000000">
     <syllabic>end</syllabic>
     <text>it,</text>
    </lyric>
    <lyric default-y="-150" number="part1verse3" color="#000000">
     <syllabic>end</syllabic>
     <text>it,</text>
    </lyric>
    <lyric default-y="-180" number="part1verse4" color="#000000">
     <syllabic>end</syllabic>
     <text>it,</text>
    </lyric>
   </note>
   <backup>
    <duration>1024</duration>
   </backup>
   <note color="#000000" default-x="101" default-y="-10">
    <pitch>
     <step>D</step>
     <octave>4</octave>
    </pitch>
    <duration>256</duration>
    <instrument id="P1-I1" />
    <voice>2</voice>
    <type>quarter</type>
    <stem>up</stem>
    <staff>1</staff>
   </note>
   <note color="#000000" default-x="164" default-y="-10">
    <pitch>
     <step>D</step>
     <octave>4</octave>
    </pitch>
    <duration>256</duration>
    <instrument id="P1-I1" />
    <voice>2</voice>
    <type>quarter</type>
    <stem>up</stem>
    <staff>1</staff>
   </note>
   <note color="#000000" default-x="226" default-y="-10">
    <pitch>
     <step>D</step>
     <octave>4</octave>
    </pitch>
    <duration>256</duration>
    <instrument id="P1-I1" />
    <voice>2</voice>
    <type>quarter</type>
    <stem>up</stem>
    <staff>1</staff>
   </note>
   <note color="#000000" default-x="288" default-y="-10">
    <pitch>
     <step>D</step>
     <octave>4</octave>
    </pitch>
    <duration>256</duration>
    <instrument id="P1-I1" />
    <voice>2</voice>
    <type>quarter</type>
    <stem>up</stem>
    <staff>1</staff>
   </note>
  </measure>
  <!--============== Part: P1, Measure: 1 ==============-->
  <measure number="1" width="199">
   <note color="#000000" default-x="15" default-y="-5">
    <pitch>
     <step>E</step>
     <octave>4</octave>
    </pitch>
    <duration>256</duration>
    <instrument id="P1-I1" />
    <voice>1</voice>
    <type>quarter</type>
    <stem>up</stem>
    <staff>1</staff>
    <lyric default-y="-90" number="part1verse1" color="#000000">
     <syllabic>single</syllabic>
     <text>truth</text>
    </lyric>
    <lyric default-y="-120" number="part1verse2" color="#000000">
     <syllabic>single</syllabic>
     <text>love</text>
    </lyric>
    <lyric default-y="-150" number="part1verse3" color="#000000">
     <syllabic>single</syllabic>
     <text>power</text>
    </lyric>
    <lyric default-y="-180" number="part1verse4" color="#000000">
     <syllabic>single</syllabic>
     <text>law</text>
    </lyric>
   </note>
   <note color="#000000" default-x="77" default-y="-5">
    <pitch>
     <step>E</step>
     <octave>4</octave>
    </pitch>
    <duration>256</duration>
    <instrument id="P1-I1" />
    <voice>1</voice>
    <type>quarter</type>
    <stem>up</stem>
    <staff>1</staff>
    <lyric default-y="-90" number="part1verse1" color="#000000">
     <syllabic>begin</syllabic>
     <text>di</text>
    </lyric>
    <lyric default-y="-120" number="part1verse2" color="#000000">
     <syllabic>begin</syllabic>
     <text>di</text>
    </lyric>
    <lyric default-y="-150" number="part1verse3" color="#000000">
     <syllabic>begin</syllabic>
     <text>di</text>
    </lyric>
    <lyric default-y="-180" number="part1verse4" color="#000000">
     <syllabic>begin</syllabic>
     <text>di</text>
    </lyric>
   </note>
   <note color="#000000" default-x="139">
    <pitch>
     <step>F</step>
     <alter>1</alter>
     <octave>4</octave>
    </pitch>
    <duration>512</duration>
    <instrument id="P1-I1" />
    <voice>1</voice>
    <type>half</type>
    <stem>up</stem>
    <staff>1</staff>
    <lyric default-y="-90" number="part1verse1" color="#000000">
     <syllabic>end</syllabic>
     <text>vine,</text>
    </lyric>
    <lyric default-y="-120" number="part1verse2" color="#000000">
     <syllabic>end</syllabic>
     <text>vine,</text>
    </lyric>
    <lyric default-y="-150" number="part1verse3" color="#000000">
     <syllabic>end</syllabic>
     <text>vine,</text>
    </lyric>
    <lyric default-y="-180" number="part1verse4" color="#000000">
     <syllabic>end</syllabic>
     <text>vine,</text>
    </lyric>
   </note>
   <backup>
    <duration>1024</duration>
   </backup>
   <note color="#000000" default-x="15" default-y="-72">
    <pitch>
     <step>D</step>
     <octave>4</octave>
    </pitch>
    <duration>256</duration>
    <instrument id="P1-I1" />
    <voice>2</voice>
    <type>quarter</type>
    <stem>down</stem>
    <staff>1</staff>
   </note>
   <note color="#000000" default-x="77" default-y="-15">
    <pitch>
     <step>C</step>
     <alter>1</alter>
     <octave>4</octave>
    </pitch>
    <duration>256</duration>
    <instrument id="P1-I1" />
    <voice>2</voice>
    <type>quarter</type>
    <stem>up</stem>
    <staff>1</staff>
   </note>
   <note color="#000000" default-x="139" default-y="-10">
    <pitch>
     <step>D</step>
     <octave>4</octave>
    </pitch>
    <duration>512</duration>
    <instrument id="P1-I1" />
    <voice>2</voice>
    <type>half</type>
    <stem>up</stem>
    <staff>1</staff>
   </note>
  </measure>
  <!--============== Part: P1, Measure: 2 ==============-->
  <measure number="2" width="263">
   <note color="#000000" default-x="15" default-y="10">
    <pitch>
     <step>A</step>
     <octave>4</octave>
    </pitch>
    <duration>256</duration>
    <instrument id="P1-I1" />
    <voice>1</voice>
    <type>quarter</type>
    <stem>up</stem>
    <staff>1</staff>
    <lyric default-y="-90" number="part1verse1" color="#000000">
     <syllabic>single</syllabic>
     <text>dawn</text>
    </lyric>
    <lyric default-y="-120" number="part1verse2" color="#000000">
     <syllabic>single</syllabic>
     <text>glow</text>
    </lyric>
    <lyric default-y="-150" number="part1verse3" color="#000000">
     <syllabic>single</syllabic>
     <text>fill</text>
    </lyric>
    <lyric default-y="-180" number="part1verse4" color="#000000">
     <syllabic>single</syllabic>
     <text>reign</text>
    </lyric>
   </note>
   <note color="#000000" default-x="77" default-y="15">
    <pitch>
     <step>B</step>
     <octave>4</octave>
    </pitch>
    <duration>256</duration>
    <instrument id="P1-I1" />
    <voice>1</voice>
    <type>quarter</type>
    <stem>up</stem>
    <staff>1</staff>
    <lyric default-y="-90" number="part1verse1" color="#000000">
     <syllabic>begin</syllabic>
     <text>up</text>
    </lyric>
    <lyric default-y="-120" number="part1verse2" color="#000000">
     <syllabic>begin</syllabic>
     <text>with</text>
    </lyric>
    <lyric default-y="-150" number="part1verse3" color="#000000">
     <syllabic>single</syllabic>
     <text>and</text>
    </lyric>
    <lyric default-y="-180" number="part1verse4" color="#000000">
     <syllabic>begin</syllabic>
     <text>with</text>
    </lyric>
   </note>
   <note color="#000000" default-x="139" default-y="17">
    <pitch>
     <step>C</step>
     <alter>1</alter>
     <octave>5</octave>
    </pitch>
    <duration>256</duration>
    <instrument id="P1-I1" />
    <voice>1</voice>
    <type>quarter</type>
    <stem>up</stem>
    <staff>1</staff>
    <lyric default-y="-90" number="part1verse1" color="#000000">
     <syllabic>end</syllabic>
     <text>on</text>
    </lyric>
    <lyric default-y="-120" number="part1verse2" color="#000000">
     <syllabic>end</syllabic>
     <text>in</text>
    </lyric>
    <lyric default-y="-150" number="part1verse3" color="#000000">
     <syllabic>single</syllabic>
     <text>nerve</text>
    </lyric>
    <lyric default-y="-180" number="part1verse4" color="#000000">
     <syllabic>end</syllabic>
     <text>in</text>
    </lyric>
   </note>
   <note color="#000000" default-x="201" default-y="20">
    <pitch>
     <step>D</step>
     <octave>5</octave>
    </pitch>
    <duration>256</duration>
    <instrument id="P1-I1" />
    <voice>1</voice>
    <type>quarter</type>
    <stem>up</stem>
    <staff>1</staff>
    <lyric default-y="-90" number="part1verse1" color="#000000">
     <syllabic>single</syllabic>
     <text>this</text>
    </lyric>
    <lyric default-y="-120" number="part1verse2" color="#000000">
     <syllabic>single</syllabic>
     <text>this</text>
    </lyric>
    <lyric default-y="-150" number="part1verse3" color="#000000">
     <syllabic>single</syllabic>
     <text>this</text>
    </lyric>
    <lyric default-y="-180" number="part1verse4" color="#000000">
     <syllabic>single</syllabic>
     <text>this</text>
    </lyric>
   </note>
   <backup>
    <duration>1024</duration>
   </backup>
   <note color="#000000" default-x="15" default-y="-5">
    <pitch>
     <step>E</step>
     <octave>4</octave>
    </pitch>
    <duration>256</duration>
    <instrument id="P1-I1" />
    <voice>2</voice>
    <type>quarter</type>
    <stem>up</stem>
    <staff>1</staff>
   </note>
   <note color="#000000" default-x="77" default-y="-10">
    <pitch>
     <step>D</step>
     <octave>4</octave>
    </pitch>
    <duration>256</duration>
    <instrument id="P1-I1" />
    <voice>2</voice>
    <type>quarter</type>
    <stem>up</stem>
    <staff>1</staff>
   </note>
   <note color="#000000" default-x="139" default-y="-15">
    <pitch>
     <step>C</step>
     <alter>1</alter>
     <octave>4</octave>
    </pitch>
    <duration>256</duration>
    <instrument id="P1-I1" />
    <voice>2</voice>
    <type>quarter</type>
    <stem>up</stem>
    <staff>1</staff>
   </note>
   <note color="#000000" default-x="201">
    <pitch>
     <step>F</step>
     <alter>1</alter>
     <octave>4</octave>
    </pitch>
    <duration>256</duration>
    <instrument id="P1-I1" />
    <voice>2</voice>
    <type>quarter</type>
    <stem>up</stem>
    <staff>1</staff>
   </note>
  </measure>
  <!--============== Part: P1, Measure: 3 ==============-->
  <measure number="3" width="207">
   <note color="#000000" default-x="15" default-y="15">
    <pitch>
     <step>B</step>
     <octave>4</octave>
    </pitch>
    <duration>256</duration>
    <instrument id="P1-I1" />
    <voice>1</voice>
    <type>quarter</type>
    <stem>up</stem>
    <staff>1</staff>
    <lyric default-y="-90" number="part1verse1" color="#000000">
     <syllabic>single</syllabic>
     <text>soul</text>
    </lyric>
    <lyric default-y="-120" number="part1verse2" color="#000000">
     <syllabic>single</syllabic>
     <text>heart</text>
    </lyric>
    <lyric default-y="-150" number="part1verse3" color="#000000">
     <syllabic>single</syllabic>
     <text>will</text>
    </lyric>
    <lyric default-y="-180" number="part1verse4" color="#000000">
     <syllabic>single</syllabic>
     <text>soul</text>
    </lyric>
   </note>
   <note color="#000000" default-x="77" default-y="15">
    <pitch>
     <step>B</step>
     <octave>4</octave>
    </pitch>
    <duration>256</duration>
    <instrument id="P1-I1" />
    <voice>1</voice>
    <type>quarter</type>
    <stem>up</stem>
    <staff>1</staff>
    <lyric default-y="-90" number="part1verse1" color="#000000">
     <syllabic>single</syllabic>
     <text>of</text>
    </lyric>
    <lyric default-y="-120" number="part1verse2" color="#000000">
     <syllabic>single</syllabic>
     <text>of</text>
    </lyric>
    <lyric default-y="-150" number="part1verse3" color="#000000">
     <syllabic>single</syllabic>
     <text>of</text>
    </lyric>
    <lyric default-y="-180" number="part1verse4" color="#000000">
     <syllabic>single</syllabic>
     <text>of</text>
    </lyric>
   </note>
   <note color="#000000" default-x="139" default-y="10">
    <pitch>
     <step>A</step>
     <octave>4</octave>
    </pitch>
    <duration>512</duration>
    <instrument id="P1-I1" />
    <voice>1</voice>
    <type>half</type>
    <stem>up</stem>
    <staff>1</staff>
    <lyric default-y="-90" number="part1verse1" color="#000000">
     <syllabic>single</syllabic>
     <text>mine.</text>
    </lyric>
    <lyric default-y="-120" number="part1verse2" color="#000000">
     <syllabic>single</syllabic>
     <text>mine.</text>
    </lyric>
    <lyric default-y="-150" number="part1verse3" color="#000000">
     <syllabic>single</syllabic>
     <text>mine.</text>
    </lyric>
    <lyric default-y="-180" number="part1verse4" color="#000000">
     <syllabic>single</syllabic>
     <text>mine.</text>
    </lyric>
   </note>
   <backup>
    <duration>1024</duration>
   </backup>
   <note color="#000000" default-x="15" default-y="-5">
    <pitch>
     <step>E</step>
     <octave>4</octave>
    </pitch>
    <duration>256</duration>
    <instrument id="P1-I1" />
    <voice>2</voice>
    <type>quarter</type>
    <stem>up</stem>
    <staff>1</staff>
   </note>
   <note color="#000000" default-x="77" default-y="-5">
    <pitch>
     <step>E</step>
     <octave>4</octave>
    </pitch>
    <duration>256</duration>
    <instrument id="P1-I1" />
    <voice>2</voice>
    <type>quarter</type>
    <stem>up</stem>
    <staff>1</staff>
   </note>
   <note color="#000000" default-x="139" default-y="-15">
    <pitch>
     <step>C</step>
     <alter>1</alter>
     <octave>4</octave>
    </pitch>
    <duration>512</duration>
    <instrument id="P1-I1" />
    <voice>2</voice>
    <type>half</type>
    <stem>up</stem>
    <staff>1</staff>
   </note>
  </measure>
  <!--============== Part: P1, Measure: 4 ==============-->
  <measure number="4" width="322">
   <print new-system="yes">
    <system-layout>
     <system-margins>
      <left-margin>1</left-margin>
      <right-margin>0</right-margin>
     </system-margins>
     <system-distance>124</system-distance>
    </system-layout>
   </print>
   <attributes>
    <staff-details number="1" print-object="yes" />
   </attributes>
   <barline location="left">
    <ending number="1" type="start" print-object="no" />
   </barline>
   <note color="#000000" default-x="82">
    <pitch>
     <step>F</step>
     <alter>1</alter>
     <octave>4</octave>
    </pitch>
    <duration>256</duration>
    <instrument id="P1-I1" />
    <voice>1</voice>
    <type>quarter</type>
    <stem>up</stem>
    <staff>1</staff>
    <lyric default-y="-95" number="part1verse1" color="#000000">
     <syllabic>single</syllabic>
     <text>Voice</text>
    </lyric>
    <lyric default-y="-125" number="part1verse2" color="#000000">
     <syllabic>begin</syllabic>
     <text>Kin</text>
    </lyric>
    <lyric default-y="-155" number="part1verse3" color="#000000">
     <syllabic>begin</syllabic>
     <text>Bold</text>
    </lyric>
    <lyric default-y="-185" number="part1verse4" color="#000000">
     <syllabic>single</syllabic>
     <text>Be</text>
    </lyric>
   </note>
   <note color="#000000" default-x="141" default-y="5">
    <pitch>
     <step>G</step>
     <octave>4</octave>
    </pitch>
    <duration>256</duration>
    <instrument id="P1-I1" />
    <voice>1</voice>
    <type>quarter</type>
    <stem>up</stem>
    <staff>1</staff>
    <lyric default-y="-95" number="part1verse1" color="#000000">
     <syllabic>single</syllabic>
     <text>of</text>
    </lyric>
    <lyric default-y="-125" number="part1verse2" color="#000000">
     <syllabic>end</syllabic>
     <text>dle</text>
    </lyric>
    <lyric default-y="-155" number="part1verse3" color="#000000">
     <syllabic>end</syllabic>
     <text>ly</text>
    </lyric>
    <lyric default-y="-185" number="part1verse4" color="#000000">
     <syllabic>single</syllabic>
     <text>my</text>
    </lyric>
   </note>
   <note color="#000000" default-x="200" default-y="10">
    <pitch>
     <step>A</step>
     <octave>4</octave>
    </pitch>
    <duration>256</duration>
    <instrument id="P1-I1" />
    <voice>1</voice>
    <type>quarter</type>
    <stem>up</stem>
    <staff>1</staff>
    <lyric default-y="-95" number="part1verse1" color="#000000">
     <syllabic>single</syllabic>
     <text>God</text>
    </lyric>
    <lyric default-y="-125" number="part1verse2" color="#000000">
     <syllabic>begin</syllabic>
     <text>ev</text>
    </lyric>
    <lyric default-y="-155" number="part1verse3" color="#000000">
     <syllabic>single</syllabic>
     <text>may</text>
    </lyric>
    <lyric default-y="-185" number="part1verse4" color="#000000">
     <syllabic>single</syllabic>
     <text>law,</text>
    </lyric>
   </note>
   <note color="#000000" default-x="259" default-y="15">
    <pitch>
     <step>B</step>
     <octave>4</octave>
    </pitch>
    <duration>256</duration>
    <instrument id="P1-I1" />
    <voice>1</voice>
    <type>quarter</type>
    <stem>up</stem>
    <staff>1</staff>
    <lyric default-y="-95" number="part1verse1" color="#000000">
     <syllabic>single</syllabic>
     <text>and</text>
    </lyric>
    <lyric default-y="-125" number="part1verse2" color="#000000">
     <syllabic>end</syllabic>
     <text>ery</text>
    </lyric>
    <lyric default-y="-155" number="part1verse3" color="#000000">
     <syllabic>single</syllabic>
     <text>I</text>
    </lyric>
    <lyric default-y="-185" number="part1verse4" color="#000000">
     <syllabic>single</syllabic>
     <text>and</text>
    </lyric>
   </note>
   <backup>
    <duration>1024</duration>
   </backup>
   <note color="#000000" default-x="82" default-y="-10">
    <pitch>
     <step>D</step>
     <octave>4</octave>
    </pitch>
    <duration>256</duration>
    <instrument id="P1-I1" />
    <voice>2</voice>
    <type>quarter</type>
    <stem>up</stem>
    <staff>1</staff>
   </note>
   <note color="#000000" default-x="141" default-y="-10">
    <pitch>
     <step>D</step>
     <octave>4</octave>
    </pitch>
    <duration>256</duration>
    <instrument id="P1-I1" />
    <voice>2</voice>
    <type>quarter</type>
    <stem>up</stem>
    <staff>1</staff>
   </note>
   <note color="#000000" default-x="200" default-y="-5">
    <pitch>
     <step>E</step>
     <octave>4</octave>
    </pitch>
    <duration>256</duration>
    <instrument id="P1-I1" />
    <voice>2</voice>
    <type>quarter</type>
    <stem>up</stem>
    <staff>1</staff>
   </note>
   <note color="#000000" default-x="259" default-y="-20">
    <pitch>
     <step>B</step>
     <octave>3</octave>
    </pitch>
    <duration>256</duration>
    <instrument id="P1-I1" />
    <voice>2</voice>
    <type>quarter</type>
    <stem>up</stem>
    <staff>1</staff>
   </note>
  </measure>
  <!--============== Part: P1, Measure: 5 ==============-->
  <measure number="5" width="251">
   <note color="#000000" default-x="15" default-y="5">
    <pitch>
     <step>G</step>
     <octave>4</octave>
    </pitch>
    <duration>256</duration>
    <instrument id="P1-I1" />
    <voice>1</voice>
    <type>quarter</type>
    <stem>up</stem>
    <staff>1</staff>
    <lyric default-y="-95" number="part1verse1" color="#000000">
     <syllabic>begin</syllabic>
     <text>in</text>
    </lyric>
    <lyric default-y="-125" number="part1verse2" color="#000000">
     <syllabic>single</syllabic>
     <text>high</text>
    </lyric>
    <lyric default-y="-155" number="part1verse3" color="#000000">
     <syllabic>begin</syllabic>
     <text>al</text>
    </lyric>
    <lyric default-y="-185" number="part1verse4" color="#000000">
     <syllabic>single</syllabic>
     <text>I</text>
    </lyric>
   </note>
   <note color="#000000" default-x="100">
    <pitch>
     <step>F</step>
     <alter>1</alter>
     <octave>4</octave>
    </pitch>
    <duration>256</duration>
    <instrument id="P1-I1" />
    <voice>1</voice>
    <type>quarter</type>
    <stem>up</stem>
    <staff>1</staff>
    <lyric default-y="-95" number="part1verse1" color="#000000">
     <syllabic>end</syllabic>
     <text>ward</text>
    </lyric>
    <lyric default-y="-125" number="part1verse2" color="#000000">
     <syllabic>begin</syllabic>
     <text>de</text>
    </lyric>
    <lyric default-y="-155" number="part1verse3" color="#000000">
     <syllabic>end</syllabic>
     <text>ways</text>
    </lyric>
    <lyric default-y="-185" number="part1verse4" color="#000000">
     <syllabic>single</syllabic>
     <text>shall</text>
    </lyric>
   </note>
   <note color="#000000" default-x="185" default-y="-5">
    <pitch>
     <step>E</step>
     <octave>4</octave>
    </pitch>
    <duration>512</duration>
    <instrument id="P1-I1" />
    <voice>1</voice>
    <type>half</type>
    <stem>up</stem>
    <staff>1</staff>
    <lyric default-y="-95" number="part1verse1" color="#000000">
     <syllabic>single</syllabic>
     <text>light,</text>
    </lyric>
    <lyric default-y="-125" number="part1verse2" color="#000000">
     <syllabic>end</syllabic>
     <text>sire,</text>
    </lyric>
    <lyric default-y="-155" number="part1verse3" color="#000000">
     <syllabic>single</syllabic>
     <text>live,</text>
    </lyric>
    <lyric default-y="-185" number="part1verse4" color="#000000">
     <syllabic>single</syllabic>
     <text>be</text>
    </lyric>
   </note>
   <backup>
    <duration>1024</duration>
   </backup>
   <note color="#000000" default-x="15" default-y="-74">
    <pitch>
     <step>B</step>
     <octave>3</octave>
    </pitch>
    <duration>128</duration>
    <instrument id="P1-I1" />
    <voice>2</voice>
    <type>eighth</type>
    <stem>down</stem>
    <staff>1</staff>
    <beam number="1">begin</beam>
   </note>
   <note color="#000000" default-x="57" default-y="-74">
    <pitch>
     <step>C</step>
     <alter>1</alter>
     <octave>4</octave>
    </pitch>
    <duration>128</duration>
    <instrument id="P1-I1" />
    <voice>2</voice>
    <type>eighth</type>
    <stem>down</stem>
    <staff>1</staff>
    <beam number="1">end</beam>
   </note>
   <note color="#000000" default-x="100" default-y="-10">
    <pitch>
     <step>D</step>
     <octave>4</octave>
    </pitch>
    <duration>256</duration>
    <instrument id="P1-I1" />
    <voice>2</voice>
    <type>quarter</type>
    <stem>up</stem>
    <staff>1</staff>
   </note>
   <note color="#000000" default-x="185" default-y="-15">
    <pitch>
     <step>C</step>
     <alter>1</alter>
     <octave>4</octave>
    </pitch>
    <duration>512</duration>
    <instrument id="P1-I1" />
    <voice>2</voice>
    <type>half</type>
    <stem>up</stem>
    <staff>1</staff>
   </note>
  </measure>
  <!--============== Part: P1, Measure: 6 ==============-->
  <measure number="6" width="276">
   <note color="#000000" default-x="15" default-y="10">
    <pitch>
     <step>A</step>
     <octave>4</octave>
    </pitch>
    <duration>256</duration>
    <instrument id="P1-I1" />
    <voice>1</voice>
    <type>quarter</type>
    <stem>up</stem>
    <staff>1</staff>
    <lyric default-y="-95" number="part1verse1" color="#000000">
     <syllabic>single</syllabic>
     <text>wake</text>
    </lyric>
    <lyric default-y="-125" number="part1verse2" color="#000000">
     <syllabic>begin</syllabic>
     <text>pu</text>
    </lyric>
    <lyric default-y="-155" number="part1verse3" color="#000000">
     <syllabic>begin</syllabic>
     <text>brave</text>
    </lyric>
    <lyric default-y="-185" number="part1verse4" color="#000000">
     <syllabic>begin</syllabic>
     <text>firm</text>
    </lyric>
   </note>
   <note color="#000000" default-x="73" default-y="2">
    <pitch>
     <step>G</step>
     <octave>4</octave>
    </pitch>
    <duration>128</duration>
    <instrument id="P1-I1" />
    <voice>1</voice>
    <type>eighth</type>
    <stem>up</stem>
    <staff>1</staff>
    <beam number="1">begin</beam>
    <lyric default-y="-95" number="part1verse1" color="#000000">
     <syllabic>single</syllabic>
     <text>my</text>
    </lyric>
    <lyric default-y="-125" number="part1verse2" color="#000000">
     <syllabic>middle</syllabic>
     <text>ri</text>
    </lyric>
    <lyric default-y="-155" number="part1verse3" color="#000000">
     <syllabic>end</syllabic>
     <text>ly</text>
    </lyric>
    <lyric default-y="-185" number="part1verse4" color="#000000">
     <syllabic>end</syllabic>
     <text>ly</text>
    </lyric>
   </note>
   <note color="#000000" default-x="116" default-y="2">
    <pitch>
     <step>F</step>
     <alter>1</alter>
     <octave>4</octave>
    </pitch>
    <duration>128</duration>
    <instrument id="P1-I1" />
    <voice>1</voice>
    <type>eighth</type>
    <stem>up</stem>
    <staff>1</staff>
    <beam number="1">end</beam>
   </note>
   <note color="#000000" default-x="159" default-y="-5">
    <pitch>
     <step>E</step>
     <octave>4</octave>
    </pitch>
    <duration>256</duration>
    <instrument id="P1-I1" />
    <voice>1</voice>
    <type>quarter</type>
    <stem>up</stem>
    <staff>1</staff>
    <lyric default-y="-95" number="part1verse1" color="#000000">
     <syllabic>begin</syllabic>
     <text>spir</text>
    </lyric>
    <lyric default-y="-125" number="part1verse2" color="#000000">
     <syllabic>end</syllabic>
     <text>fy</text>
    </lyric>
    <lyric default-y="-155" number="part1verse3" color="#000000">
     <syllabic>single</syllabic>
     <text>serve,</text>
    </lyric>
    <lyric default-y="-185" number="part1verse4" color="#000000">
     <syllabic>single</syllabic>
     <text>bound,</text>
    </lyric>
   </note>
   <note color="#000000" default-x="217" default-y="-10">
    <pitch>
     <step>D</step>
     <octave>4</octave>
    </pitch>
    <duration>256</duration>
    <instrument id="P1-I1" />
    <voice>1</voice>
    <type>quarter</type>
    <stem>up</stem>
    <staff>1</staff>
    <lyric default-y="-95" number="part1verse1" color="#000000">
     <syllabic>end</syllabic>
     <text>it,</text>
    </lyric>
    <lyric default-y="-125" number="part1verse2" color="#000000">
     <syllabic>single</syllabic>
     <text>me</text>
    </lyric>
    <lyric default-y="-155" number="part1verse3" color="#000000">
     <syllabic>single</syllabic>
     <text>and</text>
    </lyric>
    <lyric default-y="-185" number="part1verse4" color="#000000">
     <syllabic>begin</syllabic>
     <text>for</text>
    </lyric>
   </note>
   <backup>
    <duration>1024</duration>
   </backup>
   <note color="#000000" default-x="15" default-y="-5">
    <pitch>
     <step>E</step>
     <octave>4</octave>
    </pitch>
    <duration>256</duration>
    <instrument id="P1-I1" />
    <voice>2</voice>
    <type>quarter</type>
    <stem>up</stem>
    <staff>1</staff>
   </note>
   <note color="#000000" default-x="73" default-y="-7">
    <pitch>
     <step>E</step>
     <octave>4</octave>
    </pitch>
    <duration>128</duration>
    <instrument id="P1-I1" />
    <voice>2</voice>
    <type>eighth</type>
    <stem>up</stem>
    <staff>1</staff>
    <beam number="1">begin</beam>
   </note>
   <note color="#000000" default-x="116" default-y="-7">
    <pitch>
     <step>D</step>
     <octave>4</octave>
    </pitch>
    <duration>128</duration>
    <instrument id="P1-I1" />
    <voice>2</voice>
    <type>eighth</type>
    <stem>up</stem>
    <staff>1</staff>
    <beam number="1">end</beam>
   </note>
   <note color="#000000" default-x="159" default-y="-15">
    <pitch>
     <step>C</step>
     <alter>1</alter>
     <octave>4</octave>
    </pitch>
    <duration>256</duration>
    <instrument id="P1-I1" />
    <voice>2</voice>
    <type>quarter</type>
    <stem>up</stem>
    <staff>1</staff>
   </note>
   <note color="#000000" default-x="217" default-y="-72">
    <pitch>
     <step>D</step>
     <octave>4</octave>
    </pitch>
    <duration>256</duration>
    <instrument id="P1-I1" />
    <voice>2</voice>
    <type>quarter</type>
    <stem>down</stem>
    <staff>1</staff>
   </note>
  </measure>
  <!--============== Part: P1, Measure: 7 ==============-->
  <measure number="7" width="198">
   <note color="#000000" default-x="15" default-y="-5">
    <pitch>
     <step>E</step>
     <octave>4</octave>
    </pitch>
    <duration>256</duration>
    <instrument id="P1-I1" />
    <voice>1</voice>
    <type>quarter</type>
    <stem>up</stem>
    <staff>1</staff>
    <lyric default-y="-95" number="part1verse1" color="#000000">
     <syllabic>single</syllabic>
     <text>clear</text>
    </lyric>
    <lyric default-y="-125" number="part1verse2" color="#000000">
     <syllabic>single</syllabic>
     <text>with</text>
    </lyric>
    <lyric default-y="-155" number="part1verse3" color="#000000">
     <syllabic>begin</syllabic>
     <text>glad</text>
    </lyric>
    <lyric default-y="-185" number="part1verse4" color="#000000">
     <syllabic>middle</syllabic>
     <text>ev</text>
    </lyric>
   </note>
   <note color="#000000" default-x="73" default-y="-5">
    <pitch>
     <step>E</step>
     <octave>4</octave>
    </pitch>
    <duration>256</duration>
    <instrument id="P1-I1" />
    <voice>1</voice>
    <type>quarter</type>
    <stem>up</stem>
    <staff>1</staff>
    <lyric default-y="-95" number="part1verse1" color="#000000">
     <syllabic>single</syllabic>
     <text>my</text>
    </lyric>
    <lyric default-y="-125" number="part1verse2" color="#000000">
     <syllabic>single</syllabic>
     <text>your</text>
    </lyric>
    <lyric default-y="-155" number="part1verse3" color="#000000">
     <syllabic>end</syllabic>
     <text>ly</text>
    </lyric>
    <lyric default-y="-185" number="part1verse4" color="#000000">
     <syllabic>end</syllabic>
     <text>er</text>
    </lyric>
   </note>
   <note color="#000000" default-x="132" default-y="-10">
    <pitch>
     <step>D</step>
     <octave>4</octave>
    </pitch>
    <duration>512</duration>
    <instrument id="P1-I1" />
    <voice>1</voice>
    <type>half</type>
    <stem>up</stem>
    <staff>1</staff>
    <lyric default-y="-95" number="part1verse1" color="#000000">
     <syllabic>single</syllabic>
     <text>sight.</text>
    </lyric>
    <lyric default-y="-125" number="part1verse2" color="#000000">
     <syllabic>single</syllabic>
     <text>fire.</text>
    </lyric>
    <lyric default-y="-155" number="part1verse3" color="#000000">
     <syllabic>single</syllabic>
     <text>give.</text>
    </lyric>
    <lyric default-y="-185" number="part1verse4" color="#000000">
     <syllabic>single</syllabic>
     <text>free.</text>
    </lyric>
   </note>
   <barline location="right">
    <bar-style>light-heavy</bar-style>
    <ending number="1" type="stop" print-object="no" />
   </barline>
   <backup>
    <duration>1024</duration>
   </backup>
   <note color="#000000" default-x="15" default-y="-72">
    <pitch>
     <step>D</step>
     <octave>4</octave>
    </pitch>
    <duration>256</duration>
    <instrument id="P1-I1" />
    <voice>2</voice>
    <type>quarter</type>
    <stem>down</stem>
    <staff>1</staff>
   </note>
   <note color="#000000" default-x="73" default-y="-15">
    <pitch>
     <step>C</step>
     <alter>1</alter>
     <octave>4</octave>
    </pitch>
    <duration>256</duration>
    <instrument id="P1-I1" />
    <voice>2</voice>
    <type>quarter</type>
    <stem>up</stem>
    <staff>1</staff>
   </note>
   <note color="#000000" default-x="132" default-y="-72">
    <pitch>
     <step>D</step>
     <octave>4</octave>
    </pitch>
    <duration>512</duration>
    <instrument id="P1-I1" />
    <voice>2</voice>
    <type>half</type>
    <stem>down</stem>
    <staff>1</staff>
   </note>
  </measure>
 </part>
 <part id="P2">
  <!--============== Part: P2, Measure: 0 ==============-->
  <measure number="0" width="378">
   <print new-page="yes">
    <system-layout>
     <system-margins>
      <left-margin>1</left-margin>
      <right-margin>0</right-margin>
     </system-margins>
    </system-layout>
    <staff-layout number="1">
     <staff-distance>177</staff-distance>
    </staff-layout>
   </print>
   <attributes>
    <divisions>256</divisions>
    <key color="#000000">
     <fifths>2</fifths>
     <mode>major</mode>
    </key>
    <time color="#000000">
     <beats>4</beats>
     <beat-type>4</beat-type>
    </time>
    <staves>1</staves>
    <clef number="1" color="#000000">
     <sign>F</sign>
     <line>4</line>
    </clef>
    <staff-details number="1" print-object="yes" />
   </attributes>
   <note color="#000000" default-x="101" default-y="-35">
    <pitch>
     <step>A</step>
     <octave>3</octave>
    </pitch>
    <duration>256</duration>
    <instrument id="P2-I1" />
    <voice>3</voice>
    <type>quarter</type>
    <stem>down</stem>
    <staff>1</staff>
   </note>
   <note color="#000000" default-x="164" default-y="-30">
    <pitch>
     <step>B</step>
     <octave>3</octave>
    </pitch>
    <duration>256</duration>
    <instrument id="P2-I1" />
    <voice>3</voice>
    <type>quarter</type>
    <stem>down</stem>
    <staff>1</staff>
   </note>
   <note color="#000000" default-x="226" default-y="-58">
    <pitch>
     <step>A</step>
     <octave>3</octave>
    </pitch>
    <duration>256</duration>
    <instrument id="P2-I1" />
    <voice>3</voice>
    <type>quarter</type>
    <stem>down</stem>
    <staff>1</staff>
   </note>
   <note color="#000000" default-x="288" default-y="22">
    <pitch>
     <step>G</step>
     <octave>3</octave>
    </pitch>
    <duration>128</duration>
    <instrument id="P2-I1" />
    <voice>3</voice>
    <type>eighth</type>
    <stem>up</stem>
    <staff>1</staff>
    <beam number="1">begin</beam>
   </note>
   <note color="#000000" default-x="333" default-y="22">
    <pitch>
     <step>F</step>
     <alter>1</alter>
     <octave>3</octave>
    </pitch>
    <duration>128</duration>
    <instrument id="P2-I1" />
    <voice>3</voice>
    <type>eighth</type>
    <stem>up</stem>
    <staff>1</staff>
    <beam number="1">end</beam>
   </note>
   <backup>
    <duration>1024</duration>
   </backup>
   <note color="#000000" default-x="101" default-y="-55">
    <pitch>
     <step>D</step>
     <octave>3</octave>
    </pitch>
    <duration>256</duration>
    <instrument id="P2-I1" />
    <voice>4</voice>
    <type>quarter</type>
    <stem>down</stem>
    <staff>1</staff>
   </note>
   <note color="#000000" default-x="164" default-y="-60">
    <pitch>
     <step>B</step>
     <octave>2</octave>
    </pitch>
    <duration>256</duration>
    <instrument id="P2-I1" />
    <voice>4</voice>
    <type>quarter</type>
    <stem>down</stem>
    <staff>1</staff>
   </note>
   <note color="#000000" default-x="226" default-y="-72">
    <pitch>
     <step>F</step>
     <alter>1</alter>
     <octave>2</octave>
    </pitch>
    <duration>256</duration>
    <instrument id="P2-I1" />
    <voice>4</voice>
    <type>quarter</type>
    <stem>down</stem>
    <staff>1</staff>
   </note>
   <note color="#000000" default-x="288" default-y="-67">
    <pitch>
     <step>G</step>
     <octave>2</octave>
    </pitch>
    <duration>256</duration>
    <instrument id="P2-I1" />
    <voice>4</voice>
    <type>quarter</type>
    <stem>down</stem>
    <staff>1</staff>
   </note>
  </measure>
  <!--============== Part: P2, Measure: 1 ==============-->
  <measure number="1" width="199">
   <note color="#000000" default-x="15" default-y="-50">
    <pitch>
     <step>E</step>
     <octave>3</octave>
    </pitch>
    <duration>256</duration>
    <instrument id="P2-I1" />
    <voice>3</voice>
    <type>quarter</type>
    <stem>down</stem>
    <staff>1</staff>
   </note>
   <note color="#000000" default-x="77" default-y="-35">
    <pitch>
     <step>A</step>
     <octave>3</octave>
    </pitch>
    <duration>256</duration>
    <instrument id="P2-I1" />
    <voice>3</voice>
    <type>quarter</type>
    <stem>down</stem>
    <staff>1</staff>
   </note>
   <note color="#000000" default-x="139" default-y="-35">
    <pitch>
     <step>A</step>
     <octave>3</octave>
    </pitch>
    <duration>512</duration>
    <instrument id="P2-I1" />
    <voice>3</voice>
    <type>half</type>
    <stem>down</stem>
    <staff>1</staff>
   </note>
   <backup>
    <duration>1024</duration>
   </backup>
   <note color="#000000" default-x="15" default-y="-62">
    <pitch>
     <step>A</step>
     <octave>2</octave>
    </pitch>
    <duration>256</duration>
    <instrument id="P2-I1" />
    <voice>4</voice>
    <type>quarter</type>
    <stem>down</stem>
    <staff>1</staff>
   </note>
   <note color="#000000" default-x="77" default-y="-62">
    <pitch>
     <step>A</step>
     <octave>2</octave>
    </pitch>
    <duration>256</duration>
    <instrument id="P2-I1" />
    <voice>4</voice>
    <type>quarter</type>
    <stem>down</stem>
    <staff>1</staff>
   </note>
   <note color="#000000" default-x="139" default-y="-55">
    <pitch>
     <step>D</step>
     <octave>3</octave>
    </pitch>
    <duration>512</duration>
    <instrument id="P2-I1" />
    <voice>4</voice>
    <type>half</type>
    <stem>down</stem>
    <staff>1</staff>
   </note>
  </measure>
  <!--============== Part: P2, Measure: 2 ==============-->
  <measure number="2" width="263">
   <note color="#000000" default-x="15" default-y="-35">
    <pitch>
     <step>A</step>
     <octave>3</octave>
    </pitch>
    <duration>256</duration>
    <instrument id="P2-I1" />
    <voice>3</voice>
    <type>quarter</type>
    <stem>down</stem>
    <staff>1</staff>
   </note>
   <note color="#000000" default-x="77" default-y="-40">
    <pitch>
     <step>G</step>
     <alter>1</alter>
     <octave>3</octave>
    </pitch>
    <duration>256</duration>
    <instrument id="P2-I1" />
    <voice>3</voice>
    <type>quarter</type>
    <accidental>sharp</accidental>
    <stem>down</stem>
    <staff>1</staff>
   </note>
   <note color="#000000" default-x="139" default-y="-35">
    <pitch>
     <step>A</step>
     <octave>3</octave>
    </pitch>
    <duration>256</duration>
    <instrument id="P2-I1" />
    <voice>3</voice>
    <type>quarter</type>
    <stem>down</stem>
    <staff>1</staff>
   </note>
   <note color="#000000" default-x="201" default-y="-35">
    <pitch>
     <step>A</step>
     <octave>3</octave>
    </pitch>
    <duration>256</duration>
    <instrument id="P2-I1" />
    <voice>3</voice>
    <type>quarter</type>
    <stem>down</stem>
    <staff>1</staff>
   </note>
   <backup>
    <duration>1024</duration>
   </backup>
   <note color="#000000" default-x="15" default-y="-57">
    <pitch>
     <step>C</step>
     <alter>1</alter>
     <octave>3</octave>
    </pitch>
    <duration>256</duration>
    <instrument id="P2-I1" />
    <voice>4</voice>
    <type>quarter</type>
    <stem>down</stem>
    <staff>1</staff>
   </note>
   <note color="#000000" default-x="77" default-y="-60">
    <pitch>
     <step>B</step>
     <octave>2</octave>
    </pitch>
    <duration>256</duration>
    <instrument id="P2-I1" />
    <voice>4</voice>
    <type>quarter</type>
    <stem>down</stem>
    <staff>1</staff>
   </note>
   <note color="#000000" default-x="139" default-y="-62">
    <pitch>
     <step>A</step>
     <octave>2</octave>
    </pitch>
    <duration>256</duration>
    <instrument id="P2-I1" />
    <voice>4</voice>
    <type>quarter</type>
    <stem>down</stem>
    <staff>1</staff>
   </note>
   <note color="#000000" default-x="201" default-y="-55">
    <pitch>
     <step>D</step>
     <octave>3</octave>
    </pitch>
    <duration>256</duration>
    <instrument id="P2-I1" />
    <voice>4</voice>
    <type>quarter</type>
    <stem>down</stem>
    <staff>1</staff>
   </note>
  </measure>
  <!--============== Part: P2, Measure: 3 ==============-->
  <measure number="3" width="207">
   <note color="#000000" default-x="15" default-y="-35">
    <pitch>
     <step>A</step>
     <octave>3</octave>
    </pitch>
    <duration>256</duration>
    <instrument id="P2-I1" />
    <voice>3</voice>
    <type>quarter</type>
    <stem>down</stem>
    <staff>1</staff>
   </note>
   <note color="#000000" default-x="77" default-y="-40">
    <pitch>
     <step>G</step>
     <alter>1</alter>
     <octave>3</octave>
    </pitch>
    <duration>256</duration>
    <instrument id="P2-I1" />
    <voice>3</voice>
    <type>quarter</type>
    <accidental>sharp</accidental>
    <stem>down</stem>
    <staff>1</staff>
   </note>
   <note color="#000000" default-x="139" default-y="-35">
    <pitch>
     <step>A</step>
     <octave>3</octave>
    </pitch>
    <duration>512</duration>
    <instrument id="P2-I1" />
    <voice>3</voice>
    <type>half</type>
    <stem>down</stem>
    <staff>1</staff>
   </note>
   <backup>
    <duration>1024</duration>
   </backup>
   <note color="#000000" default-x="15" default-y="-50">
    <pitch>
     <step>E</step>
     <octave>3</octave>
    </pitch>
    <duration>256</duration>
    <instrument id="P2-I1" />
    <voice>4</voice>
    <type>quarter</type>
    <stem>down</stem>
    <staff>1</staff>
   </note>
   <note color="#000000" default-x="77" default-y="-50">
    <pitch>
     <step>E</step>
     <octave>3</octave>
    </pitch>
    <duration>256</duration>
    <instrument id="P2-I1" />
    <voice>4</voice>
    <type>quarter</type>
    <stem>down</stem>
    <staff>1</staff>
   </note>
   <note color="#000000" default-x="139" default-y="-62">
    <pitch>
     <step>A</step>
     <octave>2</octave>
    </pitch>
    <duration>512</duration>
    <instrument id="P2-I1" />
    <voice>4</voice>
    <type>half</type>
    <stem>down</stem>
    <staff>1</staff>
   </note>
  </measure>
  <!--============== Part: P2, Measure: 4 ==============-->
  <measure number="4" width="322">
   <print new-system="yes">
    <system-layout>
     <system-margins>
      <left-margin>1</left-margin>
      <right-margin>0</right-margin>
     </system-margins>
    </system-layout>
    <staff-layout number="1">
     <staff-distance>177</staff-distance>
    </staff-layout>
   </print>
   <attributes>
    <staff-details number="1" print-object="yes" />
   </attributes>
   <barline location="left">
    <ending number="1" type="start" print-object="no" />
   </barline>
   <note color="#000000" default-x="82" default-y="-35">
    <pitch>
     <step>A</step>
     <octave>3</octave>
    </pitch>
    <duration>256</duration>
    <instrument id="P2-I1" />
    <voice>3</voice>
    <type>quarter</type>
    <stem>down</stem>
    <staff>1</staff>
   </note>
   <note color="#000000" default-x="141" default-y="-30">
    <pitch>
     <step>B</step>
     <octave>3</octave>
    </pitch>
    <duration>256</duration>
    <instrument id="P2-I1" />
    <voice>3</voice>
    <type>quarter</type>
    <stem>down</stem>
    <staff>1</staff>
   </note>
   <note color="#000000" default-x="200" default-y="-35">
    <pitch>
     <step>A</step>
     <octave>3</octave>
    </pitch>
    <duration>256</duration>
    <instrument id="P2-I1" />
    <voice>3</voice>
    <type>quarter</type>
    <stem>down</stem>
    <staff>1</staff>
   </note>
   <note color="#000000" default-x="259" default-y="-45">
    <pitch>
     <step>F</step>
     <alter>1</alter>
     <octave>3</octave>
    </pitch>
    <duration>256</duration>
    <instrument id="P2-I1" />
    <voice>3</voice>
    <type>quarter</type>
    <stem>down</stem>
    <staff>1</staff>
   </note>
   <backup>
    <duration>1024</duration>
   </backup>
   <note color="#000000" default-x="82" default-y="-55">
    <pitch>
     <step>D</step>
     <octave>3</octave>
    </pitch>
    <duration>256</duration>
    <instrument id="P2-I1" />
    <voice>4</voice>
    <type>quarter</type>
    <stem>down</stem>
    <staff>1</staff>
   </note>
   <note color="#000000" default-x="141" default-y="-60">
    <pitch>
     <step>B</step>
     <octave>2</octave>
    </pitch>
    <duration>256</duration>
    <instrument id="P2-I1" />
    <voice>4</voice>
    <type>quarter</type>
    <stem>down</stem>
    <staff>1</staff>
   </note>
   <note color="#000000" default-x="200" default-y="-57">
    <pitch>
     <step>C</step>
     <alter>1</alter>
     <octave>3</octave>
    </pitch>
    <duration>256</duration>
    <instrument id="P2-I1" />
    <voice>4</voice>
    <type>quarter</type>
    <stem>down</stem>
    <staff>1</staff>
   </note>
   <note color="#000000" default-x="259" default-y="-55">
    <pitch>
     <step>D</step>
     <alter>1</alter>
     <octave>3</octave>
    </pitch>
    <duration>256</duration>
    <instrument id="P2-I1" />
    <voice>4</voice>
    <type>quarter</type>
    <accidental>sharp</accidental>
    <stem>down</stem>
    <staff>1</staff>
   </note>
  </measure>
  <!--============== Part: P2, Measure: 5 ==============-->
  <measure number="5" width="251">
   <forward>
    <duration>128</duration>
   </forward>
   <direction>
    <direction-type>
     <words default-x="60" default-y="-239" justify="left" valign="middle" font-family="Times New Roman" font-style="normal" font-size="10.9974" font-weight="normal">5 Holy Spirit, peace divine,</words>
     <words justify="left" valign="middle" font-family="Times New Roman" font-style="normal" font-size="10.9974" font-weight="normal">still this restless heart of mine.</words>
     <words justify="left" valign="middle" font-family="Times New Roman" font-style="normal" font-size="10.9974" font-weight="normal">Speak to calm this tossing sea,</words>
     <words justify="left" valign="middle" font-family="Times New Roman" font-style="normal" font-size="10.9974" font-weight="normal">grant me your tranquility.</words>
     <words justify="left" valign="middle" font-family="Times New Roman" font-style="normal" font-size="10.9974" font-weight="normal">6 Holy Spirit, joy divine,</words>
     <words justify="left" valign="middle" font-family="Times New Roman" font-style="normal" font-size="10.9974" font-weight="normal">gladden now this heart of mine.</words>
     <words justify="left" valign="middle" font-family="Times New Roman" font-style="normal" font-size="10.9974" font-weight="normal">In the desert ways I sing</words>
     <words justify="left" valign="middle" font-family="Times New Roman" font-style="normal" font-size="10.9974" font-weight="normal">spring, O Living Water, spring!</words>
    </direction-type>
    <voice>1</voice>
    <staff>1</staff>
   </direction>
   <backup>
    <duration>128</duration>
   </backup>
   <note color="#000000" default-x="15" default-y="-40">
    <pitch>
     <step>G</step>
     <octave>3</octave>
    </pitch>
    <duration>256</duration>
    <instrument id="P2-I1" />
    <voice>3</voice>
    <type>quarter</type>
    <stem>down</stem>
    <staff>1</staff>
   </note>
   <note color="#000000" default-x="100" default-y="27">
    <pitch>
     <step>A</step>
     <octave>3</octave>
    </pitch>
    <duration>256</duration>
    <instrument id="P2-I1" />
    <voice>3</voice>
    <type>quarter</type>
    <stem>up</stem>
    <staff>1</staff>
   </note>
   <note color="#000000" default-x="185" default-y="27">
    <pitch>
     <step>A</step>
     <octave>3</octave>
    </pitch>
    <duration>512</duration>
    <instrument id="P2-I1" />
    <voice>3</voice>
    <type>half</type>
    <stem>up</stem>
    <staff>1</staff>
   </note>
   <backup>
    <duration>1024</duration>
   </backup>
   <note color="#000000" default-x="15" default-y="-50">
    <pitch>
     <step>E</step>
     <octave>3</octave>
    </pitch>
    <duration>256</duration>
    <instrument id="P2-I1" />
    <voice>4</voice>
    <type>quarter</type>
    <stem>down</stem>
    <staff>1</staff>
   </note>
   <note color="#000000" default-x="100" default-y="-42">
    <pitch>
     <step>F</step>
     <alter>1</alter>
     <octave>3</octave>
    </pitch>
    <duration>128</duration>
    <instrument id="P2-I1" />
    <voice>4</voice>
    <type>eighth</type>
    <stem>down</stem>
    <staff>1</staff>
    <beam number="1">begin</beam>
   </note>
   <note color="#000000" default-x="142" default-y="-42">
    <pitch>
     <step>G</step>
     <octave>3</octave>
    </pitch>
    <duration>128</duration>
    <instrument id="P2-I1" />
    <voice>4</voice>
    <type>eighth</type>
    <stem>down</stem>
    <staff>1</staff>
    <beam number="1">end</beam>
   </note>
   <note color="#000000" default-x="185" default-y="-35">
    <pitch>
     <step>A</step>
     <octave>3</octave>
    </pitch>
    <duration>512</duration>
    <instrument id="P2-I1" />
    <voice>4</voice>
    <type>half</type>
    <stem>down</stem>
    <staff>1</staff>
   </note>
  </measure>
  <!--============== Part: P2, Measure: 6 ==============-->
  <measure number="6" width="276">
   <note color="#000000" default-x="15" default-y="-35">
    <pitch>
     <step>A</step>
     <octave>3</octave>
    </pitch>
    <duration>256</duration>
    <instrument id="P2-I1" />
    <voice>3</voice>
    <type>quarter</type>
    <stem>down</stem>
    <staff>1</staff>
   </note>
   <note color="#000000" default-x="73" default-y="23">
    <pitch>
     <step>A</step>
     <octave>3</octave>
    </pitch>
    <duration>256</duration>
    <instrument id="P2-I1" />
    <voice>3</voice>
    <type>quarter</type>
    <stem>up</stem>
    <staff>1</staff>
   </note>
   <note color="#000000" default-x="159" default-y="-40">
    <pitch>
     <step>G</step>
     <octave>3</octave>
    </pitch>
    <duration>256</duration>
    <instrument id="P2-I1" />
    <voice>3</voice>
    <type>quarter</type>
    <stem>down</stem>
    <staff>1</staff>
   </note>
   <note color="#000000" default-x="217" default-y="-45">
    <pitch>
     <step>F</step>
     <alter>1</alter>
     <octave>3</octave>
    </pitch>
    <duration>256</duration>
    <instrument id="P2-I1" />
    <voice>3</voice>
    <type>quarter</type>
    <stem>down</stem>
    <staff>1</staff>
   </note>
   <backup>
    <duration>1024</duration>
   </backup>
   <note color="#000000" default-x="15" default-y="-57">
    <pitch>
     <step>C</step>
     <alter>1</alter>
     <octave>3</octave>
    </pitch>
    <duration>256</duration>
    <instrument id="P2-I1" />
    <voice>4</voice>
    <type>quarter</type>
    <stem>down</stem>
    <staff>1</staff>
   </note>
   <note color="#000000" default-x="73" default-y="-52">
    <pitch>
     <step>C</step>
     <alter>1</alter>
     <octave>3</octave>
    </pitch>
    <duration>128</duration>
    <instrument id="P2-I1" />
    <voice>4</voice>
    <type>eighth</type>
    <stem>down</stem>
    <staff>1</staff>
    <beam number="1">begin</beam>
   </note>
   <note color="#000000" default-x="116" default-y="-52">
    <pitch>
     <step>D</step>
     <octave>3</octave>
    </pitch>
    <duration>128</duration>
    <instrument id="P2-I1" />
    <voice>4</voice>
    <type>eighth</type>
    <stem>down</stem>
    <staff>1</staff>
    <beam number="1">end</beam>
   </note>
   <note color="#000000" default-x="159" default-y="-62">
    <pitch>
     <step>A</step>
     <octave>2</octave>
    </pitch>
    <duration>256</duration>
    <instrument id="P2-I1" />
    <voice>4</voice>
    <type>quarter</type>
    <stem>down</stem>
    <staff>1</staff>
   </note>
   <note color="#000000" default-x="217" default-y="-60">
    <pitch>
     <step>B</step>
     <octave>2</octave>
    </pitch>
    <duration>256</duration>
    <instrument id="P2-I1" />
    <voice>4</voice>
    <type>quarter</type>
    <stem>down</stem>
    <staff>1</staff>
   </note>
  </measure>
  <!--============== Part: P2, Measure: 7 ==============-->
  <measure number="7" width="198">
   <note color="#000000" default-x="15" default-y="-57">
    <pitch>
     <step>B</step>
     <octave>3</octave>
    </pitch>
    <duration>256</duration>
    <instrument id="P2-I1" />
    <voice>3</voice>
    <type>quarter</type>
    <stem>down</stem>
    <staff>1</staff>
   </note>
   <note color="#000000" default-x="73" default-y="-35">
    <pitch>
     <step>A</step>
     <octave>3</octave>
    </pitch>
    <duration>256</duration>
    <instrument id="P2-I1" />
    <voice>3</voice>
    <type>quarter</type>
    <stem>down</stem>
    <staff>1</staff>
   </note>
   <note color="#000000" default-x="132" default-y="-45">
    <pitch>
     <step>F</step>
     <alter>1</alter>
     <octave>3</octave>
    </pitch>
    <duration>512</duration>
    <instrument id="P2-I1" />
    <voice>3</voice>
    <type>half</type>
    <stem>down</stem>
    <staff>1</staff>
   </note>
   <barline location="right">
    <bar-style>light-heavy</bar-style>
    <ending number="1" type="stop" print-object="no" />
   </barline>
   <backup>
    <duration>1024</duration>
   </backup>
   <note color="#000000" default-x="15" default-y="-67">
    <pitch>
     <step>G</step>
     <octave>2</octave>
    </pitch>
    <duration>256</duration>
    <instrument id="P2-I1" />
    <voice>4</voice>
    <type>quarter</type>
    <stem>down</stem>
    <staff>1</staff>
   </note>
   <note color="#000000" default-x="73" default-y="-62">
    <pitch>
     <step>A</step>
     <octave>2</octave>
    </pitch>
    <duration>256</duration>
    <instrument id="P2-I1" />
    <voice>4</voice>
    <type>quarter</type>
    <stem>down</stem>
    <staff>1</staff>
   </note>
   <note color="#000000" default-x="132" default-y="-55">
    <pitch>
     <step>D</step>
     <octave>3</octave>
    </pitch>
    <duration>512</duration>
    <instrument id="P2-I1" />
    <voice>4</voice>
    <type>half</type>
    <stem>down</stem>
    <staff>1</staff>
   </note>
  </measure>
 </part>
</score-partwise>
