<?xml version="1.0" encoding='UTF-8' standalone='no' ?>
<!DOCTYPE score-partwise PUBLIC "-//Recordare//DTD MusicXML 3.0 Partwise//EN" "http://www.musicxml.org/dtds/partwise.dtd">
<score-partwise version="3.0">
 <work>
  <work-title>Where Cross the Crowded Ways of Life</work-title>
 </work>
 <identification>
  <rights> 
Hymnary.org </rights>
  <encoding>
   <encoding-date>2013-05-07</encoding-date>
   <encoder>Brian</encoder>
   <software>Sibelius 7.1.3</software>
   <software>Direct export, not from Dolet</software>
   <encoding-description>Sibelius / MusicXML 3.0</encoding-description>
   <supports element="print" type="yes" value="yes" attribute="new-system" />
   <supports element="print" type="yes" value="yes" attribute="new-page" />
   <supports element="accidental" type="yes" />
   <supports element="beam" type="yes" />
   <supports element="stem" type="yes" />
  </encoding>
 </identification>
 <defaults>
  <scaling>
   <millimeters>149.098</millimeters>
   <tenths>955</tenths>
  </scaling>
  <page-layout>
   <page-height>1140</page-height>
   <page-width>955</page-width>
   <page-margins type="both">
    <left-margin>112</left-margin>
    <right-margin>112</right-margin>
    <top-margin>81</top-margin>
    <bottom-margin>81</bottom-margin>
   </page-margins>
  </page-layout>
  <system-layout>
   <system-distance>40</system-distance>
  </system-layout>
  <appearance>
   <line-width type="stem">0.9375</line-width>
   <line-width type="beam">5</line-width>
   <line-width type="staff">0.9375</line-width>
   <line-width type="light barline">1.5625</line-width>
   <line-width type="heavy barline">5</line-width>
   <line-width type="leger">1.5625</line-width>
   <line-width type="ending">1.5625</line-width>
   <line-width type="wedge">1.25</line-width>
   <line-width type="enclosure">0.9375</line-width>
   <line-width type="tuplet bracket">1.25</line-width>
   <line-width type="bracket">5</line-width>
   <line-width type="dashes">1.5625</line-width>
   <line-width type="extend">0.9375</line-width>
   <line-width type="octave shift">1.5625</line-width>
   <line-width type="pedal">1.5625</line-width>
   <line-width type="slur middle">1.5625</line-width>
   <line-width type="slur tip">0.625</line-width>
   <line-width type="tie middle">1.5625</line-width>
   <line-width type="tie tip">0.625</line-width>
   <note-size type="cue">75</note-size>
   <note-size type="grace">60</note-size>
  </appearance>
  <music-font font-family="Opus Std" font-size="17.6825" />
  <lyric-font font-family="Times New Roman" font-size="9.9464" />
  <lyric-language xml:lang="en" />
 </defaults>
 <credit page="1">
  <credit-words default-x="477" default-y="90" font-family="Times New Roman" font-style="normal" font-size="20.031" font-weight="normal" justify="center" valign="middle">Where Cross the Crowded Ways of Life</credit-words>
 </credit>
 <credit page="1">
  <credit-words default-x="477" default-y="111" font-family="Times New Roman" font-style="normal" font-size="4.9732" font-weight="normal" justify="center" valign="middle"> 
Hymnary.org </credit-words>
 </credit>
 <part-list>
  <score-part id="P1">
   <part-name>Piano</part-name>
   <part-name-display>
    <display-text>Piano</display-text>
   </part-name-display>
   <part-abbreviation>Pno.</part-abbreviation>
   <part-abbreviation-display>
    <display-text>Pno.</display-text>
   </part-abbreviation-display>
   <score-instrument id="P1-I1">
    <instrument-name>Piano (2)</instrument-name>
    <instrument-sound>keyboard.piano.grand</instrument-sound>
    <solo />
    <virtual-instrument>
     <virtual-library>General MIDI</virtual-library>
     <virtual-name>Acoustic Piano</virtual-name>
    </virtual-instrument>
   </score-instrument>
  </score-part>
 </part-list>
 <part id="P1">
  <!--============== Part: P1, Measure: 1 ==============-->
  <measure number="1" width="270">
   <print new-page="yes">
    <system-layout>
     <system-margins>
      <left-margin>0</left-margin>
      <right-margin>0</right-margin>
     </system-margins>
     <top-system-distance>163</top-system-distance>
    </system-layout>
   </print>
   <attributes>
    <divisions>256</divisions>
    <key color="#000000">
     <fifths>-4</fifths>
     <mode>major</mode>
    </key>
    <time color="#000000">
     <beats>3</beats>
     <beat-type>4</beat-type>
    </time>
    <staves>1</staves>
    <clef number="1" color="#000000">
     <sign>G</sign>
     <line>2</line>
    </clef>
    <staff-details number="1" print-object="yes" />
   </attributes>
   <note color="#000000" default-x="120" default-y="-5">
    <pitch>
     <step>E</step>
     <alter>-1</alter>
     <octave>4</octave>
    </pitch>
    <duration>256</duration>
    <instrument id="P1-I1" />
    <voice>1</voice>
    <type>quarter</type>
    <stem>up</stem>
    <staff>1</staff>
    <lyric default-y="-91" number="part1verse1" color="#000000">
     <syllabic>single</syllabic>
     <text>1 Where</text>
    </lyric>
    <lyric default-y="-116" number="part1verse2" color="#000000">
     <syllabic>single</syllabic>
     <text>2 In</text>
    </lyric>
    <lyric default-y="-141" number="part1verse0" color="#000000">
     <syllabic>single</syllabic>
     <text>3 The</text>
    </lyric>
    <lyric default-y="-166" number="part1verse0" color="#000000">
     <syllabic>single</syllabic>
     <text>4 O</text>
    </lyric>
    <lyric default-y="-191" number="part1verse0" color="#000000">
     <syllabic>single</syllabic>
     <text>5 Till</text>
    </lyric>
   </note>
   <note color="#000000" default-x="195" default-y="10">
    <pitch>
     <step>A</step>
     <alter>-1</alter>
     <octave>4</octave>
    </pitch>
    <duration>256</duration>
    <instrument id="P1-I1" />
    <voice>1</voice>
    <type>quarter</type>
    <stem>up</stem>
    <staff>1</staff>
    <lyric default-y="-91" number="part1verse1" color="#000000">
     <syllabic>single</syllabic>
     <text>cross</text>
    </lyric>
    <lyric default-y="-116" number="part1verse2" color="#000000">
     <syllabic>single</syllabic>
     <text>haunts</text>
    </lyric>
    <lyric default-y="-141" number="part1verse0" color="#000000">
     <syllabic>single</syllabic>
     <text>cup</text>
    </lyric>
    <lyric default-y="-166" number="part1verse0" color="#000000">
     <syllabic>begin</syllabic>
     <text>Mas</text>
    </lyric>
    <lyric default-y="-191" number="part1verse0" color="#000000">
     <syllabic>end</syllabic>
     <text>all</text>
    </lyric>
   </note>
   <note color="#000000" default-x="242" default-y="5">
    <pitch>
     <step>G</step>
     <octave>4</octave>
    </pitch>
    <duration>256</duration>
    <instrument id="P1-I1" />
    <voice>1</voice>
    <type>quarter</type>
    <stem>up</stem>
    <staff>1</staff>
    <lyric default-y="-91" number="part1verse1" color="#000000">
     <syllabic>single</syllabic>
     <text>the</text>
    </lyric>
    <lyric default-y="-116" number="part1verse2" color="#000000">
     <syllabic>single</syllabic>
     <text>of</text>
    </lyric>
    <lyric default-y="-141" number="part1verse0" color="#000000">
     <syllabic>single</syllabic>
     <text>of</text>
    </lyric>
    <lyric default-y="-166" number="part1verse0" color="#000000">
     <syllabic>single</syllabic>
     <text>ter,</text>
    </lyric>
    <lyric default-y="-191" number="part1verse0" color="#000000">
     <syllabic>single</syllabic>
     <text>the</text>
    </lyric>
   </note>
  </measure>
  <!--============== Part: P1, Measure: 2 ==============-->
  <measure number="2" width="111">
   <note color="#000000" default-x="15" default-y="10">
    <pitch>
     <step>A</step>
     <alter>-1</alter>
     <octave>4</octave>
    </pitch>
    <duration>512</duration>
    <instrument id="P1-I1" />
    <voice>1</voice>
    <type>half</type>
    <stem>up</stem>
    <staff>1</staff>
    <lyric default-y="-91" number="part1verse1" color="#000000">
     <syllabic>begin</syllabic>
     <text>crow</text>
    </lyric>
    <lyric default-y="-116" number="part1verse2" color="#000000">
     <syllabic>begin</syllabic>
     <text>wret</text>
    </lyric>
    <lyric default-y="-141" number="part1verse0" color="#000000">
     <syllabic>begin</syllabic>
     <text>wa</text>
    </lyric>
    <lyric default-y="-166" number="part1verse0" color="#000000">
     <syllabic>end</syllabic>
     <text>from</text>
    </lyric>
    <lyric default-y="-191" number="part1verse0" color="#000000">
     <syllabic>single</syllabic>
     <text>world</text>
    </lyric>
   </note>
   <note color="#000000" default-x="73" default-y="-55">
    <pitch>
     <step>B</step>
     <alter>-1</alter>
     <octave>4</octave>
    </pitch>
    <duration>256</duration>
    <instrument id="P1-I1" />
    <voice>1</voice>
    <type>quarter</type>
    <stem>down</stem>
    <staff>1</staff>
    <lyric default-y="-91" number="part1verse1" color="#000000">
     <syllabic>end</syllabic>
     <text>ded</text>
    </lyric>
    <lyric default-y="-116" number="part1verse2" color="#000000">
     <syllabic>middle</syllabic>
     <text>ched</text>
    </lyric>
    <lyric default-y="-141" number="part1verse0" color="#000000">
     <syllabic>single</syllabic>
     <text>ter</text>
    </lyric>
    <lyric default-y="-166" number="part1verse0" color="#000000">
     <syllabic>single</syllabic>
     <text>the</text>
    </lyric>
    <lyric default-y="-191" number="part1verse0" color="#000000">
     <syllabic>single</syllabic>
     <text>shall</text>
    </lyric>
   </note>
  </measure>
  <!--============== Part: P1, Measure: 3 ==============-->
  <measure number="3" width="120">
   <note color="#000000" default-x="15" default-y="-5">
    <pitch>
     <step>E</step>
     <alter>-1</alter>
     <octave>4</octave>
    </pitch>
    <duration>256</duration>
    <instrument id="P1-I1" />
    <voice>1</voice>
    <type>quarter</type>
    <stem>up</stem>
    <staff>1</staff>
    <notations>
     <slur color="#000000" type="start" orientation="under" />
    </notations>
    <lyric default-y="-91" number="part1verse1" color="#000000">
     <syllabic>single</syllabic>
     <text>ways</text>
     <extend />
    </lyric>
    <lyric default-y="-116" number="part1verse2" color="#000000">
     <syllabic>end</syllabic>
     <text>ness</text>
     <extend />
    </lyric>
    <lyric default-y="-141" number="part1verse0" color="#000000">
     <syllabic>single</syllabic>
     <text>given</text>
     <extend />
    </lyric>
    <lyric default-y="-166" number="part1verse0" color="#000000">
     <syllabic>begin</syllabic>
     <text>moun</text>
    </lyric>
    <lyric default-y="-191" number="part1verse0" color="#000000">
     <syllabic>end</syllabic>
     <text>learn</text>
     <extend />
    </lyric>
   </note>
   <note color="#000000" default-x="50">
    <pitch>
     <step>F</step>
     <octave>4</octave>
    </pitch>
    <duration>256</duration>
    <instrument id="P1-I1" />
    <voice>1</voice>
    <type>quarter</type>
    <stem>up</stem>
    <staff>1</staff>
    <notations>
     <slur color="#000000" type="stop" orientation="under" />
    </notations>
   </note>
   <note color="#000000" default-x="85" default-y="5">
    <pitch>
     <step>G</step>
     <octave>4</octave>
    </pitch>
    <duration>256</duration>
    <instrument id="P1-I1" />
    <voice>1</voice>
    <type>quarter</type>
    <stem>up</stem>
    <staff>1</staff>
    <lyric default-y="-91" number="part1verse1" color="#000000">
     <syllabic>single</syllabic>
     <text>of</text>
    </lyric>
    <lyric default-y="-116" number="part1verse2" color="#000000">
     <syllabic>single</syllabic>
     <text>and</text>
    </lyric>
    <lyric default-y="-141" number="part1verse0" color="#000000">
     <syllabic>single</syllabic>
     <text>for</text>
    </lyric>
    <lyric default-y="-166" number="part1verse0" color="#000000">
     <syllabic>begin</syllabic>
     <text>tain</text>
    </lyric>
    <lyric default-y="-191" number="part1verse0" color="#000000">
     <syllabic>end</syllabic>
     <text>your</text>
    </lyric>
   </note>
  </measure>
  <!--============== Part: P1, Measure: 4 ==============-->
  <measure number="4" width="60">
   <note color="#000000" default-x="15" default-y="10">
    <pitch>
     <step>A</step>
     <alter>-1</alter>
     <octave>4</octave>
    </pitch>
    <duration>768</duration>
    <instrument id="P1-I1" />
    <voice>1</voice>
    <type>half</type>
    <dot />
    <stem>up</stem>
    <staff>1</staff>
    <lyric default-y="-91" number="part1verse1" color="#000000">
     <syllabic>single</syllabic>
     <text>life,</text>
    </lyric>
    <lyric default-y="-116" number="part1verse2" color="#000000">
     <syllabic>single</syllabic>
     <text>need,</text>
    </lyric>
    <lyric default-y="-141" number="part1verse0" color="#000000">
     <syllabic>single</syllabic>
     <text>you</text>
    </lyric>
    <lyric default-y="-166" number="part1verse0" color="#000000">
     <syllabic>single</syllabic>
     <text>side,</text>
    </lyric>
    <lyric default-y="-191" number="part1verse0" color="#000000">
     <syllabic>single</syllabic>
     <text>love</text>
    </lyric>
   </note>
  </measure>
  <!--============== Part: P1, Measure: 5 ==============-->
  <measure number="5" width="168">
   <note color="#000000" default-x="15" default-y="10">
    <pitch>
     <step>A</step>
     <alter>-1</alter>
     <octave>4</octave>
    </pitch>
    <duration>256</duration>
    <instrument id="P1-I1" />
    <voice>1</voice>
    <type>quarter</type>
    <stem>up</stem>
    <staff>1</staff>
    <lyric default-y="-91" number="part1verse1" color="#000000">
     <syllabic>single</syllabic>
     <text>where</text>
    </lyric>
    <lyric default-y="-116" number="part1verse2" color="#000000">
     <syllabic>single</syllabic>
     <text>on</text>
    </lyric>
    <lyric default-y="-141" number="part1verse0" color="#000000">
     <syllabic>single</syllabic>
     <text>still</text>
    </lyric>
    <lyric default-y="-166" number="part1verse0" color="#000000">
     <syllabic>single</syllabic>
     <text>make</text>
    </lyric>
    <lyric default-y="-191" number="part1verse0" color="#000000">
     <syllabic>single</syllabic>
     <text>and</text>
    </lyric>
   </note>
   <note color="#000000" default-x="76" default-y="5">
    <pitch>
     <step>G</step>
     <octave>4</octave>
    </pitch>
    <duration>256</duration>
    <instrument id="P1-I1" />
    <voice>1</voice>
    <type>quarter</type>
    <stem>up</stem>
    <staff>1</staff>
    <lyric default-y="-91" number="part1verse1" color="#000000">
     <syllabic>single</syllabic>
     <text>sound</text>
    </lyric>
    <lyric default-y="-116" number="part1verse2" color="#000000">
     <syllabic>begin</syllabic>
     <text>sha</text>
    </lyric>
    <lyric default-y="-141" number="part1verse0" color="#000000">
     <syllabic>single</syllabic>
     <text>holds</text>
    </lyric>
    <lyric default-y="-166" number="part1verse0" color="#000000">
     <syllabic>single</syllabic>
     <text>haste</text>
    </lyric>
    <lyric default-y="-191" number="part1verse0" color="#000000">
     <syllabic>begin</syllabic>
     <text>fol</text>
    </lyric>
   </note>
   <note color="#000000" default-x="131">
    <pitch>
     <step>F</step>
     <octave>4</octave>
    </pitch>
    <duration>256</duration>
    <instrument id="P1-I1" />
    <voice>1</voice>
    <type>quarter</type>
    <stem>up</stem>
    <staff>1</staff>
    <lyric default-y="-91" number="part1verse1" color="#000000">
     <syllabic>single</syllabic>
     <text>the</text>
    </lyric>
    <lyric default-y="-116" number="part1verse2" color="#000000">
     <syllabic>end</syllabic>
     <text>dowed</text>
    </lyric>
    <lyric default-y="-141" number="part1verse0" color="#000000">
     <syllabic>end</syllabic>
     <text>the</text>
    </lyric>
    <lyric default-y="-166" number="part1verse0" color="#000000">
     <syllabic>single</syllabic>
     <text>to</text>
    </lyric>
    <lyric default-y="-191" number="part1verse0" color="#000000">
     <syllabic>single</syllabic>
     <text>low</text>
    </lyric>
   </note>
  </measure>
  <!--============== Part: P1, Measure: 6 ==============-->
  <measure number="6" width="207">
   <print new-system="yes">
    <system-layout>
     <system-margins>
      <left-margin>0</left-margin>
      <right-margin>0</right-margin>
     </system-margins>
     <system-distance>250</system-distance>
    </system-layout>
   </print>
   <attributes>
    <staff-details number="1" print-object="yes" />
   </attributes>
   <note color="#000000" default-x="102" default-y="-55">
    <pitch>
     <step>B</step>
     <alter>-1</alter>
     <octave>4</octave>
    </pitch>
    <duration>512</duration>
    <instrument id="P1-I1" />
    <voice>1</voice>
    <type>half</type>
    <stem>down</stem>
    <staff>1</staff>
    <lyric default-y="-91" number="part1verse1" color="#000000">
     <syllabic>single</syllabic>
     <text>cries</text>
    </lyric>
    <lyric default-y="-116" number="part1verse2" color="#000000">
     <syllabic>begin</syllabic>
     <text>thre</text>
    </lyric>
    <lyric default-y="-141" number="part1verse0" color="#000000">
     <syllabic>begin</syllabic>
     <text>fresh</text>
    </lyric>
    <lyric default-y="-166" number="part1verse0" color="#000000">
     <syllabic>end</syllabic>
     <text>heal</text>
    </lyric>
    <lyric default-y="-191" number="part1verse0" color="#000000">
     <syllabic>single</syllabic>
     <text>where</text>
    </lyric>
   </note>
   <note color="#000000" default-x="168" default-y="5">
    <pitch>
     <step>G</step>
     <octave>4</octave>
    </pitch>
    <duration>256</duration>
    <instrument id="P1-I1" />
    <voice>1</voice>
    <type>quarter</type>
    <stem>up</stem>
    <staff>1</staff>
    <lyric default-y="-91" number="part1verse1" color="#000000">
     <syllabic>single</syllabic>
     <text>of</text>
    </lyric>
    <lyric default-y="-116" number="part1verse2" color="#000000">
     <syllabic>end</syllabic>
     <text>sholds</text>
    </lyric>
    <lyric default-y="-141" number="part1verse0" color="#000000">
     <syllabic>single</syllabic>
     <text>ness</text>
    </lyric>
    <lyric default-y="-166" number="part1verse0" color="#000000">
     <syllabic>single</syllabic>
     <text>these</text>
    </lyric>
    <lyric default-y="-191" number="part1verse0" color="#000000">
     <syllabic>single</syllabic>
     <text>your</text>
    </lyric>
   </note>
  </measure>
  <!--============== Part: P1, Measure: 7 ==============-->
  <measure number="7" width="150">
   <note color="#000000" default-x="15" default-y="-20">
    <pitch>
     <step>G</step>
     <octave>4</octave>
    </pitch>
    <duration>128</duration>
    <instrument id="P1-I1" />
    <voice>1</voice>
    <type>eighth</type>
    <stem>up</stem>
    <staff>1</staff>
    <notations>
     <slur color="#000000" type="start" orientation="under" />
    </notations>
    <lyric default-y="-91" number="part1verse1" color="#000000">
     <syllabic>single</syllabic>
     <text>race</text>
     <extend />
    </lyric>
    <lyric default-y="-116" number="part1verse2" color="#000000">
     <syllabic>single</syllabic>
     <text>fraught</text>
     <extend />
    </lyric>
    <lyric default-y="-141" number="part1verse0" color="#000000">
     <syllabic>single</syllabic>
     <text>of</text>
     <extend />
    </lyric>
    <lyric default-y="-166" number="part1verse0" color="#000000">
     <syllabic>single</syllabic>
     <text>hearts</text>
     <extend />
    </lyric>
    <lyric default-y="-191" number="part1verse0" color="#000000">
     <syllabic>single</syllabic>
     <text>feet</text>
     <extend />
    </lyric>
   </note>
   <note color="#000000" default-x="43" default-y="-20">
    <pitch>
     <step>F</step>
     <octave>4</octave>
    </pitch>
    <duration>128</duration>
    <instrument id="P1-I1" />
    <voice>1</voice>
    <type>eighth</type>
    <stem>up</stem>
    <staff>1</staff>
   </note>
   <note color="#000000" default-x="71" default-y="-5">
    <pitch>
     <step>E</step>
     <alter>-1</alter>
     <octave>4</octave>
    </pitch>
    <duration>256</duration>
    <instrument id="P1-I1" />
    <voice>1</voice>
    <type>quarter</type>
    <stem>up</stem>
    <staff>1</staff>
    <notations>
     <slur color="#000000" type="stop" orientation="under" />
    </notations>
   </note>
   <note color="#000000" default-x="110" default-y="-10">
    <pitch>
     <step>D</step>
     <octave>4</octave>
    </pitch>
    <duration>256</duration>
    <instrument id="P1-I1" />
    <voice>1</voice>
    <type>quarter</type>
    <accidental>natural</accidental>
    <stem>up</stem>
    <staff>1</staff>
    <lyric default-y="-91" number="part1verse1" color="#000000">
     <syllabic>single</syllabic>
     <text>and</text>
    </lyric>
    <lyric default-y="-116" number="part1verse2" color="#000000">
     <syllabic>single</syllabic>
     <text>with</text>
    </lyric>
    <lyric default-y="-141" number="part1verse0" color="#000000">
     <syllabic>single</syllabic>
     <text>your</text>
    </lyric>
    <lyric default-y="-166" number="part1verse0" color="#000000">
     <syllabic>single</syllabic>
     <text>of</text>
    </lyric>
    <lyric default-y="-191" number="part1verse0" color="#000000">
     <syllabic>single</syllabic>
     <text>have</text>
    </lyric>
   </note>
  </measure>
  <!--============== Part: P1, Measure: 8 ==============-->
  <measure number="8" width="120">
   <note color="#000000" default-x="15" default-y="-5">
    <pitch>
     <step>E</step>
     <alter>-1</alter>
     <octave>4</octave>
    </pitch>
    <duration>512</duration>
    <instrument id="P1-I1" />
    <voice>1</voice>
    <type>half</type>
    <stem>up</stem>
    <staff>1</staff>
    <lyric default-y="-91" number="part1verse1" color="#000000">
     <syllabic>single</syllabic>
     <text>clan,</text>
    </lyric>
    <lyric default-y="-116" number="part1verse2" color="#000000">
     <syllabic>single</syllabic>
     <text>fears,</text>
    </lyric>
    <lyric default-y="-141" number="part1verse0" color="#000000">
     <syllabic>single</syllabic>
     <text>grace;</text>
    </lyric>
    <lyric default-y="-166" number="part1verse0" color="#000000">
     <syllabic>single</syllabic>
     <text>pain;</text>
    </lyric>
    <lyric default-y="-191" number="part1verse0" color="#000000">
     <syllabic>single</syllabic>
     <text>trod:</text>
    </lyric>
   </note>
   <note color="#000000" default-x="81" default-y="-5">
    <pitch>
     <step>E</step>
     <alter>-1</alter>
     <octave>4</octave>
    </pitch>
    <duration>256</duration>
    <instrument id="P1-I1" />
    <voice>1</voice>
    <type>quarter</type>
    <stem>up</stem>
    <staff>1</staff>
    <lyric default-y="-91" number="part1verse1" color="#000000">
     <syllabic>begin</syllabic>
     <text>a</text>
    </lyric>
    <lyric default-y="-116" number="part1verse2" color="#000000">
     <syllabic>single</syllabic>
     <text>from</text>
    </lyric>
    <lyric default-y="-141" number="part1verse0" color="#000000">
     <syllabic>single</syllabic>
     <text>yet</text>
    </lyric>
    <lyric default-y="-166" number="part1verse0" color="#000000">
     <syllabic>begin</syllabic>
     <text>a</text>
    </lyric>
    <lyric default-y="-191" number="part1verse0" color="#000000">
     <syllabic>end</syllabic>
     <text>till</text>
    </lyric>
   </note>
  </measure>
  <!--============== Part: P1, Measure: 9 ==============-->
  <measure number="9" width="120">
   <note color="#000000" default-x="15" default-y="-5">
    <pitch>
     <step>E</step>
     <alter>-1</alter>
     <octave>4</octave>
    </pitch>
    <duration>512</duration>
    <instrument id="P1-I1" />
    <voice>1</voice>
    <type>half</type>
    <stem>up</stem>
    <staff>1</staff>
    <lyric default-y="-91" number="part1verse1" color="#000000">
     <syllabic>end</syllabic>
     <text>bove</text>
    </lyric>
    <lyric default-y="-116" number="part1verse2" color="#000000">
     <syllabic>single</syllabic>
     <text>paths</text>
    </lyric>
    <lyric default-y="-141" number="part1verse0" color="#000000">
     <syllabic>single</syllabic>
     <text>long</text>
    </lyric>
    <lyric default-y="-166" number="part1verse0" color="#000000">
     <syllabic>single</syllabic>
     <text>mong</text>
    </lyric>
    <lyric default-y="-191" number="part1verse0" color="#000000">
     <syllabic>begin</syllabic>
     <text>glo</text>
    </lyric>
   </note>
   <note color="#000000" default-x="81" default-y="10">
    <pitch>
     <step>A</step>
     <alter>-1</alter>
     <octave>4</octave>
    </pitch>
    <duration>256</duration>
    <instrument id="P1-I1" />
    <voice>1</voice>
    <type>quarter</type>
    <stem>up</stem>
    <staff>1</staff>
    <lyric default-y="-91" number="part1verse1" color="#000000">
     <syllabic>single</syllabic>
     <text>the</text>
    </lyric>
    <lyric default-y="-116" number="part1verse2" color="#000000">
     <syllabic>single</syllabic>
     <text>where</text>
    </lyric>
    <lyric default-y="-141" number="part1verse0" color="#000000">
     <syllabic>end</syllabic>
     <text>these</text>
    </lyric>
    <lyric default-y="-166" number="part1verse0" color="#000000">
     <syllabic>single</syllabic>
     <text>these</text>
    </lyric>
    <lyric default-y="-191" number="part1verse0" color="#000000">
     <syllabic>single</syllabic>
     <text>rious</text>
    </lyric>
   </note>
  </measure>
  <!--============== Part: P1, Measure: 10 ==============-->
  <measure number="10" width="132">
   <note color="#000000" default-x="15" default-y="10">
    <pitch>
     <step>A</step>
     <alter>-1</alter>
     <octave>4</octave>
    </pitch>
    <duration>256</duration>
    <instrument id="P1-I1" />
    <voice>1</voice>
    <type>quarter</type>
    <stem>up</stem>
    <staff>1</staff>
    <notations>
     <slur color="#000000" type="start" orientation="under" />
    </notations>
    <lyric default-y="-91" number="part1verse1" color="#000000">
     <syllabic>single</syllabic>
     <text>noise</text>
     <extend />
    </lyric>
    <lyric default-y="-116" number="part1verse2" color="#000000">
     <syllabic>single</syllabic>
     <text>hide</text>
     <extend />
    </lyric>
    <lyric default-y="-141" number="part1verse0" color="#000000">
     <syllabic>begin</syllabic>
     <text>mul</text>
    </lyric>
    <lyric default-y="-166" number="part1verse0" color="#000000">
     <syllabic>middle</syllabic>
     <text>re</text>
    </lyric>
    <lyric default-y="-191" number="part1verse0" color="#000000">
     <syllabic>end</syllabic>
     <text>from</text>
     <extend />
    </lyric>
   </note>
   <note color="#000000" default-x="54" default-y="5">
    <pitch>
     <step>G</step>
     <octave>4</octave>
    </pitch>
    <duration>256</duration>
    <instrument id="P1-I1" />
    <voice>1</voice>
    <type>quarter</type>
    <stem>up</stem>
    <staff>1</staff>
    <notations>
     <slur color="#000000" type="stop" orientation="under" />
    </notations>
   </note>
   <note color="#000000" default-x="93">
    <pitch>
     <step>F</step>
     <octave>4</octave>
    </pitch>
    <duration>256</duration>
    <instrument id="P1-I1" />
    <voice>1</voice>
    <type>quarter</type>
    <stem>up</stem>
    <staff>1</staff>
    <lyric default-y="-91" number="part1verse1" color="#000000">
     <syllabic>single</syllabic>
     <text>of</text>
    </lyric>
    <lyric default-y="-116" number="part1verse2" color="#000000">
     <syllabic>single</syllabic>
     <text>the</text>
    </lyric>
    <lyric default-y="-141" number="part1verse0" color="#000000">
     <syllabic>begin</syllabic>
     <text>ti</text>
    </lyric>
    <lyric default-y="-166" number="part1verse0" color="#000000">
     <syllabic>end</syllabic>
     <text>stless</text>
    </lyric>
    <lyric default-y="-191" number="part1verse0" color="#000000">
     <syllabic>single</syllabic>
     <text>your</text>
    </lyric>
   </note>
  </measure>
  <!--============== Part: P1, Measure: 11 ==============-->
  <measure number="11" width="193">
   <print new-system="yes">
    <system-layout>
     <system-margins>
      <left-margin>0</left-margin>
      <right-margin>0</right-margin>
     </system-margins>
     <system-distance>254</system-distance>
    </system-layout>
   </print>
   <attributes>
    <staff-details number="1" print-object="yes" />
   </attributes>
   <note color="#000000" default-x="102" default-y="-5">
    <pitch>
     <step>E</step>
     <alter>-1</alter>
     <octave>4</octave>
    </pitch>
    <duration>512</duration>
    <instrument id="P1-I1" />
    <voice>1</voice>
    <type>half</type>
    <stem>up</stem>
    <staff>1</staff>
    <lyric default-y="-91" number="part1verse1" color="#000000">
     <syllabic>begin</syllabic>
     <text>sel</text>
    </lyric>
    <lyric default-y="-116" number="part1verse2" color="#000000">
     <syllabic>single</syllabic>
     <text>lures</text>
    </lyric>
    <lyric default-y="-141" number="part1verse0" color="#000000">
     <syllabic>single</syllabic>
     <text>tudes</text>
    </lyric>
    <lyric default-y="-166" number="part1verse0" color="#000000">
     <syllabic>single</syllabic>
     <text>throngs</text>
    </lyric>
    <lyric default-y="-191" number="part1verse0" color="#000000">
     <syllabic>single</syllabic>
     <text>heaven</text>
    </lyric>
   </note>
   <note color="#000000" default-x="161" default-y="-50">
    <pitch>
     <step>C</step>
     <octave>5</octave>
    </pitch>
    <duration>256</duration>
    <instrument id="P1-I1" />
    <voice>1</voice>
    <type>quarter</type>
    <stem>down</stem>
    <staff>1</staff>
    <lyric default-y="-91" number="part1verse1" color="#000000">
     <syllabic>end</syllabic>
     <text>fish</text>
    </lyric>
    <lyric default-y="-116" number="part1verse2" color="#000000">
     <syllabic>single</syllabic>
     <text>of</text>
    </lyric>
    <lyric default-y="-141" number="part1verse0" color="#000000">
     <syllabic>single</syllabic>
     <text>to</text>
    </lyric>
    <lyric default-y="-166" number="part1verse0" color="#000000">
     <syllabic>begin</syllabic>
     <text>a</text>
    </lyric>
    <lyric default-y="-191" number="part1verse0" color="#000000">
     <syllabic>middle</syllabic>
     <text>a</text>
    </lyric>
   </note>
  </measure>
  <!--============== Part: P1, Measure: 12 ==============-->
  <measure number="12" width="119">
   <note color="#000000" default-x="15" default-y="-50">
    <pitch>
     <step>C</step>
     <octave>5</octave>
    </pitch>
    <duration>256</duration>
    <instrument id="P1-I1" />
    <voice>1</voice>
    <type>quarter</type>
    <stem>down</stem>
    <staff>1</staff>
    <notations>
     <slur color="#000000" type="start" orientation="over" />
    </notations>
    <lyric default-y="-91" number="part1verse1" color="#000000">
     <syllabic>single</syllabic>
     <text>strife</text>
     <extend />
    </lyric>
    <lyric default-y="-116" number="part1verse2" color="#000000">
     <syllabic>single</syllabic>
     <text>greed</text>
     <extend />
    </lyric>
    <lyric default-y="-141" number="part1verse0" color="#000000">
     <syllabic>end</syllabic>
     <text>view</text>
     <extend />
    </lyric>
    <lyric default-y="-166" number="part1verse0" color="#000000">
     <syllabic>single</syllabic>
     <text>bide,</text>
     <extend />
    </lyric>
    <lyric default-y="-191" number="part1verse0" color="#000000">
     <syllabic>single</syllabic>
     <text>bove</text>
     <extend />
    </lyric>
   </note>
   <note color="#000000" default-x="50" default-y="-55">
    <pitch>
     <step>B</step>
     <alter>-1</alter>
     <octave>4</octave>
    </pitch>
    <duration>256</duration>
    <instrument id="P1-I1" />
    <voice>1</voice>
    <type>quarter</type>
    <stem>down</stem>
    <staff>1</staff>
    <notations>
     <slur color="#000000" type="stop" orientation="over" />
    </notations>
   </note>
   <note color="#000000" default-x="85" default-y="10">
    <pitch>
     <step>A</step>
     <alter>-1</alter>
     <octave>4</octave>
    </pitch>
    <duration>256</duration>
    <instrument id="P1-I1" />
    <voice>1</voice>
    <type>quarter</type>
    <stem>up</stem>
    <staff>1</staff>
    <lyric default-y="-91" number="part1verse1" color="#000000">
     <syllabic>single</syllabic>
     <text>we</text>
    </lyric>
    <lyric default-y="-116" number="part1verse2" color="#000000">
     <syllabic>single</syllabic>
     <text>we</text>
    </lyric>
    <lyric default-y="-141" number="part1verse0" color="#000000">
     <syllabic>single</syllabic>
     <text>the</text>
    </lyric>
    <lyric default-y="-166" number="part1verse0" color="#000000">
     <syllabic>single</syllabic>
     <text>O</text>
    </lyric>
    <lyric default-y="-191" number="part1verse0" color="#000000">
     <syllabic>single</syllabic>
     <text>shall</text>
    </lyric>
   </note>
  </measure>
  <!--============== Part: P1, Measure: 13 ==============-->
  <measure number="13" width="108">
   <note color="#000000" default-x="15" default-y="5">
    <pitch>
     <step>G</step>
     <octave>4</octave>
    </pitch>
    <duration>512</duration>
    <instrument id="P1-I1" />
    <voice>1</voice>
    <type>half</type>
    <stem>up</stem>
    <staff>1</staff>
    <lyric default-y="-91" number="part1verse1" color="#000000">
     <syllabic>single</syllabic>
     <text>hear</text>
    </lyric>
    <lyric default-y="-116" number="part1verse2" color="#000000">
     <syllabic>single</syllabic>
     <text>catch</text>
    </lyric>
    <lyric default-y="-141" number="part1verse0" color="#000000">
     <syllabic>single</syllabic>
     <text>strong</text>
    </lyric>
    <lyric default-y="-166" number="part1verse0" color="#000000">
     <syllabic>single</syllabic>
     <text>tread</text>
    </lyric>
    <lyric default-y="-191" number="part1verse0" color="#000000">
     <syllabic>single</syllabic>
     <text>come</text>
    </lyric>
   </note>
   <note color="#000000" default-x="72" default-y="20">
    <pitch>
     <step>D</step>
     <alter>-1</alter>
     <octave>5</octave>
    </pitch>
    <duration>256</duration>
    <instrument id="P1-I1" />
    <voice>1</voice>
    <type>quarter</type>
    <stem>up</stem>
    <staff>1</staff>
    <lyric default-y="-91" number="part1verse1" color="#000000">
     <syllabic>single</syllabic>
     <text>your</text>
    </lyric>
    <lyric default-y="-116" number="part1verse2" color="#000000">
     <syllabic>single</syllabic>
     <text>the</text>
    </lyric>
    <lyric default-y="-141" number="part1verse0" color="#000000">
     <syllabic>begin</syllabic>
     <text>com</text>
    </lyric>
    <lyric default-y="-166" number="part1verse0" color="#000000">
     <syllabic>end</syllabic>
     <text>the</text>
    </lyric>
    <lyric default-y="-191" number="part1verse0" color="#000000">
     <syllabic>single</syllabic>
     <text>the</text>
    </lyric>
   </note>
  </measure>
  <!--============== Part: P1, Measure: 14 ==============-->
  <measure number="14" width="117">
   <note color="#000000" default-x="15" default-y="-45">
    <pitch>
     <step>D</step>
     <alter>-1</alter>
     <octave>5</octave>
    </pitch>
    <duration>256</duration>
    <instrument id="P1-I1" />
    <voice>1</voice>
    <type>quarter</type>
    <stem>down</stem>
    <staff>1</staff>
    <notations>
     <slur color="#000000" type="start" orientation="over" />
    </notations>
    <lyric default-y="-91" number="part1verse1" color="#000000">
     <syllabic>single</syllabic>
     <text>voice,</text>
     <extend />
    </lyric>
    <lyric default-y="-116" number="part1verse2" color="#000000">
     <syllabic>begin</syllabic>
     <text>vi</text>
    </lyric>
    <lyric default-y="-141" number="part1verse0" color="#000000">
     <syllabic>begin</syllabic>
     <text>pas</text>
    </lyric>
    <lyric default-y="-166" number="part1verse0" color="#000000">
     <syllabic>middle</syllabic>
     <text>ci</text>
    </lyric>
    <lyric default-y="-191" number="part1verse0" color="#000000">
     <syllabic>middle</syllabic>
     <text>ci</text>
    </lyric>
   </note>
   <note color="#000000" default-x="50" default-y="-50">
    <pitch>
     <step>C</step>
     <octave>5</octave>
    </pitch>
    <duration>256</duration>
    <instrument id="P1-I1" />
    <voice>1</voice>
    <type>quarter</type>
    <stem>down</stem>
    <staff>1</staff>
    <notations>
     <slur color="#000000" type="stop" orientation="over" />
    </notations>
   </note>
   <note color="#000000" default-x="85" default-y="-55">
    <pitch>
     <step>B</step>
     <alter>-1</alter>
     <octave>4</octave>
    </pitch>
    <duration>256</duration>
    <instrument id="P1-I1" />
    <voice>1</voice>
    <type>quarter</type>
    <stem>down</stem>
    <staff>1</staff>
    <lyric default-y="-91" number="part1verse1" color="#000000">
     <syllabic>single</syllabic>
     <text>O</text>
    </lyric>
    <lyric default-y="-116" number="part1verse2" color="#000000">
     <syllabic>end</syllabic>
     <text>sion</text>
    </lyric>
    <lyric default-y="-141" number="part1verse0" color="#000000">
     <syllabic>end</syllabic>
     <text>sion</text>
    </lyric>
    <lyric default-y="-166" number="part1verse0" color="#000000">
     <syllabic>single</syllabic>
     <text>ty’s</text>
    </lyric>
    <lyric default-y="-191" number="part1verse0" color="#000000">
     <syllabic>single</syllabic>
     <text>ty</text>
    </lyric>
   </note>
  </measure>
  <!--============== Part: P1, Measure: 15 ==============-->
  <measure number="15" width="118">
   <note color="#000000" default-x="15" default-y="10">
    <pitch>
     <step>A</step>
     <alter>-1</alter>
     <octave>4</octave>
    </pitch>
    <duration>256</duration>
    <instrument id="P1-I1" />
    <voice>1</voice>
    <type>quarter</type>
    <stem>up</stem>
    <staff>1</staff>
    <notations>
     <slur color="#000000" type="start" orientation="under" />
    </notations>
    <lyric default-y="-91" number="part1verse1" color="#000000">
     <syllabic>single</syllabic>
     <text>Son</text>
     <extend />
    </lyric>
    <lyric default-y="-116" number="part1verse2" color="#000000">
     <syllabic>single</syllabic>
     <text>of</text>
     <extend />
    </lyric>
    <lyric default-y="-141" number="part1verse0" color="#000000">
     <syllabic>single</syllabic>
     <text>of</text>
     <extend />
    </lyric>
    <lyric default-y="-166" number="part1verse0" color="#000000">
     <syllabic>single</syllabic>
     <text>streets</text>
     <extend />
    </lyric>
    <lyric default-y="-191" number="part1verse0" color="#000000">
     <syllabic>single</syllabic>
     <text>of</text>
     <extend />
    </lyric>
   </note>
   <note color="#000000" default-x="50" default-y="-55">
    <pitch>
     <step>B</step>
     <alter>-1</alter>
     <octave>4</octave>
    </pitch>
    <duration>256</duration>
    <instrument id="P1-I1" />
    <voice>1</voice>
    <type>quarter</type>
    <stem>down</stem>
    <staff>1</staff>
    <notations>
     <slur color="#000000" type="stop" orientation="under" />
    </notations>
   </note>
   <note color="#000000" default-x="85" default-y="5">
    <pitch>
     <step>G</step>
     <octave>4</octave>
    </pitch>
    <duration>256</duration>
    <instrument id="P1-I1" />
    <voice>1</voice>
    <type>quarter</type>
    <stem>up</stem>
    <staff>1</staff>
    <lyric default-y="-91" number="part1verse1" color="#000000">
     <syllabic>single</syllabic>
     <text>of</text>
    </lyric>
    <lyric default-y="-116" number="part1verse2" color="#000000">
     <syllabic>single</syllabic>
     <text>your</text>
    </lyric>
    <lyric default-y="-141" number="part1verse0" color="#000000">
     <syllabic>single</syllabic>
     <text>your</text>
    </lyric>
    <lyric default-y="-166" number="part1verse0" color="#000000">
     <syllabic>begin</syllabic>
     <text>a</text>
    </lyric>
    <lyric default-y="-191" number="part1verse0" color="#000000">
     <syllabic>end</syllabic>
     <text>our</text>
    </lyric>
   </note>
  </measure>
  <!--============== Part: P1, Measure: 16 ==============-->
  <measure number="16" width="73">
   <note color="#000000" default-x="15" default-y="10">
    <pitch>
     <step>A</step>
     <alter>-1</alter>
     <octave>4</octave>
    </pitch>
    <duration>768</duration>
    <instrument id="P1-I1" />
    <voice>1</voice>
    <type>half</type>
    <dot />
    <stem>up</stem>
    <staff>1</staff>
    <lyric default-y="-91" number="part1verse1" color="#000000">
     <syllabic>single</syllabic>
     <text>Man!</text>
    </lyric>
    <lyric default-y="-116" number="part1verse2" color="#000000">
     <syllabic>single</syllabic>
     <text>tears.</text>
    </lyric>
    <lyric default-y="-141" number="part1verse0" color="#000000">
     <syllabic>single</syllabic>
     <text>face.</text>
    </lyric>
    <lyric default-y="-166" number="part1verse0" color="#000000">
     <syllabic>single</syllabic>
     <text>gain,</text>
    </lyric>
    <lyric default-y="-191" number="part1verse0" color="#000000">
     <syllabic>single</syllabic>
     <text>God.</text>
    </lyric>
   </note>
   <barline>
    <bar-style>light-heavy</bar-style>
   </barline>
  </measure>
 </part>
</score-partwise>
