<?xml version="1.0" encoding='UTF-8' standalone='no' ?>
<!DOCTYPE score-partwise PUBLIC "-//Recordare//DTD MusicXML 3.0 Partwise//EN" "http://www.musicxml.org/dtds/partwise.dtd">
<score-partwise version="3.0">
 <work>
  <work-title>Wake, Awake, for Night Is Flying</work-title>
 </work>
 <identification>
  <rights> 
Hymnary.org </rights>
  <encoding>
   <encoding-date>2013-05-07</encoding-date>
   <encoder>Brian</encoder>
   <software>Sibelius 7.1.3</software>
   <software>Direct export, not from Dolet</software>
   <encoding-description>Sibelius / MusicXML 3.0</encoding-description>
   <supports element="print" type="yes" value="yes" attribute="new-system" />
   <supports element="print" type="yes" value="yes" attribute="new-page" />
   <supports element="accidental" type="yes" />
   <supports element="beam" type="yes" />
   <supports element="stem" type="yes" />
  </encoding>
 </identification>
 <defaults>
  <scaling>
   <millimeters>149.098</millimeters>
   <tenths>955</tenths>
  </scaling>
  <page-layout>
   <page-height>1791</page-height>
   <page-width>955</page-width>
   <page-margins type="both">
    <left-margin>112</left-margin>
    <right-margin>112</right-margin>
    <top-margin>81</top-margin>
    <bottom-margin>81</bottom-margin>
   </page-margins>
  </page-layout>
  <system-layout>
   <system-distance>40</system-distance>
  </system-layout>
  <appearance>
   <line-width type="stem">0.9375</line-width>
   <line-width type="beam">5</line-width>
   <line-width type="staff">0.9375</line-width>
   <line-width type="light barline">1.5625</line-width>
   <line-width type="heavy barline">5</line-width>
   <line-width type="leger">1.5625</line-width>
   <line-width type="ending">1.5625</line-width>
   <line-width type="wedge">1.25</line-width>
   <line-width type="enclosure">0.9375</line-width>
   <line-width type="tuplet bracket">1.25</line-width>
   <line-width type="bracket">5</line-width>
   <line-width type="dashes">1.5625</line-width>
   <line-width type="extend">0.9375</line-width>
   <line-width type="octave shift">1.5625</line-width>
   <line-width type="pedal">1.5625</line-width>
   <line-width type="slur middle">1.5625</line-width>
   <line-width type="slur tip">0.625</line-width>
   <line-width type="tie middle">1.5625</line-width>
   <line-width type="tie tip">0.625</line-width>
   <note-size type="cue">75</note-size>
   <note-size type="grace">60</note-size>
  </appearance>
  <music-font font-family="Opus Std" font-size="17.6825" />
  <lyric-font font-family="Times New Roman" font-size="9.9464" />
  <lyric-language xml:lang="en" />
 </defaults>
 <credit page="1">
  <credit-words default-x="477" default-y="90" font-family="Times New Roman" font-style="normal" font-size="20.031" font-weight="normal" justify="center" valign="middle">Wake, Awake, for Night Is Flying</credit-words>
 </credit>
 <credit page="1">
  <credit-words default-x="477" default-y="95" font-family="Times New Roman" font-style="normal" font-size="4.9732" font-weight="normal" justify="center" valign="middle"> 
Hymnary.org </credit-words>
 </credit>
 <part-list>
  <score-part id="P1">
   <part-name>Piano</part-name>
   <part-name-display>
    <display-text>Piano</display-text>
   </part-name-display>
   <part-abbreviation>Pno.</part-abbreviation>
   <part-abbreviation-display>
    <display-text>Pno.</display-text>
   </part-abbreviation-display>
   <score-instrument id="P1-I1">
    <instrument-name>Piano (2)</instrument-name>
    <instrument-sound>keyboard.piano.grand</instrument-sound>
    <solo />
    <virtual-instrument>
     <virtual-library>General MIDI</virtual-library>
     <virtual-name>Acoustic Piano</virtual-name>
    </virtual-instrument>
   </score-instrument>
  </score-part>
 </part-list>
 <part id="P1">
  <!--============== Part: P1, Measure: 1 ==============-->
  <measure number="1" width="312">
   <print new-page="yes">
    <system-layout>
     <system-margins>
      <left-margin>0</left-margin>
      <right-margin>0</right-margin>
     </system-margins>
     <top-system-distance>163</top-system-distance>
    </system-layout>
   </print>
   <attributes>
    <divisions>256</divisions>
    <key color="#000000">
     <fifths>0</fifths>
     <mode>major</mode>
    </key>
    <time color="#000000">
     <beats>4</beats>
     <beat-type>4</beat-type>
    </time>
    <staves>1</staves>
    <clef number="1" color="#000000">
     <sign>G</sign>
     <line>2</line>
    </clef>
    <staff-details number="1" print-object="yes" />
   </attributes>
   <note color="#000000" default-x="76" default-y="-15">
    <pitch>
     <step>C</step>
     <octave>4</octave>
    </pitch>
    <duration>256</duration>
    <instrument id="P1-I1" />
    <voice>1</voice>
    <type>quarter</type>
    <stem>up</stem>
    <staff>1</staff>
    <lyric default-y="-78" number="part1verse1" color="#000000">
     <syllabic>single</syllabic>
     <text>1 Wake,</text>
    </lyric>
    <lyric default-y="-103" number="part1verse2" color="#000000">
     <syllabic>begin</syllabic>
     <text>2 Zi</text>
    </lyric>
    <lyric default-y="-128" number="part1verse0" color="#000000">
     <syllabic>single</syllabic>
     <text>3 Now</text>
    </lyric>
   </note>
   <note color="#000000" default-x="134" default-y="-5">
    <pitch>
     <step>E</step>
     <octave>4</octave>
    </pitch>
    <duration>256</duration>
    <instrument id="P1-I1" />
    <voice>1</voice>
    <type>quarter</type>
    <stem>up</stem>
    <staff>1</staff>
    <lyric default-y="-78" number="part1verse1" color="#000000">
     <syllabic>begin</syllabic>
     <text>a</text>
    </lyric>
    <lyric default-y="-103" number="part1verse2" color="#000000">
     <syllabic>end</syllabic>
     <text>on</text>
    </lyric>
    <lyric default-y="-128" number="part1verse0" color="#000000">
     <syllabic>single</syllabic>
     <text>let</text>
    </lyric>
   </note>
   <note color="#000000" default-x="192" default-y="5">
    <pitch>
     <step>G</step>
     <octave>4</octave>
    </pitch>
    <duration>384</duration>
    <instrument id="P1-I1" />
    <voice>1</voice>
    <type>quarter</type>
    <dot />
    <stem>up</stem>
    <staff>1</staff>
    <lyric default-y="-78" number="part1verse1" color="#000000">
     <syllabic>end</syllabic>
     <text>wake,</text>
    </lyric>
    <lyric default-y="-103" number="part1verse2" color="#000000">
     <syllabic>single</syllabic>
     <text>hears</text>
    </lyric>
    <lyric default-y="-128" number="part1verse0" color="#000000">
     <syllabic>single</syllabic>
     <text>all</text>
    </lyric>
   </note>
   <note color="#000000" default-x="270" default-y="-20">
    <pitch>
     <step>G</step>
     <octave>4</octave>
    </pitch>
    <duration>128</duration>
    <instrument id="P1-I1" />
    <voice>1</voice>
    <type>eighth</type>
    <stem>up</stem>
    <staff>1</staff>
    <lyric default-y="-78" number="part1verse1" color="#000000">
     <syllabic>single</syllabic>
     <text>for</text>
    </lyric>
    <lyric default-y="-103" number="part1verse2" color="#000000">
     <syllabic>single</syllabic>
     <text>the</text>
    </lyric>
    <lyric default-y="-128" number="part1verse0" color="#000000">
     <syllabic>single</syllabic>
     <text>the</text>
    </lyric>
   </note>
  </measure>
  <!--============== Part: P1, Measure: 2 ==============-->
  <measure number="2" width="229">
   <note color="#000000" default-x="15" default-y="5">
    <pitch>
     <step>G</step>
     <octave>4</octave>
    </pitch>
    <duration>256</duration>
    <instrument id="P1-I1" />
    <voice>1</voice>
    <type>quarter</type>
    <stem>up</stem>
    <staff>1</staff>
    <lyric default-y="-78" number="part1verse1" color="#000000">
     <syllabic>single</syllabic>
     <text>night</text>
    </lyric>
    <lyric default-y="-103" number="part1verse2" color="#000000">
     <syllabic>begin</syllabic>
     <text>watch</text>
    </lyric>
    <lyric default-y="-128" number="part1verse0" color="#000000">
     <syllabic>single</syllabic>
     <text>heavens</text>
    </lyric>
   </note>
   <note color="#000000" default-x="72" default-y="5">
    <pitch>
     <step>G</step>
     <octave>4</octave>
    </pitch>
    <duration>256</duration>
    <instrument id="P1-I1" />
    <voice>1</voice>
    <type>quarter</type>
    <stem>up</stem>
    <staff>1</staff>
    <lyric default-y="-78" number="part1verse1" color="#000000">
     <syllabic>single</syllabic>
     <text>is</text>
    </lyric>
    <lyric default-y="-103" number="part1verse2" color="#000000">
     <syllabic>end</syllabic>
     <text>men</text>
    </lyric>
    <lyric default-y="-128" number="part1verse0" color="#000000">
     <syllabic>begin</syllabic>
     <text>a</text>
    </lyric>
   </note>
   <note color="#000000" default-x="130" default-y="10">
    <pitch>
     <step>A</step>
     <octave>4</octave>
    </pitch>
    <duration>512</duration>
    <instrument id="P1-I1" />
    <voice>1</voice>
    <type>half</type>
    <stem>up</stem>
    <staff>1</staff>
    <lyric default-y="-78" number="part1verse1" color="#000000">
     <syllabic>begin</syllabic>
     <text>fly</text>
    </lyric>
    <lyric default-y="-103" number="part1verse2" color="#000000">
     <syllabic>begin</syllabic>
     <text>sing</text>
    </lyric>
    <lyric default-y="-128" number="part1verse0" color="#000000">
     <syllabic>end</syllabic>
     <text>dore</text>
    </lyric>
   </note>
  </measure>
  <!--============== Part: P1, Measure: 3 ==============-->
  <measure number="3" width="189">
   <note color="#000000" default-x="15" default-y="5">
    <pitch>
     <step>G</step>
     <octave>4</octave>
    </pitch>
    <duration>768</duration>
    <instrument id="P1-I1" />
    <voice>1</voice>
    <type>half</type>
    <dot />
    <stem>up</stem>
    <staff>1</staff>
    <lyric default-y="-78" number="part1verse1" color="#000000">
     <syllabic>end</syllabic>
     <text>ing,</text>
    </lyric>
    <lyric default-y="-103" number="part1verse2" color="#000000">
     <syllabic>end</syllabic>
     <text>ing,</text>
    </lyric>
    <lyric default-y="-128" number="part1verse0" color="#000000">
     <syllabic>single</syllabic>
     <text>you,</text>
    </lyric>
   </note>
   <note color="#000000" default-x="131" default-y="5">
    <pitch>
     <step>G</step>
     <octave>4</octave>
    </pitch>
    <duration>256</duration>
    <instrument id="P1-I1" />
    <voice>1</voice>
    <type>quarter</type>
    <stem>up</stem>
    <staff>1</staff>
    <lyric default-y="-78" number="part1verse1" color="#000000">
     <syllabic>single</syllabic>
     <text>the</text>
    </lyric>
    <lyric default-y="-103" number="part1verse2" color="#000000">
     <syllabic>single</syllabic>
     <text>and</text>
    </lyric>
    <lyric default-y="-128" number="part1verse0" color="#000000">
     <syllabic>single</syllabic>
     <text>and</text>
    </lyric>
   </note>
  </measure>
  <!--============== Part: P1, Measure: 4 ==============-->
  <measure number="4" width="307">
   <print new-system="yes">
    <system-layout>
     <system-margins>
      <left-margin>0</left-margin>
      <right-margin>0</right-margin>
     </system-margins>
     <system-distance>136</system-distance>
    </system-layout>
   </print>
   <attributes>
    <staff-details number="1" print-object="yes" />
   </attributes>
   <note color="#000000" default-x="57" default-y="-50">
    <pitch>
     <step>C</step>
     <octave>5</octave>
    </pitch>
    <duration>256</duration>
    <instrument id="P1-I1" />
    <voice>1</voice>
    <type>quarter</type>
    <stem>down</stem>
    <staff>1</staff>
    <lyric default-y="-78" number="part1verse1" color="#000000">
     <syllabic>begin</syllabic>
     <text>watch</text>
    </lyric>
    <lyric default-y="-103" number="part1verse2" color="#000000">
     <syllabic>single</syllabic>
     <text>in</text>
    </lyric>
    <lyric default-y="-128" number="part1verse0" color="#000000">
     <syllabic>single</syllabic>
     <text>saints</text>
    </lyric>
   </note>
   <note color="#000000" default-x="113" default-y="5">
    <pitch>
     <step>G</step>
     <octave>4</octave>
    </pitch>
    <duration>256</duration>
    <instrument id="P1-I1" />
    <voice>1</voice>
    <type>quarter</type>
    <stem>up</stem>
    <staff>1</staff>
    <lyric default-y="-78" number="part1verse1" color="#000000">
     <syllabic>end</syllabic>
     <text>men</text>
    </lyric>
    <lyric default-y="-103" number="part1verse2" color="#000000">
     <syllabic>single</syllabic>
     <text>her</text>
    </lyric>
    <lyric default-y="-128" number="part1verse0" color="#000000">
     <syllabic>single</syllabic>
     <text>and</text>
    </lyric>
   </note>
   <note color="#000000" default-x="169" default-y="-20">
    <pitch>
     <step>C</step>
     <octave>5</octave>
    </pitch>
    <duration>128</duration>
    <instrument id="P1-I1" />
    <voice>1</voice>
    <type>eighth</type>
    <stem>down</stem>
    <staff>1</staff>
    <lyric default-y="-78" number="part1verse1" color="#000000">
     <syllabic>single</syllabic>
     <text>on</text>
     <extend />
    </lyric>
    <lyric default-y="-103" number="part1verse2" color="#000000">
     <syllabic>single</syllabic>
     <text>heart</text>
     <extend />
    </lyric>
    <lyric default-y="-128" number="part1verse0" color="#000000">
     <syllabic>begin</syllabic>
     <text>an</text>
    </lyric>
   </note>
   <note color="#000000" default-x="210" default-y="-20">
    <pitch>
     <step>D</step>
     <octave>5</octave>
    </pitch>
    <duration>128</duration>
    <instrument id="P1-I1" />
    <voice>1</voice>
    <type>eighth</type>
    <stem>down</stem>
    <staff>1</staff>
   </note>
   <note color="#000000" default-x="250" default-y="22">
    <pitch>
     <step>E</step>
     <octave>5</octave>
    </pitch>
    <duration>256</duration>
    <instrument id="P1-I1" />
    <voice>1</voice>
    <type>quarter</type>
    <stem>up</stem>
    <staff>1</staff>
    <lyric default-y="-78" number="part1verse1" color="#000000">
     <syllabic>single</syllabic>
     <text>the</text>
    </lyric>
    <lyric default-y="-103" number="part1verse2" color="#000000">
     <syllabic>single</syllabic>
     <text>new</text>
    </lyric>
    <lyric default-y="-128" number="part1verse0" color="#000000">
     <syllabic>end</syllabic>
     <text>gels</text>
    </lyric>
   </note>
  </measure>
  <!--============== Part: P1, Measure: 5 ==============-->
  <measure number="5" width="239">
   <note color="#000000" default-x="15" default-y="20">
    <pitch>
     <step>D</step>
     <octave>5</octave>
    </pitch>
    <duration>256</duration>
    <instrument id="P1-I1" />
    <voice>1</voice>
    <type>quarter</type>
    <stem>up</stem>
    <staff>1</staff>
    <lyric default-y="-78" number="part1verse1" color="#000000">
     <syllabic>single</syllabic>
     <text>heights</text>
    </lyric>
    <lyric default-y="-103" number="part1verse2" color="#000000">
     <syllabic>single</syllabic>
     <text>joy</text>
    </lyric>
    <lyric default-y="-128" number="part1verse0" color="#000000">
     <syllabic>single</syllabic>
     <text>sing</text>
    </lyric>
   </note>
   <note color="#000000" default-x="70" default-y="17">
    <pitch>
     <step>C</step>
     <octave>5</octave>
    </pitch>
    <duration>256</duration>
    <instrument id="P1-I1" />
    <voice>1</voice>
    <type>quarter</type>
    <stem>up</stem>
    <staff>1</staff>
    <lyric default-y="-78" number="part1verse1" color="#000000">
     <syllabic>single</syllabic>
     <text>are</text>
    </lyric>
    <lyric default-y="-103" number="part1verse2" color="#000000">
     <syllabic>single</syllabic>
     <text>is</text>
    </lyric>
    <lyric default-y="-128" number="part1verse0" color="#000000">
     <syllabic>begin</syllabic>
     <text>be</text>
    </lyric>
   </note>
   <note color="#000000" default-x="127" default-y="-55">
    <pitch>
     <step>B</step>
     <octave>4</octave>
    </pitch>
    <duration>256</duration>
    <instrument id="P1-I1" />
    <voice>1</voice>
    <type>quarter</type>
    <stem>down</stem>
    <staff>1</staff>
    <notations>
     <slur color="#000000" type="start" orientation="over" />
    </notations>
    <lyric default-y="-78" number="part1verse1" color="#000000">
     <syllabic>begin</syllabic>
     <text>cry</text>
    </lyric>
    <lyric default-y="-103" number="part1verse2" color="#000000">
     <syllabic>begin</syllabic>
     <text>spring</text>
    </lyric>
    <lyric default-y="-128" number="part1verse0" color="#000000">
     <syllabic>end</syllabic>
     <text>fore</text>
     <extend />
    </lyric>
   </note>
   <note color="#000000" default-x="183" default-y="10">
    <pitch>
     <step>A</step>
     <octave>4</octave>
    </pitch>
    <duration>256</duration>
    <instrument id="P1-I1" />
    <voice>1</voice>
    <type>quarter</type>
    <stem>up</stem>
    <staff>1</staff>
    <notations>
     <slur color="#000000" type="stop" orientation="over" />
    </notations>
   </note>
  </measure>
  <!--============== Part: P1, Measure: 6 ==============-->
  <measure number="6" width="184">
   <note color="#000000" default-x="15" default-y="5">
    <pitch>
     <step>G</step>
     <octave>4</octave>
    </pitch>
    <duration>768</duration>
    <instrument id="P1-I1" />
    <voice>1</voice>
    <type>half</type>
    <dot />
    <stem>up</stem>
    <staff>1</staff>
    <lyric default-y="-78" number="part1verse1" color="#000000">
     <syllabic>end</syllabic>
     <text>ing;</text>
    </lyric>
    <lyric default-y="-103" number="part1verse2" color="#000000">
     <syllabic>end</syllabic>
     <text>ing.</text>
    </lyric>
    <lyric default-y="-128" number="part1verse0" color="#000000">
     <syllabic>single</syllabic>
     <text>you.</text>
    </lyric>
   </note>
   <note color="#000000" default-x="128" default-y="5">
    <pitch>
     <step>G</step>
     <octave>4</octave>
    </pitch>
    <duration>256</duration>
    <instrument id="P1-I1" />
    <voice>1</voice>
    <type>quarter</type>
    <stem>up</stem>
    <staff>1</staff>
    <lyric default-y="-78" number="part1verse1" color="#000000">
     <syllabic>begin</syllabic>
     <text>a</text>
    </lyric>
    <lyric default-y="-103" number="part1verse2" color="#000000">
     <syllabic>single</syllabic>
     <text>She</text>
    </lyric>
    <lyric default-y="-128" number="part1verse0" color="#000000">
     <syllabic>single</syllabic>
     <text>The</text>
    </lyric>
   </note>
  </measure>
  <!--============== Part: P1, Measure: 7 ==============-->
  <measure number="7" width="267">
   <print new-system="yes">
    <system-layout>
     <system-margins>
      <left-margin>0</left-margin>
      <right-margin>0</right-margin>
     </system-margins>
     <system-distance>140</system-distance>
    </system-layout>
   </print>
   <attributes>
    <staff-details number="1" print-object="yes" />
   </attributes>
   <note color="#000000" default-x="57" default-y="-50">
    <pitch>
     <step>C</step>
     <octave>5</octave>
    </pitch>
    <duration>256</duration>
    <instrument id="P1-I1" />
    <voice>1</voice>
    <type>quarter</type>
    <stem>down</stem>
    <staff>1</staff>
    <lyric default-y="-78" number="part1verse1" color="#000000">
     <syllabic>end</syllabic>
     <text>wake,</text>
    </lyric>
    <lyric default-y="-103" number="part1verse2" color="#000000">
     <syllabic>single</syllabic>
     <text>wakes,</text>
    </lyric>
    <lyric default-y="-128" number="part1verse0" color="#000000">
     <syllabic>single</syllabic>
     <text>harps</text>
    </lyric>
   </note>
   <note color="#000000" default-x="110" default-y="5">
    <pitch>
     <step>G</step>
     <octave>4</octave>
    </pitch>
    <duration>256</duration>
    <instrument id="P1-I1" />
    <voice>1</voice>
    <type>quarter</type>
    <stem>up</stem>
    <staff>1</staff>
    <lyric default-y="-78" number="part1verse1" color="#000000">
     <syllabic>begin</syllabic>
     <text>Je</text>
    </lyric>
    <lyric default-y="-103" number="part1verse2" color="#000000">
     <syllabic>single</syllabic>
     <text>she</text>
    </lyric>
    <lyric default-y="-128" number="part1verse0" color="#000000">
     <syllabic>single</syllabic>
     <text>and</text>
    </lyric>
   </note>
   <note color="#000000" default-x="163" default-y="10">
    <pitch>
     <step>A</step>
     <octave>4</octave>
    </pitch>
    <duration>256</duration>
    <instrument id="P1-I1" />
    <voice>1</voice>
    <type>quarter</type>
    <stem>up</stem>
    <staff>1</staff>
    <lyric default-y="-78" number="part1verse1" color="#000000">
     <syllabic>middle</syllabic>
     <text>ru</text>
    </lyric>
    <lyric default-y="-103" number="part1verse2" color="#000000">
     <syllabic>begin</syllabic>
     <text>ri</text>
    </lyric>
    <lyric default-y="-128" number="part1verse0" color="#000000">
     <syllabic>begin</syllabic>
     <text>cym</text>
    </lyric>
   </note>
   <note color="#000000" default-x="215" default-y="-5">
    <pitch>
     <step>E</step>
     <octave>4</octave>
    </pitch>
    <duration>256</duration>
    <instrument id="P1-I1" />
    <voice>1</voice>
    <type>quarter</type>
    <stem>up</stem>
    <staff>1</staff>
    <lyric default-y="-78" number="part1verse1" color="#000000">
     <syllabic>middle</syllabic>
     <text>sa</text>
    </lyric>
    <lyric default-y="-103" number="part1verse2" color="#000000">
     <syllabic>end</syllabic>
     <text>ses</text>
    </lyric>
    <lyric default-y="-128" number="part1verse0" color="#000000">
     <syllabic>end</syllabic>
     <text>bals</text>
    </lyric>
   </note>
  </measure>
  <!--============== Part: P1, Measure: 8 ==============-->
  <measure number="8" width="233">
   <note color="#000000" default-x="15" default-y="-20">
    <pitch>
     <step>F</step>
     <octave>4</octave>
    </pitch>
    <duration>128</duration>
    <instrument id="P1-I1" />
    <voice>1</voice>
    <type>eighth</type>
    <stem>up</stem>
    <staff>1</staff>
    <lyric default-y="-78" number="part1verse1" color="#000000">
     <syllabic>end</syllabic>
     <text>lem,</text>
     <extend />
    </lyric>
    <lyric default-y="-103" number="part1verse2" color="#000000">
     <syllabic>single</syllabic>
     <text>from</text>
     <extend />
    </lyric>
    <lyric default-y="-128" number="part1verse0" color="#000000">
     <syllabic>single</syllabic>
     <text>all</text>
     <extend />
    </lyric>
   </note>
   <note color="#000000" default-x="52" default-y="-20">
    <pitch>
     <step>E</step>
     <octave>4</octave>
    </pitch>
    <duration>128</duration>
    <instrument id="P1-I1" />
    <voice>1</voice>
    <type>eighth</type>
    <stem>up</stem>
    <staff>1</staff>
   </note>
   <note color="#000000" default-x="90" default-y="-10">
    <pitch>
     <step>D</step>
     <octave>4</octave>
    </pitch>
    <duration>256</duration>
    <instrument id="P1-I1" />
    <voice>1</voice>
    <type>quarter</type>
    <stem>up</stem>
    <staff>1</staff>
    <lyric default-y="-78" number="part1verse1" color="#000000">
     <syllabic>single</syllabic>
     <text>at</text>
    </lyric>
    <lyric default-y="-103" number="part1verse2" color="#000000">
     <syllabic>single</syllabic>
     <text>her</text>
    </lyric>
    <lyric default-y="-128" number="part1verse0" color="#000000">
     <syllabic>begin</syllabic>
     <text>u</text>
    </lyric>
   </note>
   <note color="#000000" default-x="144" default-y="-15">
    <pitch>
     <step>C</step>
     <octave>4</octave>
    </pitch>
    <duration>512</duration>
    <instrument id="P1-I1" />
    <voice>1</voice>
    <type>half</type>
    <stem>up</stem>
    <staff>1</staff>
    <lyric default-y="-78" number="part1verse1" color="#000000">
     <syllabic>single</syllabic>
     <text>last.</text>
    </lyric>
    <lyric default-y="-103" number="part1verse2" color="#000000">
     <syllabic>single</syllabic>
     <text>gloom,</text>
    </lyric>
    <lyric default-y="-128" number="part1verse0" color="#000000">
     <syllabic>end</syllabic>
     <text>nite.</text>
    </lyric>
   </note>
  </measure>
  <!--============== Part: P1, Measure: 9 ==============-->
  <measure number="9" width="230">
   <note color="#000000" default-x="15" default-y="-15">
    <pitch>
     <step>C</step>
     <octave>4</octave>
    </pitch>
    <duration>256</duration>
    <instrument id="P1-I1" />
    <voice>1</voice>
    <type>quarter</type>
    <stem>up</stem>
    <staff>1</staff>
    <lyric default-y="-78" number="part1verse1" color="#000000">
     <syllabic>begin</syllabic>
     <text>Mid</text>
    </lyric>
    <lyric default-y="-103" number="part1verse2" color="#000000">
     <syllabic>single</syllabic>
     <text>for</text>
    </lyric>
    <lyric default-y="-128" number="part1verse0" color="#000000">
     <syllabic>single</syllabic>
     <text>Of</text>
    </lyric>
   </note>
   <note color="#000000" default-x="67" default-y="-5">
    <pitch>
     <step>E</step>
     <octave>4</octave>
    </pitch>
    <duration>256</duration>
    <instrument id="P1-I1" />
    <voice>1</voice>
    <type>quarter</type>
    <stem>up</stem>
    <staff>1</staff>
    <lyric default-y="-78" number="part1verse1" color="#000000">
     <syllabic>end</syllabic>
     <text>night</text>
    </lyric>
    <lyric default-y="-103" number="part1verse2" color="#000000">
     <syllabic>single</syllabic>
     <text>her</text>
    </lyric>
    <lyric default-y="-128" number="part1verse0" color="#000000">
     <syllabic>single</syllabic>
     <text>one</text>
    </lyric>
   </note>
   <note color="#000000" default-x="121" default-y="5">
    <pitch>
     <step>G</step>
     <octave>4</octave>
    </pitch>
    <duration>384</duration>
    <instrument id="P1-I1" />
    <voice>1</voice>
    <type>quarter</type>
    <dot />
    <stem>up</stem>
    <staff>1</staff>
    <lyric default-y="-78" number="part1verse1" color="#000000">
     <syllabic>single</syllabic>
     <text>hears</text>
    </lyric>
    <lyric default-y="-103" number="part1verse2" color="#000000">
     <syllabic>single</syllabic>
     <text>Lord</text>
    </lyric>
    <lyric default-y="-128" number="part1verse0" color="#000000">
     <syllabic>single</syllabic>
     <text>pearl</text>
    </lyric>
   </note>
   <note color="#000000" default-x="192" default-y="-20">
    <pitch>
     <step>G</step>
     <octave>4</octave>
    </pitch>
    <duration>128</duration>
    <instrument id="P1-I1" />
    <voice>1</voice>
    <type>eighth</type>
    <stem>up</stem>
    <staff>1</staff>
    <lyric default-y="-78" number="part1verse1" color="#000000">
     <syllabic>single</syllabic>
     <text>the</text>
    </lyric>
    <lyric default-y="-103" number="part1verse2" color="#000000">
     <syllabic>single</syllabic>
     <text>comes</text>
    </lyric>
    <lyric default-y="-128" number="part1verse0" color="#000000">
     <syllabic>single</syllabic>
     <text>each</text>
    </lyric>
   </note>
  </measure>
  <!--============== Part: P1, Measure: 10 ==============-->
  <measure number="10" width="220">
   <print new-system="yes">
    <system-layout>
     <system-margins>
      <left-margin>0</left-margin>
      <right-margin>0</right-margin>
     </system-margins>
     <system-distance>140</system-distance>
    </system-layout>
   </print>
   <attributes>
    <staff-details number="1" print-object="yes" />
   </attributes>
   <note color="#000000" default-x="57" default-y="5">
    <pitch>
     <step>G</step>
     <octave>4</octave>
    </pitch>
    <duration>256</duration>
    <instrument id="P1-I1" />
    <voice>1</voice>
    <type>quarter</type>
    <stem>up</stem>
    <staff>1</staff>
    <lyric default-y="-78" number="part1verse1" color="#000000">
     <syllabic>begin</syllabic>
     <text>wel</text>
    </lyric>
    <lyric default-y="-103" number="part1verse2" color="#000000">
     <syllabic>single</syllabic>
     <text>down</text>
    </lyric>
    <lyric default-y="-128" number="part1verse0" color="#000000">
     <syllabic>begin</syllabic>
     <text>shin</text>
    </lyric>
   </note>
   <note color="#000000" default-x="107" default-y="5">
    <pitch>
     <step>G</step>
     <octave>4</octave>
    </pitch>
    <duration>256</duration>
    <instrument id="P1-I1" />
    <voice>1</voice>
    <type>quarter</type>
    <stem>up</stem>
    <staff>1</staff>
    <lyric default-y="-78" number="part1verse1" color="#000000">
     <syllabic>end</syllabic>
     <text>come</text>
    </lyric>
    <lyric default-y="-103" number="part1verse2" color="#000000">
     <syllabic>begin</syllabic>
     <text>all</text>
    </lyric>
    <lyric default-y="-128" number="part1verse0" color="#000000">
     <syllabic>end</syllabic>
     <text>ing</text>
    </lyric>
   </note>
   <note color="#000000" default-x="153" default-y="10">
    <pitch>
     <step>A</step>
     <octave>4</octave>
    </pitch>
    <duration>512</duration>
    <instrument id="P1-I1" />
    <voice>1</voice>
    <type>half</type>
    <stem>up</stem>
    <staff>1</staff>
    <lyric default-y="-78" number="part1verse1" color="#000000">
     <syllabic>begin</syllabic>
     <text>voi</text>
    </lyric>
    <lyric default-y="-103" number="part1verse2" color="#000000">
     <syllabic>middle</syllabic>
     <text>glo</text>
    </lyric>
    <lyric default-y="-128" number="part1verse0" color="#000000">
     <syllabic>begin</syllabic>
     <text>por</text>
    </lyric>
   </note>
  </measure>
  <!--============== Part: P1, Measure: 11 ==============-->
  <measure number="11" width="131">
   <note color="#000000" default-x="15" default-y="5">
    <pitch>
     <step>G</step>
     <octave>4</octave>
    </pitch>
    <duration>768</duration>
    <instrument id="P1-I1" />
    <voice>1</voice>
    <type>half</type>
    <dot />
    <stem>up</stem>
    <staff>1</staff>
    <lyric default-y="-78" number="part1verse1" color="#000000">
     <syllabic>end</syllabic>
     <text>ces,</text>
    </lyric>
    <lyric default-y="-103" number="part1verse2" color="#000000">
     <syllabic>end</syllabic>
     <text>rious,</text>
    </lyric>
    <lyric default-y="-128" number="part1verse0" color="#000000">
     <syllabic>end</syllabic>
     <text>tal,</text>
    </lyric>
   </note>
   <note color="#000000" default-x="94" default-y="5">
    <pitch>
     <step>G</step>
     <octave>4</octave>
    </pitch>
    <duration>256</duration>
    <instrument id="P1-I1" />
    <voice>1</voice>
    <type>quarter</type>
    <stem>up</stem>
    <staff>1</staff>
    <lyric default-y="-78" number="part1verse1" color="#000000">
     <syllabic>single</syllabic>
     <text>and</text>
    </lyric>
    <lyric default-y="-103" number="part1verse2" color="#000000">
     <syllabic>single</syllabic>
     <text>the</text>
    </lyric>
    <lyric default-y="-128" number="part1verse0" color="#000000">
     <syllabic>single</syllabic>
     <text>where,</text>
    </lyric>
   </note>
  </measure>
  <!--============== Part: P1, Measure: 12 ==============-->
  <measure number="12" width="202">
   <note color="#000000" default-x="15" default-y="-50">
    <pitch>
     <step>C</step>
     <octave>5</octave>
    </pitch>
    <duration>256</duration>
    <instrument id="P1-I1" />
    <voice>1</voice>
    <type>quarter</type>
    <stem>down</stem>
    <staff>1</staff>
    <lyric default-y="-78" number="part1verse1" color="#000000">
     <syllabic>single</syllabic>
     <text>at</text>
    </lyric>
    <lyric default-y="-103" number="part1verse2" color="#000000">
     <syllabic>single</syllabic>
     <text>strong</text>
    </lyric>
    <lyric default-y="-128" number="part1verse0" color="#000000">
     <syllabic>begin</syllabic>
     <text>dwel</text>
    </lyric>
   </note>
   <note color="#000000" default-x="63" default-y="5">
    <pitch>
     <step>G</step>
     <octave>4</octave>
    </pitch>
    <duration>256</duration>
    <instrument id="P1-I1" />
    <voice>1</voice>
    <type>quarter</type>
    <stem>up</stem>
    <staff>1</staff>
    <lyric default-y="-78" number="part1verse1" color="#000000">
     <syllabic>single</syllabic>
     <text>the</text>
    </lyric>
    <lyric default-y="-103" number="part1verse2" color="#000000">
     <syllabic>single</syllabic>
     <text>in</text>
    </lyric>
    <lyric default-y="-128" number="part1verse0" color="#000000">
     <syllabic>end</syllabic>
     <text>ling</text>
    </lyric>
   </note>
   <note color="#000000" default-x="102" default-y="-20">
    <pitch>
     <step>C</step>
     <octave>5</octave>
    </pitch>
    <duration>128</duration>
    <instrument id="P1-I1" />
    <voice>1</voice>
    <type>eighth</type>
    <stem>down</stem>
    <staff>1</staff>
    <lyric default-y="-78" number="part1verse1" color="#000000">
     <syllabic>begin</syllabic>
     <text>thril</text>
    </lyric>
    <lyric default-y="-103" number="part1verse2" color="#000000">
     <syllabic>single</syllabic>
     <text>grace,</text>
     <extend />
    </lyric>
    <lyric default-y="-128" number="part1verse0" color="#000000">
     <syllabic>single</syllabic>
     <text>with</text>
     <extend />
    </lyric>
   </note>
   <note color="#000000" default-x="131" default-y="-20">
    <pitch>
     <step>D</step>
     <octave>5</octave>
    </pitch>
    <duration>128</duration>
    <instrument id="P1-I1" />
    <voice>1</voice>
    <type>eighth</type>
    <stem>down</stem>
    <staff>1</staff>
   </note>
   <note color="#000000" default-x="163" default-y="-40">
    <pitch>
     <step>E</step>
     <octave>5</octave>
    </pitch>
    <duration>256</duration>
    <instrument id="P1-I1" />
    <voice>1</voice>
    <type>quarter</type>
    <stem>down</stem>
    <staff>1</staff>
    <lyric default-y="-78" number="part1verse1" color="#000000">
     <syllabic>end</syllabic>
     <text>ling</text>
    </lyric>
    <lyric default-y="-103" number="part1verse2" color="#000000">
     <syllabic>single</syllabic>
     <text>in</text>
    </lyric>
    <lyric default-y="-128" number="part1verse0" color="#000000">
     <syllabic>single</syllabic>
     <text>the</text>
    </lyric>
   </note>
  </measure>
  <!--============== Part: P1, Measure: 13 ==============-->
  <measure number="13" width="177">
   <note color="#000000" default-x="15" default-y="20">
    <pitch>
     <step>D</step>
     <octave>5</octave>
    </pitch>
    <duration>256</duration>
    <instrument id="P1-I1" />
    <voice>1</voice>
    <type>quarter</type>
    <stem>up</stem>
    <staff>1</staff>
    <lyric default-y="-78" number="part1verse1" color="#000000">
     <syllabic>single</syllabic>
     <text>cry</text>
    </lyric>
    <lyric default-y="-103" number="part1verse2" color="#000000">
     <syllabic>single</syllabic>
     <text>truth</text>
    </lyric>
    <lyric default-y="-128" number="part1verse0" color="#000000">
     <syllabic>single</syllabic>
     <text>choir</text>
    </lyric>
   </note>
   <note color="#000000" default-x="57" default-y="17">
    <pitch>
     <step>C</step>
     <octave>5</octave>
    </pitch>
    <duration>256</duration>
    <instrument id="P1-I1" />
    <voice>1</voice>
    <type>quarter</type>
    <stem>up</stem>
    <staff>1</staff>
    <lyric default-y="-78" number="part1verse1" color="#000000">
     <syllabic>begin</syllabic>
     <text>re</text>
    </lyric>
    <lyric default-y="-103" number="part1verse2" color="#000000">
     <syllabic>begin</syllabic>
     <text>vic</text>
    </lyric>
    <lyric default-y="-128" number="part1verse0" color="#000000">
     <syllabic>begin</syllabic>
     <text>im</text>
    </lyric>
   </note>
   <note color="#000000" default-x="96" default-y="-55">
    <pitch>
     <step>B</step>
     <octave>4</octave>
    </pitch>
    <duration>256</duration>
    <instrument id="P1-I1" />
    <voice>1</voice>
    <type>quarter</type>
    <stem>down</stem>
    <staff>1</staff>
    <notations>
     <slur color="#000000" type="start" orientation="over" />
    </notations>
    <lyric default-y="-78" number="part1verse1" color="#000000">
     <syllabic>middle</syllabic>
     <text>joi</text>
    </lyric>
    <lyric default-y="-103" number="part1verse2" color="#000000">
     <syllabic>middle</syllabic>
     <text>to</text>
    </lyric>
    <lyric default-y="-128" number="part1verse0" color="#000000">
     <syllabic>middle</syllabic>
     <text>mor</text>
    </lyric>
   </note>
   <note color="#000000" default-x="135" default-y="10">
    <pitch>
     <step>A</step>
     <octave>4</octave>
    </pitch>
    <duration>256</duration>
    <instrument id="P1-I1" />
    <voice>1</voice>
    <type>quarter</type>
    <stem>up</stem>
    <staff>1</staff>
    <notations>
     <slur color="#000000" type="stop" orientation="over" />
    </notations>
   </note>
  </measure>
  <!--============== Part: P1, Measure: 14 ==============-->
  <measure number="14" width="223">
   <print new-system="yes">
    <system-layout>
     <system-margins>
      <left-margin>0</left-margin>
      <right-margin>0</right-margin>
     </system-margins>
     <system-distance>140</system-distance>
    </system-layout>
   </print>
   <attributes>
    <staff-details number="1" print-object="yes" />
   </attributes>
   <note color="#000000" default-x="57" default-y="5">
    <pitch>
     <step>G</step>
     <octave>4</octave>
    </pitch>
    <duration>768</duration>
    <instrument id="P1-I1" />
    <voice>1</voice>
    <type>half</type>
    <dot />
    <stem>up</stem>
    <staff>1</staff>
    <lyric default-y="-78" number="part1verse1" color="#000000">
     <syllabic>end</syllabic>
     <text>ces:</text>
    </lyric>
    <lyric default-y="-103" number="part1verse2" color="#000000">
     <syllabic>end</syllabic>
     <text>rious.</text>
    </lyric>
    <lyric default-y="-128" number="part1verse0" color="#000000">
     <syllabic>end</syllabic>
     <text>tal,</text>
    </lyric>
   </note>
   <note color="#000000" default-x="168" default-y="5">
    <pitch>
     <step>G</step>
     <octave>4</octave>
    </pitch>
    <duration>256</duration>
    <instrument id="P1-I1" />
    <voice>1</voice>
    <type>quarter</type>
    <stem>up</stem>
    <staff>1</staff>
    <lyric default-y="-78" number="part1verse1" color="#000000">
     <syllabic>single</syllabic>
     <text>&quot;Come</text>
    </lyric>
    <lyric default-y="-103" number="part1verse2" color="#000000">
     <syllabic>single</syllabic>
     <text>Her</text>
    </lyric>
    <lyric default-y="-128" number="part1verse0" color="#000000">
     <syllabic>single</syllabic>
     <text>we</text>
    </lyric>
   </note>
  </measure>
  <!--============== Part: P1, Measure: 15 ==============-->
  <measure number="15" width="235">
   <note color="#000000" default-x="15" default-y="-50">
    <pitch>
     <step>C</step>
     <octave>5</octave>
    </pitch>
    <duration>256</duration>
    <instrument id="P1-I1" />
    <voice>1</voice>
    <type>quarter</type>
    <stem>down</stem>
    <staff>1</staff>
    <lyric default-y="-78" number="part1verse1" color="#000000">
     <syllabic>single</syllabic>
     <text>forth,</text>
    </lyric>
    <lyric default-y="-103" number="part1verse2" color="#000000">
     <syllabic>single</syllabic>
     <text>star</text>
    </lyric>
    <lyric default-y="-128" number="part1verse0" color="#000000">
     <syllabic>begin</syllabic>
     <text>ga</text>
    </lyric>
   </note>
   <note color="#000000" default-x="70" default-y="5">
    <pitch>
     <step>G</step>
     <octave>4</octave>
    </pitch>
    <duration>256</duration>
    <instrument id="P1-I1" />
    <voice>1</voice>
    <type>quarter</type>
    <stem>up</stem>
    <staff>1</staff>
    <lyric default-y="-78" number="part1verse1" color="#000000">
     <syllabic>single</syllabic>
     <text>you</text>
    </lyric>
    <lyric default-y="-103" number="part1verse2" color="#000000">
     <syllabic>single</syllabic>
     <text>is</text>
    </lyric>
    <lyric default-y="-128" number="part1verse0" color="#000000">
     <syllabic>end</syllabic>
     <text>ther</text>
    </lyric>
   </note>
   <note color="#000000" default-x="125" default-y="10">
    <pitch>
     <step>A</step>
     <octave>4</octave>
    </pitch>
    <duration>256</duration>
    <instrument id="P1-I1" />
    <voice>1</voice>
    <type>quarter</type>
    <stem>up</stem>
    <staff>1</staff>
    <lyric default-y="-78" number="part1verse1" color="#000000">
     <syllabic>begin</syllabic>
     <text>mai</text>
    </lyric>
    <lyric default-y="-103" number="part1verse2" color="#000000">
     <syllabic>single</syllabic>
     <text>risen;</text>
    </lyric>
    <lyric default-y="-128" number="part1verse0" color="#000000">
     <syllabic>single</syllabic>
     <text>round</text>
    </lyric>
   </note>
   <note color="#000000" default-x="180" default-y="-5">
    <pitch>
     <step>E</step>
     <octave>4</octave>
    </pitch>
    <duration>256</duration>
    <instrument id="P1-I1" />
    <voice>1</voice>
    <type>quarter</type>
    <stem>up</stem>
    <staff>1</staff>
    <lyric default-y="-78" number="part1verse1" color="#000000">
     <syllabic>end</syllabic>
     <text>dens!</text>
    </lyric>
    <lyric default-y="-103" number="part1verse2" color="#000000">
     <syllabic>single</syllabic>
     <text>her</text>
    </lyric>
    <lyric default-y="-128" number="part1verse0" color="#000000">
     <syllabic>single</syllabic>
     <text>your</text>
    </lyric>
   </note>
  </measure>
  <!--============== Part: P1, Measure: 16 ==============-->
  <measure number="16" width="202">
   <note color="#000000" default-x="15" default-y="-20">
    <pitch>
     <step>F</step>
     <octave>4</octave>
    </pitch>
    <duration>128</duration>
    <instrument id="P1-I1" />
    <voice>1</voice>
    <type>eighth</type>
    <stem>up</stem>
    <staff>1</staff>
    <lyric default-y="-78" number="part1verse1" color="#000000">
     <syllabic>single</syllabic>
     <text>Night</text>
     <extend />
    </lyric>
    <lyric default-y="-103" number="part1verse2" color="#000000">
     <syllabic>single</syllabic>
     <text>light</text>
     <extend />
    </lyric>
    <lyric default-y="-128" number="part1verse0" color="#000000">
     <syllabic>begin</syllabic>
     <text>daz</text>
    </lyric>
   </note>
   <note color="#000000" default-x="54" default-y="-20">
    <pitch>
     <step>E</step>
     <octave>4</octave>
    </pitch>
    <duration>128</duration>
    <instrument id="P1-I1" />
    <voice>1</voice>
    <type>eighth</type>
    <stem>up</stem>
    <staff>1</staff>
   </note>
   <note color="#000000" default-x="94" default-y="-10">
    <pitch>
     <step>D</step>
     <octave>4</octave>
    </pitch>
    <duration>256</duration>
    <instrument id="P1-I1" />
    <voice>1</voice>
    <type>quarter</type>
    <stem>up</stem>
    <staff>1</staff>
    <lyric default-y="-78" number="part1verse1" color="#000000">
     <syllabic>single</syllabic>
     <text>is</text>
    </lyric>
    <lyric default-y="-103" number="part1verse2" color="#000000">
     <syllabic>single</syllabic>
     <text>is</text>
    </lyric>
    <lyric default-y="-128" number="part1verse0" color="#000000">
     <syllabic>end</syllabic>
     <text>zling</text>
    </lyric>
   </note>
   <note color="#000000" default-x="149" default-y="-15">
    <pitch>
     <step>C</step>
     <octave>4</octave>
    </pitch>
    <duration>256</duration>
    <instrument id="P1-I1" />
    <voice>1</voice>
    <type>quarter</type>
    <stem>up</stem>
    <staff>1</staff>
    <notations>
     <fermata>normal</fermata>
    </notations>
    <lyric default-y="-78" number="part1verse1" color="#000000">
     <syllabic>single</syllabic>
     <text>past.</text>
    </lyric>
    <lyric default-y="-103" number="part1verse2" color="#000000">
     <syllabic>single</syllabic>
     <text>come.</text>
    </lyric>
    <lyric default-y="-128" number="part1verse0" color="#000000">
     <syllabic>single</syllabic>
     <text>light.</text>
    </lyric>
   </note>
   <barline>
    <bar-style>none</bar-style>
   </barline>
  </measure>
  <!--============== Part: P1, Measure: 17 ==============-->
  <measure number="17" width="70">
   <note color="#000000" default-x="15" default-y="5">
    <pitch>
     <step>G</step>
     <octave>4</octave>
    </pitch>
    <duration>256</duration>
    <instrument id="P1-I1" />
    <voice>1</voice>
    <type>quarter</type>
    <stem>up</stem>
    <staff>1</staff>
    <lyric default-y="-87" number="part1verse1" color="#000000">
     <syllabic>single</syllabic>
     <text>The</text>
    </lyric>
    <lyric default-y="-112" number="part1verse2" color="#000000">
     <syllabic>single</syllabic>
     <text>O,</text>
    </lyric>
    <lyric default-y="-137" number="part1verse0" color="#000000">
     <syllabic>single</syllabic>
     <text>No</text>
    </lyric>
   </note>
  </measure>
  <!--============== Part: P1, Measure: 18 ==============-->
  <measure number="18" width="304">
   <print new-system="yes">
    <system-layout>
     <system-margins>
      <left-margin>0</left-margin>
      <right-margin>0</right-margin>
     </system-margins>
     <system-distance>158</system-distance>
    </system-layout>
   </print>
   <attributes>
    <staff-details number="1" print-object="yes" />
   </attributes>
   <note color="#000000" default-x="57" default-y="5">
    <pitch>
     <step>G</step>
     <octave>4</octave>
    </pitch>
    <duration>384</duration>
    <instrument id="P1-I1" />
    <voice>1</voice>
    <type>quarter</type>
    <dot />
    <stem>up</stem>
    <staff>1</staff>
    <lyric default-y="-87" number="part1verse1" color="#000000">
     <syllabic>begin</syllabic>
     <text>bride</text>
    </lyric>
    <lyric default-y="-112" number="part1verse2" color="#000000">
     <syllabic>single</syllabic>
     <text>come,</text>
    </lyric>
    <lyric default-y="-137" number="part1verse0" color="#000000">
     <syllabic>single</syllabic>
     <text>eye</text>
    </lyric>
   </note>
   <note color="#000000" default-x="128" default-y="-20">
    <pitch>
     <step>F</step>
     <octave>4</octave>
    </pitch>
    <duration>128</duration>
    <instrument id="P1-I1" />
    <voice>1</voice>
    <type>eighth</type>
    <stem>up</stem>
    <staff>1</staff>
    <lyric default-y="-87" number="part1verse1" color="#000000">
     <syllabic>end</syllabic>
     <text>groom</text>
    </lyric>
    <lyric default-y="-112" number="part1verse2" color="#000000">
     <syllabic>single</syllabic>
     <text>you</text>
    </lyric>
    <lyric default-y="-137" number="part1verse0" color="#000000">
     <syllabic>single</syllabic>
     <text>has</text>
    </lyric>
   </note>
   <note color="#000000" default-x="198" default-y="-5">
    <pitch>
     <step>E</step>
     <octave>4</octave>
    </pitch>
    <duration>256</duration>
    <instrument id="P1-I1" />
    <voice>1</voice>
    <type>quarter</type>
    <stem>up</stem>
    <staff>1</staff>
    <lyric default-y="-87" number="part1verse1" color="#000000">
     <syllabic>single</syllabic>
     <text>comes!</text>
    </lyric>
    <lyric default-y="-112" number="part1verse2" color="#000000">
     <syllabic>begin</syllabic>
     <text>Bles</text>
    </lyric>
    <lyric default-y="-137" number="part1verse0" color="#000000">
     <syllabic>single</syllabic>
     <text>seen,</text>
    </lyric>
   </note>
   <note color="#000000" default-x="251" default-y="-10">
    <pitch>
     <step>D</step>
     <octave>4</octave>
    </pitch>
    <duration>256</duration>
    <instrument id="P1-I1" />
    <voice>1</voice>
    <type>quarter</type>
    <stem>up</stem>
    <staff>1</staff>
    <lyric default-y="-87" number="part1verse1" color="#000000">
     <syllabic>begin</syllabic>
     <text>A</text>
    </lyric>
    <lyric default-y="-112" number="part1verse2" color="#000000">
     <syllabic>end</syllabic>
     <text>sed</text>
    </lyric>
    <lyric default-y="-137" number="part1verse0" color="#000000">
     <syllabic>single</syllabic>
     <text>no</text>
    </lyric>
   </note>
  </measure>
  <!--============== Part: P1, Measure: 19 ==============-->
  <measure number="19" width="174">
   <note color="#000000" default-x="15" default-y="-15">
    <pitch>
     <step>C</step>
     <octave>4</octave>
    </pitch>
    <duration>768</duration>
    <instrument id="P1-I1" />
    <voice>1</voice>
    <type>half</type>
    <dot />
    <stem>up</stem>
    <staff>1</staff>
    <lyric default-y="-87" number="part1verse1" color="#000000">
     <syllabic>end</syllabic>
     <text>wake;</text>
    </lyric>
    <lyric default-y="-112" number="part1verse2" color="#000000">
     <syllabic>single</syllabic>
     <text>One,</text>
    </lyric>
    <lyric default-y="-137" number="part1verse0" color="#000000">
     <syllabic>single</syllabic>
     <text>ear</text>
    </lyric>
   </note>
   <note color="#000000" default-x="121" default-y="5">
    <pitch>
     <step>G</step>
     <octave>4</octave>
    </pitch>
    <duration>256</duration>
    <instrument id="P1-I1" />
    <voice>1</voice>
    <type>quarter</type>
    <stem>up</stem>
    <staff>1</staff>
    <lyric default-y="-87" number="part1verse1" color="#000000">
     <syllabic>single</syllabic>
     <text>your</text>
    </lyric>
    <lyric default-y="-112" number="part1verse2" color="#000000">
     <syllabic>single</syllabic>
     <text>Lord</text>
    </lyric>
    <lyric default-y="-137" number="part1verse0" color="#000000">
     <syllabic>single</syllabic>
     <text>has</text>
    </lyric>
   </note>
  </measure>
  <!--============== Part: P1, Measure: 20 ==============-->
  <measure number="20" width="252">
   <note color="#000000" default-x="15" default-y="5">
    <pitch>
     <step>G</step>
     <octave>4</octave>
    </pitch>
    <duration>384</duration>
    <instrument id="P1-I1" />
    <voice>1</voice>
    <type>quarter</type>
    <dot />
    <stem>up</stem>
    <staff>1</staff>
    <lyric default-y="-87" number="part1verse1" color="#000000">
     <syllabic>single</syllabic>
     <text>lamps</text>
    </lyric>
    <lyric default-y="-112" number="part1verse2" color="#000000">
     <syllabic>begin</syllabic>
     <text>Je</text>
    </lyric>
    <lyric default-y="-137" number="part1verse0" color="#000000">
     <syllabic>single</syllabic>
     <text>yet</text>
    </lyric>
   </note>
   <note color="#000000" default-x="86" default-y="-20">
    <pitch>
     <step>F</step>
     <octave>4</octave>
    </pitch>
    <duration>128</duration>
    <instrument id="P1-I1" />
    <voice>1</voice>
    <type>eighth</type>
    <stem>up</stem>
    <staff>1</staff>
    <lyric default-y="-87" number="part1verse1" color="#000000">
     <syllabic>single</syllabic>
     <text>with</text>
    </lyric>
    <lyric default-y="-112" number="part1verse2" color="#000000">
     <syllabic>end</syllabic>
     <text>sus,</text>
    </lyric>
    <lyric default-y="-137" number="part1verse0" color="#000000">
     <syllabic>single</syllabic>
     <text>been</text>
    </lyric>
   </note>
   <note color="#000000" default-x="146" default-y="-5">
    <pitch>
     <step>E</step>
     <octave>4</octave>
    </pitch>
    <duration>256</duration>
    <instrument id="P1-I1" />
    <voice>1</voice>
    <type>quarter</type>
    <stem>up</stem>
    <staff>1</staff>
    <lyric default-y="-87" number="part1verse1" color="#000000">
     <syllabic>begin</syllabic>
     <text>glad</text>
    </lyric>
    <lyric default-y="-112" number="part1verse2" color="#000000">
     <syllabic>single</syllabic>
     <text>God&apos;s</text>
    </lyric>
    <lyric default-y="-137" number="part1verse0" color="#000000">
     <syllabic>single</syllabic>
     <text>trained</text>
    </lyric>
   </note>
   <note color="#000000" default-x="199" default-y="-10">
    <pitch>
     <step>D</step>
     <octave>4</octave>
    </pitch>
    <duration>256</duration>
    <instrument id="P1-I1" />
    <voice>1</voice>
    <type>quarter</type>
    <stem>up</stem>
    <staff>1</staff>
    <lyric default-y="-87" number="part1verse1" color="#000000">
     <syllabic>end</syllabic>
     <text>ness</text>
    </lyric>
    <lyric default-y="-112" number="part1verse2" color="#000000">
     <syllabic>single</syllabic>
     <text>own</text>
    </lyric>
    <lyric default-y="-137" number="part1verse0" color="#000000">
     <syllabic>single</syllabic>
     <text>to</text>
    </lyric>
   </note>
  </measure>
  <!--============== Part: P1, Measure: 21 ==============-->
  <measure number="21" width="226">
   <print new-system="yes">
    <system-layout>
     <system-margins>
      <left-margin>0</left-margin>
      <right-margin>0</right-margin>
     </system-margins>
     <system-distance>158</system-distance>
    </system-layout>
   </print>
   <attributes>
    <staff-details number="1" print-object="yes" />
   </attributes>
   <note color="#000000" default-x="57" default-y="-15">
    <pitch>
     <step>C</step>
     <octave>4</octave>
    </pitch>
    <duration>768</duration>
    <instrument id="P1-I1" />
    <voice>1</voice>
    <type>half</type>
    <dot />
    <stem>up</stem>
    <staff>1</staff>
    <lyric default-y="-87" number="part1verse1" color="#000000">
     <syllabic>single</syllabic>
     <text>take!&quot;</text>
    </lyric>
    <lyric default-y="-112" number="part1verse2" color="#000000">
     <syllabic>single</syllabic>
     <text>Son.</text>
    </lyric>
    <lyric default-y="-137" number="part1verse0" color="#000000">
     <syllabic>single</syllabic>
     <text>hear</text>
    </lyric>
   </note>
   <note color="#000000" default-x="170" default-y="-10">
    <pitch>
     <step>D</step>
     <octave>4</octave>
    </pitch>
    <duration>256</duration>
    <instrument id="P1-I1" />
    <voice>1</voice>
    <type>quarter</type>
    <stem>up</stem>
    <staff>1</staff>
    <lyric default-y="-87" number="part1verse1" color="#000000">
     <syllabic>begin</syllabic>
     <text>Al</text>
    </lyric>
    <lyric default-y="-112" number="part1verse2" color="#000000">
     <syllabic>single</syllabic>
     <text>Sing</text>
    </lyric>
    <lyric default-y="-137" number="part1verse0" color="#000000">
     <syllabic>single</syllabic>
     <text>what</text>
    </lyric>
   </note>
  </measure>
  <!--============== Part: P1, Measure: 22 ==============-->
  <measure number="22" width="238">
   <note color="#000000" default-x="15" default-y="-5">
    <pitch>
     <step>E</step>
     <octave>4</octave>
    </pitch>
    <duration>256</duration>
    <instrument id="P1-I1" />
    <voice>1</voice>
    <type>quarter</type>
    <stem>up</stem>
    <staff>1</staff>
    <lyric default-y="-87" number="part1verse1" color="#000000">
     <syllabic>middle</syllabic>
     <text>le</text>
    </lyric>
    <lyric default-y="-112" number="part1verse2" color="#000000">
     <syllabic>begin</syllabic>
     <text>ho</text>
    </lyric>
    <lyric default-y="-137" number="part1verse0" color="#000000">
     <syllabic>single</syllabic>
     <text>joy</text>
    </lyric>
   </note>
   <note color="#000000" default-x="70">
    <pitch>
     <step>F</step>
     <octave>4</octave>
    </pitch>
    <duration>256</duration>
    <instrument id="P1-I1" />
    <voice>1</voice>
    <type>quarter</type>
    <stem>up</stem>
    <staff>1</staff>
    <lyric default-y="-87" number="part1verse1" color="#000000">
     <syllabic>middle</syllabic>
     <text>lu</text>
    </lyric>
    <lyric default-y="-112" number="part1verse2" color="#000000">
     <syllabic>middle</syllabic>
     <text>san</text>
    </lyric>
    <lyric default-y="-137" number="part1verse0" color="#000000">
     <syllabic>single</syllabic>
     <text>is</text>
    </lyric>
   </note>
   <note color="#000000" default-x="126" default-y="-5">
    <pitch>
     <step>E</step>
     <octave>4</octave>
    </pitch>
    <duration>256</duration>
    <instrument id="P1-I1" />
    <voice>1</voice>
    <type>quarter</type>
    <stem>up</stem>
    <staff>1</staff>
    <notations>
     <fermata>normal</fermata>
    </notations>
    <lyric default-y="-87" number="part1verse1" color="#000000">
     <syllabic>end</syllabic>
     <text>ia!</text>
    </lyric>
    <lyric default-y="-112" number="part1verse2" color="#000000">
     <syllabic>end</syllabic>
     <text>na!</text>
    </lyric>
    <lyric default-y="-137" number="part1verse0" color="#000000">
     <syllabic>single</syllabic>
     <text>ours!</text>
    </lyric>
   </note>
   <note color="#000000" default-x="182" default-y="5">
    <pitch>
     <step>G</step>
     <octave>4</octave>
    </pitch>
    <duration>256</duration>
    <instrument id="P1-I1" />
    <voice>1</voice>
    <type>quarter</type>
    <stem>up</stem>
    <staff>1</staff>
    <lyric default-y="-87" number="part1verse1" color="#000000">
     <syllabic>begin</syllabic>
     <text>Pre</text>
    </lyric>
    <lyric default-y="-112" number="part1verse2" color="#000000">
     <syllabic>single</syllabic>
     <text>We</text>
    </lyric>
    <lyric default-y="-137" number="part1verse0" color="#000000">
     <syllabic>begin</syllabic>
     <text>Cres</text>
    </lyric>
   </note>
  </measure>
  <!--============== Part: P1, Measure: 23 ==============-->
  <measure number="23" width="265">
   <note color="#000000" default-x="15" default-y="10">
    <pitch>
     <step>A</step>
     <octave>4</octave>
    </pitch>
    <duration>256</duration>
    <instrument id="P1-I1" />
    <voice>1</voice>
    <type>quarter</type>
    <stem>up</stem>
    <staff>1</staff>
    <lyric default-y="-87" number="part1verse1" color="#000000">
     <syllabic>end</syllabic>
     <text>pare</text>
    </lyric>
    <lyric default-y="-112" number="part1verse2" color="#000000">
     <syllabic>single</syllabic>
     <text>go</text>
    </lyric>
    <lyric default-y="-137" number="part1verse0" color="#000000">
     <syllabic>middle</syllabic>
     <text>cen</text>
    </lyric>
   </note>
   <note color="#000000" default-x="71" default-y="-55">
    <pitch>
     <step>B</step>
     <octave>4</octave>
    </pitch>
    <duration>256</duration>
    <instrument id="P1-I1" />
    <voice>1</voice>
    <type>quarter</type>
    <stem>down</stem>
    <staff>1</staff>
    <lyric default-y="-87" number="part1verse1" color="#000000">
     <syllabic>begin</syllabic>
     <text>your</text>
    </lyric>
    <lyric default-y="-112" number="part1verse2" color="#000000">
     <syllabic>begin</syllabic>
     <text>un</text>
    </lyric>
    <lyric default-y="-137" number="part1verse0" color="#000000">
     <syllabic>end</syllabic>
     <text>dos</text>
    </lyric>
   </note>
   <note color="#000000" default-x="128" default-y="-50">
    <pitch>
     <step>C</step>
     <octave>5</octave>
    </pitch>
    <duration>256</duration>
    <instrument id="P1-I1" />
    <voice>1</voice>
    <type>quarter</type>
    <stem>down</stem>
    <staff>1</staff>
    <lyric default-y="-87" number="part1verse1" color="#000000">
     <syllabic>end</syllabic>
     <text>selves</text>
    </lyric>
    <lyric default-y="-112" number="part1verse2" color="#000000">
     <syllabic>end</syllabic>
     <text>til</text>
    </lyric>
    <lyric default-y="-137" number="part1verse0" color="#000000">
     <syllabic>single</syllabic>
     <text>rise;</text>
    </lyric>
   </note>
   <note color="#000000" default-x="184" default-y="-20">
    <pitch>
     <step>C</step>
     <octave>5</octave>
    </pitch>
    <duration>128</duration>
    <instrument id="P1-I1" />
    <voice>1</voice>
    <type>eighth</type>
    <stem>down</stem>
    <staff>1</staff>
    <lyric default-y="-87" number="part1verse1" color="#000000">
     <syllabic>single</syllabic>
     <text>to</text>
     <extend />
    </lyric>
    <lyric default-y="-112" number="part1verse2" color="#000000">
     <syllabic>single</syllabic>
     <text>the</text>
     <extend />
    </lyric>
    <lyric default-y="-137" number="part1verse0" color="#000000">
     <syllabic>single</syllabic>
     <text>your</text>
     <extend />
    </lyric>
   </note>
   <note color="#000000" default-x="225" default-y="-20">
    <pitch>
     <step>D</step>
     <octave>5</octave>
    </pitch>
    <duration>128</duration>
    <instrument id="P1-I1" />
    <voice>1</voice>
    <type>eighth</type>
    <stem>down</stem>
    <staff>1</staff>
   </note>
  </measure>
  <!--============== Part: P1, Measure: 24 ==============-->
  <measure number="24" width="280">
   <print new-system="yes">
    <system-layout>
     <system-margins>
      <left-margin>0</left-margin>
      <right-margin>0</right-margin>
     </system-margins>
     <system-distance>143</system-distance>
    </system-layout>
   </print>
   <attributes>
    <staff-details number="1" print-object="yes" />
   </attributes>
   <note color="#000000" default-x="57" default-y="-40">
    <pitch>
     <step>E</step>
     <octave>5</octave>
    </pitch>
    <duration>256</duration>
    <instrument id="P1-I1" />
    <voice>1</voice>
    <type>quarter</type>
    <stem>down</stem>
    <staff>1</staff>
    <lyric default-y="-87" number="part1verse1" color="#000000">
     <syllabic>single</syllabic>
     <text>meet</text>
    </lyric>
    <lyric default-y="-112" number="part1verse2" color="#000000">
     <syllabic>single</syllabic>
     <text>halls</text>
    </lyric>
    <lyric default-y="-137" number="part1verse0" color="#000000">
     <syllabic>single</syllabic>
     <text>halls</text>
    </lyric>
   </note>
   <note color="#000000" default-x="111" default-y="-45">
    <pitch>
     <step>D</step>
     <octave>5</octave>
    </pitch>
    <duration>256</duration>
    <instrument id="P1-I1" />
    <voice>1</voice>
    <type>quarter</type>
    <stem>down</stem>
    <staff>1</staff>
    <lyric default-y="-87" number="part1verse1" color="#000000">
     <syllabic>single</syllabic>
     <text>the</text>
    </lyric>
    <lyric default-y="-112" number="part1verse2" color="#000000">
     <syllabic>single</syllabic>
     <text>we</text>
    </lyric>
    <lyric default-y="-137" number="part1verse0" color="#000000">
     <syllabic>begin</syllabic>
     <text>re</text>
    </lyric>
   </note>
   <note color="#000000" default-x="165" default-y="-50">
    <pitch>
     <step>C</step>
     <octave>5</octave>
    </pitch>
    <duration>256</duration>
    <instrument id="P1-I1" />
    <voice>1</voice>
    <type>quarter</type>
    <stem>down</stem>
    <staff>1</staff>
    <lyric default-y="-87" number="part1verse1" color="#000000">
     <syllabic>single</syllabic>
     <text>Lord,</text>
    </lyric>
    <lyric default-y="-112" number="part1verse2" color="#000000">
     <syllabic>single</syllabic>
     <text>view</text>
    </lyric>
    <lyric default-y="-137" number="part1verse0" color="#000000">
     <syllabic>end</syllabic>
     <text>sound;</text>
    </lyric>
   </note>
   <note color="#000000" default-x="226" default-y="5">
    <pitch>
     <step>G</step>
     <octave>4</octave>
    </pitch>
    <duration>256</duration>
    <instrument id="P1-I1" />
    <voice>1</voice>
    <type>quarter</type>
    <stem>up</stem>
    <staff>1</staff>
    <lyric default-y="-87" number="part1verse1" color="#000000">
     <syllabic>single</syllabic>
     <text>whose</text>
    </lyric>
    <lyric default-y="-112" number="part1verse2" color="#000000">
     <syllabic>single</syllabic>
     <text>where</text>
    </lyric>
    <lyric default-y="-137" number="part1verse0" color="#000000">
     <syllabic>begin</syllabic>
     <text>ho</text>
    </lyric>
   </note>
  </measure>
  <!--============== Part: P1, Measure: 25 ==============-->
  <measure number="25" width="231">
   <note color="#000000" default-x="15" default-y="-50">
    <pitch>
     <step>C</step>
     <octave>5</octave>
    </pitch>
    <duration>256</duration>
    <instrument id="P1-I1" />
    <voice>1</voice>
    <type>quarter</type>
    <stem>down</stem>
    <staff>1</staff>
    <lyric default-y="-87" number="part1verse1" color="#000000">
     <syllabic>single</syllabic>
     <text>light</text>
    </lyric>
    <lyric default-y="-112" number="part1verse2" color="#000000">
     <syllabic>single</syllabic>
     <text>you</text>
    </lyric>
    <lyric default-y="-137" number="part1verse0" color="#000000">
     <syllabic>middle</syllabic>
     <text>san</text>
    </lyric>
   </note>
   <note color="#000000" default-x="69" default-y="5">
    <pitch>
     <step>G</step>
     <octave>4</octave>
    </pitch>
    <duration>256</duration>
    <instrument id="P1-I1" />
    <voice>1</voice>
    <type>quarter</type>
    <stem>up</stem>
    <staff>1</staff>
    <lyric default-y="-87" number="part1verse1" color="#000000">
     <syllabic>single</syllabic>
     <text>has</text>
    </lyric>
    <lyric default-y="-112" number="part1verse2" color="#000000">
     <syllabic>single</syllabic>
     <text>have</text>
    </lyric>
    <lyric default-y="-137" number="part1verse0" color="#000000">
     <syllabic>end</syllabic>
     <text>nas</text>
    </lyric>
   </note>
   <note color="#000000" default-x="123" default-y="10">
    <pitch>
     <step>A</step>
     <octave>4</octave>
    </pitch>
    <duration>256</duration>
    <instrument id="P1-I1" />
    <voice>1</voice>
    <type>quarter</type>
    <stem>up</stem>
    <staff>1</staff>
    <lyric default-y="-87" number="part1verse1" color="#000000">
     <syllabic>single</syllabic>
     <text>stirred</text>
    </lyric>
    <lyric default-y="-112" number="part1verse2" color="#000000">
     <syllabic>single</syllabic>
     <text>bid</text>
    </lyric>
    <lyric default-y="-137" number="part1verse0" color="#000000">
     <syllabic>single</syllabic>
     <text>blend</text>
    </lyric>
   </note>
   <note color="#000000" default-x="177" default-y="-5">
    <pitch>
     <step>E</step>
     <octave>4</octave>
    </pitch>
    <duration>256</duration>
    <instrument id="P1-I1" />
    <voice>1</voice>
    <type>quarter</type>
    <stem>up</stem>
    <staff>1</staff>
    <lyric default-y="-87" number="part1verse1" color="#000000">
     <syllabic>single</syllabic>
     <text>the</text>
    </lyric>
    <lyric default-y="-112" number="part1verse2" color="#000000">
     <syllabic>single</syllabic>
     <text>us</text>
    </lyric>
    <lyric default-y="-137" number="part1verse0" color="#000000">
     <syllabic>single</syllabic>
     <text>in</text>
    </lyric>
   </note>
  </measure>
  <!--============== Part: P1, Measure: 26 ==============-->
  <measure number="26" width="218">
   <note color="#000000" default-x="15" default-y="-20">
    <pitch>
     <step>F</step>
     <octave>4</octave>
    </pitch>
    <duration>128</duration>
    <instrument id="P1-I1" />
    <voice>1</voice>
    <type>eighth</type>
    <stem>up</stem>
    <staff>1</staff>
    <lyric default-y="-87" number="part1verse1" color="#000000">
     <syllabic>begin</syllabic>
     <text>wait</text>
    </lyric>
    <lyric default-y="-112" number="part1verse2" color="#000000">
     <syllabic>single</syllabic>
     <text>dine</text>
     <extend />
    </lyric>
    <lyric default-y="-137" number="part1verse0" color="#000000">
     <syllabic>begin</syllabic>
     <text>cos</text>
    </lyric>
   </note>
   <note color="#000000" default-x="54" default-y="-20">
    <pitch>
     <step>E</step>
     <octave>4</octave>
    </pitch>
    <duration>128</duration>
    <instrument id="P1-I1" />
    <voice>1</voice>
    <type>eighth</type>
    <stem>up</stem>
    <staff>1</staff>
   </note>
   <note color="#000000" default-x="93" default-y="-10">
    <pitch>
     <step>D</step>
     <octave>4</octave>
    </pitch>
    <duration>256</duration>
    <instrument id="P1-I1" />
    <voice>1</voice>
    <type>quarter</type>
    <stem>up</stem>
    <staff>1</staff>
    <lyric default-y="-87" number="part1verse1" color="#000000">
     <syllabic>end</syllabic>
     <text>ing</text>
    </lyric>
    <lyric default-y="-112" number="part1verse2" color="#000000">
     <syllabic>single</syllabic>
     <text>with</text>
    </lyric>
    <lyric default-y="-137" number="part1verse0" color="#000000">
     <syllabic>end</syllabic>
     <text>mic</text>
    </lyric>
   </note>
   <note color="#000000" default-x="147" default-y="-15">
    <pitch>
     <step>C</step>
     <octave>4</octave>
    </pitch>
    <duration>512</duration>
    <instrument id="P1-I1" />
    <voice>1</voice>
    <type>half</type>
    <stem>up</stem>
    <staff>1</staff>
    <lyric default-y="-87" number="part1verse1" color="#000000">
     <syllabic>single</syllabic>
     <text>guard.</text>
    </lyric>
    <lyric default-y="-112" number="part1verse2" color="#000000">
     <syllabic>single</syllabic>
     <text>you.</text>
    </lyric>
    <lyric default-y="-137" number="part1verse0" color="#000000">
     <syllabic>single</syllabic>
     <text>sound.</text>
    </lyric>
   </note>
   <barline>
    <bar-style>light-heavy</bar-style>
   </barline>
  </measure>
 </part>
</score-partwise>
