<?xml version="1.0" encoding="UTF-8" standalone="no"?>
<!DOCTYPE score-partwise PUBLIC "-//Recordare//DTD MusicXML 2.0 Partwise//EN" "http://www.musicxml.org/dtds/partwise.dtd">
<score-partwise version="2.0">
	<identification>
		<creator type="poet">Sharon
       William Boyce (1710-1779)</creator>
		<encoding>
			<software>PDFtoMusic Pro v1.6.5 Build 1B9E7 (c) Myriad - http://www.myriad-online.com</software>
			<?PDFtoMusic Document type 0100- 00000000?>
			<supports attribute="new-system" element="print" type="yes" value="yes"/>
			<supports attribute="new-page" element="print" type="yes" value="yes"/>
		</encoding>
	</identification>
	<defaults>
		<scaling>
			<millimeters>5.757347</millimeters>
			<tenths>40</tenths>
		</scaling>
		<page-layout>
			<page-height>1941.172</page-height>
			<page-width>1499.997</page-width>
			<page-margins type="both">
				<left-margin>69.476</left-margin>
				<right-margin>69.476</right-margin>
				<top-margin>69.476</top-margin>
				 <bottom-margin>69.476</bottom-margin>
			</page-margins>
		</page-layout>
		<appearance>
			<line-width type="stem">0.2941</line-width>
			<line-width type="beam">5.0001</line-width>
			<line-width type="staff">0.8823</line-width>
			<line-width type="light barline">0.4493</line-width>
			<line-width type="heavy barline">6.3235</line-width>
			<line-width type="leger">0.8824</line-width>
			<note-size type="grace">85.7841</note-size>
		</appearance>
	</defaults>
	<credit page="1">
		<credit-words  default-x="392.058" default-y="1322.722" justify="left" valign="baseline" font-family="Times New Roman" font-size="24" font-weight="bold" font-style="normal">Sharon
</credit-words>
		<credit-words   justify="left" valign="baseline" font-family="Times New Roman" font-size="12" font-weight="normal" font-style="normal">       William Boyce (1710-1779)</credit-words>
	</credit>
	<credit page="1">
		<credit-words  default-x="421.470" default-y="92.846" justify="left" valign="baseline" font-family="Times New Roman" font-size="8" font-weight="normal" font-style="normal">(public domain)</credit-words>
	</credit>
	<part-list>
		<score-part id="P1">
			<part-name></part-name>
			<score-instrument id="P1-I1">
				<instrument-name>Instrument 1</instrument-name>
			</score-instrument>
			<midi-instrument id="P1-I1">
				<midi-channel>1</midi-channel>
				<midi-bank>1</midi-bank>
				<midi-program>1</midi-program>
				<volume>50</volume>
				<pan>0</pan>
				<elevation>0</elevation>
				<?Myriad
				<iddigit>0</iddigit>
				?>
			</midi-instrument>
		</score-part>
		<score-part id="P2">
			<part-name></part-name>
			<score-instrument id="P2-I1">
				<instrument-name>Instrument 2</instrument-name>
			</score-instrument>
			<midi-instrument id="P2-I1">
				<midi-channel>2</midi-channel>
				<midi-bank>1</midi-bank>
				<midi-program>1</midi-program>
				<volume>50</volume>
				<pan>0</pan>
				<elevation>0</elevation>
				<?Myriad
				<iddigit>0</iddigit>
				?>
			</midi-instrument>
		</score-part>
	</part-list>
	<part id="P1">
		<!--==========================[1,1]=============================-->
		<measure number="1" width="205">
			<print new-page="yes">
				<system-layout>
					<system-margins>
						<left-margin>18.612</left-margin>
						<right-margin>547.793</right-margin>
					</system-margins>
					<top-system-distance>663.218</top-system-distance>
				</system-layout>
			</print>
			<attributes>
				<divisions>6720</divisions>
				<key>
					<fifths>-3</fifths>
					<mode>major</mode>
				</key>
				<clef number="1">
					<sign>G</sign>
					<line>2</line>
				</clef>
				<staff-details number="1" print-object="yes">
					<staff-lines>5</staff-lines>
					<staff-size>100.00</staff-size>
				</staff-details>
			</attributes>
			<direction placement="above">
				<direction-type>
					<words font-family="Times New Roman" font-size="8" font-weight="bold" font-style="normal" relative-x="69.01" default-y="2.50"></words>
				</direction-type>
				<direction-type>
					<metronome font-family="Times New Roman" font-size="8" font-weight="bold" font-style="normal" relative-x="102.67" default-y="2.50">
						<beat-unit>quarter</beat-unit>
						<per-minute>105</per-minute>
					</metronome>
				</direction-type>
				<sound tempo="105.00"/>
			</direction>
			<note>
				<grace/>
				<pitch>
					<step>A</step>
					<alter>-1</alter>
					<octave>5</octave>
				</pitch>
				<voice>1</voice>
				<type>quarter</type>
				<stem default-y="28.49">up</stem>
			</note>
			<attributes>
				<time>
					<beats>4</beats>
					<beat-type>4</beat-type>
				</time>
			</attributes>
			<note>
				<pitch>
					<step>G</step>
					<octave>4</octave>
				</pitch>
				<duration>6720</duration>
				<voice>1</voice>
				<type>quarter</type>
				<stem default-y="4.71">up</stem>
			</note>
			<note>
				<chord/>
				<pitch>
					<step>B</step>
					<alter>-1</alter>
					<octave>3</octave>
				</pitch>
				<duration>6720</duration>
				<voice>1</voice>
				<type>quarter</type>
				<stem default-y="4.71">up</stem>
			</note>
			<note>
				<pitch>
					<step>E</step>
					<alter>-1</alter>
					<octave>4</octave>
				</pitch>
				<duration>6720</duration>
				<voice>1</voice>
				<type>quarter</type>
				<stem default-y="-5.29">up</stem>
			</note>
			<backup>
				<duration>6720</duration>
			</backup>
			<note>
				<pitch>
					<step>E</step>
					<alter>-1</alter>
					<octave>4</octave>
				</pitch>
				<duration>6720</duration>
				<voice>2</voice>
				<type>quarter</type>
				<stem default-y="-75.59">down</stem>
			</note>
			<note>
				<pitch>
					<step>B</step>
					<alter>-1</alter>
					<octave>4</octave>
				</pitch>
				<duration>6720</duration>
				<voice>1</voice>
				<type>quarter</type>
				<stem default-y="14.71">up</stem>
			</note>
			<note>
				<chord/>
				<pitch>
					<step>D</step>
					<octave>4</octave>
				</pitch>
				<duration>6720</duration>
				<voice>1</voice>
				<type>quarter</type>
				<stem default-y="14.71">up</stem>
			</note>
			<note>
				<pitch>
					<step>E</step>
					<alter>-1</alter>
					<octave>4</octave>
				</pitch>
				<duration>6720</duration>
				<voice>1</voice>
				<type>quarter</type>
				<stem default-y="-5.29">up</stem>
			</note>
			<backup>
				<duration>6720</duration>
			</backup>
			<note>
				<pitch>
					<step>E</step>
					<alter>-1</alter>
					<octave>4</octave>
				</pitch>
				<duration>6720</duration>
				<voice>2</voice>
				<type>quarter</type>
				<stem default-y="-75.59">down</stem>
			</note>
		</measure>
		<!--==========================[1,2]=============================-->
		<measure number="2" width="155">
			<note>
				<pitch>
					<step>F</step>
					<octave>4</octave>
				</pitch>
				<duration>3360</duration>
				<voice>1</voice>
				<type>eighth</type>
				<stem default-y="4.71">up</stem>
				<beam number="1">begin</beam>
				<notations>
					<slur type="start" number="1" placement="above" orientation="over"/>
				</notations>
			</note>
			<note>
				<pitch>
					<step>G</step>
					<octave>4</octave>
				</pitch>
				<duration>3360</duration>
				<voice>1</voice>
				<type>eighth</type>
				<stem default-y="10.00">up</stem>
				<beam number="1">end</beam>
				<notations>
					<slur type="stop" number="1"/>
				</notations>
			</note>
			<backup>
				<duration>6720</duration>
			</backup>
			<note>
				<pitch>
					<step>E</step>
					<alter>-1</alter>
					<octave>4</octave>
				</pitch>
				<duration>6720</duration>
				<voice>2</voice>
				<type>quarter</type>
				<stem default-y="-75.59">down</stem>
			</note>
			<note>
				<pitch>
					<step>A</step>
					<alter>-1</alter>
					<octave>4</octave>
				</pitch>
				<duration>6720</duration>
				<voice>1</voice>
				<type>quarter</type>
				<stem default-y="9.71">up</stem>
			</note>
			<note>
				<chord/>
				<pitch>
					<step>D</step>
					<octave>4</octave>
				</pitch>
				<duration>6720</duration>
				<voice>1</voice>
				<type>quarter</type>
				<stem default-y="9.71">up</stem>
			</note>
			<note>
				<pitch>
					<step>A</step>
					<alter>-1</alter>
					<octave>4</octave>
				</pitch>
				<duration>6720</duration>
				<voice>1</voice>
				<type>quarter</type>
				<stem default-y="9.71">up</stem>
			</note>
			<note>
				<chord/>
				<pitch>
					<step>D</step>
					<octave>4</octave>
				</pitch>
				<duration>6720</duration>
				<voice>1</voice>
				<type>quarter</type>
				<stem default-y="9.71">up</stem>
			</note>
			<note>
				<pitch>
					<step>G</step>
					<octave>4</octave>
				</pitch>
				<duration>6720</duration>
				<voice>1</voice>
				<type>quarter</type>
				<stem default-y="4.71">up</stem>
			</note>
			<note>
				<chord/>
				<pitch>
					<step>E</step>
					<alter>-1</alter>
					<octave>4</octave>
				</pitch>
				<duration>6720</duration>
				<voice>1</voice>
				<type>quarter</type>
				<stem default-y="4.71">up</stem>
			</note>
		</measure>
		<!--==========================[1,3]=============================-->
		<measure number="3" width="142">
			<note>
				<pitch>
					<step>C</step>
					<octave>5</octave>
				</pitch>
				<duration>6720</duration>
				<voice>1</voice>
				<type>quarter</type>
				<stem default-y="19.71">up</stem>
			</note>
			<note>
				<chord/>
				<pitch>
					<step>E</step>
					<alter>-1</alter>
					<octave>4</octave>
				</pitch>
				<duration>6720</duration>
				<voice>1</voice>
				<type>quarter</type>
				<stem default-y="19.71">up</stem>
			</note>
			<note>
				<pitch>
					<step>B</step>
					<alter>-1</alter>
					<octave>4</octave>
				</pitch>
				<duration>6720</duration>
				<voice>1</voice>
				<type>quarter</type>
				<stem default-y="14.71">up</stem>
			</note>
			<note>
				<chord/>
				<pitch>
					<step>E</step>
					<alter>-1</alter>
					<octave>4</octave>
				</pitch>
				<duration>6720</duration>
				<voice>1</voice>
				<type>quarter</type>
				<stem default-y="14.71">up</stem>
			</note>
			<note>
				<pitch>
					<step>D</step>
					<octave>5</octave>
				</pitch>
				<duration>6720</duration>
				<voice>1</voice>
				<type>quarter</type>
				<stem default-y="24.71">up</stem>
			</note>
			<backup>
				<duration>6720</duration>
			</backup>
			<note>
				<pitch>
					<step>B</step>
					<alter>-1</alter>
					<octave>4</octave>
				</pitch>
				<duration>3360</duration>
				<voice>2</voice>
				<type>eighth</type>
				<stem default-y="-60.59">down</stem>
				<beam number="1">begin</beam>
				<notations>
					<slur type="start" number="1" placement="below" orientation="under"/>
				</notations>
			</note>
			<note>
				<pitch>
					<step>A</step>
					<alter>-1</alter>
					<octave>4</octave>
				</pitch>
				<duration>3360</duration>
				<voice>2</voice>
				<type>eighth</type>
				<stem default-y="-65.59">down</stem>
				<beam number="1">end</beam>
				<notations>
					<slur type="stop" number="1"/>
				</notations>
			</note>
			<note>
				<pitch>
					<step>E</step>
					<alter>-1</alter>
					<octave>5</octave>
				</pitch>
				<duration>6720</duration>
				<voice>2</voice>
				<type>quarter</type>
				<stem default-y="-65.59">down</stem>
			</note>
			<note>
				<chord/>
				<pitch>
					<step>G</step>
					<octave>4</octave>
				</pitch>
				<duration>6720</duration>
				<voice>2</voice>
				<type>quarter</type>
				<stem default-y="-65.59">down</stem>
			</note>
		</measure>
		<!--==========================[1,4]=============================-->
		<measure number="4" width="118">
			<note>
				<pitch>
					<step>A</step>
					<alter>-1</alter>
					<octave>4</octave>
				</pitch>
				<duration>6720</duration>
				<voice>1</voice>
				<type>quarter</type>
				<stem default-y="9.71">up</stem>
			</note>
			<note>
				<chord/>
				<pitch>
					<step>F</step>
					<octave>4</octave>
				</pitch>
				<duration>6720</duration>
				<voice>1</voice>
				<type>quarter</type>
				<stem default-y="9.71">up</stem>
			</note>
			<note>
				<pitch>
					<step>G</step>
					<octave>4</octave>
				</pitch>
				<duration>6720</duration>
				<voice>1</voice>
				<type>quarter</type>
				<stem default-y="4.71">up</stem>
			</note>
			<note>
				<chord/>
				<pitch>
					<step>E</step>
					<alter>-1</alter>
					<octave>4</octave>
				</pitch>
				<duration>6720</duration>
				<voice>1</voice>
				<type>quarter</type>
				<stem default-y="4.71">up</stem>
			</note>
			<note>
				<pitch>
					<step>G</step>
					<octave>4</octave>
				</pitch>
				<duration>6720</duration>
				<voice>1</voice>
				<type>quarter</type>
				<stem default-y="4.71">up</stem>
			</note>
			<note>
				<chord/>
				<pitch>
					<step>E</step>
					<alter>-1</alter>
					<octave>4</octave>
				</pitch>
				<duration>6720</duration>
				<voice>1</voice>
				<type>quarter</type>
				<stem default-y="4.71">up</stem>
				<notations>
					<slur type="start" number="1" placement="below" orientation="under"/>
				</notations>
			</note>
			<note>
				<pitch>
					<step>F</step>
					<octave>4</octave>
				</pitch>
				<duration>6720</duration>
				<voice>1</voice>
				<type>quarter</type>
				<stem default-y="-0.29">up</stem>
			</note>
			<note>
				<chord/>
				<pitch>
					<step>D</step>
					<octave>4</octave>
				</pitch>
				<duration>6720</duration>
				<voice>1</voice>
				<type>quarter</type>
				<stem default-y="-0.29">up</stem>
				<notations>
					<slur type="stop" number="1"/>
				</notations>
			</note>
			<barline location="right">
				<bar-style>heavy</bar-style>
			</barline>
		</measure>
		<!--==========================[1,5]=============================-->
		<measure number="5" width="171">
			<barline location="left">
				<bar-style>heavy</bar-style>
			</barline>
			<note>
				<pitch>
					<step>A</step>
					<alter>-1</alter>
					<octave>4</octave>
				</pitch>
				<duration>3360</duration>
				<voice>1</voice>
				<type>eighth</type>
				<stem default-y="14.71">up</stem>
				<beam number="1">begin</beam>
				<notations>
					<slur type="start" number="1" placement="above" orientation="over"/>
				</notations>
			</note>
			<note>
				<pitch>
					<step>G</step>
					<octave>4</octave>
				</pitch>
				<duration>3360</duration>
				<voice>1</voice>
				<type>eighth</type>
				<stem default-y="9.71">up</stem>
				<beam number="1">end</beam>
				<notations>
					<slur type="stop" number="1"/>
				</notations>
			</note>
			<backup>
				<duration>6720</duration>
			</backup>
			<note>
				<pitch>
					<step>B</step>
					<alter>-1</alter>
					<octave>3</octave>
				</pitch>
				<duration>6720</duration>
				<voice>2</voice>
				<type>quarter</type>
				<stem default-y="-90.59">down</stem>
			</note>
			<note>
				<pitch>
					<step>F</step>
					<octave>4</octave>
				</pitch>
				<duration>3360</duration>
				<voice>1</voice>
				<type>eighth</type>
				<stem default-y="4.71">up</stem>
				<beam number="1">begin</beam>
				<notations>
					<slur type="start" number="1" placement="above" orientation="over"/>
				</notations>
			</note>
			<note>
				<pitch>
					<step>E</step>
					<alter>-1</alter>
					<octave>4</octave>
				</pitch>
				<duration>3360</duration>
				<voice>1</voice>
				<type>eighth</type>
				<stem default-y="-0.29">up</stem>
				<beam number="1">end</beam>
				<notations>
					<slur type="stop" number="1"/>
				</notations>
			</note>
			<backup>
				<duration>6720</duration>
			</backup>
			<note>
				<pitch>
					<step>B</step>
					<alter>-1</alter>
					<octave>3</octave>
				</pitch>
				<duration>6720</duration>
				<voice>2</voice>
				<type>quarter</type>
				<stem default-y="-90.59">down</stem>
			</note>
			<note>
				<pitch>
					<step>B</step>
					<alter>-1</alter>
					<octave>4</octave>
				</pitch>
				<duration>6720</duration>
				<voice>1</voice>
				<type>quarter</type>
				<stem default-y="14.71">up</stem>
			</note>
			<note>
				<chord/>
				<pitch>
					<step>B</step>
					<alter>-1</alter>
					<octave>3</octave>
				</pitch>
				<duration>6720</duration>
				<voice>1</voice>
				<type>quarter</type>
				<stem default-y="14.71">up</stem>
			</note>
			<note>
				<pitch>
					<step>D</step>
					<octave>5</octave>
				</pitch>
				<duration>6720</duration>
				<voice>1</voice>
				<type>quarter</type>
				<stem default-y="24.71">up</stem>
			</note>
			<note>
				<chord/>
				<pitch>
					<step>F</step>
					<octave>4</octave>
				</pitch>
				<duration>6720</duration>
				<voice>1</voice>
				<type>quarter</type>
				<stem default-y="24.71">up</stem>
			</note>
		</measure>
		<!--==========================[1,6]=============================-->
		<measure number="6" width="254">
			<print new-system="yes">
				<system-layout>
					<system-margins>
						<left-margin>18.612</left-margin>
						<right-margin>772.057</right-margin>
					</system-margins>
					<system-distance>81.470</system-distance>
				</system-layout>
			</print>
			<attributes>
				<staff-details number="1" print-object="yes">
				</staff-details>
			</attributes>
			<note>
				<pitch>
					<step>C</step>
					<octave>5</octave>
				</pitch>
				<duration>3360</duration>
				<voice>1</voice>
				<type>eighth</type>
				<stem default-y="24.71">up</stem>
				<beam number="1">begin</beam>
				<notations>
					<slur type="start" number="1" placement="above" orientation="over"/>
				</notations>
			</note>
			<note>
				<pitch>
					<step>D</step>
					<octave>5</octave>
				</pitch>
				<duration>3360</duration>
				<voice>1</voice>
				<type>eighth</type>
				<stem default-y="29.71">up</stem>
				<beam number="1">end</beam>
				<notations>
					<slur type="stop" number="1"/>
				</notations>
			</note>
			<backup>
				<duration>6720</duration>
			</backup>
			<note>
				<pitch>
					<step>G</step>
					<octave>4</octave>
				</pitch>
				<duration>6720</duration>
				<voice>2</voice>
				<type>quarter</type>
				<stem default-y="-65.59">down</stem>
			</note>
			<note>
				<pitch>
					<step>E</step>
					<alter>-1</alter>
					<octave>5</octave>
				</pitch>
				<duration>6720</duration>
				<voice>2</voice>
				<type>quarter</type>
				<stem default-y="-70.59">down</stem>
			</note>
			<note>
				<chord/>
				<pitch>
					<step>F</step>
					<octave>4</octave>
				</pitch>
				<duration>6720</duration>
				<voice>2</voice>
				<type>quarter</type>
				<stem default-y="-70.59">down</stem>
			</note>
			<note>
				<pitch>
					<step>E</step>
					<alter>-1</alter>
					<octave>5</octave>
				</pitch>
				<duration>6720</duration>
				<voice>2</voice>
				<type>quarter</type>
				<stem default-y="-70.59">down</stem>
			</note>
			<note>
				<chord/>
				<pitch>
					<step>F</step>
					<octave>4</octave>
				</pitch>
				<duration>6720</duration>
				<voice>2</voice>
				<type>quarter</type>
				<stem default-y="-70.59">down</stem>
			</note>
			<note>
				<pitch>
					<step>D</step>
					<octave>5</octave>
				</pitch>
				<duration>6720</duration>
				<voice>1</voice>
				<type>quarter</type>
				<stem default-y="24.71">up</stem>
			</note>
			<note>
				<chord/>
				<pitch>
					<step>F</step>
					<octave>4</octave>
				</pitch>
				<duration>6720</duration>
				<voice>1</voice>
				<type>quarter</type>
				<stem default-y="24.71">up</stem>
			</note>
		</measure>
		<!--==========================[1,7]=============================-->
		<measure number="7" width="139">
			<note>
				<pitch>
					<step>E</step>
					<alter>-1</alter>
					<octave>5</octave>
				</pitch>
				<duration>6720</duration>
				<voice>1</voice>
				<type>quarter</type>
				<stem default-y="29.71">up</stem>
			</note>
			<note>
				<chord/>
				<pitch>
					<step>E</step>
					<alter>-1</alter>
					<octave>4</octave>
				</pitch>
				<duration>6720</duration>
				<voice>1</voice>
				<type>quarter</type>
				<stem default-y="29.71">up</stem>
			</note>
			<note>
				<pitch>
					<step>C</step>
					<octave>5</octave>
				</pitch>
				<duration>6720</duration>
				<voice>1</voice>
				<type>quarter</type>
				<stem default-y="19.71">up</stem>
			</note>
			<note>
				<chord/>
				<pitch>
					<step>E</step>
					<alter>-1</alter>
					<octave>4</octave>
				</pitch>
				<duration>6720</duration>
				<voice>1</voice>
				<type>quarter</type>
				<stem default-y="19.71">up</stem>
			</note>
			<note>
				<pitch>
					<step>A</step>
					<alter>-1</alter>
					<octave>4</octave>
				</pitch>
				<duration>6720</duration>
				<voice>1</voice>
				<type>quarter</type>
				<stem default-y="9.71">up</stem>
			</note>
			<backup>
				<duration>6720</duration>
			</backup>
			<note>
				<pitch>
					<step>E</step>
					<alter>-1</alter>
					<octave>4</octave>
				</pitch>
				<duration>3360</duration>
				<voice>2</voice>
				<type>eighth</type>
				<stem default-y="-80.59">down</stem>
				<beam number="1">begin</beam>
				<notations>
					<slur type="start" number="1" placement="below" orientation="under"/>
				</notations>
			</note>
			<note>
				<pitch>
					<step>D</step>
					<octave>4</octave>
				</pitch>
				<duration>3360</duration>
				<voice>2</voice>
				<type>eighth</type>
				<stem default-y="-85.29">down</stem>
				<beam number="1">end</beam>
				<notations>
					<slur type="stop" number="1"/>
				</notations>
			</note>
			<note>
				<pitch>
					<step>G</step>
					<octave>4</octave>
				</pitch>
				<duration>6720</duration>
				<voice>1</voice>
				<type>quarter</type>
				<stem default-y="4.71">up</stem>
			</note>
			<note>
				<chord/>
				<pitch>
					<step>E</step>
					<alter>-1</alter>
					<octave>4</octave>
				</pitch>
				<duration>6720</duration>
				<voice>1</voice>
				<type>quarter</type>
				<stem default-y="4.71">up</stem>
			</note>
		</measure>
		<!--==========================[1,8]=============================-->
		<measure number="8" width="175">
			<note>
				<pitch>
					<step>A</step>
					<alter>-1</alter>
					<octave>4</octave>
				</pitch>
				<duration>3360</duration>
				<voice>1</voice>
				<type>eighth</type>
				<stem default-y="14.71">up</stem>
				<beam number="1">begin</beam>
				<notations>
					<slur type="start" number="1" placement="above" orientation="over"/>
				</notations>
			</note>
			<note>
				<pitch>
					<step>G</step>
					<octave>4</octave>
				</pitch>
				<duration>3360</duration>
				<voice>1</voice>
				<type>eighth</type>
				<stem default-y="10.00">up</stem>
				<beam number="1">end</beam>
				<notations>
					<slur type="stop" number="1"/>
				</notations>
			</note>
			<backup>
				<duration>6720</duration>
			</backup>
			<note>
				<pitch>
					<step>E</step>
					<alter>-1</alter>
					<octave>4</octave>
				</pitch>
				<duration>6720</duration>
				<voice>2</voice>
				<type>quarter</type>
				<stem default-y="-75.59">down</stem>
			</note>
			<note>
				<pitch>
					<step>F</step>
					<octave>4</octave>
				</pitch>
				<duration>6720</duration>
				<voice>1</voice>
				<type>quarter</type>
				<stem default-y="-0.29">up</stem>
			</note>
			<backup>
				<duration>6720</duration>
			</backup>
			<note>
				<pitch>
					<step>E</step>
					<alter>-1</alter>
					<octave>4</octave>
				</pitch>
				<duration>3360</duration>
				<voice>2</voice>
				<type>eighth</type>
				<stem default-y="-80.59">down</stem>
				<beam number="1">begin</beam>
				<notations>
					<slur type="start" number="1" placement="below" orientation="under"/>
				</notations>
			</note>
			<note>
				<pitch>
					<step>D</step>
					<octave>4</octave>
				</pitch>
				<duration>3360</duration>
				<voice>2</voice>
				<type>eighth</type>
				<stem default-y="-85.29">down</stem>
				<beam number="1">end</beam>
				<notations>
					<slur type="stop" number="1"/>
				</notations>
			</note>
			<note>
				<pitch>
					<step>E</step>
					<alter>-1</alter>
					<octave>4</octave>
				</pitch>
				<duration>13440</duration>
				<voice>1</voice>
				<type>half</type>
				<stem default-y="-5.29">up</stem>
				<notations>
					<fermata type="upright" relative-x="0.29" relative-y="16.59"/>
				</notations>
			</note>
			<note>
				<chord/>
				<pitch>
					<step>B</step>
					<alter>-1</alter>
					<octave>3</octave>
				</pitch>
				<duration>13440</duration>
				<voice>1</voice>
				<type>half</type>
				<stem default-y="-5.29">up</stem>
			</note>
			<barline location="right">
				<bar-style>light-heavy</bar-style>
			</barline>
		</measure>
	</part>
	<part id="P2">
		<!--==========================[2,1]=============================-->
		<measure number="1" width="205">
			<print new-page="yes">
				<staff-layout number="1">
					<staff-distance>120.000</staff-distance>
				</staff-layout>
			</print>
			<attributes>
				<divisions>6720</divisions>
				<key>
					<fifths>-3</fifths>
					<mode>major</mode>
				</key>
				<time>
					<beats>4</beats>
					<beat-type>4</beat-type>
				</time>
				<clef number="1">
					<sign>F</sign>
					<line>4</line>
				</clef>
				<staff-details number="1" print-object="yes">
					<staff-lines>5</staff-lines>
					<staff-size>100.00</staff-size>
				</staff-details>
			</attributes>
			<note>
				<pitch>
					<step>B</step>
					<alter>-1</alter>
					<octave>3</octave>
				</pitch>
				<duration>6720</duration>
				<voice>1</voice>
				<type>quarter</type>
				<stem default-y="-50.59">down</stem>
			</note>
			<note>
				<chord/>
				<pitch>
					<step>E</step>
					<alter>-1</alter>
					<octave>3</octave>
				</pitch>
				<duration>6720</duration>
				<voice>1</voice>
				<type>quarter</type>
				<stem default-y="-50.59">down</stem>
			</note>
			<note>
				<pitch>
					<step>G</step>
					<octave>3</octave>
				</pitch>
				<duration>6720</duration>
				<voice>1</voice>
				<type>quarter</type>
				<stem default-y="-50.59">down</stem>
			</note>
			<note>
				<chord/>
				<pitch>
					<step>E</step>
					<alter>-1</alter>
					<octave>3</octave>
				</pitch>
				<duration>6720</duration>
				<voice>1</voice>
				<type>quarter</type>
				<stem default-y="-50.59">down</stem>
			</note>
			<note>
				<pitch>
					<step>F</step>
					<octave>3</octave>
				</pitch>
				<duration>6720</duration>
				<voice>1</voice>
				<type>quarter</type>
				<stem default-y="-65.59">down</stem>
			</note>
			<note>
				<chord/>
				<pitch>
					<step>B</step>
					<alter>-1</alter>
					<octave>2</octave>
				</pitch>
				<duration>6720</duration>
				<voice>1</voice>
				<type>quarter</type>
				<stem default-y="-65.59">down</stem>
			</note>
			<note>
				<pitch>
					<step>E</step>
					<alter>-1</alter>
					<octave>3</octave>
				</pitch>
				<duration>6720</duration>
				<voice>1</voice>
				<type>quarter</type>
				<stem default-y="-60.59">down</stem>
			</note>
			<note>
				<chord/>
				<pitch>
					<step>C</step>
					<octave>3</octave>
				</pitch>
				<duration>6720</duration>
				<voice>1</voice>
				<type>quarter</type>
				<stem default-y="-60.59">down</stem>
			</note>
		</measure>
		<!--==========================[2,2]=============================-->
		<measure number="2" width="155">
			<note>
				<pitch>
					<step>C</step>
					<octave>4</octave>
				</pitch>
				<duration>6720</duration>
				<voice>1</voice>
				<type>quarter</type>
				<stem default-y="-70.59">down</stem>
			</note>
			<note>
				<chord/>
				<pitch>
					<step>A</step>
					<alter>-1</alter>
					<octave>2</octave>
				</pitch>
				<duration>6720</duration>
				<voice>1</voice>
				<type>quarter</type>
				<stem default-y="-80.95">down</stem>
			</note>
			<note>
				<pitch>
					<step>B</step>
					<alter>-1</alter>
					<octave>3</octave>
				</pitch>
				<duration>6720</duration>
				<voice>1</voice>
				<type>quarter</type>
				<stem default-y="-65.59">down</stem>
			</note>
			<note>
				<chord/>
				<pitch>
					<step>B</step>
					<alter>-1</alter>
					<octave>2</octave>
				</pitch>
				<duration>6720</duration>
				<voice>1</voice>
				<type>quarter</type>
				<stem default-y="-65.95">down</stem>
			</note>
			<note>
				<pitch>
					<step>B</step>
					<alter>-1</alter>
					<octave>3</octave>
				</pitch>
				<duration>6720</duration>
				<voice>1</voice>
				<type>quarter</type>
				<stem default-y="-50.59">down</stem>
			</note>
			<note>
				<chord/>
				<pitch>
					<step>E</step>
					<alter>-1</alter>
					<octave>3</octave>
				</pitch>
				<duration>6720</duration>
				<voice>1</voice>
				<type>quarter</type>
				<stem default-y="-50.59">down</stem>
			</note>
			<note>
				<pitch>
					<step>B</step>
					<alter>-1</alter>
					<octave>3</octave>
				</pitch>
				<duration>6720</duration>
				<voice>1</voice>
				<type>quarter</type>
				<stem default-y="-50.59">down</stem>
			</note>
			<note>
				<chord/>
				<pitch>
					<step>E</step>
					<alter>-1</alter>
					<octave>3</octave>
				</pitch>
				<duration>6720</duration>
				<voice>1</voice>
				<type>quarter</type>
				<stem default-y="-50.59">down</stem>
			</note>
		</measure>
		<!--==========================[2,3]=============================-->
		<measure number="3" width="142">
			<note>
				<pitch>
					<step>A</step>
					<alter>-1</alter>
					<octave>3</octave>
				</pitch>
				<duration>6720</duration>
				<voice>1</voice>
				<type>quarter</type>
				<stem default-y="34.71">up</stem>
			</note>
			<backup>
				<duration>6720</duration>
			</backup>
			<note>
				<pitch>
					<step>A</step>
					<alter>-1</alter>
					<octave>3</octave>
				</pitch>
				<duration>6720</duration>
				<voice>2</voice>
				<type>quarter</type>
				<stem default-y="-35.59">down</stem>
			</note>
			<note>
				<pitch>
					<step>B</step>
					<alter>-1</alter>
					<octave>3</octave>
				</pitch>
				<duration>6720</duration>
				<voice>2</voice>
				<type>quarter</type>
				<stem default-y="-40.59">down</stem>
			</note>
			<note>
				<chord/>
				<pitch>
					<step>G</step>
					<octave>3</octave>
				</pitch>
				<duration>6720</duration>
				<voice>2</voice>
				<type>quarter</type>
				<stem default-y="-40.59">down</stem>
			</note>
			<note>
				<pitch>
					<step>B</step>
					<alter>-1</alter>
					<octave>3</octave>
				</pitch>
				<duration>6720</duration>
				<voice>2</voice>
				<type>quarter</type>
				<stem default-y="-45.59">down</stem>
			</note>
			<note>
				<chord/>
				<pitch>
					<step>F</step>
					<octave>3</octave>
				</pitch>
				<duration>6720</duration>
				<voice>2</voice>
				<type>quarter</type>
				<stem default-y="-45.59">down</stem>
			</note>
			<note>
				<pitch>
					<step>B</step>
					<alter>-1</alter>
					<octave>3</octave>
				</pitch>
				<duration>6720</duration>
				<voice>2</voice>
				<type>quarter</type>
				<stem default-y="-50.59">down</stem>
			</note>
			<note>
				<chord/>
				<pitch>
					<step>E</step>
					<alter>-1</alter>
					<octave>3</octave>
				</pitch>
				<duration>6720</duration>
				<voice>2</voice>
				<type>quarter</type>
				<stem default-y="-50.59">down</stem>
			</note>
		</measure>
		<!--==========================[2,4]=============================-->
		<measure number="4" width="118">
			<note>
				<pitch>
					<step>B</step>
					<alter>-1</alter>
					<octave>3</octave>
				</pitch>
				<duration>6720</duration>
				<voice>1</voice>
				<type>quarter</type>
				<stem default-y="-55.59">down</stem>
			</note>
			<note>
				<chord/>
				<pitch>
					<step>D</step>
					<octave>3</octave>
				</pitch>
				<duration>6720</duration>
				<voice>1</voice>
				<type>quarter</type>
				<stem default-y="-55.59">down</stem>
			</note>
			<note>
				<pitch>
					<step>B</step>
					<alter>-1</alter>
					<octave>3</octave>
				</pitch>
				<duration>6720</duration>
				<voice>1</voice>
				<type>quarter</type>
				<stem default-y="-50.59">down</stem>
			</note>
			<note>
				<chord/>
				<pitch>
					<step>E</step>
					<alter>-1</alter>
					<octave>3</octave>
				</pitch>
				<duration>6720</duration>
				<voice>1</voice>
				<type>quarter</type>
				<stem default-y="-50.59">down</stem>
			</note>
			<note>
				<pitch>
					<step>B</step>
					<alter>-1</alter>
					<octave>3</octave>
				</pitch>
				<duration>13440</duration>
				<voice>1</voice>
				<type>half</type>
				<stem default-y="-65.59">down</stem>
			</note>
			<note>
				<chord/>
				<pitch>
					<step>B</step>
					<alter>-1</alter>
					<octave>2</octave>
				</pitch>
				<duration>13440</duration>
				<voice>1</voice>
				<type>half</type>
				<stem default-y="-66.05">down</stem>
			</note>
		</measure>
		<!--==========================[2,5]=============================-->
		<measure number="5" width="171">
			<note>
				<pitch>
					<step>B</step>
					<alter>-1</alter>
					<octave>3</octave>
				</pitch>
				<duration>6720</duration>
				<voice>2</voice>
				<type>quarter</type>
				<stem default-y="-50.59">down</stem>
			</note>
			<note>
				<chord/>
				<pitch>
					<step>E</step>
					<alter>-1</alter>
					<octave>3</octave>
				</pitch>
				<duration>6720</duration>
				<voice>2</voice>
				<type>quarter</type>
				<stem default-y="-50.59">down</stem>
			</note>
			<note>
				<pitch>
					<step>A</step>
					<alter>-1</alter>
					<octave>3</octave>
				</pitch>
				<duration>3360</duration>
				<voice>1</voice>
				<type>eighth</type>
				<stem default-y="39.71">up</stem>
				<beam number="1">begin</beam>
				<notations>
					<slur type="start" number="1" placement="above" orientation="over"/>
				</notations>
			</note>
			<note>
				<pitch>
					<step>G</step>
					<octave>3</octave>
				</pitch>
				<duration>3360</duration>
				<voice>1</voice>
				<type>eighth</type>
				<stem default-y="34.71">up</stem>
				<beam number="1">end</beam>
				<notations>
					<slur type="stop" number="1"/>
				</notations>
			</note>
			<backup>
				<duration>6720</duration>
			</backup>
			<note>
				<pitch>
					<step>E</step>
					<alter>-1</alter>
					<octave>3</octave>
				</pitch>
				<duration>6720</duration>
				<voice>2</voice>
				<type>quarter</type>
				<stem default-y="-50.59">down</stem>
			</note>
			<note>
				<pitch>
					<step>G</step>
					<octave>3</octave>
				</pitch>
				<duration>6720</duration>
				<voice>2</voice>
				<type>quarter</type>
				<stem default-y="-55.59">down</stem>
			</note>
			<note>
				<chord/>
				<pitch>
					<step>D</step>
					<octave>3</octave>
				</pitch>
				<duration>6720</duration>
				<voice>2</voice>
				<type>quarter</type>
				<stem default-y="-55.59">down</stem>
			</note>
			<note>
				<pitch>
					<step>B</step>
					<alter>-1</alter>
					<octave>3</octave>
				</pitch>
				<duration>6720</duration>
				<voice>2</voice>
				<type>quarter</type>
				<stem default-y="-65.59">down</stem>
			</note>
			<note>
				<chord/>
				<pitch>
					<step>B</step>
					<alter>-1</alter>
					<octave>2</octave>
				</pitch>
				<duration>6720</duration>
				<voice>2</voice>
				<type>quarter</type>
				<stem default-y="-65.95">down</stem>
			</note>
		</measure>
		<!--==========================[2,6]=============================-->
		<measure number="6" width="254">
			<print new-system="yes">
				<staff-layout number="1">
					<staff-distance>120.000</staff-distance>
				</staff-layout>
			</print>
			<attributes>
				<staff-details number="1" print-object="yes">
				</staff-details>
			</attributes>
			<note>
				<pitch>
					<step>B</step>
					<alter>-1</alter>
					<octave>3</octave>
				</pitch>
				<duration>6720</duration>
				<voice>2</voice>
				<type>quarter</type>
				<stem default-y="-50.59">down</stem>
			</note>
			<note>
				<chord/>
				<pitch>
					<step>E</step>
					<alter>-1</alter>
					<octave>3</octave>
				</pitch>
				<duration>6720</duration>
				<voice>2</voice>
				<type>quarter</type>
				<stem default-y="-50.59">down</stem>
			</note>
			<note>
				<pitch>
					<step>A</step>
					<octave>3</octave>
				</pitch>
				<duration>6720</duration>
				<voice>2</voice>
				<type>quarter</type>
				<accidental>natural</accidental>
				<stem default-y="-45.59">down</stem>
			</note>
			<note>
				<chord/>
				<pitch>
					<step>F</step>
					<octave>3</octave>
				</pitch>
				<duration>6720</duration>
				<voice>2</voice>
				<type>quarter</type>
				<stem default-y="-45.59">down</stem>
			</note>
			<note>
				<pitch>
					<step>B</step>
					<alter>-1</alter>
					<octave>3</octave>
				</pitch>
				<duration>6720</duration>
				<voice>1</voice>
				<type>quarter</type>
				<stem default-y="39.71">up</stem>
			</note>
			<backup>
				<duration>6720</duration>
			</backup>
			<note>
				<pitch>
					<step>B</step>
					<alter>-1</alter>
					<octave>3</octave>
				</pitch>
				<duration>6720</duration>
				<voice>2</voice>
				<type>quarter</type>
				<stem default-y="-30.59">down</stem>
			</note>
			<note>
				<pitch>
					<step>B</step>
					<alter>-1</alter>
					<octave>3</octave>
				</pitch>
				<duration>6720</duration>
				<voice>1</voice>
				<type>quarter</type>
				<stem default-y="39.71">up</stem>
			</note>
			<backup>
				<duration>6720</duration>
			</backup>
			<note>
				<pitch>
					<step>B</step>
					<alter>-1</alter>
					<octave>3</octave>
				</pitch>
				<duration>3360</duration>
				<voice>2</voice>
				<type>eighth</type>
				<stem default-y="-35.59">down</stem>
				<beam number="1">begin</beam>
				<notations>
					<slur type="start" number="1" placement="below" orientation="under"/>
				</notations>
			</note>
			<note>
				<pitch>
					<step>A</step>
					<alter>-1</alter>
					<octave>3</octave>
				</pitch>
				<duration>3360</duration>
				<voice>2</voice>
				<type>eighth</type>
				<accidental>flat</accidental>
				<stem default-y="-40.29">down</stem>
				<beam number="1">end</beam>
				<notations>
					<slur type="stop" number="1"/>
				</notations>
			</note>
		</measure>
		<!--==========================[2,7]=============================-->
		<measure number="7" width="139">
			<note>
				<pitch>
					<step>B</step>
					<alter>-1</alter>
					<octave>3</octave>
				</pitch>
				<duration>6720</duration>
				<voice>2</voice>
				<type>quarter</type>
				<stem default-y="-40.59">down</stem>
			</note>
			<note>
				<chord/>
				<pitch>
					<step>G</step>
					<octave>3</octave>
				</pitch>
				<duration>6720</duration>
				<voice>2</voice>
				<type>quarter</type>
				<stem default-y="-40.59">down</stem>
			</note>
			<note>
				<pitch>
					<step>A</step>
					<alter>-1</alter>
					<octave>3</octave>
				</pitch>
				<duration>6720</duration>
				<voice>1</voice>
				<type>quarter</type>
				<stem default-y="34.71">up</stem>
			</note>
			<backup>
				<duration>6720</duration>
			</backup>
			<note>
				<pitch>
					<step>A</step>
					<alter>-1</alter>
					<octave>3</octave>
				</pitch>
				<duration>6720</duration>
				<voice>2</voice>
				<type>quarter</type>
				<stem default-y="-35.59">down</stem>
			</note>
			<note>
				<pitch>
					<step>B</step>
					<alter>-1</alter>
					<octave>3</octave>
				</pitch>
				<duration>6720</duration>
				<voice>2</voice>
				<type>quarter</type>
				<stem default-y="-45.59">down</stem>
			</note>
			<note>
				<chord/>
				<pitch>
					<step>F</step>
					<octave>3</octave>
				</pitch>
				<duration>6720</duration>
				<voice>2</voice>
				<type>quarter</type>
				<stem default-y="-45.59">down</stem>
			</note>
			<note>
				<pitch>
					<step>B</step>
					<alter>-1</alter>
					<octave>3</octave>
				</pitch>
				<duration>6720</duration>
				<voice>2</voice>
				<type>quarter</type>
				<stem default-y="-50.59">down</stem>
			</note>
			<note>
				<chord/>
				<pitch>
					<step>E</step>
					<alter>-1</alter>
					<octave>3</octave>
				</pitch>
				<duration>6720</duration>
				<voice>2</voice>
				<type>quarter</type>
				<stem default-y="-50.59">down</stem>
			</note>
		</measure>
		<!--==========================[2,8]=============================-->
		<measure number="8" width="175">
			<note>
				<pitch>
					<step>C</step>
					<octave>4</octave>
				</pitch>
				<duration>3360</duration>
				<voice>1</voice>
				<type>eighth</type>
				<stem default-y="49.71">up</stem>
				<beam number="1">begin</beam>
				<notations>
					<slur type="start" number="1" placement="above" orientation="over"/>
				</notations>
			</note>
			<note>
				<pitch>
					<step>B</step>
					<alter>-1</alter>
					<octave>3</octave>
				</pitch>
				<duration>3360</duration>
				<voice>1</voice>
				<type>eighth</type>
				<stem default-y="45.00">up</stem>
				<beam number="1">end</beam>
				<notations>
					<slur type="stop" number="1"/>
				</notations>
			</note>
			<backup>
				<duration>6720</duration>
			</backup>
			<note>
				<pitch>
					<step>A</step>
					<alter>-1</alter>
					<octave>2</octave>
				</pitch>
				<duration>6720</duration>
				<voice>2</voice>
				<type>quarter</type>
				<stem default-y="-70.59">down</stem>
			</note>
			<note>
				<pitch>
					<step>A</step>
					<alter>-1</alter>
					<octave>3</octave>
				</pitch>
				<duration>6720</duration>
				<voice>2</voice>
				<type>quarter</type>
				<stem default-y="-65.59">down</stem>
			</note>
			<note>
				<chord/>
				<pitch>
					<step>B</step>
					<alter>-1</alter>
					<octave>2</octave>
				</pitch>
				<duration>6720</duration>
				<voice>2</voice>
				<type>quarter</type>
				<stem default-y="-65.59">down</stem>
			</note>
			<note>
				<pitch>
					<step>A</step>
					<alter>-1</alter>
					<octave>3</octave>
				</pitch>
				<duration>6720</duration>
				<voice>1</voice>
				<type>quarter</type>
				<stem default-y="34.71">up</stem>
				<notations>
					<slur type="start" number="1" placement="above" orientation="over"/>
				</notations>
			</note>
			<backup>
				<duration>6720</duration>
			</backup>
			<note>
				<pitch>
					<step>E</step>
					<alter>-1</alter>
					<octave>3</octave>
				</pitch>
				<duration>13440</duration>
				<voice>2</voice>
				<type>half</type>
				<stem default-y="-50.59">down</stem>
			</note>
			<backup>
				<duration>6720</duration>
			</backup>
			<note>
				<pitch>
					<step>G</step>
					<octave>3</octave>
				</pitch>
				<duration>6720</duration>
				<voice>1</voice>
				<type>quarter</type>
				<stem default-y="29.71">up</stem>
				<notations>
					<slur type="stop" number="1"/>
					<fermata type="upright" relative-x="0.33" relative-y="21.59"/>
				</notations>
			</note>
		</measure>
	</part>
</score-partwise>
